<svg width="49" height="49" viewBox="0 0 49 49" fill="none" xmlns="http://www.w3.org/2000/svg">
<g clip-path="url(#clip0_38_8)">
<path d="M45.3828 0H3.61715C2.65782 0 1.73779 0.381092 1.05944 1.05944C0.381092 1.73779 0 2.65782 0 3.61715V45.3828C0 46.3422 0.381092 47.2622 1.05944 47.9406C1.73779 48.6189 2.65782 49 3.61715 49H45.3828C46.3422 49 47.2622 48.6189 47.9406 47.9406C48.6189 47.2622 49 46.3422 49 45.3828V3.61715C49 2.65782 48.6189 1.73779 47.9406 1.05944C47.2622 0.381092 46.3422 0 45.3828 0ZM14.6047 41.7419H7.23771V18.341H14.6047V41.7419ZM10.9161 15.0981C10.0805 15.0934 9.26491 14.8413 8.57242 14.3735C7.87992 13.9058 7.34151 13.2433 7.02513 12.4699C6.70874 11.6964 6.62857 10.8465 6.79473 10.0276C6.96089 9.20856 7.36593 8.45715 7.95873 7.86814C8.55154 7.27913 9.30554 6.87892 10.1256 6.71802C10.9456 6.55713 11.7949 6.64275 12.5664 6.9641C13.3378 7.28544 13.9967 7.82809 14.46 8.52358C14.9233 9.21906 15.1702 10.0362 15.1696 10.8719C15.1775 11.4314 15.0726 11.9867 14.8613 12.5048C14.65 13.0229 14.3365 13.4932 13.9396 13.8876C13.5427 14.2819 13.0704 14.5924 12.551 14.8004C12.0315 15.0083 11.4755 15.1096 10.9161 15.0981ZM41.7589 41.7623H34.3953V28.9781C34.3953 25.2078 32.7926 24.044 30.7237 24.044C28.5391 24.044 26.3953 25.691 26.3953 29.0733V41.7623H19.0283V18.358H26.1129V21.6008H26.2082C26.9194 20.1615 29.4102 17.7013 33.2111 17.7013C37.3217 17.7013 41.7623 20.141 41.7623 27.2869L41.7589 41.7623Z" fill="white"/>
</g>
<defs>
<clipPath id="clip0_38_8">
<rect width="49" height="49" fill="white"/>
</clipPath>
</defs>
</svg>
