<svg xmlns="http://www.w3.org/2000/svg" width="69.999" height="70.001" viewBox="0 0 69.999 70.001"><defs><style>.a{fill:#80e315;}</style></defs><g transform="translate(-727.153 -958.377)"><path class="a" d="M783.576,1003.692l-12.745-12.745,23.729-23.729a2.121,2.121,0,0,0,.492-.76l1.956-5.156a2.157,2.157,0,0,0-2.781-2.781l-5.155,1.956a2.144,2.144,0,0,0-.76.491l-6.768,6.768a1.024,1.024,0,0,0,1.448,1.449l6.769-6.768a.1.1,0,0,1,.037-.024l5.156-1.956a.094.094,0,0,1,.114.025.092.092,0,0,1,.024.113l-1.956,5.157a.107.107,0,0,1-.024.037L765.878,993l-3.351-3.352,17.568-17.568a1.025,1.025,0,0,0-1.449-1.449L764.582,984.7l-12.756-12.756a12.336,12.336,0,0,0-14.669-13.33,2.158,2.158,0,0,0-1.116,3.642l5.491,5.491a.108.108,0,0,1,.025.11l-1.2,3.6a.108.108,0,0,1-.067.068l-3.6,1.2a.106.106,0,0,1-.109-.026l-5.491-5.491a2.157,2.157,0,0,0-3.641,1.113A12.351,12.351,0,0,0,740.788,983l8.749,8.749c-.04.036-.08.071-.118.108l-12.848,12.849a1.025,1.025,0,0,0,1.449,1.449l8.581-8.582h0a1.239,1.239,0,0,1,2.114.876,1.227,1.227,0,0,1-.363.875l-13.113,13.114a1.238,1.238,0,0,1-1.752-1.75l1.624-1.625a1.024,1.024,0,0,0-1.448-1.449l-4.824,4.824a3.291,3.291,0,0,0-.586,3.856,5.4,5.4,0,0,0,.477,7.084l3.418,3.419a5.4,5.4,0,0,0,7.084.476,3.293,3.293,0,0,0,3.856-.585l20.581-20.581c.038-.038.073-.078.108-.118l8.761,8.761a12.335,12.335,0,0,0,12.269,13.564,12.374,12.374,0,0,0,2.4-.235,2.157,2.157,0,0,0,1.116-3.642l-5.491-5.491a.1.1,0,0,1-.026-.109l1.2-3.6a.106.106,0,0,1,.067-.068l3.6-1.2a.107.107,0,0,1,.11.026l5.491,5.49a2.157,2.157,0,0,0,3.641-1.112,12.35,12.35,0,0,0-13.34-14.684Zm-20.823-1.013-9.9-9.9,3.065-.438,7.276,7.276ZM755.374,988.9a.07.07,0,0,1,0-.1l1.655-1.655a.069.069,0,0,1,.048-.02.071.071,0,0,1,.049.02L768.381,998.4a.067.067,0,0,1,0,.1l-1.655,1.655a.068.068,0,0,1-.1,0Zm-14.36-7.989a10.3,10.3,0,0,1-11.556-12.2.1.1,0,0,1,.077-.087.1.1,0,0,1,.106.027l5.49,5.491a2.144,2.144,0,0,0,2.207.52l3.6-1.2A2.164,2.164,0,0,0,742.3,972.1l1.2-3.6a2.146,2.146,0,0,0-.521-2.207l-5.49-5.49a.092.092,0,0,1-.027-.1.105.105,0,0,1,.09-.079,10.287,10.287,0,0,1,12.182,11.547,1.023,1.023,0,0,0,.29.868l13.108,13.109-2.055,2.055-2.5-2.5a2.122,2.122,0,0,0-2.995,0l-1.654,1.655a2.118,2.118,0,0,0,0,2.994l.178.179-2.532.361-9.688-9.687A1.028,1.028,0,0,0,741.014,980.911Zm-7.417,44.44-3.419-3.419a3.349,3.349,0,0,1-.534-4.037l7.99,7.99A3.354,3.354,0,0,1,733.6,1025.351Zm7.167.253a1.23,1.23,0,0,1-.876-.362l-9.6-9.6h0a1.238,1.238,0,0,1,0-1.751l1.048-1.048a3.288,3.288,0,0,0,5.352,1.048l13.113-13.114a3.289,3.289,0,0,0-1.046-5.354l1.922-1.922,11.352,11.352-1.922,1.922a3.288,3.288,0,0,0-5.354-1.046l-13.113,13.113a3.284,3.284,0,0,0,1.048,5.352l-1.048,1.049a1.23,1.23,0,0,1-.876.362Zm4.076-3.563a1.239,1.239,0,0,1-1.752-1.751l13.114-13.113a1.238,1.238,0,1,1,1.751,1.751Zm50.066-4.062a.1.1,0,0,1-.077.087.093.093,0,0,1-.1-.026l-5.492-5.491a2.144,2.144,0,0,0-2.206-.521l-3.6,1.2a2.166,2.166,0,0,0-1.363,1.364l-1.2,3.6a2.144,2.144,0,0,0,.521,2.206l5.491,5.491a.094.094,0,0,1,.026.1.109.109,0,0,1-.09.079,10.287,10.287,0,0,1-12.182-11.547,1.026,1.026,0,0,0-.29-.869l-9.7-9.7.361-2.532.179.178a2.12,2.12,0,0,0,2.994,0l1.655-1.655a2.118,2.118,0,0,0,0-2.994l-2.5-2.5,2.056-2.056,13.1,13.1a1.024,1.024,0,0,0,.87.289,10.3,10.3,0,0,1,11.556,12.2Z"/></g></svg>