<svg xmlns="http://www.w3.org/2000/svg" width="57.949" height="69.519" viewBox="0 0 57.949 69.519"><defs><style>.a{fill:#80e315;}</style></defs><g transform="translate(-457.836 -829.605)"><path class="a" d="M506.275,864.889a23.881,23.881,0,0,0,0-33.366l1.916-1.918a25.784,25.784,0,0,1,7.592,18.6,26.226,26.226,0,0,1-7.593,18.6Z"/><path class="a" d="M500.676,858.5a14.882,14.882,0,0,0,0-20.682l1.915-1.915a17.776,17.776,0,0,1,0,24.6Z"/><path class="a" d="M494.982,852.3a5.959,5.959,0,0,0,0-8.085L496.9,842.3a8.778,8.778,0,0,1,0,11.916Z"/><path class="a" d="M465.431,866.8a26.576,26.576,0,0,1,0-37.2l1.916,1.917a23.881,23.881,0,0,0,0,33.366Z"/><path class="a" d="M471.026,860.51a17.633,17.633,0,0,1,0-24.508l1.915,1.915a14.883,14.883,0,0,0,0,20.678Z"/><path class="a" d="M476.723,854.213a8.778,8.778,0,0,1,0-11.916l1.916,1.916a5.957,5.957,0,0,0,0,8.085Z"/><path class="a" d="M503.065,899.124a1.261,1.261,0,0,1-1.181-.832l-1.421-4.468-13.753-7.18-13.554,7.081-1.423,4.574a1.222,1.222,0,1,1-2.312-.791l14.229-44.589-.126-.084a5.378,5.378,0,0,1-2.408-4.528,5.594,5.594,0,1,1,11.189,0,5.531,5.531,0,0,1-2.41,4.531l-.124.083,14.433,44.6a1.2,1.2,0,0,1-1.139,1.6Zm-14.19-13.653,10.766,5.6-3.122-9.581Zm-14.893,5.5,10.566-5.5L477,881.588Zm4.06-12.42-.252,1.134,9.02,4.715,9.136-4.723-.378-1.131-8.758-5.194Zm10.98-6.568,5.432,3.352-1.734-5.548Zm-9.96,3.343,5.64-3.338-3.8-2.3Zm2.514-7.746,5.234,3.14,5.235-3.14-4.49-13.778h-.785a1.126,1.126,0,0,1-.48-.084l-.2-.087Z"/></g></svg>