<svg xmlns="http://www.w3.org/2000/svg" width="62.232" height="69.92" viewBox="0 0 62.232 69.92"><defs><style>.a{fill:#80e315;}</style></defs><g transform="translate(-387.06 -1075.233)"><path class="a" d="M435.444,1113.584v2.905a1.025,1.025,0,1,0,2.05,0v-2.905a3.132,3.132,0,0,0-2.913-3.306H419.419v-2.966h6.572a2.247,2.247,0,0,0,2.245-2.245v-1.129h.876a11.043,11.043,0,0,0,7.88-3.274,10.77,10.77,0,0,0,3.171-7.7,10.921,10.921,0,0,0-2.538-6.936,1.025,1.025,0,0,0-1.573,1.316,8.863,8.863,0,0,1,2.061,5.63,8.739,8.739,0,0,1-2.574,6.24,9.009,9.009,0,0,1-6.427,2.67h-.876v-.68a2.247,2.247,0,0,0-2.245-2.245H410.8a2.247,2.247,0,0,0-2.245,2.245v.68h-2.1a7.825,7.825,0,0,1-5.387-2.138,7.621,7.621,0,0,1,5.276-13.147h.058a1.024,1.024,0,0,0,1.011-.86,10.089,10.089,0,0,1,19.328-2.108,1.026,1.026,0,0,0,1.113.632,8.8,8.8,0,0,1,5.217.756,1.025,1.025,0,1,0,.889-1.848,10.823,10.823,0,0,0-5.634-1.031,12.143,12.143,0,0,0-22.771,2.439,9.613,9.613,0,0,0-6.186,2.912,9.744,9.744,0,0,0-2.735,7.11,9.565,9.565,0,0,0,3.027,6.637,9.864,9.864,0,0,0,6.794,2.7h2.1v1.129a2.247,2.247,0,0,0,2.245,2.245h6.571v2.966H402.207a3.132,3.132,0,0,0-2.914,3.306v2.905a1.025,1.025,0,0,0,2.051,0v-2.905c0-.669.4-1.255.863-1.255h32.374c.459,0,.863.586.863,1.255Zm-24.842-8.517v-3.859a.2.2,0,0,1,.2-.194h15.194a.194.194,0,0,1,.194.194v3.859a.194.194,0,0,1-.194.194H410.8a.2.2,0,0,1-.2-.194Z"/><path class="a" d="M413.673,1119.644H388.716a1.658,1.658,0,0,0-1.656,1.657v16.454a1.658,1.658,0,0,0,1.656,1.656h8.117v4.086h-4.472a.828.828,0,1,0,0,1.656h17.668a.828.828,0,0,0,0-1.656h-4.472v-4.086h8.116a1.658,1.658,0,0,0,1.657-1.656V1121.3A1.658,1.658,0,0,0,413.673,1119.644ZM403.9,1143.5h-5.411v-4.086H403.9Zm9.773-5.742H388.716V1121.3h24.957C413.674,1138.112,413.679,1137.755,413.673,1137.755Z"/><path class="a" d="M447.636,1119.644H422.679a1.658,1.658,0,0,0-1.657,1.657v16.454a1.658,1.658,0,0,0,1.657,1.656H430.8v4.086h-4.472a.828.828,0,0,0,0,1.656h17.668a.828.828,0,1,0,0-1.656h-4.472v-4.086h8.117a1.658,1.658,0,0,0,1.656-1.656V1121.3A1.658,1.658,0,0,0,447.636,1119.644Zm-9.773,23.853h-5.411v-4.086h5.411Zm9.773-5.742H422.679V1121.3h24.957C447.637,1138.112,447.641,1137.755,447.636,1137.755Z"/></g></svg>