<svg xmlns="http://www.w3.org/2000/svg" width="62.332" height="70" viewBox="0 0 62.332 70"><defs><style>.a{fill:#80e315;}</style></defs><path class="a" d="M1017.4,1032.136c-.771,0-1.546-.029-2.3-.083a31.137,31.137,0,0,1-17.317-55.272,1.643,1.643,0,0,1,1.065-.4,1.622,1.622,0,0,1,1.674,1.636,1.743,1.743,0,0,1-.691,1.34,27.863,27.863,0,0,0,14.385,49.32,28.531,28.531,0,0,0,3.186.179,27.859,27.859,0,0,0,17.549-49.508,1.73,1.73,0,0,1-.682-1.331,1.688,1.688,0,0,1,1.68-1.675,1.5,1.5,0,0,1,.965.357,31.149,31.149,0,0,1-19.509,55.435Zm-.026-43.212a1.642,1.642,0,0,1-1.64-1.641V963.776a1.641,1.641,0,0,1,3.281,0v23.507A1.643,1.643,0,0,1,1017.378,988.924Z" transform="translate(-986.224 -962.136)"/></svg>