<svg width="102" height="100" viewBox="0 0 102 100" fill="none" xmlns="http://www.w3.org/2000/svg">
<path d="M50.9977 87.3032C55.349 87.3032 58.8885 83.743 58.8885 79.3657V77.7801C58.8885 73.4028 55.349 69.8426 50.9977 69.8426C46.6464 69.8426 43.1069 73.4028 43.1069 77.7801V79.3657C43.1069 83.743 46.6464 87.3032 50.9977 87.3032ZM46.2646 77.7801C46.2646 75.1528 48.3874 73.0162 50.9977 73.0162C53.608 73.0162 55.7331 75.1528 55.7331 77.7801V79.3657C55.7331 81.9907 53.6103 84.1273 50.9977 84.1273C48.3851 84.1273 46.2646 81.9907 46.2646 79.3657V77.7801Z" fill="#7FE314"/>
<path d="M55.9861 87.3542C55.4387 87.3542 54.9281 87.6389 54.643 88.1088C53.723 89.6134 52.3937 90.4768 51 90.4768C49.6063 90.4768 48.277 89.6134 47.357 88.1088C47.0719 87.6389 46.5613 87.3542 46.0139 87.3542H44.6731C41.1268 87.3542 38.3761 90.7407 38.3761 93.6505V97.088C38.3761 98.6944 39.6756 100 41.2694 100H60.7398C62.3313 100 63.6261 98.6968 63.6261 97.0949V93.6505C63.6261 92.2685 62.9868 90.7222 61.9151 89.5139C60.6777 88.1204 59.0495 87.3542 57.3292 87.3542H55.9861ZM60.4662 96.8264H41.5292V93.6528C41.5292 92.581 42.7528 90.5301 44.6708 90.5301H45.1768C46.6694 92.5278 48.7508 93.6528 50.9977 93.6528C53.2446 93.6528 55.326 92.5278 56.8186 90.5301H57.3246C59.2426 90.5301 60.4662 92.581 60.4662 93.6528V96.8264Z" fill="#7FE314"/>
<path d="M50.9977 17.4606C55.349 17.4606 58.8885 13.9005 58.8885 9.52315V7.9375C58.8885 3.56019 55.349 0 50.9977 0C46.6464 0 43.1069 3.56019 43.1069 7.9375V9.52315C43.1069 13.9005 46.6464 17.4606 50.9977 17.4606ZM46.2646 7.9375C46.2646 5.3125 48.3874 3.17593 50.9977 3.17593C53.608 3.17593 55.7331 5.31019 55.7331 7.9375V9.52315C55.7331 12.1505 53.6103 14.287 50.9977 14.287C48.3851 14.287 46.2646 12.1505 46.2646 9.52315V7.9375Z" fill="#7FE314"/>
<path d="M57.3246 17.5139H55.9861C55.4387 17.5139 54.9281 17.7986 54.643 18.2685C53.723 19.7731 52.3937 20.6343 51 20.6343C49.6063 20.6343 48.277 19.7731 47.357 18.2685C47.0719 17.7986 46.5613 17.5139 46.0139 17.5139H44.6731C41.1268 17.5139 38.3761 20.8981 38.3761 23.8102V27.2477C38.3761 28.8519 39.6756 30.1574 41.2694 30.1574H60.7398C62.3313 30.1574 63.6261 28.8542 63.6261 27.2523V23.8079C63.6261 22.4259 62.9868 20.8796 61.9151 19.6713C60.6777 18.2778 59.0495 17.5116 57.3292 17.5116L57.3246 17.5139ZM60.4662 26.9861H41.5292V23.8125C41.5292 22.7384 42.7528 20.6898 44.6708 20.6898H45.1768C46.6694 22.6852 48.7508 23.8125 50.9977 23.8125C53.2446 23.8125 55.326 22.6852 56.8186 20.6898H57.3246C59.2426 20.6898 60.4662 22.7384 60.4662 23.8125V26.9861Z" fill="#7FE314"/>
<path d="M80.9831 42.8588V44.4444C80.9831 48.8218 84.5225 52.3819 88.8738 52.3819C93.2252 52.3819 96.7646 48.8218 96.7646 44.4444V42.8588C96.7646 38.4815 93.2228 34.9213 88.8738 34.9213C84.5248 34.9213 80.9831 38.4815 80.9831 42.8588ZM84.1385 42.8588C84.1385 40.2338 86.2612 38.0972 88.8715 38.0972C91.4819 38.0972 93.6069 40.2338 93.6069 42.8588V44.4444C93.6069 47.0694 91.4842 49.206 88.8715 49.206C86.2589 49.206 84.1385 47.0694 84.1385 44.4444V42.8588Z" fill="#7FE314"/>
<path d="M99.7866 54.5926C98.5493 53.1991 96.9233 52.4329 95.2007 52.4329H93.8599C93.3102 52.4329 92.8043 52.7176 92.5168 53.1898C91.5946 54.6921 90.2675 55.5556 88.8738 55.5556C87.4801 55.5556 86.1531 54.6921 85.2309 53.1898C84.9434 52.7199 84.4351 52.4329 83.8878 52.4329H82.5493C79.0029 52.4329 76.25 55.8194 76.25 58.7315V62.169C76.25 63.7731 77.5494 65.0787 79.1455 65.0787H98.6137C100.205 65.0787 101.5 63.7755 101.5 62.1736V58.7292C101.5 57.3472 100.861 55.7986 99.7889 54.5903L99.7866 54.5926ZM98.3423 61.9051H79.4031V58.7315C79.4031 57.6574 80.6266 55.6088 82.547 55.6088H83.0529C84.5455 57.6042 86.6269 58.7315 88.8715 58.7315C91.1162 58.7315 93.1976 57.6042 94.6925 55.6088H95.1984C97.1165 55.6088 98.34 57.6574 98.34 58.7315V61.9051H98.3423Z" fill="#7FE314"/>
<path d="M13.1238 52.3819C17.4752 52.3819 21.0146 48.8218 21.0146 44.4444V42.8588C21.0146 38.4815 17.4729 34.9213 13.1238 34.9213C8.77484 34.9213 5.23308 38.4815 5.23308 42.8588V44.4444C5.23308 48.8218 8.77484 52.3819 13.1238 52.3819ZM8.39077 42.8588C8.39077 40.2338 10.5135 38.0972 13.1238 38.0972C15.7342 38.0972 17.8569 40.2338 17.8569 42.8588V44.4444C17.8569 47.0694 15.7342 49.206 13.1238 49.206C10.5135 49.206 8.39077 47.0694 8.39077 44.4444V42.8588Z" fill="#7FE314"/>
<path d="M25.7477 62.1736V58.7292C25.7477 57.3472 25.1083 55.7986 24.0366 54.5903C22.7993 53.1968 21.171 52.4306 19.4507 52.4306H18.1122C17.5625 52.4306 17.0566 52.7153 16.7691 53.1875C15.8469 54.6898 14.5199 55.5532 13.1262 55.5532C11.7324 55.5532 10.4031 54.6898 9.4832 53.1875C9.19571 52.7176 8.68745 52.4306 8.13779 52.4306H6.79928C3.25291 52.4306 0.5 55.8171 0.5 58.7292V62.1667C0.5 63.7708 1.79941 65.0764 3.3955 65.0764H22.8591C24.4506 65.0764 25.7477 63.7731 25.7477 62.1713V62.1736ZM22.5923 61.9051H3.65309V58.7315C3.65309 57.6574 4.87661 55.6088 6.79468 55.6088H7.30064C8.79324 57.6042 10.8746 58.7315 13.1215 58.7315C15.3685 58.7315 17.4476 57.6042 18.9425 55.6088H19.4484C21.3665 55.6088 22.59 57.6574 22.59 58.7315V61.9051H22.5923Z" fill="#7FE314"/>
<path d="M36.1338 85.8426C28.358 82.5023 21.8334 76.5486 17.7603 69.0764C17.3418 68.3079 16.3827 68.0255 15.6169 68.4468C14.8533 68.8681 14.5728 69.8333 14.9913 70.6019C19.4024 78.6944 26.4699 85.1435 34.8919 88.7616C35.0943 88.8495 35.3036 88.8889 35.5105 88.8889C36.1246 88.8889 36.7065 88.5278 36.964 87.9259C37.3044 87.1204 36.9341 86.1875 36.1338 85.8426Z" fill="#7FE314"/>
<path d="M86.3785 68.4514C85.6127 68.0301 84.6536 68.3102 84.2351 69.0787C80.1643 76.5486 73.6397 82.5023 65.8662 85.8426C65.0658 86.1875 64.6933 87.1204 65.0359 87.9259C65.2912 88.5278 65.8754 88.8912 66.4895 88.8912C66.6964 88.8912 66.9057 88.8495 67.1081 88.7639C75.5278 85.1435 82.593 78.6968 87.0041 70.6065C87.4226 69.838 87.1421 68.8727 86.3785 68.4514Z" fill="#7FE314"/>
<path d="M63.1225 14.6921C71.5307 17.5486 78.7177 23.3333 83.3588 30.9861C83.6555 31.4745 84.1753 31.7477 84.7065 31.7477C84.9871 31.7477 85.27 31.6736 85.5276 31.5162C86.2704 31.0602 86.5073 30.081 86.0519 29.3333C81.0268 21.0463 73.2418 14.7778 64.1321 11.6852C63.3088 11.4051 62.4118 11.8519 62.1335 12.6806C61.8553 13.5116 62.2968 14.412 63.1225 14.6921Z" fill="#7FE314"/>
<path d="M16.4701 31.5139C16.7254 31.6713 17.0106 31.7477 17.2912 31.7477C17.8224 31.7477 18.3422 31.4769 18.6389 30.9861C23.28 23.3333 30.467 17.5463 38.8798 14.6898C39.7055 14.4097 40.1493 13.5093 39.871 12.6782C39.5928 11.8472 38.6958 11.4005 37.8725 11.6806C28.7605 14.7731 20.9732 21.0417 15.9458 29.331C15.4927 30.0787 15.7273 31.0556 16.4724 31.5116L16.4701 31.5139Z" fill="#7FE314"/>
</svg>
