<svg width="89" height="94" viewBox="0 0 89 94" fill="none" xmlns="http://www.w3.org/2000/svg">
<path fill-rule="evenodd" clip-rule="evenodd" d="M2.87492 2.05218C2.69724 2.05218 2.54555 2.20452 2.54555 2.38297V12.9007C2.54555 13.0813 2.69724 13.2336 2.87492 13.2336H48.187C48.3647 13.2336 48.5163 13.0813 48.5163 12.9007V2.38297C48.5163 2.20452 48.3647 2.05218 48.187 2.05218H2.87492ZM48.187 15.2837H2.87492C1.56612 15.2837 0.5 14.2151 0.5 12.9007V2.38297C0.5 1.06853 1.56612 0 2.87492 0H48.187C49.498 0 50.5619 1.0707 50.5619 2.38297V12.9007C50.5619 14.2151 49.4958 15.2837 48.187 15.2837Z" fill="#88E525"/>
<path fill-rule="evenodd" clip-rule="evenodd" d="M12.7668 6.20878C11.9781 6.20878 11.3367 6.85077 11.3367 7.64291C11.3367 8.43506 11.9781 9.07487 12.7668 9.07487C13.5556 9.07487 14.197 8.43071 14.197 7.64291C14.197 6.85512 13.5556 6.20878 12.7668 6.20878ZM12.7668 11.1271C10.8513 11.1271 9.29112 9.56452 9.29112 7.64291C9.29112 5.7213 10.8513 4.1566 12.7668 4.1566C14.6824 4.1566 16.2425 5.7213 16.2425 7.64291C16.2425 9.56452 14.6824 11.1292 12.7668 11.1271Z" fill="#88E525"/>
<path fill-rule="evenodd" clip-rule="evenodd" d="M25.532 6.20878C24.7433 6.20878 24.1019 6.85077 24.1019 7.64291C24.1019 8.43506 24.7433 9.07487 25.532 9.07487C26.3208 9.07487 26.96 8.43071 26.96 7.64291C26.96 6.85512 26.3186 6.20878 25.532 6.20878ZM25.532 11.1271C23.6165 11.1271 22.0563 9.56452 22.0563 7.64291C22.0563 5.7213 23.6165 4.1566 25.532 4.1566C27.4476 4.1566 29.0056 5.7213 29.0056 7.64291C29.0056 9.56452 27.4476 11.1292 25.532 11.1271Z" fill="#88E525"/>
<path fill-rule="evenodd" clip-rule="evenodd" d="M38.2972 6.20878C37.5085 6.20878 36.8671 6.85077 36.8671 7.64291C36.8671 8.43288 37.5085 9.07487 38.2972 9.07487C39.086 9.07487 39.7252 8.43071 39.7252 7.64291C39.7252 6.85512 39.086 6.20878 38.2972 6.20878ZM38.2972 11.1271C36.3817 11.1271 34.8215 9.56452 34.8215 7.64291C34.8215 5.7213 36.3817 4.1566 38.2972 4.1566C40.2128 4.1566 41.7708 5.7213 41.7708 7.64291C41.7708 9.56452 40.2128 11.1292 38.2972 11.1271Z" fill="#88E525"/>
<path fill-rule="evenodd" clip-rule="evenodd" d="M2.87492 20.3738C2.69724 20.3738 2.54555 20.5262 2.54555 20.7046V31.2223C2.54555 31.4008 2.69724 31.5531 2.87492 31.5531H48.187C48.3647 31.5531 48.5163 31.4008 48.5163 31.2223V20.7046C48.5163 20.5262 48.3647 20.3738 48.187 20.3738H2.87492ZM48.187 33.6075H2.87492C1.56612 33.6075 0.5 32.539 0.5 31.2245V20.7068C0.5 19.3924 1.56612 18.3238 2.87492 18.3238H48.187C49.498 18.3238 50.5619 19.3924 50.5619 20.7068V31.2245C50.5619 32.539 49.4958 33.6075 48.187 33.6075Z" fill="#88E525"/>
<path fill-rule="evenodd" clip-rule="evenodd" d="M12.7668 24.5304C11.9781 24.5304 11.3367 25.1724 11.3367 25.9646C11.3367 26.7567 11.9781 27.3987 12.7668 27.3987C13.5556 27.3987 14.197 26.7545 14.197 25.9646C14.197 25.1746 13.5556 24.5304 12.7668 24.5304ZM12.7668 29.4509C10.8513 29.4509 9.29112 27.8862 9.29112 25.9646C9.29112 24.043 10.8513 22.4783 12.7668 22.4783C14.6824 22.4783 16.2425 24.043 16.2425 25.9646C16.2425 27.8862 14.6824 29.4509 12.7668 29.4509Z" fill="#88E525"/>
<path fill-rule="evenodd" clip-rule="evenodd" d="M25.532 24.5304C24.7433 24.5304 24.1019 25.1724 24.1019 25.9646C24.1019 26.7567 24.7433 27.3987 25.532 27.3987C26.3208 27.3987 26.96 26.7545 26.96 25.9646C26.96 25.1746 26.3186 24.5304 25.532 24.5304ZM25.532 29.4509C23.6165 29.4509 22.0563 27.8862 22.0563 25.9646C22.0563 24.043 23.6165 22.4783 25.532 22.4783C27.4476 22.4783 29.0056 24.043 29.0056 25.9646C29.0056 27.8862 27.4476 29.4509 25.532 29.4509Z" fill="#88E525"/>
<path fill-rule="evenodd" clip-rule="evenodd" d="M38.2972 24.5304C37.5085 24.5304 36.8671 25.1724 36.8671 25.9646C36.8671 26.7567 37.5085 27.3987 38.2972 27.3987C39.086 27.3987 39.7252 26.7545 39.7252 25.9646C39.7252 25.1746 39.086 24.5304 38.2972 24.5304ZM38.2972 29.4509C36.3817 29.4509 34.8215 27.8862 34.8215 25.9646C34.8215 24.043 36.3817 22.4783 38.2972 22.4783C40.2128 22.4783 41.7708 24.043 41.7708 25.9646C41.7708 27.8862 40.2128 29.4509 38.2972 29.4509Z" fill="#88E525"/>
<path fill-rule="evenodd" clip-rule="evenodd" d="M46.1176 20.3738C45.552 20.3738 45.0948 19.9147 45.0948 19.3488V14.2586C45.0948 13.6928 45.552 13.2336 46.1176 13.2336C46.681 13.2336 47.1404 13.6928 47.1404 14.2586V19.3488C47.1404 19.9147 46.6832 20.3738 46.1176 20.3738Z" fill="#88E525"/>
<path fill-rule="evenodd" clip-rule="evenodd" d="M4.94865 20.3738C4.38525 20.3738 3.92587 19.9147 3.92587 19.3488V14.2586C3.92587 13.6928 4.38309 13.2336 4.94865 13.2336C5.51421 13.2336 5.97142 13.6928 5.97142 14.2586V19.3488C5.97142 19.9147 5.51421 20.3738 4.94865 20.3738Z" fill="#88E525"/>
<path fill-rule="evenodd" clip-rule="evenodd" d="M2.87492 62.4447C2.69724 62.4447 2.54555 62.597 2.54555 62.7777V73.2954C2.54555 73.476 2.69724 73.6283 2.87492 73.6283H48.187C48.3647 73.6283 48.5163 73.476 48.5163 73.2954V62.7777C48.5163 62.597 48.3647 62.4447 48.187 62.4447H2.87492ZM48.187 75.6783H2.87492C1.56612 75.6783 0.5 74.6098 0.5 73.2954V62.7777C0.5 61.4632 1.56612 60.3947 2.87492 60.3947H48.187C49.498 60.3947 50.5619 61.4632 50.5619 62.7777V73.2954C50.5619 74.6098 49.4958 75.6783 48.187 75.6783Z" fill="#88E525"/>
<path fill-rule="evenodd" clip-rule="evenodd" d="M12.7668 66.6013C11.9781 66.6013 11.3367 67.2455 11.3367 68.0354C11.3367 68.8254 11.9781 69.4696 12.7668 69.4696C13.5556 69.4696 14.197 68.8254 14.197 68.0354C14.197 67.2455 13.5556 66.6013 12.7668 66.6013ZM12.7668 71.5196C10.8513 71.5196 9.29112 69.957 9.29112 68.0354C9.29112 66.1138 10.8513 64.5469 12.7668 64.5469C14.6824 64.5469 16.2425 66.1116 16.2425 68.0354C16.2425 69.9592 14.6824 71.5196 12.7668 71.5196Z" fill="#88E525"/>
<path fill-rule="evenodd" clip-rule="evenodd" d="M25.532 66.6013C24.7433 66.6013 24.1019 67.2455 24.1019 68.0354C24.1019 68.8254 24.7433 69.4696 25.532 69.4696C26.3208 69.4696 26.96 68.8254 26.96 68.0354C26.96 67.2455 26.3186 66.6013 25.532 66.6013ZM25.532 71.5196C23.6165 71.5196 22.0563 69.957 22.0563 68.0354C22.0563 66.1138 23.6165 64.5469 25.532 64.5469C27.4476 64.5469 29.0056 66.1116 29.0056 68.0354C29.0056 69.9592 27.4476 71.5196 25.532 71.5196Z" fill="#88E525"/>
<path fill-rule="evenodd" clip-rule="evenodd" d="M38.2972 66.6013C37.5085 66.6013 36.8671 67.2455 36.8671 68.0354C36.8671 68.8254 37.5085 69.4696 38.2972 69.4696C39.086 69.4696 39.7252 68.8254 39.7252 68.0354C39.7252 67.2455 39.086 66.6013 38.2972 66.6013ZM38.2972 71.5196C36.3817 71.5196 34.8215 69.957 34.8215 68.0354C34.8215 66.1138 36.3817 64.5469 38.2972 64.5469C40.2128 64.5469 41.7708 66.1116 41.7708 68.0354C41.7708 69.9592 40.2128 71.5196 38.2972 71.5196Z" fill="#88E525"/>
<path fill-rule="evenodd" clip-rule="evenodd" d="M2.87492 80.7664C2.69724 80.7664 2.54555 80.9187 2.54555 81.0971V91.6149C2.54555 91.7933 2.69724 91.9456 2.87492 91.9456H48.187C48.3647 91.9456 48.5163 91.7933 48.5163 91.6149V81.0971C48.5163 80.9187 48.3647 80.7664 48.187 80.7664H2.87492ZM48.187 94H2.87492C1.56612 94 0.5 92.9315 0.5 91.617V81.0993C0.5 79.7871 1.56612 78.7185 2.87492 78.7185H48.187C49.498 78.7185 50.5619 79.7871 50.5619 81.0993V91.617C50.5619 92.9315 49.4958 94 48.187 94Z" fill="#88E525"/>
<path fill-rule="evenodd" clip-rule="evenodd" d="M12.7668 84.9251C11.9781 84.9251 11.3367 85.5671 11.3367 86.3571C11.3367 87.1471 11.9781 87.7912 12.7668 87.7912C13.5556 87.7912 14.197 87.1471 14.197 86.3571C14.197 85.5671 13.5556 84.9251 12.7668 84.9251ZM12.7668 89.8434C10.8513 89.8434 9.29112 88.2787 9.29112 86.3549C9.29112 84.4311 10.8513 82.8708 12.7668 82.8708C14.6824 82.8708 16.2425 84.4333 16.2425 86.3549C16.2425 88.2765 14.6824 89.8434 12.7668 89.8434Z" fill="#88E525"/>
<path fill-rule="evenodd" clip-rule="evenodd" d="M25.532 84.9251C24.7433 84.9251 24.1019 85.5671 24.1019 86.3571C24.1019 87.1471 24.7433 87.7912 25.532 87.7912C26.3208 87.7912 26.96 87.1471 26.96 86.3571C26.96 85.5671 26.3186 84.9251 25.532 84.9251ZM25.532 89.8434C23.6165 89.8434 22.0563 88.2787 22.0563 86.3549C22.0563 84.4311 23.6165 82.8708 25.532 82.8708C27.4476 82.8708 29.0056 84.4333 29.0056 86.3549C29.0056 88.2765 27.4476 89.8434 25.532 89.8434Z" fill="#88E525"/>
<path fill-rule="evenodd" clip-rule="evenodd" d="M38.2972 84.9251C37.5085 84.9251 36.8671 85.5671 36.8671 86.3571C36.8671 87.1492 37.5085 87.7912 38.2972 87.7912C39.086 87.7912 39.7252 87.1471 39.7252 86.3571C39.7252 85.5671 39.086 84.9251 38.2972 84.9251ZM38.2972 89.8434C36.3817 89.8434 34.8215 88.2787 34.8215 86.3549C34.8215 84.4311 36.3817 82.8708 38.2972 82.8708C40.2128 82.8708 41.7708 84.4333 41.7708 86.3549C41.7708 88.2765 40.2128 89.8434 38.2972 89.8434Z" fill="#88E525"/>
<path fill-rule="evenodd" clip-rule="evenodd" d="M46.1176 80.7664C45.552 80.7664 45.0948 80.3093 45.0948 79.7435V74.6533C45.0948 74.0875 45.552 73.6262 46.1176 73.6262C46.6832 73.6262 47.1404 74.0853 47.1404 74.6533V79.7435C47.1404 80.3093 46.6832 80.7685 46.1176 80.7685V80.7664Z" fill="#88E525"/>
<path fill-rule="evenodd" clip-rule="evenodd" d="M4.94865 80.7664C4.38525 80.7664 3.92587 80.3093 3.92587 79.7435V74.6533C3.92587 74.0875 4.38309 73.6262 4.94865 73.6262C5.51421 73.6262 5.97142 74.0853 5.97142 74.6533V79.7435C5.97142 80.3093 5.51421 80.7685 4.94865 80.7685V80.7664Z" fill="#88E525"/>
<path fill-rule="evenodd" clip-rule="evenodd" d="M70.1139 44.9892V59.9007C70.1139 60.4208 70.5342 60.843 71.0521 60.843H85.5118C86.0319 60.843 86.4523 60.4186 86.4523 59.9007V44.9892H70.1117H70.1139ZM85.514 62.8952H71.0543C69.4074 62.8952 68.0683 61.5503 68.0683 59.9007V43.9642C68.0683 43.3983 68.5255 42.9392 69.0911 42.9392H87.4772C88.0428 42.9392 88.5 43.3983 88.5 43.9642V59.9007C88.5 61.5503 87.163 62.8952 85.514 62.8952Z" fill="#88E525"/>
<path fill-rule="evenodd" clip-rule="evenodd" d="M85.5725 44.9892C85.0091 44.9892 84.5497 44.53 84.5497 43.9642V38.047C84.5497 35.3485 82.3633 33.157 79.6742 33.157H76.8897C74.2006 33.157 72.0142 35.3507 72.0142 38.047V43.9642C72.0142 44.53 71.557 44.9892 70.9914 44.9892C70.4259 44.9892 69.9687 44.53 69.9687 43.9642V38.047C69.9687 34.219 73.0738 31.1027 76.8897 31.1027H79.6742C83.4901 31.1027 86.5931 34.2168 86.5931 38.047V43.9642C86.5931 44.53 86.1381 44.9892 85.5704 44.9892H85.5725Z" fill="#88E525"/>
<path fill-rule="evenodd" clip-rule="evenodd" d="M78.2831 50.8933C77.9645 50.8933 77.7088 51.1522 77.7088 51.4678C77.7088 51.7833 77.9645 52.0445 78.2831 52.0445C78.5994 52.0445 78.8573 51.7855 78.8573 51.4678C78.8573 51.1501 78.5994 50.8933 78.2852 50.8933H78.2831ZM78.2831 54.0945C76.8377 54.0945 75.6633 52.9172 75.6633 51.4678C75.6633 50.0184 76.8377 48.8411 78.2809 48.8411C79.7241 48.8411 80.8985 50.0184 80.8985 51.4678C80.8985 52.9172 79.7219 54.0945 78.2809 54.0945H78.2831Z" fill="#88E525"/>
<path fill-rule="evenodd" clip-rule="evenodd" d="M78.2831 56.9954C77.7175 56.9954 77.2603 56.5362 77.2603 55.9682V53.0695C77.2603 52.5037 77.7175 52.0445 78.2831 52.0445C78.8465 52.0445 79.3058 52.5037 79.3058 53.0695V55.9682C79.3058 56.5341 78.8486 56.9954 78.2852 56.9954H78.2831Z" fill="#88E525"/>
<path fill-rule="evenodd" clip-rule="evenodd" d="M62.391 26.9896H49.5413C48.9757 26.9896 48.5185 26.5304 48.5185 25.9646C48.5185 25.3988 48.9757 24.9396 49.5413 24.9396H61.3682V8.67009H49.5413C48.9757 8.67009 48.5185 8.21091 48.5185 7.64291C48.5185 7.07492 48.9757 6.61791 49.5413 6.61791H62.391C62.9544 6.61791 63.4138 7.07709 63.4138 7.64291V25.9646C63.4138 26.5304 62.9566 26.9896 62.391 26.9896Z" fill="#88E525"/>
<path fill-rule="evenodd" clip-rule="evenodd" d="M78.2831 33.1548C77.7175 33.1548 77.2603 32.6957 77.2603 32.1298V17.8298H62.391C61.8255 17.8298 61.3682 17.3707 61.3682 16.8048C61.3682 16.239 61.8255 15.7798 62.391 15.7798H78.2852C78.8486 15.7798 79.3058 16.239 79.3058 16.8048V32.132C79.3058 32.6978 78.8486 33.157 78.2852 33.157L78.2831 33.1548Z" fill="#88E525"/>
<path fill-rule="evenodd" clip-rule="evenodd" d="M62.391 78.2223C61.8255 78.2223 61.3682 77.7632 61.3682 77.1973C61.3682 76.6315 61.8255 76.1723 62.391 76.1723H77.2625V61.8723C77.2625 61.3065 77.7197 60.8452 78.2852 60.8452C78.8508 60.8452 79.308 61.3043 79.308 61.8723V77.1973C79.308 77.7632 78.8508 78.2223 78.2874 78.2223H62.391Z" fill="#88E525"/>
<path fill-rule="evenodd" clip-rule="evenodd" d="M62.391 87.3821H49.5413C48.9757 87.3821 48.5185 86.9229 48.5185 86.3571C48.5185 85.7913 48.9757 85.3321 49.5413 85.3321H61.3682V69.0626H49.5413C48.9757 69.0626 48.5185 68.6034 48.5185 68.0376C48.5185 67.4718 48.9757 67.0126 49.5413 67.0126H62.391C62.9544 67.0126 63.4138 67.4718 63.4138 68.0376V86.3593C63.4138 86.9251 62.9566 87.3843 62.391 87.3843V87.3821Z" fill="#88E525"/>
</svg>
