<svg width="61" height="82" viewBox="0 0 61 82" fill="none" xmlns="http://www.w3.org/2000/svg">
<path d="M45.2891 66.0199C41.5713 68.3279 37.4604 70.1839 33.6777 71.881C33.3952 72.0055 33.1204 72.1357 32.8379 72.2583C39.5044 75.4474 43.9035 78.3071 43.9035 81.9981H55.3184C55.3184 74.6238 51.007 69.7606 45.2891 66.0179" fill="#88E525"/>
<path d="M28.2938 38.0647C28.0189 37.9344 27.7422 37.8099 27.4616 37.6873C23.679 35.9826 19.5699 34.1343 15.8426 31.8281C10.1323 35.5689 5.81904 40.4321 5.81904 47.8064C5.81904 55.1806 10.1304 60.0438 15.8426 63.7788C19.568 61.4785 23.677 59.6224 27.4616 57.9254C27.7441 57.7952 28.0189 57.6707 28.2938 57.5481C21.633 54.3513 17.2339 51.4992 17.2339 47.8083C17.2339 44.1173 21.633 41.2557 28.2938 38.0685" fill="#88E525"/>
<path d="M43.4837 30.7057C40.1361 28.7328 36.4393 27.0645 32.8952 25.4709C32.0974 25.107 31.3226 24.7584 30.5687 24.4079C23.4079 21.1249 18.3046 18.292 17.3923 14.7466H22.2552L11.3786 0L0.5 14.7485H5.89347C6.36488 22.2109 11.3786 27.009 17.648 30.7057C21.0032 32.6786 24.7 34.3526 28.2365 35.9386C29.04 36.2948 29.8091 36.653 30.5706 36.9959C38.4833 40.6351 43.9054 43.7151 43.9054 47.8064C43.9054 51.8976 38.4833 54.9699 30.5706 58.6092C29.8091 58.9578 29.04 59.3083 28.2365 59.6646C24.7 61.2582 21.0032 62.9265 17.648 64.8994C11.0598 68.7799 5.82095 73.8672 5.82095 82H17.2358C17.2358 77.9011 22.6484 74.8288 30.5725 71.1972C31.3264 70.8467 32.1012 70.4981 32.899 70.1418C36.4431 68.5482 40.1399 66.8799 43.4875 64.9013C50.0757 61.0207 55.3222 55.9391 55.3222 47.8083C55.3222 39.6774 50.0757 34.5882 43.4875 30.7076" fill="#88E525"/>
<path d="M32.8379 23.3544C33.1204 23.4789 33.3952 23.6015 33.6777 23.726C37.4604 25.4288 41.5694 27.2848 45.2891 29.5852C50.7017 26.0475 54.8183 21.4831 55.2458 14.7485H60.5L49.6234 0L38.7448 14.7485H43.7375C42.934 17.9013 38.8021 20.5005 32.8379 23.3544Z" fill="#88E525"/>
</svg>
