<svg width="62" height="87" viewBox="0 0 62 87" fill="none" xmlns="http://www.w3.org/2000/svg">
<path d="M31.001 28.531C37.4315 28.531 42.6643 23.2519 42.6643 16.7657C42.6643 10.2795 37.4315 4.99842 31.001 4.99842C24.5705 4.99842 19.3377 10.2775 19.3377 16.7657C19.3377 23.254 24.5705 28.531 31.001 28.531ZM31.001 6.38127C36.6777 6.38127 41.2946 11.0405 41.2946 16.7657C41.2946 22.4909 36.6757 27.1502 31.001 27.1502C25.3263 27.1502 20.7074 22.4929 20.7074 16.7657C20.7074 11.0385 25.3243 6.38127 31.001 6.38127Z" fill="#7FE314"/>
<path d="M31.001 21.2251C29.7033 21.2251 28.6455 22.289 28.6455 23.5931C28.6455 24.8972 29.7013 25.9692 31.001 25.9692C32.3007 25.9692 33.3565 24.9033 33.3565 23.5931C33.3565 22.2829 32.3007 21.2251 31.001 21.2251Z" fill="#7FE314"/>
<path d="M31.001 19.8382C32.3147 19.8382 33.3825 18.7562 33.4844 17.3188L33.9063 11.2808C33.9163 11.1879 33.9163 11.0971 33.9163 11.0143C33.9163 9.23981 32.6086 7.79641 31.001 7.79641C30.2332 7.79641 29.5073 8.12345 28.9595 8.71696C28.3436 9.38516 28.0277 10.3138 28.0937 11.2626L28.5176 17.3188C28.6195 18.7542 29.6873 19.8382 31.001 19.8382Z" fill="#7FE314"/>
<path d="M61.454 74.6473C61.474 74.5867 61.488 74.5261 61.49 74.4636C61.49 74.4474 61.5 74.4353 61.5 74.4192V0.690412C61.5 0.308869 61.1941 0 60.8162 0H1.18584C0.80593 0 0.5 0.308869 0.5 0.690412V86.3096C0.5 86.6932 0.80593 87 1.18584 87H47.7072C47.7951 87 47.8791 86.9818 47.9611 86.9475C47.9971 86.9334 48.0231 86.9092 48.0551 86.889C48.0911 86.8668 48.1331 86.8526 48.1651 86.8223L61.272 74.9319C61.272 74.9319 61.28 74.9198 61.284 74.9178C61.3 74.9016 61.312 74.8835 61.326 74.8653C61.366 74.8209 61.398 74.7724 61.424 74.7199C61.436 74.6957 61.444 74.6715 61.454 74.6473ZM1.86969 1.38082H60.1303V73.7287H47.7072C47.3293 73.7287 47.0233 74.0376 47.0233 74.4192V85.6192H1.86969V1.38082Z" fill="#7FE314"/>
<path d="M7.40641 35.096H35.476C35.8559 35.096 36.1618 34.7871 36.1618 34.4055C36.1618 34.024 35.8559 33.7151 35.476 33.7151H7.40641C7.0265 33.7151 6.72257 34.024 6.72257 34.4055C6.72257 34.7871 7.0285 35.096 7.40641 35.096Z" fill="#7FE314"/>
<path d="M7.40641 40.9099H53.2859C53.6638 40.9099 53.9697 40.6011 53.9697 40.2195C53.9697 39.838 53.6638 39.5291 53.2859 39.5291H7.40641C7.0265 39.5291 6.72257 39.838 6.72257 40.2195C6.72257 40.6011 7.0285 40.9099 7.40641 40.9099Z" fill="#7FE314"/>
<path d="M7.40641 48.9627H53.2859C53.6638 48.9627 53.9697 48.6539 53.9697 48.2723C53.9697 47.8908 53.6638 47.5819 53.2859 47.5819H7.40641C7.0265 47.5819 6.72257 47.8908 6.72257 48.2723C6.72257 48.6539 7.0285 48.9627 7.40641 48.9627Z" fill="#7FE314"/>
<path d="M27.0159 56.4806H10.4437C10.0658 56.4806 9.75988 56.7894 9.75988 57.171C9.75988 57.5525 10.0658 57.8614 10.4437 57.8614H27.0159C27.3958 57.8614 27.6998 57.5525 27.6998 57.171C27.6998 56.7894 27.3938 56.4806 27.0159 56.4806Z" fill="#7FE314"/>
<path d="M27.0159 62.4884H10.4437C10.0658 62.4884 9.75988 62.7972 9.75988 63.1788C9.75988 63.5603 10.0658 63.8692 10.4437 63.8692H27.0159C27.3958 63.8692 27.6998 63.5603 27.6998 63.1788C27.6998 62.7972 27.3938 62.4884 27.0159 62.4884Z" fill="#7FE314"/>
<path d="M27.0159 68.5022H10.4437C10.0658 68.5022 9.75988 68.8111 9.75988 69.1926C9.75988 69.5742 10.0658 69.883 10.4437 69.883H27.0159C27.3958 69.883 27.6998 69.5742 27.6998 69.1926C27.6998 68.8111 27.3938 68.5022 27.0159 68.5022Z" fill="#7FE314"/>
<path d="M40.6928 75.1641H7.40641C7.0265 75.1641 6.72257 75.4729 6.72257 75.8545C6.72257 76.236 7.0285 76.5449 7.40641 76.5449H40.6928C41.0727 76.5449 41.3786 76.236 41.3786 75.8545C41.3786 75.4729 41.0707 75.1641 40.6928 75.1641Z" fill="#7FE314"/>
</svg>
