<svg width="89" height="64" viewBox="0 0 89 64" fill="none" xmlns="http://www.w3.org/2000/svg">
<mask id="path-1-inside-1_2185_687" fill="white">
<path d="M44.5 14.2711C36.9898 14.2711 30.8801 20.32 30.8801 27.7541C30.8801 32.8919 33.7623 37.5111 38.4009 39.8119C40.2998 40.7585 42.3519 41.2385 44.5 41.2385C46.6481 41.2385 48.6987 40.76 50.5961 39.8133C55.2362 37.5126 58.1184 32.8933 58.1184 27.7556C58.1184 20.3215 52.0087 14.2726 44.4985 14.2726L44.5 14.2711ZM44.5 42.6874C42.1192 42.6874 39.845 42.1556 37.7389 41.1052C32.6019 38.5585 29.409 33.443 29.409 27.7526C29.409 19.5185 36.1792 12.8193 44.5 12.8193C52.8208 12.8193 59.5895 19.517 59.5895 27.7526C59.5895 33.443 56.3966 38.5585 51.2597 41.1052C49.155 42.1541 46.8808 42.6859 44.5 42.6859"/>
<path d="M63.8392 29.8681V28.4163C65.9874 28.4163 68.0379 27.9378 69.9354 26.9911C74.5754 24.6904 77.4576 20.0711 77.4576 14.9333C77.4576 7.49926 71.3479 1.44889 63.8377 1.44889C58.8299 1.44889 54.2364 4.16 51.8511 8.52593L50.5556 7.83704C53.2006 3.00444 58.2895 0 63.8392 0C72.1601 0 78.9287 6.69926 78.9287 14.9348C78.9287 20.6237 75.7358 25.7393 70.5974 28.2874C68.4928 29.3363 66.22 29.8681 63.8392 29.8681Z"/>
<path d="M25.1608 29.8667C22.78 29.8667 20.5057 29.3348 18.4011 28.2844C13.2627 25.7378 10.0713 20.6222 10.0713 14.9319C10.0698 6.69926 16.8399 0 25.1608 0C30.7105 0 35.8009 3.00296 38.4429 7.83852L37.1489 8.52741C34.7621 4.16296 30.1701 1.45037 25.1608 1.45037C17.6506 1.45037 11.5409 7.49926 11.5409 14.9333C11.5409 20.0711 14.4231 24.6904 19.0616 26.9896C20.9606 27.9363 23.0126 28.4163 25.1608 28.4163V29.8667Z"/>
<path d="M16.0608 51.1807H0.5V50.4548C0.5 41.6904 5.28865 33.5541 12.9955 29.2207L13.4248 28.9793L13.8136 29.2815C17.0801 31.8148 21.0026 33.1556 25.1593 33.1556V34.6059C20.839 34.6059 16.7499 33.2652 13.3048 30.7244C6.51058 34.7304 2.23232 41.923 1.98313 49.7304H16.0608V51.1807Z"/>
<path d="M21.3224 62.5496H67.6777C67.427 54.7437 63.1487 47.5511 56.3545 43.5422C52.9079 46.083 48.8203 47.4237 44.5 47.4237C40.1797 47.4237 36.0906 46.083 32.6455 43.5422C25.8513 47.5511 21.573 54.7437 21.3224 62.5496ZM69.1608 64H19.8392V63.2741C19.8392 54.5096 24.6279 46.3733 32.3347 42.04L32.7641 41.7985L33.1529 42.1007C36.4193 44.6341 40.3433 45.9733 44.4985 45.9733C48.6537 45.9733 52.5777 44.6341 55.8441 42.1007L56.2329 41.7985L56.6623 42.04C64.3691 46.3748 69.1578 54.5111 69.1578 63.2741V64"/>
<path d="M88.5 51.1807H72.9392V49.7304H87.0184C86.7677 41.9244 82.4894 34.7319 75.6953 30.723C72.2486 33.2637 68.161 34.6044 63.8407 34.6044V33.1541C67.9974 33.1541 71.9199 31.8148 75.1864 29.28L75.5752 28.9778L76.0045 29.2193C83.7114 33.5541 88.5 41.6904 88.5 50.4533V51.1793"/>
</mask>
<path d="M44.5 14.2711C36.9898 14.2711 30.8801 20.32 30.8801 27.7541C30.8801 32.8919 33.7623 37.5111 38.4009 39.8119C40.2998 40.7585 42.3519 41.2385 44.5 41.2385C46.6481 41.2385 48.6987 40.76 50.5961 39.8133C55.2362 37.5126 58.1184 32.8933 58.1184 27.7556C58.1184 20.3215 52.0087 14.2726 44.4985 14.2726L44.5 14.2711ZM44.5 42.6874C42.1192 42.6874 39.845 42.1556 37.7389 41.1052C32.6019 38.5585 29.409 33.443 29.409 27.7526C29.409 19.5185 36.1792 12.8193 44.5 12.8193C52.8208 12.8193 59.5895 19.517 59.5895 27.7526C59.5895 33.443 56.3966 38.5585 51.2597 41.1052C49.155 42.1541 46.8808 42.6859 44.5 42.6859" fill="#88E525"/>
<path d="M63.8392 29.8681V28.4163C65.9874 28.4163 68.0379 27.9378 69.9354 26.9911C74.5754 24.6904 77.4576 20.0711 77.4576 14.9333C77.4576 7.49926 71.3479 1.44889 63.8377 1.44889C58.8299 1.44889 54.2364 4.16 51.8511 8.52593L50.5556 7.83704C53.2006 3.00444 58.2895 0 63.8392 0C72.1601 0 78.9287 6.69926 78.9287 14.9348C78.9287 20.6237 75.7358 25.7393 70.5974 28.2874C68.4928 29.3363 66.22 29.8681 63.8392 29.8681Z" fill="#88E525"/>
<path d="M25.1608 29.8667C22.78 29.8667 20.5057 29.3348 18.4011 28.2844C13.2627 25.7378 10.0713 20.6222 10.0713 14.9319C10.0698 6.69926 16.8399 0 25.1608 0C30.7105 0 35.8009 3.00296 38.4429 7.83852L37.1489 8.52741C34.7621 4.16296 30.1701 1.45037 25.1608 1.45037C17.6506 1.45037 11.5409 7.49926 11.5409 14.9333C11.5409 20.0711 14.4231 24.6904 19.0616 26.9896C20.9606 27.9363 23.0126 28.4163 25.1608 28.4163V29.8667Z" fill="#88E525"/>
<path d="M16.0608 51.1807H0.5V50.4548C0.5 41.6904 5.28865 33.5541 12.9955 29.2207L13.4248 28.9793L13.8136 29.2815C17.0801 31.8148 21.0026 33.1556 25.1593 33.1556V34.6059C20.839 34.6059 16.7499 33.2652 13.3048 30.7244C6.51058 34.7304 2.23232 41.923 1.98313 49.7304H16.0608V51.1807Z" fill="#88E525"/>
<path d="M21.3224 62.5496H67.6777C67.427 54.7437 63.1487 47.5511 56.3545 43.5422C52.9079 46.083 48.8203 47.4237 44.5 47.4237C40.1797 47.4237 36.0906 46.083 32.6455 43.5422C25.8513 47.5511 21.573 54.7437 21.3224 62.5496ZM69.1608 64H19.8392V63.2741C19.8392 54.5096 24.6279 46.3733 32.3347 42.04L32.7641 41.7985L33.1529 42.1007C36.4193 44.6341 40.3433 45.9733 44.4985 45.9733C48.6537 45.9733 52.5777 44.6341 55.8441 42.1007L56.2329 41.7985L56.6623 42.04C64.3691 46.3748 69.1578 54.5111 69.1578 63.2741V64" fill="#88E525"/>
<path d="M88.5 51.1807H72.9392V49.7304H87.0184C86.7677 41.9244 82.4894 34.7319 75.6953 30.723C72.2486 33.2637 68.161 34.6044 63.8407 34.6044V33.1541C67.9974 33.1541 71.9199 31.8148 75.1864 29.28L75.5752 28.9778L76.0045 29.2193C83.7114 33.5541 88.5 41.6904 88.5 50.4533V51.1793" fill="#88E525"/>
<path d="M44.5 14.2711L47.3119 17.116L54.237 10.2711H44.5V14.2711ZM38.4009 39.8119L40.1855 36.232L40.1783 36.2284L38.4009 39.8119ZM50.5961 39.8133L48.8192 36.2297L48.8104 36.2341L50.5961 39.8133ZM44.4985 14.2726L41.6866 11.4277L34.7615 18.2726H44.4985V14.2726ZM37.7389 41.1052L39.5241 37.5256L39.5155 37.5214L37.7389 41.1052ZM51.2597 41.1052L49.483 37.5214L49.4754 37.5252L51.2597 41.1052ZM63.8392 29.8681H59.8392V33.8681H63.8392V29.8681ZM63.8392 28.4163V24.4163H59.8392V28.4163H63.8392ZM69.9354 26.9911L68.1584 23.4075L68.1496 23.4119L69.9354 26.9911ZM51.8511 8.52593L49.9731 12.0576L53.4651 13.9146L55.3614 10.4438L51.8511 8.52593ZM50.5556 7.83704L47.0468 5.91656L45.103 9.46794L48.6776 11.3688L50.5556 7.83704ZM70.5974 28.2874L68.8203 24.7038L68.8132 24.7074L70.5974 28.2874ZM25.1608 29.8667V33.8667H29.1608V29.8667H25.1608ZM18.4011 28.2844L20.1874 24.7054L20.1774 24.7005L18.4011 28.2844ZM10.0713 14.9319H14.0713V14.9311L10.0713 14.9319ZM38.4429 7.83852L40.3226 11.3693L43.8919 9.46912L41.9531 5.92063L38.4429 7.83852ZM37.1489 8.52741L33.6394 10.4467L35.5372 13.917L39.0286 12.0582L37.1489 8.52741ZM19.0616 26.9896L20.8463 23.4098L20.8381 23.4058L19.0616 26.9896ZM25.1608 28.4163H29.1608V24.4163H25.1608V28.4163ZM16.0608 51.1807V55.1807H20.0608V51.1807H16.0608ZM0.5 51.1807H-3.5V55.1807H0.5V51.1807ZM12.9955 29.2207L14.9559 32.7074L14.9565 32.7071L12.9955 29.2207ZM13.4248 28.9793L15.8797 25.8212L13.7809 24.1897L11.4639 25.4929L13.4248 28.9793ZM13.8136 29.2815L11.3588 32.4396L11.3623 32.4423L13.8136 29.2815ZM25.1593 33.1556H29.1593V29.1556H25.1593V33.1556ZM25.1593 34.6059V38.6059H29.1593V34.6059H25.1593ZM13.3048 30.7244L15.6789 27.5052L13.5509 25.9358L11.2731 27.2788L13.3048 30.7244ZM1.98313 49.7304L-2.01483 49.6028L-2.14658 53.7304H1.98313V49.7304ZM16.0608 49.7304H20.0608V45.7304H16.0608V49.7304ZM21.3224 62.5496L17.3244 62.4212L17.1918 66.5496H21.3224V62.5496ZM67.6777 62.5496V66.5496H71.8082L71.6756 62.4212L67.6777 62.5496ZM56.3545 43.5422L58.3872 40.0972L56.1097 38.7533L53.981 40.3225L56.3545 43.5422ZM32.6455 43.5422L35.0196 40.323L32.8908 38.753L30.6128 40.0972L32.6455 43.5422ZM19.8392 64H15.8392V68H19.8392V64ZM32.3347 42.04L34.2952 45.5266L34.2957 45.5264L32.3347 42.04ZM32.7641 41.7985L35.2189 38.6404L33.1201 37.009L30.8031 38.3122L32.7641 41.7985ZM33.1529 42.1007L30.698 45.2589L30.7015 45.2616L33.1529 42.1007ZM55.8441 42.1007L58.2955 45.2616L58.299 45.2588L55.8441 42.1007ZM56.2329 41.7985L58.1939 38.3121L55.8769 37.009L53.7781 38.6404L56.2329 41.7985ZM56.6623 42.04L58.6232 38.5536L58.6232 38.5536L56.6623 42.04ZM72.9392 51.1807H68.9392V55.1807H72.9392V51.1807ZM72.9392 49.7304V45.7304H68.9392V49.7304H72.9392ZM87.0184 49.7304V53.7304H91.1489L91.0163 49.602L87.0184 49.7304ZM75.6953 30.723L77.728 27.278L75.4504 25.9341L73.3218 27.5032L75.6953 30.723ZM63.8407 34.6044H59.8407V38.6044H63.8407V34.6044ZM63.8407 33.1541V29.1541H59.8407V33.1541H63.8407ZM75.1864 29.28L77.6386 32.4401L77.6412 32.4381L75.1864 29.28ZM75.5752 28.9778L77.5361 25.4914L75.2191 24.1882L73.1203 25.8197L75.5752 28.9778ZM76.0045 29.2193L77.9654 25.7329L77.9654 25.7329L76.0045 29.2193ZM44.5 10.2711C34.8187 10.2711 26.8801 18.073 26.8801 27.7541H34.8801C34.8801 22.567 39.1609 18.2711 44.5 18.2711V10.2711ZM26.8801 27.7541C26.8801 34.4275 30.6379 40.4264 36.6235 43.3953L40.1783 36.2284C36.8868 34.5958 34.8801 31.3562 34.8801 27.7541H26.8801ZM36.6162 43.3917C39.0766 44.6182 41.7405 45.2385 44.5 45.2385V37.2385C42.9633 37.2385 41.523 36.8988 40.1855 36.232L36.6162 43.3917ZM44.5 45.2385C47.2579 45.2385 49.9209 44.6204 52.3819 43.3926L48.8104 36.2341C47.4765 36.8996 46.0384 37.2385 44.5 37.2385V45.2385ZM52.3731 43.397C58.3604 40.4282 62.1184 34.4292 62.1184 27.7556H54.1184C54.1184 31.3575 52.1119 34.597 48.8192 36.2297L52.3731 43.397ZM62.1184 27.7556C62.1184 18.0745 54.1798 10.2726 44.4985 10.2726V18.2726C49.8377 18.2726 54.1184 22.5685 54.1184 27.7556H62.1184ZM47.3104 17.1175L47.3119 17.116L41.6881 11.4262L41.6866 11.4277L47.3104 17.1175ZM44.5 38.6874C42.7307 38.6874 41.0685 38.2959 39.5241 37.5257L35.9536 44.6847C38.6214 46.0152 41.5077 46.6874 44.5 46.6874V38.6874ZM39.5155 37.5214C35.7261 35.6427 33.409 31.907 33.409 27.7526H25.409C25.409 34.9789 29.4778 41.4743 35.9622 44.689L39.5155 37.5214ZM33.409 27.7526C33.409 21.7672 38.3486 16.8193 44.5 16.8193V8.81926C34.0098 8.81926 25.409 17.2699 25.409 27.7526H33.409ZM44.5 16.8193C50.6512 16.8193 55.5895 21.7654 55.5895 27.7526H63.5895C63.5895 17.2686 54.9905 8.81926 44.5 8.81926V16.8193ZM55.5895 27.7526C55.5895 31.907 53.2724 35.6427 49.483 37.5214L53.0363 44.689C59.5207 41.4743 63.5895 34.9789 63.5895 27.7526H55.5895ZM49.4754 37.5252C47.9321 38.2943 46.2696 38.6859 44.5 38.6859V46.6859C47.4921 46.6859 50.378 46.0138 53.0439 44.6852L49.4754 37.5252ZM67.8392 29.8681V28.4163H59.8392V29.8681H67.8392ZM63.8392 32.4163C66.5971 32.4163 69.2601 31.7982 71.7211 30.5704L68.1496 23.4119C66.8157 24.0774 65.3776 24.4163 63.8392 24.4163V32.4163ZM71.7123 30.5748C77.6996 27.606 81.4576 21.607 81.4576 14.9333H73.4576C73.4576 18.5352 71.4512 21.7748 68.1584 23.4075L71.7123 30.5748ZM81.4576 14.9333C81.4576 5.25281 73.5196 -2.55111 63.8377 -2.55111V5.44889C69.1763 5.44889 73.4576 9.74571 73.4576 14.9333H81.4576ZM63.8377 -2.55111C57.3801 -2.55111 51.4337 0.947161 48.3408 6.6081L55.3614 10.4438C57.0391 7.37284 60.2798 5.44889 63.8377 5.44889V-2.55111ZM53.7291 4.99421L52.4336 4.30532L48.6776 11.3688L49.9731 12.0576L53.7291 4.99421ZM54.0644 9.75751C56.002 6.21745 59.7394 4 63.8392 4V-4C56.8396 -4 50.3993 -0.208561 47.0468 5.91656L54.0644 9.75751ZM63.8392 4C69.9899 4 74.9287 8.94716 74.9287 14.9348H82.9287C82.9287 4.45136 74.3302 -4 63.8392 -4V4ZM74.9287 14.9348C74.9287 19.0872 72.6121 22.8235 68.8203 24.7038L72.3745 31.871C78.8594 28.6551 82.9287 22.1602 82.9287 14.9348H74.9287ZM68.8132 24.7074C67.2695 25.4767 65.6084 25.8681 63.8392 25.8681V33.8681C66.8317 33.8681 69.716 33.1959 72.3816 31.8674L68.8132 24.7074ZM25.1608 25.8667C23.3913 25.8667 21.7295 25.4751 20.1874 24.7054L16.6149 31.8635C19.2819 33.1945 22.1686 33.8667 25.1608 33.8667V25.8667ZM20.1774 24.7005C16.3873 22.822 14.0713 19.0868 14.0713 14.9319H6.07129C6.07129 22.1576 10.1381 28.6535 16.6249 31.8684L20.1774 24.7005ZM14.0713 14.9311C14.0702 8.94817 19.0089 4 25.1608 4V-4C14.6709 -4 6.06938 4.45035 6.07129 14.9326L14.0713 14.9311ZM25.1608 4C29.2618 4 32.9987 6.21683 34.9327 9.75641L41.9531 5.92063C38.603 -0.210904 32.1592 -4 25.1608 -4V4ZM36.5632 4.30771L35.2692 4.9966L39.0286 12.0582L40.3226 11.3693L36.5632 4.30771ZM40.6584 6.60815C37.5646 0.950961 31.621 -2.54963 25.1608 -2.54963V5.45037C28.7191 5.45037 31.9596 7.37497 33.6394 10.4467L40.6584 6.60815ZM25.1608 -2.54963C15.4795 -2.54963 7.54091 5.25224 7.54091 14.9333H15.5409C15.5409 9.74628 19.8216 5.45037 25.1608 5.45037V-2.54963ZM7.54091 14.9333C7.54091 21.6066 11.2986 27.606 17.2852 30.5735L20.8381 23.4058C17.5476 21.7747 15.5409 18.5356 15.5409 14.9333H7.54091ZM17.277 30.5695C19.7374 31.796 22.4012 32.4163 25.1608 32.4163V24.4163C23.624 24.4163 22.1838 24.0766 20.8463 23.4098L17.277 30.5695ZM21.1608 28.4163V29.8667H29.1608V28.4163H21.1608ZM16.0608 47.1807H0.5V55.1807H16.0608V47.1807ZM4.5 51.1807V50.4548H-3.5V51.1807H4.5ZM4.5 50.4548C4.5 43.1519 8.49478 36.3403 14.9559 32.7074L11.0351 25.7341C2.08251 30.7678 -3.5 40.2289 -3.5 50.4548H4.5ZM14.9565 32.7071L15.3858 32.4656L11.4639 25.4929L11.0346 25.7344L14.9565 32.7071ZM10.97 32.1374L11.3588 32.4396L16.2685 26.1234L15.8797 25.8212L10.97 32.1374ZM11.3623 32.4423C15.3333 35.522 20.119 37.1556 25.1593 37.1556V29.1556C21.8863 29.1556 18.827 28.1076 16.265 26.1207L11.3623 32.4423ZM21.1593 33.1556V34.6059H29.1593V33.1556H21.1593ZM25.1593 30.6059C21.6867 30.6059 18.431 29.5348 15.6789 27.5052L10.9306 33.9437C15.0688 36.9955 19.9912 38.6059 25.1593 38.6059V30.6059ZM11.2731 27.2788C3.30933 31.9743 -1.72152 40.4128 -2.01483 49.6028L5.98109 49.858C6.18616 43.4331 9.71183 37.4864 15.3364 34.1701L11.2731 27.2788ZM1.98313 53.7304H16.0608V45.7304H1.98313V53.7304ZM12.0608 49.7304V51.1807H20.0608V49.7304H12.0608ZM21.3224 66.5496H67.6777V58.5496H21.3224V66.5496ZM71.6756 62.4212C71.3805 53.233 66.3498 44.7955 58.3872 40.0972L54.3218 46.9872C59.9476 50.3067 63.4734 56.2544 63.6797 62.678L71.6756 62.4212ZM53.981 40.3225C51.2268 42.3529 47.9721 43.4237 44.5 43.4237V51.4237C49.6685 51.4237 54.589 49.8131 58.728 46.7619L53.981 40.3225ZM44.5 43.4237C41.0275 43.4237 37.7717 42.3526 35.0196 40.323L30.2713 46.7615C34.4095 49.8133 39.332 51.4237 44.5 51.4237V43.4237ZM30.6128 40.0972C22.6502 44.7955 17.6195 53.233 17.3244 62.4212L25.3203 62.678C25.5266 56.2544 29.0524 50.3067 34.6782 46.9872L30.6128 40.0972ZM69.1608 60H19.8392V68H69.1608V60ZM23.8392 64V63.2741H15.8392V64H23.8392ZM23.8392 63.2741C23.8392 55.9711 27.834 49.1596 34.2952 45.5266L30.3743 38.5534C21.4217 43.5871 15.8392 53.0481 15.8392 63.2741H23.8392ZM34.2957 45.5264L34.725 45.2849L30.8031 38.3122L30.3738 38.5536L34.2957 45.5264ZM30.3092 44.9566L30.698 45.2589L35.6077 38.9426L35.2189 38.6404L30.3092 44.9566ZM30.7015 45.2616C34.6734 48.342 39.4608 49.9733 44.4985 49.9733V41.9733C41.2258 41.9733 38.1653 40.9262 35.6042 38.9399L30.7015 45.2616ZM44.4985 49.9733C49.5362 49.9733 54.3236 48.342 58.2955 45.2616L53.3928 38.9399C50.8317 40.9262 47.7712 41.9733 44.4985 41.9733V49.9733ZM58.299 45.2588L58.6878 44.9566L53.7781 38.6404L53.3893 38.9426L58.299 45.2588ZM54.272 45.2849L54.7013 45.5264L58.6232 38.5536L58.1939 38.3121L54.272 45.2849ZM54.7013 45.5264C61.1632 49.1609 65.1578 55.9729 65.1578 63.2741H73.1578C73.1578 53.0494 67.5751 43.5887 58.6232 38.5536L54.7013 45.5264ZM65.1578 63.2741V64H73.1578V63.2741H65.1578ZM88.5 47.1807H72.9392V55.1807H88.5V47.1807ZM76.9392 51.1807V49.7304H68.9392V51.1807H76.9392ZM72.9392 53.7304H87.0184V45.7304H72.9392V53.7304ZM91.0163 49.602C90.7212 40.4138 85.6905 31.9762 77.728 27.278L73.6625 34.168C79.2883 37.4875 82.8141 43.4351 83.0204 49.8588L91.0163 49.602ZM73.3218 27.5032C70.5675 29.5336 67.3128 30.6044 63.8407 30.6044V38.6044C69.0092 38.6044 73.9298 36.9938 78.0687 33.9427L73.3218 27.5032ZM67.8407 34.6044V33.1541H59.8407V34.6044H67.8407ZM63.8407 37.1541C68.8801 37.1541 73.6665 35.5225 77.6386 32.4401L72.7341 26.1199C70.1733 28.1071 67.1147 29.1541 63.8407 29.1541V37.1541ZM77.6412 32.4381L78.03 32.1359L73.1203 25.8197L72.7315 26.1219L77.6412 32.4381ZM73.6142 32.4641L74.0436 32.7056L77.9654 25.7329L77.5361 25.4914L73.6142 32.4641ZM74.0435 32.7056C80.5054 36.3402 84.5 43.1521 84.5 50.4533H92.5C92.5 40.2286 86.9173 30.768 77.9654 25.7329L74.0435 32.7056ZM84.5 50.4533V51.1793H92.5V50.4533H84.5Z" fill="#88E525" mask="url(#path-1-inside-1_2185_687)"/>
</svg>
