<svg xmlns="http://www.w3.org/2000/svg" xmlns:xlink="http://www.w3.org/1999/xlink" width="720" height="684" viewBox="0 0 720 684">
  <defs>
    <linearGradient id="linear-gradient" x1="0.621" y1="5.192" x2="0.489" y2="6.174" gradientUnits="objectBoundingBox">
      <stop offset="0" stop-color="#df8e18"/>
      <stop offset="0.155" stop-color="#e9a013"/>
      <stop offset="0.394" stop-color="#f5b50e"/>
      <stop offset="0.629" stop-color="#fdc20a"/>
      <stop offset="0.849" stop-color="#ffc609"/>
    </linearGradient>
    <clipPath id="clip-path">
      <path id="Path_34" data-name="Path 34" d="M91.3,88.9,55.8,85.7l4.3-35.1L29.7,51.8l1.4,34.9L0,84.7l7.2,27.6,24.9-1-.5,80.5,28-8.5-2.9-72.9,24.9-1Z"/>
    </clipPath>
  </defs>
  <g id="Group_16" data-name="Group 16" transform="translate(-548 -835)">
    <g id="Group_3" data-name="Group 3">
      <g id="Group_2" data-name="Group 2" transform="translate(454 88)">
        <rect id="Rectangle_1" data-name="Rectangle 1" width="720" height="684" transform="translate(94 747)" fill="#fff"/>
      </g>
    </g>
    <g id="logo" transform="translate(639.45 1053.369)">
      <g id="Group_12" data-name="Group 12">
        <g id="Group_4" data-name="Group 4">
          <path id="Path_1" data-name="Path 1" d="M91.3,88.9,55.8,85.7l4.3-35.1L29.7,51.8l1.4,34.9L0,84.7l7.2,27.6,24.9-1-.5,80.5,28-8.5-2.9-72.9,24.9-1Z" fill="url(#linear-gradient)"/>
        </g>
        <path id="Path_2" data-name="Path 2" d="M81.3,69.3l53.8-31.7,6.6,13.5Z" fill="#ffc609"/>
        <path id="Path_3" data-name="Path 3" d="M98.7,94.8l25.6,1.3-.8,6.5Z" fill="#ffc609"/>
        <path id="Path_4" data-name="Path 4" d="M103.7,79.6l38.7,4.8-.7-9.8Z" fill="#ffc609"/>
        <path id="Path_5" data-name="Path 5" d="M78,49.2,99.9,26l4.7,6.4Z" fill="#ffc609"/>
        <path id="Path_6" data-name="Path 6" d="M59.2,42.3,78.9,0,89.5,7.2Z" fill="#ffc609"/>
        <g id="Group_7" data-name="Group 7">
          <g id="Group_6" data-name="Group 6">
            <g id="Group_5" data-name="Group 5" clip-path="url(#clip-path)">
              <path id="Path_7" data-name="Path 7" d="M-2.8,114.7l-1.3-1L10,96.3-7.3,88.8l.6-1.5,19.3,8.4Z" fill="#fff"/>
              <path id="Path_8" data-name="Path 8" d="M6.3,112.2l-1.2-1,14-17.3L-3.1,84.3l.7-1.5L21.7,93.2Z" fill="#fff"/>
              <path id="Path_9" data-name="Path 9" d="M22.2,75.5l-1.2-1L35,57.2,12.8,47.6l.7-1.5L37.6,56.5Z" fill="#fff"/>
              <path id="Path_10" data-name="Path 10" d="M35,75.5l-1.2-1L47.9,57.2,25.6,47.6l.7-1.5L50.5,56.5Z" fill="#fff"/>
              <path id="Path_11" data-name="Path 11" d="M51.2,63.8l-1.2-1L64.1,45.4,41.9,35.8l.6-1.4L66.7,44.8Z" fill="#fff"/>
              <path id="Path_12" data-name="Path 12" d="M33.8,129.8l-1.2-1,14-17.3-22.2-9.6.7-1.5,24.1,10.4Z" fill="#fff"/>
              <path id="Path_13" data-name="Path 13" d="M67.1,110.7l-1.3-1L79.9,92.4,57.7,82.8l.6-1.5L82.5,91.7Z" fill="#fff"/>
              <path id="Path_14" data-name="Path 14" d="M29.2,166.9l-1.2-1,14-17.4-22.2-9.6.7-1.5,24.1,10.5Z" fill="#fff"/>
              <path id="Path_15" data-name="Path 15" d="M41.7,164.6l-1.2-1,14.1-17.3-22.3-9.6.7-1.5,24.2,10.4Z" fill="#fff"/>
              <path id="Path_16" data-name="Path 16" d="M53.3,161.6l-1.2-1,14.1-17.4-22.3-9.6.7-1.5,24.2,10.5Z" fill="#fff"/>
              <path id="Path_17" data-name="Path 17" d="M75.7,111.5l-1.2-1.1L90,91.3,67.8,81.7l.6-1.5L92.6,90.7Z" fill="#fff"/>
              <path id="Path_18" data-name="Path 18" d="M22.4,118.7l-1.3-1,7.3-8.9-8.9-3.9.7-1.4,10.7,4.6Z" fill="#fff"/>
              <path id="Path_19" data-name="Path 19" d="M30.3,126.7l-1.3-1,7.3-8.9L27.4,113l.7-1.5,10.8,4.7Z" fill="#fff"/>
              <path id="Path_20" data-name="Path 20" d="M19.3,102.6l-1.2-1,7.2-9-8.8-3.8.6-1.5L27.9,92Z" fill="#fff"/>
              <path id="Path_21" data-name="Path 21" d="M43.2,101.6l-1.2-1,7.2-8.9-8.8-3.8.6-1.5,10.8,4.7Z" fill="#fff"/>
              <path id="Path_22" data-name="Path 22" d="M35.7,103.4l-1.3-1,4.3-5.3-5.2-2.2.7-1.5,7.1,3.1Z" fill="#fff"/>
              <path id="Path_23" data-name="Path 23" d="M51,113.5l-1.3-1,4.3-5.3-5.2-2.3.7-1.4,7.1,3.1Z" fill="#fff"/>
              <path id="Path_24" data-name="Path 24" d="M54.1,127.8l-1.3-1,4.3-5.3-5.2-2.2.7-1.5,7.1,3.1Z" fill="#fff"/>
              <path id="Path_25" data-name="Path 25" d="M47.9,129.8l-1.3-1,4.4-5.3-5.2-2.2.6-1.5,7.1,3.1Z" fill="#fff"/>
              <path id="Path_26" data-name="Path 26" d="M53.3,100.8l-1.2-1,7.2-8.9-8.8-3.8.6-1.5,10.8,4.7Z" fill="#fff"/>
              <path id="Path_27" data-name="Path 27" d="M63.8,107.8l-1.2-1,7.2-8.9L61,94.1l.6-1.5,10.8,4.7Z" fill="#fff"/>
              <path id="Path_28" data-name="Path 28" d="M28.3,98.1l-1.3-1L37.1,84.7,24.8,79.3l.6-1.4L39.7,84Z" fill="#fff"/>
              <path id="Path_29" data-name="Path 29" d="M45.6,84l-1.3-1,7.3-8.9-8.9-3.8.7-1.5,10.7,4.7Z" fill="#fff"/>
              <path id="Path_30" data-name="Path 30" d="M53.3,82.5l-1.2-1,7.2-8.9-8.8-3.8.6-1.5L61.9,72Z" fill="#fff"/>
              <path id="Path_31" data-name="Path 31" d="M15.5,119.7l-1.2-1,7.2-8.9L12.7,106l.6-1.5,10.8,4.7Z" fill="#fff"/>
              <path id="Path_32" data-name="Path 32" d="M29.8,194.9l-1.3-1,14.1-17.4-22.2-9.6.6-1.5,24.2,10.5Z" fill="#fff"/>
              <path id="Path_33" data-name="Path 33" d="M42.6,194.9l-1.3-1,14.1-17.4-22.2-9.6.6-1.5L58,175.9Z" fill="#fff"/>
            </g>
          </g>
        </g>
        <g id="Group_11" data-name="Group 11">
          <path id="Path_35" data-name="Path 35" d="M192,185.2s-35.3,44.3-92,23.1-95.8-3.8-95.8-3.8,52.1-24,98.2-7.1S192,185.2,192,185.2Z" fill="#2156a6"/>
          <path id="Path_36" data-name="Path 36" d="M187,197.6c-27.3,50.5-79.2,46.9-109.9,29.9C45.9,210.1,4.6,209.9,4.6,209.9s37.3-10.3,82.7,8.6C148.5,244,187,197.6,187,197.6Z" fill="#009abd"/>
          <path id="Path_37" data-name="Path 37" d="M93.3,246.3c-12.9,2.3-27.3,1-42-9.7C37.4,226.4,4.7,213,4.7,213s39.8,7,56.4,19.5C68.3,238,81.5,244.6,93.3,246.3Z" fill="#2156a6"/>
          <path id="Path_38" data-name="Path 38" d="M73.5,178.1s14.1-5.7,28.4-2.7c14.4,3,26.3,3,45.6-1.6s38,8.4,38,8.4-28.2,7.4-51.1,6.7-33.8-6.3-46-8.4C76.2,178.5,73.5,178.1,73.5,178.1Z" fill="#009abd"/>
          <g id="Group_8" data-name="Group 8">
            <path id="Path_39" data-name="Path 39" d="M102.5,197.3c45.1,16.5,87.8-10.9,89.5-12.1a.1.1,0,0,0,.1-.1s-43.7,17-94.5,1.4C45,170.4,4.3,204.3,4.3,204.3c.1,0,.2-.1.3-.1C8.3,202.6,58.2,181.1,102.5,197.3Z" fill="#009abd"/>
            <path id="Path_40" data-name="Path 40" d="M4.8,204.2c.3-.1.7-.3,1-.4A6.894,6.894,0,0,1,4.8,204.2Z" fill="#009abd"/>
          </g>
          <g id="Group_9" data-name="Group 9">
            <path id="Path_41" data-name="Path 41" d="M87.4,218.5c49.1,20.8,83.8-5.7,95.2-16.3l1.3-1.3c-10.1,9.2-40.8,30.8-89.8,12-55.5-21.3-89.4-3.1-89.4-3.1S42.2,200.9,87.4,218.5Z" fill="#2156a6"/>
          </g>
          <g id="Group_10" data-name="Group 10">
            <path id="Path_42" data-name="Path 42" d="M56.9,222.8c-22.8-7.8-52.3-9.7-52.3-9.7s39,7,55.5,19.5c7.3,5.5,21.4,12.1,33.1,13.9a38.675,38.675,0,0,0,12.4-4.8h0C83.4,238,73.1,228.3,56.9,222.8Z" fill="#009abd"/>
          </g>
        </g>
      </g>
      <g id="Group_15" data-name="Group 15">
        <g id="Group_13" data-name="Group 13">
          <path id="Path_43" data-name="Path 43" d="M98.8,133a10.216,10.216,0,0,0-4.4-1.1,9.224,9.224,0,0,0-4.9,1.3,10.063,10.063,0,0,0-3.5,3.6,10.627,10.627,0,0,0-1.3,5,9.576,9.576,0,0,0,1.3,5,9.455,9.455,0,0,0,8.4,4.9,9.962,9.962,0,0,0,4.3-1,13.577,13.577,0,0,0,3.9-2.7l4.2,4.6a20.165,20.165,0,0,1-5.9,4.1,17.061,17.061,0,0,1-15.2-.6,15.209,15.209,0,0,1-5.9-5.9,16.866,16.866,0,0,1-2.2-8.3,15.274,15.274,0,0,1,2.2-8.2,15.478,15.478,0,0,1,6.1-5.8,17.551,17.551,0,0,1,8.5-2.1,18.385,18.385,0,0,1,6.8,1.4,16.1,16.1,0,0,1,5.7,3.9l-4.1,5.1A13.129,13.129,0,0,0,98.8,133Z" fill="#2156a6"/>
          <path id="Path_44" data-name="Path 44" d="M134,157.7l-2.5-6.1H116.9l-2.5,6.1h-7.3l13.7-31.5h7.3l13.5,31.5Zm-14.7-11.8h10l-5-12.3Z" fill="#2156a6"/>
          <path id="Path_45" data-name="Path 45" d="M138.5,126.2h26.4v6h-9.7v25.5h-7.1V132.2h-9.6v-6Z" fill="#2156a6"/>
          <path id="Path_46" data-name="Path 46" d="M168.7,126.2h7.1v13.2h14.3V126.2h7.1v31.5h-7.1V145.3H175.8v12.4h-7.1Z" fill="#2156a6"/>
          <path id="Path_47" data-name="Path 47" d="M227.5,127.8a16.2,16.2,0,0,1,6.1,5.8,15.622,15.622,0,0,1,2.2,8.3,15.917,15.917,0,0,1-8.3,14.2,17.941,17.941,0,0,1-8.6,2.1,17.662,17.662,0,0,1-8.6-2.1,16.441,16.441,0,0,1-6.1-22.5,15.478,15.478,0,0,1,6.1-5.8,17.662,17.662,0,0,1,8.6-2.1A17.941,17.941,0,0,1,227.5,127.8Zm-13.4,5.4a10.341,10.341,0,0,0-3.6,3.6,9.576,9.576,0,0,0-1.3,5,9.687,9.687,0,0,0,1.3,5.1,10.341,10.341,0,0,0,3.6,3.6,9.23,9.23,0,0,0,4.8,1.4,9.123,9.123,0,0,0,4.8-1.3,10.063,10.063,0,0,0,3.5-3.6,9.935,9.935,0,0,0,1.3-5.1,9.576,9.576,0,0,0-1.3-5,10.063,10.063,0,0,0-3.5-3.6,9.123,9.123,0,0,0-4.8-1.3A8.2,8.2,0,0,0,214.1,133.2Z" fill="#2156a6"/>
          <path id="Path_48" data-name="Path 48" d="M240.5,126.2h7.1v25.3h13.5v6.2H240.5Z" fill="#2156a6"/>
          <path id="Path_49" data-name="Path 49" d="M265.3,126.2h7.1v31.5h-7.1Z" fill="#2156a6"/>
          <path id="Path_50" data-name="Path 50" d="M298.5,133a10.216,10.216,0,0,0-4.4-1.1,9.224,9.224,0,0,0-4.9,1.3,10.063,10.063,0,0,0-3.5,3.6,10.628,10.628,0,0,0-1.3,5,9.576,9.576,0,0,0,1.3,5,9.455,9.455,0,0,0,8.4,4.9,9.961,9.961,0,0,0,4.3-1,13.577,13.577,0,0,0,3.9-2.7l4.2,4.6a20.166,20.166,0,0,1-5.9,4.1,17.06,17.06,0,0,1-15.2-.6,15.209,15.209,0,0,1-5.9-5.9,16.866,16.866,0,0,1-2.2-8.3,15.274,15.274,0,0,1,2.2-8.2,15.478,15.478,0,0,1,6.1-5.8,17.551,17.551,0,0,1,8.5-2.1,18.385,18.385,0,0,1,6.8,1.4,16.1,16.1,0,0,1,5.7,3.9l-4.1,5.1A14.436,14.436,0,0,0,298.5,133Z" fill="#2156a6"/>
          <path id="Path_51" data-name="Path 51" d="M336.9,132.6a15.369,15.369,0,0,0-4.7-.9,4.99,4.99,0,0,0-2.9.7,2.305,2.305,0,0,0-1.1,2,2.583,2.583,0,0,0,1.6,2.5,20.312,20.312,0,0,0,4.8,1.8,38.8,38.8,0,0,1,5.3,1.9,9.775,9.775,0,0,1,3.6,2.8,7.836,7.836,0,0,1,1.5,5,8.454,8.454,0,0,1-1.6,5.2,9.209,9.209,0,0,1-4.4,3.3,16.236,16.236,0,0,1-6.4,1.1,21.231,21.231,0,0,1-7.5-1.4,19.214,19.214,0,0,1-6.4-3.7l2.8-5.8a20.647,20.647,0,0,0,5.5,3.5,14.516,14.516,0,0,0,5.7,1.3,6.317,6.317,0,0,0,3.4-.8,2.561,2.561,0,0,0,1.2-2.3,2.792,2.792,0,0,0-.8-2,7.434,7.434,0,0,0-2.1-1.3c-.9-.3-2-.7-3.5-1.1a40.223,40.223,0,0,1-5.3-1.8,9.188,9.188,0,0,1-3.5-2.7,7.544,7.544,0,0,1-1.5-4.9,8.447,8.447,0,0,1,1.5-5,9.735,9.735,0,0,1,4.3-3.3,15.917,15.917,0,0,1,6.4-1.1,23.011,23.011,0,0,1,6.4.9,22.108,22.108,0,0,1,5.6,2.5l-2.7,5.9A34.287,34.287,0,0,0,336.9,132.6Z" fill="#2156a6"/>
          <path id="Path_52" data-name="Path 52" d="M369,133a10.216,10.216,0,0,0-4.4-1.1,9.224,9.224,0,0,0-4.9,1.3,10.063,10.063,0,0,0-3.5,3.6,10.628,10.628,0,0,0-1.3,5,9.576,9.576,0,0,0,1.3,5,9.455,9.455,0,0,0,8.4,4.9,9.961,9.961,0,0,0,4.3-1,13.577,13.577,0,0,0,3.9-2.7l4.2,4.6a20.166,20.166,0,0,1-5.9,4.1,17.06,17.06,0,0,1-15.2-.6,15.209,15.209,0,0,1-5.9-5.9,16.866,16.866,0,0,1-2.2-8.3,15.274,15.274,0,0,1,2.2-8.2,15.478,15.478,0,0,1,6.1-5.8,17.551,17.551,0,0,1,8.5-2.1,18.385,18.385,0,0,1,6.8,1.4,16.1,16.1,0,0,1,5.7,3.9l-4.1,5.1A14.436,14.436,0,0,0,369,133Z" fill="#2156a6"/>
          <path id="Path_53" data-name="Path 53" d="M381.2,126.2h7.1v13.2h14.3V126.2h7.1v31.5h-7.1V145.3H388.3v12.4h-7.1Z" fill="#2156a6"/>
          <path id="Path_54" data-name="Path 54" d="M440,127.8a16.2,16.2,0,0,1,6.1,5.8,15.622,15.622,0,0,1,2.2,8.3,15.917,15.917,0,0,1-8.3,14.2,17.941,17.941,0,0,1-8.6,2.1,17.662,17.662,0,0,1-8.6-2.1,16.441,16.441,0,0,1-6.1-22.5,15.478,15.478,0,0,1,6.1-5.8,17.662,17.662,0,0,1,8.6-2.1A17.941,17.941,0,0,1,440,127.8Zm-13.4,5.4a10.341,10.341,0,0,0-3.6,3.6,9.576,9.576,0,0,0-1.3,5,9.687,9.687,0,0,0,1.3,5.1,10.341,10.341,0,0,0,3.6,3.6,9.23,9.23,0,0,0,4.8,1.4,9.123,9.123,0,0,0,4.8-1.3,10.063,10.063,0,0,0,3.5-3.6,9.935,9.935,0,0,0,1.3-5.1,9.576,9.576,0,0,0-1.3-5,10.063,10.063,0,0,0-3.5-3.6,9.123,9.123,0,0,0-4.8-1.3A8.2,8.2,0,0,0,426.6,133.2Z" fill="#2156a6"/>
          <path id="Path_55" data-name="Path 55" d="M475.5,127.8a16.2,16.2,0,0,1,6.1,5.8,15.622,15.622,0,0,1,2.2,8.3,15.917,15.917,0,0,1-8.3,14.2,17.941,17.941,0,0,1-8.6,2.1,17.662,17.662,0,0,1-8.6-2.1,16.441,16.441,0,0,1-6.1-22.5,15.478,15.478,0,0,1,6.1-5.8,17.662,17.662,0,0,1,8.6-2.1A17.941,17.941,0,0,1,475.5,127.8Zm-13.4,5.4a10.341,10.341,0,0,0-3.6,3.6,9.576,9.576,0,0,0-1.3,5,9.687,9.687,0,0,0,1.3,5.1,10.341,10.341,0,0,0,3.6,3.6,9.23,9.23,0,0,0,4.8,1.4,9.123,9.123,0,0,0,4.8-1.3,10.063,10.063,0,0,0,3.5-3.6,9.935,9.935,0,0,0,1.3-5.1,9.576,9.576,0,0,0-1.3-5,10.063,10.063,0,0,0-3.5-3.6,9.123,9.123,0,0,0-4.8-1.3A8.2,8.2,0,0,0,462.1,133.2Z" fill="#2156a6"/>
          <path id="Path_56" data-name="Path 56" d="M488.5,126.2h7.1v25.3h13.5v6.2H488.5Z" fill="#2156a6"/>
          <path id="Path_57" data-name="Path 57" d="M529,132.6a15.369,15.369,0,0,0-4.7-.9,4.99,4.99,0,0,0-2.9.7,2.305,2.305,0,0,0-1.1,2,2.583,2.583,0,0,0,1.6,2.5,20.312,20.312,0,0,0,4.8,1.8,38.8,38.8,0,0,1,5.3,1.9,9.774,9.774,0,0,1,3.6,2.8,7.836,7.836,0,0,1,1.5,5,8.454,8.454,0,0,1-1.6,5.2,9.209,9.209,0,0,1-4.4,3.3,16.236,16.236,0,0,1-6.4,1.1,21.231,21.231,0,0,1-7.5-1.4,19.215,19.215,0,0,1-6.4-3.7l2.8-5.8a20.647,20.647,0,0,0,5.5,3.5,14.516,14.516,0,0,0,5.7,1.3,6.317,6.317,0,0,0,3.4-.8,2.561,2.561,0,0,0,1.2-2.3,2.792,2.792,0,0,0-.8-2,7.434,7.434,0,0,0-2.1-1.3c-.9-.3-2-.7-3.5-1.1a40.222,40.222,0,0,1-5.3-1.8,9.188,9.188,0,0,1-3.5-2.7,7.544,7.544,0,0,1-1.5-4.9,8.447,8.447,0,0,1,1.5-5,9.735,9.735,0,0,1,4.3-3.3,15.917,15.917,0,0,1,6.4-1.1,23.012,23.012,0,0,1,6.4.9,22.108,22.108,0,0,1,5.6,2.5l-2.7,5.9A34.29,34.29,0,0,0,529,132.6Z" fill="#2156a6"/>
        </g>
        <g id="Group_14" data-name="Group 14">
          <path id="Path_58" data-name="Path 58" d="M289.4,187.5a6.792,6.792,0,0,1,1.5,4.5,9.231,9.231,0,0,1-1.8,5.7,11.335,11.335,0,0,1-5,3.7,19.328,19.328,0,0,1-7.5,1.3h-15l6.6-33h14.7a12.925,12.925,0,0,1,7.3,1.8,5.916,5.916,0,0,1,2.6,5.1,8.459,8.459,0,0,1-2,5.5,10.194,10.194,0,0,1-5.4,3.2A5.736,5.736,0,0,1,289.4,187.5Zm-7,8.3a4.44,4.44,0,0,0,2-3.8,2.9,2.9,0,0,0-1.5-2.6,8.041,8.041,0,0,0-4.1-.9h-8.1l-1.7,8.7h8A9.367,9.367,0,0,0,282.4,195.8Zm1.9-14a4.266,4.266,0,0,0,1.7-3.5,2.851,2.851,0,0,0-1.2-2.4,6.182,6.182,0,0,0-3.3-.8h-8.1l-1.6,8h8.1A6.781,6.781,0,0,0,284.3,181.8Z" fill="#009abd"/>
          <path id="Path_59" data-name="Path 59" d="M309.2,178.4a11.365,11.365,0,0,1,5.2-1.2l-.8,5.9h-.8a9.534,9.534,0,0,0-9.4,7.2l-2.5,12.4h-6.1l5-25.2H306l-.9,4.5A11.622,11.622,0,0,1,309.2,178.4Z" fill="#009abd"/>
          <path id="Path_60" data-name="Path 60" d="M335.3,178.7a9.785,9.785,0,0,1,4.2,4.1,12.144,12.144,0,0,1,1.5,6,13.715,13.715,0,0,1-1.9,7.3,13.87,13.87,0,0,1-5.2,5,15.406,15.406,0,0,1-7.5,1.8,13.435,13.435,0,0,1-6.4-1.5,9.785,9.785,0,0,1-4.2-4.1,11.993,11.993,0,0,1-1.5-6.1,13.715,13.715,0,0,1,1.9-7.3,13.87,13.87,0,0,1,5.2-5,15.406,15.406,0,0,1,7.5-1.8A14.408,14.408,0,0,1,335.3,178.7Zm-10.9,4.8a7.617,7.617,0,0,0-2.9,3,8.931,8.931,0,0,0-1,4.4,7.113,7.113,0,0,0,1.7,4.9,6.253,6.253,0,0,0,4.6,1.9,8.107,8.107,0,0,0,4.1-1.1,7.387,7.387,0,0,0,2.8-3,8.931,8.931,0,0,0,1-4.4,7.293,7.293,0,0,0-1.7-4.9,5.755,5.755,0,0,0-4.6-1.9A8.017,8.017,0,0,0,324.4,183.5Z" fill="#009abd"/>
          <path id="Path_61" data-name="Path 61" d="M373.5,177.4l-11.9,10.2,7,15h-7.4l-4.6-10.7-5.2,4.5-1.2,6.2h-6.1l7-35h6.1l-4,20.1,12.3-10.4,8,.1Z" fill="#009abd"/>
          <path id="Path_62" data-name="Path 62" d="M394.9,180.2a10.709,10.709,0,0,1,3,8,18.252,18.252,0,0,1-.5,4H378.3a6.246,6.246,0,0,0,2,4.3,7.3,7.3,0,0,0,4.8,1.6,10.807,10.807,0,0,0,6.6-2.3l2.9,3.7a14.188,14.188,0,0,1-9.7,3.4,15.718,15.718,0,0,1-6.7-1.4,10.91,10.91,0,0,1-4.5-4,11.114,11.114,0,0,1-1.6-6.1,13.365,13.365,0,0,1,1.9-7.2,13.862,13.862,0,0,1,5.1-5.1,14.971,14.971,0,0,1,7.3-1.9C390.1,177.2,392.9,178.2,394.9,180.2Zm-3.9,3.5a5.359,5.359,0,0,0-4.2-1.6,7.99,7.99,0,0,0-4.9,1.6,8.868,8.868,0,0,0-3,4.3h13.5A5.883,5.883,0,0,0,391,183.7Z" fill="#009abd"/>
          <path id="Path_63" data-name="Path 63" d="M426.1,179.3a7.614,7.614,0,0,1,2.4,5.9,12.217,12.217,0,0,1-.3,2.6l-3,14.8H419l2.8-13.9a7.568,7.568,0,0,0,.1-1.5,4.156,4.156,0,0,0-1.3-3.3,5.314,5.314,0,0,0-3.7-1.2,6.741,6.741,0,0,0-4.7,1.8,8.2,8.2,0,0,0-2.7,4.9l-2.7,13.3h-6.1l4.9-25.2h6.2l-.7,3.6a9.743,9.743,0,0,1,8.2-3.9C422.2,177.1,424.5,177.8,426.1,179.3Z" fill="#009abd"/>
          <path id="Path_64" data-name="Path 64" d="M471.8,187.5a6.792,6.792,0,0,1,1.5,4.5,9.231,9.231,0,0,1-1.8,5.7,11.335,11.335,0,0,1-5,3.7,19.328,19.328,0,0,1-7.5,1.3H444l6.6-33h14.6a12.925,12.925,0,0,1,7.3,1.8,5.916,5.916,0,0,1,2.6,5.1,8.459,8.459,0,0,1-2,5.5,10.194,10.194,0,0,1-5.4,3.2A6.178,6.178,0,0,1,471.8,187.5Zm-7,8.3a4.44,4.44,0,0,0,2-3.8,2.9,2.9,0,0,0-1.5-2.6,8.041,8.041,0,0,0-4.1-.9h-8.1l-1.7,8.7h8A9.827,9.827,0,0,0,464.8,195.8Zm1.8-14a4.266,4.266,0,0,0,1.7-3.5,2.851,2.851,0,0,0-1.2-2.4,6.182,6.182,0,0,0-3.3-.8h-8.1l-1.6,8h8.1A6.781,6.781,0,0,0,466.6,181.8Z" fill="#009abd"/>
          <path id="Path_65" data-name="Path 65" d="M482.3,201.5a8.756,8.756,0,0,1-3.6-4,12.5,12.5,0,0,1-1.3-5.9,15.29,15.29,0,0,1,1.8-7.4,13.614,13.614,0,0,1,4.9-5.2,12.813,12.813,0,0,1,6.9-1.9,9.7,9.7,0,0,1,5.3,1.3,7.744,7.744,0,0,1,3.2,3.9l1-5h6.1l-5,25.2h-6.1l.7-3.4a12.135,12.135,0,0,1-3.9,2.8,12.363,12.363,0,0,1-4.7,1A10.214,10.214,0,0,1,482.3,201.5Zm11.7-4.8a8.417,8.417,0,0,0,3-3.2,9.257,9.257,0,0,0,1.1-4.4,6.853,6.853,0,0,0-1.7-4.8,5.8,5.8,0,0,0-4.5-1.8,7.3,7.3,0,0,0-4.1,1.2,8.371,8.371,0,0,0-3,3.2,9.56,9.56,0,0,0-1.1,4.4,6.853,6.853,0,0,0,1.7,4.8,5.951,5.951,0,0,0,4.5,1.8A7.537,7.537,0,0,0,494,196.7Z" fill="#009abd"/>
          <path id="Path_66" data-name="Path 66" d="M536.4,177.4l-17,28.6c-2.3,4-5.5,6-9.5,6a8.109,8.109,0,0,1-3.3-.6,9.1,9.1,0,0,1-2.7-1.8l3.2-4.3a4.555,4.555,0,0,0,2.9,1.1,5.673,5.673,0,0,0,4.5-2.6l1.1-1.6-5.4-24.8h6.3l3.3,18.6,10.4-18.6Z" fill="#009abd"/>
        </g>
      </g>
    </g>
  </g>
</svg>
