<svg width="102" height="98" viewBox="0 0 102 98" fill="none" xmlns="http://www.w3.org/2000/svg">
<path d="M23.5067 41.1663C22.1901 41.1663 21.1263 40.0811 21.1263 38.7368C21.1263 37.3925 22.1983 36.306 23.5067 36.306C24.8221 36.306 25.8871 37.402 25.8871 38.7368C25.8871 40.0811 24.8221 41.1663 23.5067 41.1663ZM37.3292 39.3898C36.0208 39.3898 34.957 38.295 34.957 36.9603C34.957 35.616 36.0208 34.5295 37.3292 34.5295C38.6446 34.5295 39.7178 35.616 39.7178 36.9603C39.7178 38.295 38.6446 39.3898 37.3292 39.3898ZM56.5795 37.6038C55.2629 37.6038 54.1991 36.5185 54.1991 35.1742C54.1991 33.8299 55.2629 32.7435 56.5795 32.7435C57.8961 32.7435 58.9599 33.8299 58.9599 35.1742C58.9599 36.5185 57.8961 37.6038 56.5795 37.6038ZM70.6817 38.0646C69.3826 38.0467 68.3282 36.9686 68.3282 35.6339C68.3282 34.2991 69.4014 33.2043 70.7086 33.2043C72.0252 33.2043 73.089 34.2991 73.089 35.6339C73.089 36.9686 72.0334 38.0467 70.7355 38.0646C70.7261 38.0646 70.7179 38.0551 70.7086 38.0551C70.6992 38.0551 70.6898 38.0646 70.6817 38.0646ZM83.6919 42.7864C82.3847 42.7864 81.3115 41.7012 81.3115 40.3569C81.3115 39.0221 82.3847 37.9261 83.6919 37.9261C85.0085 37.9261 86.0723 39.0221 86.0723 40.3569C86.0723 41.7012 85.0085 42.7864 83.6919 42.7864ZM84.3508 58.9612H77.1827V56.3645L84.6036 51.0159C85.0272 50.7126 85.2707 50.216 85.2707 49.6907L85.2789 45.7699C87.561 45.0703 89.2462 42.9249 89.2462 40.3569C89.2462 37.2361 86.7581 34.6859 83.6919 34.6859C80.6269 34.6859 78.1377 37.2361 78.1377 40.3569C78.1377 42.9154 79.8241 45.0608 82.105 45.7604V48.8537L74.6759 54.2012C74.2605 54.5056 74.0088 54.9927 74.0088 55.5276V58.9612H65.9291V52.9404L71.8262 46.9197C72.1235 46.6164 72.2955 46.2021 72.2955 45.7699V41.0374C74.5764 40.3378 76.2628 38.1936 76.2628 35.6339C76.2628 32.5047 73.7736 29.9641 70.7086 29.9641C67.6424 29.9641 65.1543 32.5047 65.1543 35.6339C65.1543 38.1936 66.8407 40.3378 69.1217 41.0374V45.0978L63.2245 51.1174C62.9272 51.4218 62.7552 51.8361 62.7552 52.2683V58.9612H48.1393V49.2585L57.1026 46.1007C57.7428 45.8798 58.1758 45.2625 58.1758 44.5725V40.5777C60.4567 39.8686 62.1338 37.7327 62.1338 35.1742C62.1338 32.0439 59.6445 29.5033 56.5795 29.5033C53.5133 29.5033 51.0252 32.0439 51.0252 35.1742C51.0252 37.7327 52.7116 39.8781 55.0019 40.5777V43.4132L48.1393 45.8344V30.4238C50.4296 29.7158 52.1066 27.5799 52.1066 25.0202C52.1066 21.8911 49.6185 19.3505 46.5523 19.3505C43.4967 19.3505 40.9981 21.8911 40.9981 25.0202C40.9981 27.5799 42.6845 29.7241 44.9654 30.4238V50.7031L38.9243 47.353V42.3638C41.2064 41.6642 42.8916 39.5188 42.8916 36.9603C42.8916 33.8299 40.4036 31.2893 37.3374 31.2893C34.2723 31.2893 31.7831 33.8299 31.7831 36.9603C31.7831 39.5188 33.4602 41.6642 35.7504 42.3638V48.3105C35.7504 48.9087 36.0664 49.4519 36.5802 49.7372L44.9654 54.3946V58.9612H30.9545L25.1018 50.6386V44.1403C27.3839 43.4407 29.0692 41.2953 29.0692 38.7368C29.0692 35.6064 26.5717 33.0658 23.5149 33.0658C20.4499 33.0658 17.9607 35.6064 17.9607 38.7368C17.9607 41.2953 19.6377 43.4407 21.928 44.1403C22.0275 51.2284 21.7033 51.3657 22.2264 52.1119L27.0492 58.9612H17.221C9.47595 58.9612 3.17386 52.544 3.17386 44.656C3.17386 34.9163 8.61109 32.1823 19.3135 30.2948C20.3598 30.111 20.9274 28.9601 20.4768 27.9942C15.022 16.4135 30.9896 6.50906 38.5194 16.8278C39.2496 17.8307 40.7734 17.6468 41.2509 16.4959C44.605 8.44196 52.2868 3.23184 60.8172 3.23184C73.9 3.23184 83.9716 15.419 81.7364 28.4168C81.583 29.3015 82.1237 30.2674 83.4134 30.3318C87.9214 30.5443 98.3898 32.3758 98.3898 44.656C98.3898 52.544 92.0959 58.9612 84.3508 58.9612ZM46.5617 27.451C46.5523 27.451 46.5523 27.451 46.5523 27.451C46.5523 27.451 46.5523 27.451 46.5441 27.451C45.2369 27.451 44.1719 26.355 44.1719 25.0202C44.1719 23.6771 45.2369 22.5907 46.5523 22.5907C47.8607 22.5907 48.9327 23.6771 48.9327 25.0202C48.9327 26.355 47.8689 27.4414 46.5617 27.451ZM83.6919 72.7231C85.0085 72.7231 86.0723 73.8179 86.0723 75.1526C86.0723 76.4969 85.0085 77.5834 83.6919 77.5834C82.3847 77.5834 81.3115 76.4969 81.3115 75.1526C81.3115 73.8179 82.3847 72.7231 83.6919 72.7231ZM68.8689 89.909C68.8782 89.909 68.8782 89.8995 68.8876 89.8995C70.1948 89.8995 71.268 90.9859 71.268 92.3302C71.268 93.6734 70.1948 94.7598 68.8876 94.7598C67.571 94.7598 66.5072 93.6734 66.5072 92.3302C66.5072 91.0038 67.5616 89.9186 68.8595 89.8995C68.8595 89.8995 68.8595 89.909 68.8689 89.909ZM56.5889 77.9786H56.5971C57.9043 77.9881 58.9599 79.0745 58.9599 80.4093C58.9599 81.7441 57.8867 82.8389 56.5795 82.8389C55.2629 82.8389 54.1991 81.7441 54.1991 80.4093C54.1991 79.0745 55.2629 77.9881 56.5701 77.9786C56.5701 77.9786 56.5795 77.9786 56.5889 77.9786ZM44.6775 91.1972C44.6775 92.5416 43.6043 93.628 42.2971 93.628C40.9805 93.628 39.9167 92.5416 39.9167 91.1972C39.9167 89.8625 40.9805 88.7677 42.2971 88.7677C43.6043 88.7677 44.6775 89.8625 44.6775 91.1972ZM26.6443 92.3302C26.6443 93.6734 25.5805 94.7598 24.2721 94.7598C22.9567 94.7598 21.8835 93.6734 21.8835 92.3302C21.8835 90.9859 22.9567 89.8995 24.2721 89.8995C25.5805 89.8995 26.6443 90.9859 26.6443 92.3302ZM85.0986 27.2206C86.5053 12.9154 75.2892 0 60.8078 0C51.8363 0 43.6769 5.0179 39.403 12.9704C29.4928 3.29632 12.5784 14.1034 16.8524 27.4605C8.06105 29.2 0 32.4032 0 44.656C0 54.3301 7.71815 62.2014 17.2128 62.2014H28.8889V76.0636L22.911 82.1667C22.6138 82.4711 22.4511 82.8854 22.4511 83.3092V86.9995C20.2779 87.7732 18.7096 89.8625 18.7096 92.3302C18.7096 95.4594 21.2071 98 24.2639 98C27.3289 98 29.8182 95.4594 29.8182 92.3302C29.8182 89.6882 28.0241 87.4699 25.6156 86.8527V83.9802L31.5947 77.8771C31.8919 77.5738 32.0628 77.1596 32.0628 76.7357V62.2014H44.9654V75.4284L41.1069 79.8935C40.8541 80.1884 40.7102 80.5657 40.7102 80.9609V85.7937C38.4199 86.4933 36.7335 88.6387 36.7335 91.1972C36.7335 94.3276 39.2309 96.8682 42.2878 96.8682C45.354 96.8682 47.842 94.3276 47.842 91.1972C47.842 88.6483 46.165 86.5029 43.884 85.7937V81.5781L47.7425 77.1046C47.9953 76.8097 48.1393 76.4325 48.1393 76.0361V68.7271L54.9926 72.2443V74.9962C52.7023 75.6958 51.0159 77.8413 51.0159 80.4093C51.0159 83.5301 53.5133 86.0791 56.5701 86.0791C59.6363 86.0791 62.1244 83.5301 62.1244 80.4093C62.1244 77.8496 60.4474 75.7054 58.1664 75.0058V71.2403C58.1664 70.6326 57.8235 70.0715 57.291 69.7957L48.1311 65.1097V62.2097H62.747V72.9619C62.747 73.2376 62.8278 73.5146 62.9635 73.763L67.2726 81.4766V86.9351C65.001 87.6442 63.324 89.7801 63.324 92.3302C63.324 95.4594 65.8214 98 68.8782 98C71.9433 98 74.4325 95.4594 74.4325 92.3302C74.4325 89.7622 72.7461 87.6168 70.4464 86.9172V81.0444C70.4464 80.7591 70.375 80.4821 70.2393 80.2434L65.9209 72.5297V62.2014H73.9995V66.6378C73.9995 67.0426 74.1434 67.4294 74.4056 67.7243L78.7427 72.6311C78.3635 73.394 78.1295 74.2417 78.1295 75.1526C78.1295 78.283 80.6269 80.8236 83.6919 80.8236C86.7488 80.8236 89.238 78.283 89.238 75.1526C89.238 72.0318 86.7488 69.4829 83.6919 69.4829C82.682 69.4829 81.7445 69.7861 80.9242 70.2649L77.1733 66.0206V62.2097H84.3414C93.8455 62.2014 101.564 54.3301 101.564 44.656C101.564 33.1124 93.3856 28.141 85.0986 27.2206Z" fill="#7FE314"/>
</svg>
