<svg width="98" height="98" viewBox="0 0 98 98" fill="none" xmlns="http://www.w3.org/2000/svg">
<path d="M36.0509 67.2013C41.4569 67.2013 45.2856 62.155 44.4922 57.657H54.4067V67.3136C50.3518 68.1064 47.3083 71.6994 47.3083 76.084C47.3083 80.4686 50.3518 84.0616 54.4067 84.845V94.407H17.5719V57.657H27.6001C27.3739 63.7206 31.5424 67.2013 36.0509 67.2013ZM55.2001 81.5911C52.6102 81.1385 50.6917 78.8936 50.6917 76.084C50.6917 73.2743 52.6102 71.0294 55.2001 70.5769C56.665 70.3501 57.7901 69.002 57.7901 67.5487V57.657H67.6963C69.2749 57.657 70.5136 56.5346 70.7398 55.0636C71.1934 52.489 73.4435 50.575 76.2596 50.575C79.0769 50.575 81.327 52.489 81.7794 55.0636C82.0067 56.5346 83.2455 57.657 84.8229 57.657H94.6249V94.407H57.7901V84.6276C57.7901 83.166 56.665 81.8179 55.2001 81.5911ZM67.3647 35.9667C67.3647 31.582 63.9813 27.3097 57.7901 27.4231V17.418H94.6249V54.168H85.0503C84.2568 50.1224 80.6555 47.0859 76.2596 47.0859C71.8649 47.0859 68.2636 50.1224 67.4784 54.168H57.7901V44.3885C62.2902 45.1801 67.3647 41.3615 67.3647 35.9667ZM95.0702 14.1641H57.3365C55.7579 14.1641 54.4067 15.3999 54.4067 17.0789V28.093C54.4067 29.8936 56.099 31.0161 57.5639 30.9038C60.9378 30.6864 62.97 32.1385 63.6414 34.2794C65.1064 38.4384 61.1652 41.918 57.7901 41.0224C55.9853 40.5699 54.293 41.8045 54.293 43.6064V54.2814H43.5933C41.7885 54.2814 40.4361 55.9686 41.0034 57.761C41.9022 61.1366 38.4134 64.9564 34.2449 63.6083C32.3264 62.9384 30.8615 61.1366 30.8615 58.666C30.8615 57.5436 31.0889 56.752 30.4174 55.8564C29.8501 54.9513 29.065 54.3936 28.0536 54.3936H17.0141C15.4355 54.3936 14.0843 55.6295 14.0843 57.3179V95.0769C14.0843 96.6519 15.3218 98 17.0141 98C19.1505 98 96.2035 98 95.0702 98C96.6476 98 98 96.7641 98 95.0769V17.1923C98 15.3999 96.7613 14.1641 95.0702 14.1641Z" fill="#7FE314"/>
<path d="M47.3083 21.6903C47.3083 24.5 45.3981 26.7449 42.8082 27.1974C41.3432 27.4231 40.2182 28.7724 40.2182 30.2339V40.1256H30.3037C28.7251 40.1256 27.4864 41.2481 27.2602 42.7096C26.8066 45.2936 24.5565 47.1994 21.7404 47.1994C18.9231 47.1994 16.6742 45.2936 16.2206 42.7096C15.9933 41.2481 14.7557 40.1256 13.1771 40.1256H3.38339V3.3756H40.2182V13.1456C40.2182 14.7206 41.3432 15.9564 42.8082 16.1821C45.3981 16.5224 47.3083 18.8795 47.3083 21.6903ZM12.9497 43.4929C13.7432 47.5385 17.3457 50.575 21.7404 50.575C26.1351 50.575 29.7364 47.5385 30.5299 43.4929H40.7772C42.3546 43.4929 43.707 42.2571 43.707 40.5699V30.3462C47.7619 29.5545 50.8054 25.9615 50.8054 21.5769C50.8054 17.1923 47.7619 13.5981 43.707 12.8159V2.92308C43.707 1.34811 42.4683 0 40.7772 0H2.92983C1.35241 0 0 1.23587 0 2.92308V40.6821C0 42.2571 1.23872 43.6064 2.92983 43.6064L12.9497 43.4929Z" fill="#7FE314"/>
</svg>
