<svg width="110" height="98" viewBox="0 0 110 98" fill="none" xmlns="http://www.w3.org/2000/svg">
<path fill-rule="evenodd" clip-rule="evenodd" d="M54.912 66.3689C54.7828 66.3689 54.7828 66.3689 54.7187 66.3689C46.7301 65.5964 40.353 62.1818 35.5849 56.3193C23.0868 40.5364 26.5018 12.5771 26.6299 11.4171C26.7591 10.7086 27.403 10.1932 28.1121 10.0641C48.7922 8.32477 53.3658 1.04526 53.559 0.788151C53.6231 0.52986 53.8816 0.336736 54.2029 0.20759C54.912 -0.24264 55.8784 0.07963 56.329 0.788151C56.3931 0.981276 60.9678 8.32477 81.9052 10.0641C82.6131 10.1932 83.193 10.7086 83.3222 11.4171C83.4515 12.5771 86.8653 40.5364 74.3672 56.3193C69.6643 62.2458 63.0939 65.6604 55.1693 66.3689C54.976 66.3689 54.976 66.3689 54.912 66.3689ZM29.5943 13.1565C29.0785 18.6967 27.7255 41.438 38.0336 54.3229C42.2206 59.6048 47.8258 62.5681 54.912 63.2766C61.9342 62.5681 67.6675 59.4757 71.7905 54.3229C82.0333 41.438 80.6815 18.6967 80.1656 13.1565C64.1884 11.5463 57.4247 6.7146 54.912 4.13763C52.2701 6.7146 45.5704 11.5463 29.5943 13.1565Z" fill="#7FE314"/>
<path fill-rule="evenodd" clip-rule="evenodd" d="M54.912 58.3169C54.7828 58.3169 54.7828 58.3169 54.7187 58.3169C48.6629 57.8015 43.8309 55.2246 40.1597 50.65C30.6888 38.7971 33.2655 17.795 33.3308 16.8934C33.4588 16.1848 34.1039 15.5403 34.8118 15.5403C49.9519 14.3164 53.3658 9.03329 53.495 8.84017C53.6231 8.58306 53.8164 8.38994 54.0749 8.19681C54.7828 7.7454 55.8144 8.13165 56.1998 8.84017C56.329 9.03329 59.7441 14.3164 75.0122 15.5403C75.7202 15.6043 76.364 16.1848 76.4293 16.8934C76.4933 17.795 79.1352 38.7971 69.6644 50.65C65.9932 55.2246 61.0318 57.8015 55.0413 58.3169C54.9761 58.3169 54.9761 58.3169 54.912 58.3169ZM36.4221 18.5687C36.0355 23.2061 35.2636 39.5056 42.6712 48.7815C45.6997 52.6476 49.8226 54.7732 54.912 55.2885C60.0014 54.7732 64.1884 52.6476 67.2169 48.7815C74.6257 39.5056 73.8525 23.2061 73.466 18.5687C62.1915 17.4088 57.0381 14.1233 54.912 12.0617C52.7219 14.1233 47.6325 17.4088 36.4221 18.5687Z" fill="#7FE314"/>
<path fill-rule="evenodd" clip-rule="evenodd" d="M51.5622 43.951C51.497 43.951 51.497 43.951 51.5622 43.951C51.1104 43.951 50.725 43.7567 50.4025 43.4996C50.3384 43.4356 50.2732 43.3065 50.1452 43.2413L42.0913 35.1893C40.481 33.578 40.481 31.0661 42.0913 29.456C42.8004 28.7475 43.8309 28.296 44.7973 28.296C45.8929 28.296 46.9234 28.7475 47.6325 29.456L51.497 33.2569L62.1275 22.6907C62.8354 21.9822 63.8018 21.5319 64.8335 21.5319C65.8639 21.5319 66.9584 21.9822 67.6675 22.6907C68.4406 23.5283 68.8272 24.4951 68.8272 25.5259C68.8272 26.6207 68.3766 27.5875 67.6034 28.296L52.9151 43.2413C52.8499 43.3065 52.7219 43.4356 52.6567 43.4996C52.3993 43.7567 51.9487 43.951 51.5622 43.951ZM44.8625 31.4524C44.7332 31.4524 44.54 31.4524 44.3467 31.7107C43.9601 32.0969 43.9601 32.6763 44.3467 33.0637L51.5622 40.2141L65.6066 26.1705C65.7999 25.9762 65.8639 25.7191 65.8639 25.6551C65.8639 25.462 65.8639 25.2677 65.6066 25.0105C65.3481 24.7523 65.1548 24.7523 64.9615 24.7523C64.8335 24.7523 64.6402 24.7523 64.4469 25.0105L52.9151 36.3492C52.8499 36.4772 52.7219 36.5424 52.6567 36.6063C52.2701 36.9926 51.9487 37.0578 51.497 37.0578C51.0464 37.0578 50.725 36.9286 50.3384 36.6063C50.2732 36.5424 50.1452 36.4772 50.0799 36.3492L45.4423 31.8386C45.2491 31.5176 44.9906 31.4524 44.8625 31.4524Z" fill="#7FE314"/>
<path fill-rule="evenodd" clip-rule="evenodd" d="M81.3253 89.8828C81.1321 89.8828 80.8747 89.8828 80.6815 89.6897C79.9083 89.3674 79.5218 88.4658 79.9083 87.6281C82.8716 81.0571 86.0922 78.8024 89.1847 76.6768C94.2101 73.1982 99.9433 69.139 106.707 42.0826C106.9 41.374 106.772 40.7295 106.45 40.2141C106.192 39.7627 105.613 39.3764 105.033 39.2473C103.937 38.925 102.584 39.2473 102.133 40.9226C101.683 42.7911 101.231 44.4652 100.91 46.0766C98.1397 58.3169 96.271 66.3689 79.9083 72.2966C79.1352 72.5537 78.2328 72.1674 77.9755 71.3298C77.653 70.4921 78.0395 69.5905 78.9419 69.3322C84.5459 67.2706 88.2823 65.0159 90.795 62.4401C90.9243 62.3749 90.9883 62.1818 91.0535 62.1178C91.6322 61.5373 91.3749 60.7648 91.0535 60.5065C90.795 60.1202 90.2804 59.6688 89.442 60.1202L79.5218 65.4673C75.2695 67.786 74.4324 70.1059 73.0142 74.4221C72.6928 75.5169 72.2411 76.7408 71.7905 78.1579C71.5331 78.9955 70.5027 79.4469 69.7296 79.0607C68.8912 78.8024 68.4406 77.8368 68.8272 76.9991C69.2778 75.7752 69.7296 74.4861 70.0509 73.4553C71.5331 69.0751 72.6928 65.5964 78.0395 62.6972L87.961 57.3501C90.0219 56.3193 92.212 56.8347 93.565 58.6392C95.6271 55.0314 96.5935 50.7791 97.8813 45.3681C98.2038 43.6927 98.6544 42.0174 99.1062 40.085C100.007 36.6063 103.164 35.4464 105.806 36.1549C107.159 36.5424 108.319 37.3149 109.156 38.4096C109.929 39.6987 110.186 41.1797 109.865 42.7911C102.777 70.9435 96.5935 75.3238 91.1816 79.1887C88.2183 81.1863 85.6416 83.1187 82.9356 88.9172C82.485 89.4966 81.9692 89.8828 81.3253 89.8828Z" fill="#7FE314"/>
<path fill-rule="evenodd" clip-rule="evenodd" d="M74.883 98C74.1098 98 73.4007 97.7429 72.7569 97.2275L61.6757 86.4694C61.0318 85.954 60.7105 85.1163 60.7105 84.3426C60.7105 83.5701 60.9678 82.7325 61.4824 82.0879C61.4824 82.0879 61.4824 82.0879 61.4824 82.0239L66.8944 76.5477C67.4102 75.9683 68.1833 75.5821 69.0205 75.5821C69.7936 75.5821 70.6308 75.8392 71.2106 76.4186L82.2918 87.1127C82.9356 87.6281 83.3222 88.4658 83.3222 89.2395C83.3222 90.076 83.0649 90.8496 82.485 91.4942L77.1372 97.0344C76.6225 97.5498 75.7854 97.936 74.883 98ZM63.9311 84.1495L74.883 94.9076L80.2949 89.3674L69.2138 78.7384L63.9311 84.1495Z" fill="#7FE314"/>
<path fill-rule="evenodd" clip-rule="evenodd" d="M28.5627 89.8828C27.9188 89.8828 27.403 89.4966 27.0817 88.9812C24.505 83.1839 21.9271 81.3154 18.8998 79.2538C13.4238 75.3878 7.23877 71.0075 0.217746 42.8551C-0.234038 41.3089 0.0244635 39.7627 0.925659 38.5388C1.63476 37.444 2.79445 36.6063 4.21147 36.2841C6.91742 35.5756 10.0099 36.7355 10.9111 40.2141C11.3617 42.0826 11.8135 43.8859 12.2001 45.496C13.4238 50.8431 14.3902 55.0954 16.4511 58.7032C17.8041 56.8987 20.0595 56.3833 22.1204 57.4793L32.0418 62.8263C37.3885 65.6604 38.5482 69.139 39.9664 73.5205C40.353 74.6792 40.6743 75.8392 41.2542 77.1283C41.5115 77.9008 41.1249 78.8024 40.353 79.1887C39.5146 79.447 38.6134 79.0607 38.2909 78.287C37.711 76.934 37.3885 75.646 37.0019 74.4861C35.5849 70.235 34.877 67.9151 30.5608 65.5964L20.7033 60.2494C19.8662 59.7979 19.3504 60.2494 19.0931 60.5716C18.7705 60.9579 18.5132 61.6664 19.0931 62.1818C19.1571 62.2458 19.2223 62.3749 19.3504 62.568C21.9271 65.2102 25.5994 67.4649 31.2046 69.3973C32.0418 69.7196 32.4924 70.5561 32.1711 71.3937C31.9126 72.1674 31.0114 72.6177 30.2382 72.3606C13.8744 66.4981 12.0708 58.4449 9.23682 46.2057C8.85025 44.5944 8.46369 42.7911 8.0119 40.9226C7.56131 39.2473 6.20833 38.925 5.11385 39.2473C4.534 39.3764 3.95415 39.7627 3.69565 40.2141C3.30908 40.7295 3.24505 41.374 3.43833 42.0826C10.0099 69.139 15.6792 73.1982 20.7033 76.6768C23.7959 78.8024 26.9524 81.0571 29.9809 87.6281C30.3023 88.4658 29.9809 89.3674 29.1426 89.6897C29.0145 89.8828 28.692 89.8828 28.5627 89.8828Z" fill="#7FE314"/>
<path fill-rule="evenodd" clip-rule="evenodd" d="M34.941 98C34.1679 98 33.3307 97.6777 32.7509 97.0344L27.4682 91.5582C26.8232 90.9788 26.5659 90.1411 26.5659 89.3674C26.5659 88.4658 26.9524 87.7573 27.5323 87.1127L38.5482 76.4837C39.064 75.9683 39.9664 75.5821 40.8036 75.5821C41.5767 75.5821 42.4139 75.9683 42.9937 76.5477L48.2764 82.0239C48.2764 82.0239 48.2764 82.0239 48.2764 82.0879C49.4361 83.377 49.372 85.2443 48.2123 86.4694L37.1952 97.2275C36.4873 97.6777 35.7142 98 34.941 98ZM40.6743 78.7384L29.7224 89.3674L34.941 94.7797L45.957 84.1495L40.6743 78.7384Z" fill="#7FE314"/>
</svg>
