<svg width="98" height="98" viewBox="0 0 98 98" fill="none" xmlns="http://www.w3.org/2000/svg">
<path d="M34.2995 32.6667H37.5664V35.9336H34.2995V32.6667Z" fill="#7FE314"/>
<path d="M34.2995 39.2005H37.5664V42.4662H34.2995V39.2005Z" fill="#7FE314"/>
<path d="M34.2995 45.7331H37.5664V49H34.2995V45.7331Z" fill="#7FE314"/>
<path d="M34.2995 52.2669H37.5664V55.5338H34.2995V52.2669Z" fill="#7FE314"/>
<path d="M40.8333 32.6667H44.1002V35.9336H40.8333V32.6667Z" fill="#7FE314"/>
<path d="M40.8333 39.2005H44.1002V42.4662H40.8333V39.2005Z" fill="#7FE314"/>
<path d="M40.8333 45.7331H44.1002V49H40.8333V45.7331Z" fill="#7FE314"/>
<path d="M40.8333 52.2669H44.1002V55.5338H40.8333V52.2669Z" fill="#7FE314"/>
<path d="M47.3671 32.6667H50.6329V35.9336H47.3671V32.6667Z" fill="#7FE314"/>
<path d="M47.3671 39.2005H50.6329V42.4662H47.3671V39.2005Z" fill="#7FE314"/>
<path d="M47.3671 45.7331H50.6329V49H47.3671V45.7331Z" fill="#7FE314"/>
<path d="M47.3671 52.2669H50.6329V55.5338H47.3671V52.2669Z" fill="#7FE314"/>
<path d="M53.8998 32.6667H57.1667V35.9336H53.8998V32.6667Z" fill="#7FE314"/>
<path d="M40.8333 26.1329H44.1002V29.3998H40.8333V26.1329Z" fill="#7FE314"/>
<path d="M47.3671 26.1329H50.6329V29.3998H47.3671V26.1329Z" fill="#7FE314"/>
<path d="M53.8998 26.1329H57.1667V29.3998H53.8998V26.1329Z" fill="#7FE314"/>
<path d="M53.8998 39.2005H57.1667V42.4662H53.8998V39.2005Z" fill="#7FE314"/>
<path d="M53.8998 45.7331H57.1667V49H53.8998V45.7331Z" fill="#7FE314"/>
<path d="M53.8998 52.2669H57.1667V55.5338H53.8998V52.2669Z" fill="#7FE314"/>
<path d="M60.4336 32.6667H63.7005V35.9336H60.4336V32.6667Z" fill="#7FE314"/>
<path d="M60.4336 39.2005H63.7005V42.4662H60.4336V39.2005Z" fill="#7FE314"/>
<path d="M60.4336 45.7331H63.7005V49H60.4336V45.7331Z" fill="#7FE314"/>
<path d="M60.4336 52.2669H63.7005V55.5338H60.4336V52.2669Z" fill="#7FE314"/>
<path d="M96.3671 24.5H71.8671V1.63286C71.8671 0.730179 71.137 0 70.2331 0H27.7669C26.863 0 26.1329 0.730179 26.1329 1.63286V24.5H1.63286C0.730179 24.5 0 25.2302 0 26.1329V84.9336C0 85.8363 0.730179 86.5664 1.63286 86.5664H5.04745C4.95766 87.0993 4.89976 87.6428 4.89976 88.2005V96.3671C4.89976 97.2698 5.62994 98 6.53381 98H91.4662C92.3701 98 93.1002 97.2698 93.1002 96.3671V88.2005C93.1002 87.6428 93.0423 87.0993 92.9525 86.5664H96.3671C97.2698 86.5664 98 85.8363 98 84.9336V26.1329C98 25.2302 97.2698 24.5 96.3671 24.5ZM70.2331 70.2331C70.2331 72.0349 68.768 73.5 66.9662 73.5C65.1656 73.5 63.7005 72.0349 63.7005 70.2331C63.7005 68.4313 65.1656 66.9662 66.9662 66.9662C68.768 66.9662 70.2331 68.4313 70.2331 70.2331ZM31.0338 66.9662C32.8344 66.9662 34.2995 68.4313 34.2995 70.2331C34.2995 72.0349 32.8344 73.5 31.0338 73.5C29.232 73.5 27.7669 72.0349 27.7669 70.2331C27.7669 68.4313 29.232 66.9662 31.0338 66.9662ZM21.2331 94.7331H8.16667V88.2005C8.16667 84.5968 11.0968 81.6667 14.7005 81.6667C18.3029 81.6667 21.2331 84.5968 21.2331 88.2005V94.7331ZM11.4336 75.1329C11.4336 73.3322 12.8987 71.8671 14.7005 71.8671C16.5011 71.8671 17.9662 73.3322 17.9662 75.1329C17.9662 76.9347 16.5011 78.3998 14.7005 78.3998C12.8987 78.3998 11.4336 76.9347 11.4336 75.1329ZM21.4812 81.1409C20.868 80.549 20.178 80.035 19.4266 79.6203C20.5395 78.447 21.2331 76.8744 21.2331 75.1329C21.2331 71.5304 18.3029 68.6002 14.7005 68.6002C11.0968 68.6002 8.16667 71.5304 8.16667 75.1329C8.16667 76.8744 8.8614 78.447 9.97439 79.6203C8.41479 80.4828 7.11984 81.76 6.22661 83.2995H3.2669V27.7669H26.1329V65.9572C25.1286 67.1056 24.5 68.5908 24.5 70.2331C24.5 71.9747 25.1947 73.5473 26.3077 74.7205C23.8939 76.0545 22.1051 78.3785 21.4812 81.1409ZM37.5664 94.7331H24.5V83.2995C24.5 79.6971 27.4302 76.7669 31.0338 76.7669C34.6363 76.7669 37.5664 79.6971 37.5664 83.2995V94.7331ZM57.1667 94.7331H40.8333V83.2995C40.8333 78.7968 44.4972 75.1329 49 75.1329C53.5028 75.1329 57.1667 78.7968 57.1667 83.2995V94.7331ZM44.1002 66.9662C44.1002 64.2652 46.299 62.0664 49 62.0664C51.701 62.0664 53.8998 64.2652 53.8998 66.9662C53.8998 69.6683 51.701 71.8671 49 71.8671C46.299 71.8671 44.1002 69.6683 44.1002 66.9662ZM58.9472 77.685C57.8555 75.7603 56.2262 74.1841 54.2613 73.1597C56.023 71.6604 57.1667 69.4557 57.1667 66.9662C57.1667 62.4634 53.5028 58.7995 49 58.7995C44.4972 58.7995 40.8333 62.4634 40.8333 66.9662C40.8333 69.4557 41.977 71.6604 43.7387 73.1597C41.7738 74.1841 40.1445 75.7603 39.0528 77.685C38.195 76.4644 37.0714 75.4448 35.7599 74.7205C36.8729 73.5473 37.5664 71.9747 37.5664 70.2331C37.5664 66.6306 34.6363 63.7005 31.0338 63.7005C30.4667 63.7005 29.9255 63.795 29.3998 63.9321V3.2669H68.6002V63.9321C68.0745 63.795 67.5333 63.7005 66.9662 63.7005C63.3637 63.7005 60.4336 66.6306 60.4336 70.2331C60.4336 71.9747 61.1271 73.5473 62.2413 74.7205C60.9298 75.4448 59.805 76.4644 58.9472 77.685ZM73.5 94.7331H60.4336V83.2995C60.4336 79.6971 63.3637 76.7669 66.9662 76.7669C70.5698 76.7669 73.5 79.6971 73.5 83.2995V94.7331ZM89.8333 94.7331H76.7669V88.2005C76.7669 84.5968 79.6971 81.6667 83.2995 81.6667C86.9032 81.6667 89.8333 84.5968 89.8333 88.2005V94.7331ZM80.0338 75.1329C80.0338 73.3322 81.4989 71.8671 83.2995 71.8671C85.1013 71.8671 86.5664 73.3322 86.5664 75.1329C86.5664 76.9347 85.1013 78.3998 83.2995 78.3998C81.4989 78.3998 80.0338 76.9347 80.0338 75.1329ZM94.7331 83.2995H91.7734C90.8802 81.76 89.5852 80.4828 88.0256 79.6203C89.1386 78.447 89.8333 76.8744 89.8333 75.1329C89.8333 71.5304 86.9032 68.6002 83.2995 68.6002C79.6971 68.6002 76.7669 71.5304 76.7669 75.1329C76.7669 76.8744 77.4605 78.447 78.5746 79.6203C77.8232 80.0362 77.1344 80.549 76.52 81.1409C75.8961 78.3785 74.1073 76.0545 71.6935 74.7205C72.8053 73.5473 73.5 71.9747 73.5 70.2331C73.5 68.5908 72.8714 67.1056 71.8671 65.9572V27.7669H94.7331V83.2995Z" fill="#7FE314"/>
<path d="M76.7669 37.5664H80.0338V63.7005H76.7669V37.5664Z" fill="#7FE314"/>
<path d="M86.5664 37.5664H89.8333V63.7005H86.5664V37.5664Z" fill="#7FE314"/>
<path d="M8.16667 37.5664H11.4336V63.7005H8.16667V37.5664Z" fill="#7FE314"/>
<path d="M17.9662 37.5664H21.2331V63.7005H17.9662V37.5664Z" fill="#7FE314"/>
<path d="M39.2005 22.8671H58.7995C59.7034 22.8671 60.4336 22.137 60.4336 21.2331V8.16667C60.4336 7.26399 59.7034 6.53381 58.7995 6.53381H39.2005C38.2966 6.53381 37.5664 7.26399 37.5664 8.16667V21.2331C37.5664 22.137 38.2966 22.8671 39.2005 22.8671ZM40.8333 9.79953H57.1667V19.6002H40.8333V9.79953Z" fill="#7FE314"/>
</svg>
