<svg width="32" height="15" viewBox="0 0 32 15" fill="none" xmlns="http://www.w3.org/2000/svg">
<path d="M1 6.5C0.447715 6.5 -4.82823e-08 6.94772 0 7.5C4.82823e-08 8.05228 0.447715 8.5 1 8.5L1 6.5ZM31.7071 8.2071C32.0976 7.81658 32.0976 7.18341 31.7071 6.79289L25.3431 0.42893C24.9526 0.0384057 24.3195 0.0384058 23.9289 0.42893C23.5384 0.819455 23.5384 1.45262 23.9289 1.84314L29.5858 7.5L23.9289 13.1569C23.5384 13.5474 23.5384 14.1805 23.9289 14.5711C24.3195 14.9616 24.9526 14.9616 25.3431 14.5711L31.7071 8.2071ZM1 8.5L31 8.5L31 6.5L1 6.5L1 8.5Z" fill="#0D345B"/>
</svg>
