<svg width="120" height="120" viewBox="0 0 120 120" fill="none" xmlns="http://www.w3.org/2000/svg">
<g filter="url(#filter0_d_531_461)">
<path d="M71.0143 8L100.026 37.0106V78.0143L71.0143 107.026H30.0116L1 78.0143V37.0106L30.0116 8H71.0143Z" fill="white"/>
<path d="M69.0969 12.5474L95.4299 38.8804V76.0972L69.0969 102.429H31.8801L5.5481 76.0972V38.8804L31.8801 12.5474H69.0969Z" fill="#7FE314"/>
<path fill-rule="evenodd" clip-rule="evenodd" d="M66.6691 39.1462C62.3076 34.7908 56.5404 32.429 50.4048 32.429C44.2681 32.429 38.502 34.7908 34.1405 39.1462C33.697 39.5887 33.697 40.2535 34.1405 40.6961C34.5841 41.1386 35.2489 41.1386 35.6925 40.6961C39.6113 36.7843 44.8599 34.6437 50.4048 34.6437C55.9497 34.6437 61.1982 36.7843 65.1161 40.6961C65.3384 40.9174 65.6338 40.9914 65.9301 40.9914C66.2255 40.9914 66.5209 40.9174 66.7432 40.6961C67.1126 40.2535 67.1126 39.5887 66.6691 39.1462Z" fill="#258730"/>
<path fill-rule="evenodd" clip-rule="evenodd" d="M69.3304 74.2811C58.9064 84.6889 41.9032 84.6889 31.4051 74.2811C30.9616 73.8386 30.2957 73.8386 29.8522 74.2811C29.4086 74.7247 29.4086 75.3885 29.8522 75.831C35.5453 81.515 42.9375 84.3204 50.4048 84.3204C57.797 84.3204 65.2643 81.515 70.9564 75.831C71.4 75.3885 71.4 74.7247 70.9564 74.2811C70.4398 73.8386 69.7739 73.8386 69.3304 74.2811Z" fill="#258730"/>
<path fill-rule="evenodd" clip-rule="evenodd" d="M31.4792 36.4888C41.9032 26.081 58.9064 26.081 69.4045 36.4888C69.6258 36.7101 69.9221 36.7841 70.2175 36.7841C70.5129 36.7841 70.8092 36.7101 71.0305 36.4888C71.4741 36.0452 71.4741 35.3814 71.0305 34.9389C59.7194 23.645 41.3115 23.645 30.0004 34.9389C29.5568 35.3814 29.5568 36.0452 30.0004 36.4888C30.2958 36.9313 31.0357 36.9313 31.4792 36.4888Z" fill="#258730"/>
<path fill-rule="evenodd" clip-rule="evenodd" d="M34.1405 71.624C38.502 75.9793 44.2681 78.3412 50.4048 78.3412C56.5404 78.3412 62.3076 75.9793 66.6691 71.624C67.1126 71.1814 67.1126 70.5166 66.6691 70.0741C66.2255 69.6316 65.5597 69.6316 65.1161 70.0741C61.1982 73.9859 55.9497 76.1265 50.4048 76.1265C44.8599 76.1265 39.6113 73.9859 35.6925 70.0741C35.2489 69.6316 34.5841 69.6316 34.1405 70.0741C33.697 70.5166 33.697 71.1814 34.1405 71.624Z" fill="#258730"/>
<path fill-rule="evenodd" clip-rule="evenodd" d="M50.4049 71.3285C54.6923 71.3285 58.6853 69.7045 61.716 66.6788C64.7468 63.6521 66.3738 59.6662 66.3738 55.3849C66.3738 51.1037 64.7468 47.1178 61.716 44.0911C58.6853 41.0654 54.6923 39.4414 50.4049 39.4414C46.1166 39.4414 42.1246 41.0654 39.0938 44.0911C36.0621 47.1178 34.436 51.1037 34.436 55.3849C34.436 59.6662 36.0621 63.6521 39.0938 66.6788C42.1246 69.6314 46.1166 71.3285 50.4049 71.3285ZM42.7164 55.3849C42.7164 51.1778 46.1166 47.7085 50.4049 47.7085C54.6182 47.7085 58.0935 51.1037 58.0935 55.3849C58.0935 59.6662 54.6923 63.0613 50.4049 63.0613C46.1907 63.0613 42.7164 59.5921 42.7164 55.3849Z" fill="#258730"/>
<path fill-rule="evenodd" clip-rule="evenodd" d="M29.9263 70.2211V40.5488C29.9263 39.958 29.4087 39.4414 28.8169 39.4414H22.7554C22.1636 39.4414 21.646 39.958 21.646 40.5488V70.148C21.646 70.7388 22.1636 71.2554 22.7554 71.2554H28.8169C29.4087 71.3285 29.9263 70.8118 29.9263 70.2211Z" fill="#258730"/>
<path fill-rule="evenodd" clip-rule="evenodd" d="M87.0734 39.4414H72.0657C71.4739 39.4414 70.9563 39.958 70.9563 40.5488V46.6012C70.9563 47.1919 71.4739 47.7085 72.0657 47.7085H75.3928V70.148C75.3928 70.7388 75.9095 71.2554 76.5012 71.2554H82.5638C83.1545 71.2554 83.6721 70.7388 83.6721 70.148V47.7085H86.9993C87.591 47.7085 88.1087 47.1919 88.1087 46.6012V40.5488C88.1818 39.958 87.6651 39.4414 87.0734 39.4414Z" fill="#258730"/>
<path fill-rule="evenodd" clip-rule="evenodd" d="M50.4048 56.4923C50.9955 56.4923 51.5132 55.9757 51.5132 55.3849C51.5132 54.7942 50.9955 54.2776 50.4048 54.2776C49.8131 54.2776 49.2954 54.7942 49.2954 55.3849C49.2954 55.9757 49.8131 56.4923 50.4048 56.4923Z" fill="#258730"/>
</g>
<defs>
<filter id="filter0_d_531_461" x="0" y="0" width="119.026" height="119.026" filterUnits="userSpaceOnUse" color-interpolation-filters="sRGB">
<feFlood flood-opacity="0" result="BackgroundImageFix"/>
<feColorMatrix in="SourceAlpha" type="matrix" values="0 0 0 0 0 0 0 0 0 0 0 0 0 0 0 0 0 0 127 0" result="hardAlpha"/>
<feOffset dx="9" dy="2"/>
<feGaussianBlur stdDeviation="5"/>
<feComposite in2="hardAlpha" operator="out"/>
<feColorMatrix type="matrix" values="0 0 0 0 0 0 0 0 0 0 0 0 0 0 0 0 0 0 0.25 0"/>
<feBlend mode="normal" in2="BackgroundImageFix" result="effect1_dropShadow_531_461"/>
<feBlend mode="normal" in="SourceGraphic" in2="effect1_dropShadow_531_461" result="shape"/>
</filter>
</defs>
</svg>
