<svg width="115" height="117" viewBox="0 0 115 117" fill="none" xmlns="http://www.w3.org/2000/svg">
<g filter="url(#filter0_d_524_166)">
<path d="M68.1679 8L96 36.4174V76.5826L68.1679 105H28.8321L1 76.5826V36.4174L28.8321 8H68.1679Z" fill="white"/>
<path d="M66.3288 12.4541L91.5912 38.2486V74.7044L66.3288 100.498H30.625L5.36353 74.7044V38.2486L30.625 12.4541H66.3288Z" fill="#7FE314"/>
<path fill-rule="evenodd" clip-rule="evenodd" d="M38.0007 25.7797L34.577 31.8366C33.9129 33.0118 33.6695 34.2993 33.8905 35.4626C34.1174 36.6527 34.8029 37.6161 35.876 38.2474L68.2768 57.3547C70.4054 55.6864 72.7278 54.8403 75.1894 54.8403C77.4513 54.8403 79.8671 55.5591 82.3774 56.9769L87.8848 55.1962L38.0007 25.7797ZM68.3421 59.0022C68.2165 59.0022 68.0909 58.9694 67.9769 58.9018L35.1447 39.5419C33.7153 38.6988 32.76 37.3516 32.4543 35.7469C32.1661 34.2307 32.4708 32.5763 33.3112 31.0899L37.1 24.3867C37.1964 24.2147 37.3561 24.0905 37.544 24.0387C37.7309 23.988 37.9306 24.0149 38.099 24.1133L90.0524 54.7498C90.3026 54.898 90.4448 55.1843 90.4136 55.4776C90.3815 55.7719 90.1828 56.0195 89.9073 56.1089L82.5157 58.4991C82.3209 58.5617 82.1087 58.5379 81.9315 58.4345C79.5458 57.0405 77.277 56.3336 75.1884 56.3336C72.9206 56.3336 70.7735 57.1738 68.8075 58.8312C68.6741 58.9445 68.5086 59.0022 68.3421 59.0022Z" fill="#258730"/>
<path fill-rule="evenodd" clip-rule="evenodd" d="M63.6109 64.4399C63.0013 64.4399 62.384 64.2818 61.8212 63.9488L33.9443 47.511C33.1156 47.0228 32.5226 46.2314 32.2743 45.2819C32.025 44.3334 32.1516 43.3451 32.6297 42.499L34.8781 38.5211C35.0796 38.1642 35.5266 38.0429 35.8761 38.2477C36.2267 38.4545 36.3464 38.9108 36.1439 39.2678L33.8965 43.2457C33.6132 43.7458 33.5382 44.3324 33.6862 44.8962C33.8342 45.4589 34.1857 45.9292 34.6755 46.2175L62.5515 62.6563C63.0422 62.9446 63.6148 63.0201 64.1669 62.87C64.719 62.7189 65.1786 62.36 65.4619 61.8599L67.7103 57.8829C67.9118 57.525 68.3588 57.4027 68.7084 57.6095C69.0579 57.8153 69.1777 58.2717 68.9761 58.6286L66.7278 62.6065C66.0627 63.7817 64.8524 64.4399 63.6109 64.4399Z" fill="#258730"/>
<path fill-rule="evenodd" clip-rule="evenodd" d="M51.7148 64.1752C51.0935 64.1752 50.481 64.0092 49.9299 63.684L40.1137 57.8956C39.2851 57.4074 38.6921 56.616 38.4428 55.6675C38.1945 54.719 38.3201 53.7307 38.7982 52.8856L40.2286 50.3553C40.4312 49.9983 40.8781 49.876 41.2277 50.0819C41.5773 50.2877 41.697 50.745 41.4955 51.1019L40.0651 53.6323C39.7827 54.1314 39.7077 54.718 39.8557 55.2807C40.0037 55.8445 40.3543 56.3137 40.845 56.6031L50.6612 62.3915C51.151 62.6799 51.7245 62.7564 52.2766 62.6063C52.8277 62.4552 53.2873 62.0962 53.5697 61.5951L55.0001 59.0658C55.2027 58.7079 55.6496 58.5856 55.9992 58.7924C56.3487 58.9982 56.4685 59.4545 56.2669 59.8125L54.8365 62.3418C54.3584 63.1889 53.5833 63.7934 52.6544 64.0479C52.3438 64.1334 52.0273 64.1752 51.7148 64.1752Z" fill="#258730"/>
<path fill-rule="evenodd" clip-rule="evenodd" d="M40.3527 64.6696C40.229 64.6696 40.1034 64.6368 39.9885 64.5692C39.1599 64.08 38.5669 63.2886 38.3176 62.3401C38.0693 61.3926 38.1949 60.4043 38.673 59.5582L40.1034 57.0279C40.3059 56.6709 40.7529 56.5487 41.1024 56.7545C41.452 56.9613 41.5718 57.4176 41.3702 57.7745L39.9398 60.3049C39.6574 60.805 39.5825 61.3906 39.7305 61.9533C39.8785 62.5171 40.229 62.9864 40.7188 63.2757C41.0684 63.4815 41.1881 63.9388 40.9866 64.2958C40.8512 64.5344 40.6058 64.6696 40.3527 64.6696ZM46.1249 67.6235C45.5164 67.6235 44.9 67.4654 44.3362 67.1323C43.9866 66.9265 43.8669 66.4702 44.0684 66.1132C44.27 65.7553 44.7169 65.633 45.0665 65.8398C46.0831 66.4393 47.3888 66.0824 47.975 65.0434L49.4054 62.5131C49.608 62.1562 50.0549 62.0329 50.4045 62.2397C50.7541 62.4465 50.8738 62.9028 50.6723 63.2598L49.2419 65.7891C48.5768 66.9653 47.3674 67.6235 46.1249 67.6235Z" fill="#258730"/>
<path fill-rule="evenodd" clip-rule="evenodd" d="M42.5286 63.3864C41.8947 63.3864 41.3036 63.7354 40.9862 64.2961C40.4954 65.1631 40.7875 66.2767 41.6376 66.7778C41.9083 66.9378 42.215 67.0223 42.5247 67.0223C43.1595 67.0223 43.7506 66.6744 44.068 66.1136C44.5588 65.2456 44.2667 64.1321 43.4166 63.63C43.1459 63.4709 42.8392 63.3864 42.5286 63.3864ZM42.5247 68.5157C41.9589 68.5157 41.399 68.3616 40.9063 68.0713C39.3591 67.1586 38.8264 65.1303 39.7203 63.5495C40.2968 62.5284 41.3737 61.8931 42.5286 61.8931C43.0953 61.8931 43.6552 62.0462 44.1469 62.3375C45.6951 63.2502 46.2278 65.2785 45.3339 66.8593C44.7565 67.8804 43.6805 68.5157 42.5247 68.5157Z" fill="#258730"/>
<path fill-rule="evenodd" clip-rule="evenodd" d="M36.8655 73.226C37.1177 73.226 37.3631 73.0927 37.4985 72.8531L40.9377 66.7694C41.1392 66.4124 41.0195 65.9561 40.6699 65.7493C40.3203 65.5425 39.8724 65.6658 39.6709 66.0227L36.2326 72.1065C36.0311 72.4634 36.1508 72.9197 36.5004 73.1256C36.6153 73.1942 36.7409 73.226 36.8655 73.226ZM39.1889 74.596C39.0642 74.596 38.9386 74.5642 38.8237 74.4956C38.4741 74.2898 38.3544 73.8334 38.5559 73.4755L41.9942 67.3918C42.1967 67.0348 42.6437 66.9125 42.9932 67.1193C43.3438 67.3252 43.4635 67.7815 43.261 68.1394L39.8218 74.2222C39.6864 74.4628 39.4411 74.596 39.1889 74.596Z" fill="#258730"/>
<path fill-rule="evenodd" clip-rule="evenodd" d="M36.9688 73.2241C36.334 73.2241 35.7429 73.572 35.4265 74.1328C35.1879 74.5534 35.1246 75.0425 35.2483 75.5118C35.371 75.9811 35.666 76.3728 36.0769 76.6154C36.3476 76.7745 36.6543 76.859 36.964 76.859C37.5988 76.859 38.1909 76.511 38.5073 75.9503C38.9981 75.0823 38.706 73.9687 37.8569 73.4676C37.5862 73.3086 37.2785 73.2241 36.9688 73.2241ZM36.964 78.3523C36.3982 78.3523 35.8383 78.1992 35.3456 77.9079C34.5959 77.4665 34.0603 76.7516 33.8364 75.8986C33.6114 75.0435 33.7273 74.1517 34.1596 73.3861C34.7371 72.365 35.813 71.7307 36.9688 71.7307C37.5356 71.7307 38.0945 71.8838 38.5872 72.1741C40.1344 73.0869 40.6671 75.1161 39.7732 76.6969C39.1958 77.718 38.1198 78.3523 36.964 78.3523Z" fill="#258730"/>
<path fill-rule="evenodd" clip-rule="evenodd" d="M34.9685 74.2365C34.9461 74.2365 34.9228 74.2355 34.9004 74.2325L26.0297 73.3884C25.6275 73.3506 25.3315 72.9867 25.3695 72.5761C25.4065 72.1655 25.7619 71.8633 26.165 71.902L35.0367 72.7461C35.4379 72.7839 35.7329 73.1488 35.6959 73.5594C35.6599 73.9462 35.3415 74.2365 34.9685 74.2365ZM34.7368 76.9667C34.7163 76.9667 34.6949 76.9657 34.6735 76.9637L26.0345 76.1991C25.6324 76.1633 25.3335 75.8024 25.3685 75.3908C25.4036 74.9802 25.759 74.676 26.1602 74.7118L34.8001 75.4763C35.2022 75.5111 35.4992 75.874 35.4651 76.2846C35.432 76.6734 35.1126 76.9667 34.7368 76.9667Z" fill="#258730"/>
<path fill-rule="evenodd" clip-rule="evenodd" d="M21.7045 80.9959H23.5351C24.5449 80.9959 25.3667 80.1568 25.3667 79.1258V68.9756C25.3667 67.9436 24.5449 67.1044 23.5351 67.1044H21.7045V80.9959ZM23.5351 82.4893H20.9732C20.5691 82.4893 20.2419 82.1552 20.2419 81.7426V66.3578C20.2419 65.9451 20.5691 65.6111 20.9732 65.6111H23.5351C25.3511 65.6111 26.8283 67.1203 26.8283 68.9756V79.1258C26.8283 80.98 25.3511 82.4893 23.5351 82.4893Z" fill="#258730"/>
<path fill-rule="evenodd" clip-rule="evenodd" d="M71.1806 65.9792C71.4338 65.9792 71.6792 65.846 71.8145 65.6064L77.2139 56.0537C77.4164 55.6968 77.2966 55.2405 76.9471 55.0346C76.5975 54.8269 76.1506 54.9501 75.948 55.3071L70.5487 64.8597C70.3462 65.2167 70.4659 65.674 70.8165 65.8798C70.9314 65.9474 71.057 65.9792 71.1806 65.9792ZM73.2605 67.2061C73.1359 67.2061 73.0103 67.1733 72.8954 67.1057C72.5468 66.8999 72.426 66.4426 72.6286 66.0856L78.3892 55.8897C78.5917 55.5328 79.0377 55.4105 79.3882 55.6163C79.7378 55.8231 79.8576 56.2794 79.656 56.6364L73.8935 66.8323C73.7581 67.0719 73.5127 67.2061 73.2605 67.2061Z" fill="#258730"/>
<path fill-rule="evenodd" clip-rule="evenodd" d="M73.2605 67.2061C73.1358 67.2061 73.0102 67.1733 72.8953 67.1057L65.7287 62.8802C65.3791 62.6734 65.2593 62.217 65.4609 61.8601C65.6634 61.5022 66.1104 61.3799 66.4599 61.5867L73.6256 65.8132C73.9762 66.019 74.0959 66.4753 73.8934 66.8323C73.758 67.0719 73.5127 67.2061 73.2605 67.2061Z" fill="#258730"/>
<path fill-rule="evenodd" clip-rule="evenodd" d="M40.4429 31.2314C40.0135 31.2314 39.6153 31.464 39.403 31.8399L38.0222 34.2827C37.6931 34.8653 37.8888 35.612 38.4585 35.9481C38.6386 36.0534 38.8431 36.1101 39.0505 36.1101C39.4799 36.1101 39.8782 35.8765 40.0895 35.5016L41.4712 33.0588C41.7993 32.4762 41.6036 31.7295 41.034 31.3925C40.8538 31.2871 40.6494 31.2314 40.4429 31.2314ZM39.0505 37.6035C38.587 37.6035 38.1293 37.4782 37.7282 37.2406C36.4594 36.4939 36.0241 34.8315 36.7564 33.536L38.1371 31.0932C38.6094 30.257 39.4935 29.738 40.4429 29.738C40.9064 29.738 41.3641 29.8633 41.7652 30.0999C42.3777 30.4608 42.8159 31.0465 42.9999 31.7474C43.184 32.4483 43.0905 33.1791 42.737 33.8055L41.3553 36.2493C40.883 37.0845 40.0009 37.6035 39.0505 37.6035Z" fill="#258730"/>
<path fill-rule="evenodd" clip-rule="evenodd" d="M46.2847 34.6755C45.8553 34.6755 45.457 34.9091 45.2457 35.284L43.864 37.7268C43.5349 38.3094 43.7316 39.0571 44.3012 39.3931C44.4814 39.4985 44.6859 39.5552 44.8923 39.5552C45.3217 39.5552 45.72 39.3216 45.9322 38.9467L47.313 36.5039C47.4717 36.2235 47.5126 35.8954 47.4298 35.5792C47.3471 35.2631 47.1504 34.9996 46.8767 34.8385C46.6966 34.7321 46.4921 34.6755 46.2847 34.6755ZM44.8933 41.0486C44.4288 41.0486 43.9711 40.9223 43.5709 40.6857C42.3022 39.938 41.8659 38.2766 42.5982 36.9801L43.9799 34.5373C44.4522 33.7021 45.3353 33.1821 46.2847 33.1821C46.7482 33.1821 47.2049 33.3074 47.607 33.545C48.2195 33.9059 48.6587 34.4915 48.8417 35.1925C49.0258 35.8934 48.9323 36.6242 48.5788 37.2506L47.1981 39.6934C46.7258 40.5296 45.8426 41.0486 44.8933 41.0486Z" fill="#258730"/>
<path fill-rule="evenodd" clip-rule="evenodd" d="M52.1259 38.1203C51.6974 38.1203 51.2992 38.3539 51.0869 38.7288L49.7062 41.1716C49.5474 41.452 49.5056 41.7811 49.5893 42.0963C49.6721 42.4124 49.8688 42.6759 50.1424 42.838C50.3225 42.9434 50.527 42.999 50.7334 42.999C51.1629 42.999 51.5611 42.7664 51.7734 42.3916L53.1541 39.9477C53.3129 39.6673 53.3547 39.3392 53.271 39.0231C53.1882 38.7079 52.9915 38.4444 52.7179 38.2834C52.5378 38.177 52.3333 38.1203 52.1259 38.1203ZM50.7334 44.4924C50.2699 44.4924 49.8133 44.3671 49.4121 44.1305C48.7996 43.7696 48.3605 43.184 48.1764 42.483C47.9934 41.7821 48.0859 41.0513 48.4403 40.4249L49.8201 37.9811C50.2933 37.1459 51.1775 36.627 52.1269 36.627C52.5903 36.627 53.047 36.7522 53.4482 36.9889C54.0607 37.3498 54.4998 37.9354 54.6839 38.6373C54.8669 39.3382 54.7744 40.069 54.42 40.6944L53.0392 43.1372C52.567 43.9734 51.6838 44.4924 50.7334 44.4924Z" fill="#258730"/>
<path fill-rule="evenodd" clip-rule="evenodd" d="M75.0912 65.9703C74.6812 65.9703 74.2664 65.9196 73.8565 65.8142C73.4651 65.7128 73.2275 65.3072 73.3268 64.9075C73.4251 64.5078 73.8224 64.2652 74.2139 64.3666C75.7874 64.7703 77.4525 64.0494 78.2646 62.6128C79.0767 61.1761 78.8546 59.3427 77.7251 58.1516C77.4437 57.8563 77.4505 57.3831 77.7407 57.0967C78.0299 56.8094 78.4934 56.8164 78.7738 57.1126C80.3571 58.779 80.6677 61.3481 79.5304 63.3594C78.6054 64.997 76.8867 65.9703 75.0912 65.9703Z" fill="#258730"/>
</g>
<defs>
<filter id="filter0_d_524_166" x="0" y="0" width="115" height="117" filterUnits="userSpaceOnUse" color-interpolation-filters="sRGB">
<feFlood flood-opacity="0" result="BackgroundImageFix"/>
<feColorMatrix in="SourceAlpha" type="matrix" values="0 0 0 0 0 0 0 0 0 0 0 0 0 0 0 0 0 0 127 0" result="hardAlpha"/>
<feOffset dx="9" dy="2"/>
<feGaussianBlur stdDeviation="5"/>
<feComposite in2="hardAlpha" operator="out"/>
<feColorMatrix type="matrix" values="0 0 0 0 0 0 0 0 0 0 0 0 0 0 0 0 0 0 0.25 0"/>
<feBlend mode="normal" in2="BackgroundImageFix" result="effect1_dropShadow_524_166"/>
<feBlend mode="normal" in="SourceGraphic" in2="effect1_dropShadow_524_166" result="shape"/>
</filter>
</defs>
</svg>
