<svg width="115" height="117" viewBox="0 0 115 117" fill="none" xmlns="http://www.w3.org/2000/svg">
<g filter="url(#filter0_d_524_359)">
<path d="M68.1679 8L96 36.4174V76.5826L68.1679 105H28.8321L1 76.5826V36.4174L28.8321 8H68.1679Z" fill="white"/>
<path d="M66.3283 12.4541L91.5907 38.2486V74.7044L66.3283 100.498H30.6245L5.36304 74.7044V38.2486L30.6245 12.4541H66.3283Z" fill="#7FE314"/>
<path d="M81.7105 75.9563C70.7191 74.7563 59.5552 74.1478 48.5083 74.1478C37.4623 74.1478 26.2975 74.7563 15.307 75.9563V36.0943C26.2975 37.2943 37.4623 37.9038 48.5083 37.9038C59.5552 37.9038 70.7191 37.2943 81.7105 36.0943V75.9563ZM82.5479 34.068C71.2887 35.3376 59.8367 35.9809 48.5083 35.9809C37.1809 35.9809 25.7279 35.3376 14.4686 34.068L13.4248 33.9507V78.1009L14.4686 77.9826C25.3725 76.7537 36.4564 76.1164 47.4333 76.0766V79.6459H48.4791C44.7049 79.6469 40.9307 79.7165 37.1828 79.8547C36.6638 79.8746 36.2578 80.32 36.2763 80.85C36.2958 81.3809 36.733 81.7875 37.251 81.7756C44.7215 81.4982 52.2961 81.4982 59.7656 81.7756C59.7773 81.7766 59.7889 81.7766 59.8006 81.7766C60.304 81.7766 60.7218 81.3689 60.7403 80.85C60.7588 80.32 60.3527 79.8746 59.8337 79.8547C56.0858 79.7165 52.3117 79.6469 48.5375 79.6459H49.5843V76.0766C60.5611 76.1164 71.6441 76.7537 82.5479 77.9826L83.5918 78.1009V33.9507L82.5479 34.068Z" fill="#258730"/>
<path d="M31.1418 62.21H33.6122V49.6289H31.1418V62.21Z" fill="#258730"/>
<path d="M42.3103 55.129C41.9549 55.5118 41.433 55.7037 40.7446 55.7037H38.5031V51.5736H40.7446C41.4389 51.5736 41.9618 51.7705 42.3142 52.1652C42.6667 52.5599 42.843 53.059 42.843 53.6645C42.843 54.2571 42.6658 54.7453 42.3103 55.129ZM44.0913 50.7395C43.2763 49.9998 42.1604 49.6289 40.7446 49.6289H36.0317V62.21H38.5031V57.6474H40.7446C42.1604 57.6474 43.2763 57.2816 44.0913 56.5498C44.9063 55.819 45.3143 54.8507 45.3143 53.6466C45.3143 52.4486 44.9063 51.4802 44.0913 50.7395Z" fill="#258730"/>
<path d="M46.2024 51.5736H49.6718V62.21H52.1421V51.5736H55.6632V49.6289H46.2024V51.5736Z" fill="#258730"/>
<path d="M62.9309 62.21L67.1189 49.6289H64.5132L61.8306 58.8226L61.6865 59.4878H61.6358L61.4839 58.7968L58.8179 49.6289H56.2122L60.3924 62.21H62.9309Z" fill="#258730"/>
</g>
<defs>
<filter id="filter0_d_524_359" x="0" y="0" width="115" height="117" filterUnits="userSpaceOnUse" color-interpolation-filters="sRGB">
<feFlood flood-opacity="0" result="BackgroundImageFix"/>
<feColorMatrix in="SourceAlpha" type="matrix" values="0 0 0 0 0 0 0 0 0 0 0 0 0 0 0 0 0 0 127 0" result="hardAlpha"/>
<feOffset dx="9" dy="2"/>
<feGaussianBlur stdDeviation="5"/>
<feComposite in2="hardAlpha" operator="out"/>
<feColorMatrix type="matrix" values="0 0 0 0 0 0 0 0 0 0 0 0 0 0 0 0 0 0 0.25 0"/>
<feBlend mode="normal" in2="BackgroundImageFix" result="effect1_dropShadow_524_359"/>
<feBlend mode="normal" in="SourceGraphic" in2="effect1_dropShadow_524_359" result="shape"/>
</filter>
</defs>
</svg>
