<svg width="120" height="120" viewBox="0 0 120 120" fill="none" xmlns="http://www.w3.org/2000/svg">
<g filter="url(#filter0_d_541_490)">
<path d="M71.0143 8L100.026 37.0106V78.0143L71.0143 107.026H30.0116L1 78.0143V37.0106L30.0116 8H71.0143Z" fill="white"/>
<path d="M69.0969 12.5474L95.4299 38.8804V76.0972L69.0969 102.429H31.8801L5.5481 76.0972V38.8804L31.8801 12.5474H69.0969Z" fill="#7FE314"/>
</g>
<path d="M37.9381 83C37.9277 82.1728 37.9238 81.3468 37.9032 80.5195C37.8954 80.1766 38.11 80.1541 38.3763 80.1553C39.8265 80.1553 41.2781 80.1616 42.7297 80.1553C43.853 80.1491 43.7017 80.298 43.7082 79.2167C43.7082 77.7963 43.6914 76.3746 43.7198 74.9541C43.7276 74.5099 43.5712 74.3997 43.1369 74.4072C41.622 74.4285 40.1057 74.416 38.5895 74.4147C37.9058 74.4147 37.9045 74.4147 37.9045 73.7439C37.9045 62.0633 37.9045 50.3856 37.9045 38.7108C37.9045 37.7872 38.0053 37.8861 37.0539 37.8811C36.5046 37.8811 35.9565 37.8723 35.4085 37.8811C35.1293 37.8798 35 37.7835 35 37.5044C35.0103 36.7985 35.0103 36.0939 35 35.3906C35 35.1128 35.1099 34.9851 35.3994 35.0014C35.5287 35.0101 35.6579 35.0014 35.7872 35.0014H66.2136C66.9982 35.0014 66.9982 35.0014 66.9995 35.7635C66.9995 36.3255 66.9852 36.8899 66.9995 37.4493C67.0098 37.7797 66.8702 37.8873 66.5419 37.8811C65.8659 37.8673 65.1872 37.8886 64.5112 37.8736C64.1945 37.8673 64.0653 37.9849 64.0924 38.2866C64.1041 38.4267 64.0924 38.5681 64.0924 38.7083V73.4148C64.0834 73.5707 64.0834 73.727 64.0924 73.8829C64.1415 74.2883 63.9787 74.4273 63.5495 74.4222C61.9855 74.401 60.4215 74.4222 58.8574 74.406C58.4231 74.3997 58.2667 74.5086 58.2745 74.9529C58.3003 76.5148 58.2977 78.0754 58.2745 79.6372C58.268 80.054 58.4037 80.1704 58.8277 80.1641C60.3917 80.1441 61.9571 80.1641 63.5198 80.1478C63.9645 80.1416 64.117 80.2792 64.0963 80.7073C64.0575 81.4707 64.0653 82.2353 64.0536 83H37.9381ZM51.0489 40.6894C48.8075 40.6894 46.5661 40.6982 44.3274 40.6819C43.9099 40.6819 43.7703 40.7883 43.7715 41.2075C43.7853 45.531 43.7853 49.8558 43.7715 54.1818C43.7715 54.5773 43.9086 54.6824 44.3015 54.6824C48.7687 54.6716 53.2355 54.6716 57.7018 54.6824C58.0896 54.6824 58.2331 54.576 58.2318 54.1818C58.2189 49.8583 58.2189 45.5336 58.2318 41.2075C58.2318 40.7883 58.0935 40.6794 57.676 40.6819C55.4669 40.6982 53.2579 40.6894 51.0489 40.6894ZM50.9997 80.1553C52.2923 80.1553 53.5849 80.1491 54.8698 80.1553C55.1981 80.1553 55.3273 80.0602 55.3248 79.7273C55.3136 78.1037 55.3136 76.4801 55.3248 74.8565C55.3248 74.5036 55.1955 74.4022 54.8452 74.4035C52.2824 74.4135 49.7188 74.4135 47.1543 74.4035C46.804 74.4035 46.6695 74.5011 46.6721 74.8553C46.6876 76.463 46.6876 78.0712 46.6721 79.6798C46.6721 80.0552 46.8014 80.1629 47.1762 80.1579C48.452 80.1453 49.7252 80.1553 50.9997 80.1553ZM50.9997 60.2954C53.2411 60.2954 55.4825 60.2891 57.7212 60.3029C58.0948 60.3029 58.2383 60.2053 58.2279 59.8248C58.1995 59.2178 58.2085 58.6071 58.2279 57.9989C58.2357 57.6923 58.1542 57.5458 57.7988 57.5471C53.2669 57.5546 48.7355 57.5546 44.2046 57.5471C43.8491 57.5471 43.7664 57.6923 43.7741 57.9989C43.7896 58.5921 43.8039 59.1865 43.7741 59.7785C43.7509 60.199 43.9124 60.3079 44.3299 60.3041C46.5493 60.2816 48.7752 60.2966 50.9997 60.2954ZM50.9622 65.9133C53.2036 65.9133 55.445 65.9033 57.6837 65.9221C58.1155 65.9221 58.2486 65.7969 58.2279 65.3839C58.1969 64.777 58.2111 64.1662 58.2279 63.558C58.2279 63.2814 58.1336 63.1525 57.8401 63.1663C57.5467 63.1801 57.2598 63.1663 56.9689 63.1663C52.7771 63.1663 48.5852 63.1738 44.392 63.155C43.8943 63.155 43.7457 63.2939 43.7754 63.7658C43.811 64.2954 43.811 64.8268 43.7754 65.3564C43.7496 65.7794 43.8827 65.9246 44.3403 65.9208C46.5442 65.9046 48.7532 65.9133 50.9622 65.9133Z" fill="#258730"/>
<path d="M50.9506 51.9304C49.6774 51.9304 48.4042 51.9191 47.131 51.9379C46.7316 51.9379 46.6036 51.8127 46.6062 51.426C46.6191 48.9289 46.6191 46.4325 46.6062 43.9371C46.6062 43.5491 46.7355 43.4252 47.1349 43.4277C49.7132 43.4402 52.2915 43.4402 54.8698 43.4277C55.2705 43.4277 55.3984 43.5528 55.3958 43.9383C55.3829 46.4355 55.3829 48.9322 55.3958 51.4285C55.3958 51.8152 55.2666 51.9429 54.8685 51.9379C53.5617 51.9191 52.2561 51.9304 50.9506 51.9304Z" fill="#258730"/>
<defs>
<filter id="filter0_d_541_490" x="0" y="0" width="119.026" height="119.026" filterUnits="userSpaceOnUse" color-interpolation-filters="sRGB">
<feFlood flood-opacity="0" result="BackgroundImageFix"/>
<feColorMatrix in="SourceAlpha" type="matrix" values="0 0 0 0 0 0 0 0 0 0 0 0 0 0 0 0 0 0 127 0" result="hardAlpha"/>
<feOffset dx="9" dy="2"/>
<feGaussianBlur stdDeviation="5"/>
<feComposite in2="hardAlpha" operator="out"/>
<feColorMatrix type="matrix" values="0 0 0 0 0 0 0 0 0 0 0 0 0 0 0 0 0 0 0.25 0"/>
<feBlend mode="normal" in2="BackgroundImageFix" result="effect1_dropShadow_541_490"/>
<feBlend mode="normal" in="SourceGraphic" in2="effect1_dropShadow_541_490" result="shape"/>
</filter>
</defs>
</svg>
