<svg width="29" height="60" viewBox="0 0 29 60" fill="none" xmlns="http://www.w3.org/2000/svg">
<path d="M26.6609 37.0783V30.9375C26.6609 29.7186 25.8659 28.6878 24.79 28.3124V25.7813C24.79 24.7504 23.9481 23.9063 22.919 23.9063V15.7972C24.2758 15.3754 25.2581 14.1565 25.2581 12.6563C25.2581 10.8283 23.8077 9.375 21.9835 9.375C20.1594 9.375 18.7097 10.8283 18.7097 12.6563C18.7097 14.1565 19.6913 15.3754 21.048 15.7972V23.9063C20.0189 23.9063 19.1771 24.7504 19.1771 25.7813V28.125H17.3061V25.7813C17.3061 24.7504 16.4642 23.9063 15.4351 23.9063V6.42216C16.7919 6.00043 17.7742 4.78154 17.7742 3.28125C17.7742 1.45327 16.3238 0 14.4996 0C12.6755 0 11.2258 1.45327 11.2258 3.28125C11.2258 4.78154 12.2081 6.00043 13.5642 6.42216V23.9063C12.5351 23.9063 11.6932 24.7504 11.6932 25.7813V28.125H9.82222V25.7813C9.82222 24.7504 8.98036 23.9063 7.95125 23.9063V15.7972C9.30803 15.3754 10.2903 14.1565 10.2903 12.6563C10.2903 10.8283 8.83993 9.375 7.01577 9.375C5.19161 9.375 3.74194 10.8283 3.74194 12.6563C3.74194 14.1565 4.72423 15.3754 6.08029 15.7972V23.9063C5.05118 23.9063 4.20932 24.7504 4.20932 25.7813V28.3124C3.1334 28.6878 2.33835 29.7186 2.33835 30.9375V37.0783C1.0291 37.3126 0 38.4375 0 39.8438V59.0625C0 59.5783 0.420572 60 0.935484 60C1.44968 60 1.87097 59.5783 1.87097 59.0625V39.8438C1.87097 39.328 2.29154 38.9062 2.80645 38.9062H26.1936C26.7077 38.9062 27.129 39.328 27.129 39.8438V59.0625C27.129 59.5783 27.5496 60 28.0645 60C28.5787 60 29 59.5783 29 59.0625V39.8438C29 38.4375 27.9709 37.3126 26.6609 37.0783ZM20.5806 12.6563C20.5806 11.8598 21.1885 11.25 21.9835 11.25C22.7786 11.25 23.3871 11.8598 23.3871 12.6563C23.3871 13.4534 22.7786 14.0625 21.9835 14.0625C21.1885 14.0625 20.5806 13.4534 20.5806 12.6563ZM13.0968 3.28125C13.0968 2.48481 13.7046 1.875 14.4996 1.875C15.2947 1.875 15.9032 2.48481 15.9032 3.28125C15.9032 4.07841 15.2947 4.6875 14.4996 4.6875C13.7046 4.6875 13.0968 4.07841 13.0968 3.28125ZM5.6129 12.6563C5.6129 11.8598 6.22072 11.25 7.01577 11.25C7.81082 11.25 8.41936 11.8598 8.41936 12.6563C8.41936 13.4534 7.81082 14.0625 7.01577 14.0625C6.22072 14.0625 5.6129 13.4534 5.6129 12.6563ZM21.048 25.7813H22.919V28.125H21.048V25.7813ZM13.5642 25.7813H15.4351V28.125H13.5642V25.7813ZM7.95125 25.7813V28.125H6.08029V25.7813H7.95125ZM5.1448 30H23.8545C24.3687 30 24.79 30.4217 24.79 30.9375V37.0312H4.20932V30.9375C4.20932 30.4217 4.63061 30 5.1448 30Z" fill="#7FE314"/>
<path d="M21.5161 41.7188C21.0012 41.7188 20.5806 42.1405 20.5806 42.6563V51.0938C20.5806 51.6095 21.0012 52.0313 21.5161 52.0313C22.0303 52.0313 22.4516 51.6095 22.4516 51.0938V42.6563C22.4516 42.1405 22.0303 41.7188 21.5161 41.7188Z" fill="#7FE314"/>
<path d="M22.4516 54.8438C22.4516 54.9052 22.4451 54.966 22.4336 55.0268C22.4214 55.0868 22.4034 55.1454 22.3803 55.2025C22.3566 55.2597 22.3277 55.3132 22.2939 55.3646C22.2593 55.4159 22.2204 55.463 22.1772 55.5071C22.134 55.5505 22.0865 55.5888 22.0354 55.6236C21.9842 55.6576 21.9302 55.6865 21.874 55.7096C21.8172 55.7335 21.7588 55.7516 21.6983 55.7632C21.6378 55.7755 21.5773 55.7813 21.5161 55.7813C21.4542 55.7813 21.3937 55.7755 21.3332 55.7632C21.2727 55.7516 21.2144 55.7335 21.1575 55.7096C21.1013 55.6865 21.0473 55.6576 20.9962 55.6236C20.945 55.5888 20.8975 55.5505 20.8543 55.5071C20.8111 55.463 20.7722 55.4159 20.7376 55.3646C20.7038 55.3132 20.675 55.2597 20.6512 55.2025C20.6282 55.1454 20.6102 55.0868 20.5986 55.0268C20.5864 54.966 20.5806 54.9052 20.5806 54.8438C20.5806 54.7823 20.5864 54.7215 20.5986 54.6607C20.6102 54.6007 20.6282 54.5421 20.6512 54.485C20.675 54.4285 20.7038 54.3743 20.7376 54.3229C20.7722 54.2716 20.8111 54.2245 20.8543 54.1811C20.8975 54.1377 20.945 54.0987 20.9962 54.0647C21.0473 54.0299 21.1013 54.001 21.1575 53.9779C21.2144 53.954 21.2727 53.9366 21.3332 53.9243C21.3937 53.912 21.4542 53.9063 21.5161 53.9063C21.5773 53.9063 21.6378 53.912 21.6983 53.9243C21.7588 53.9366 21.8172 53.954 21.874 53.9779C21.9302 54.001 21.9842 54.0299 22.0354 54.0647C22.0865 54.0987 22.134 54.1377 22.1772 54.1811C22.2204 54.2245 22.2593 54.2716 22.2939 54.3229C22.3277 54.3743 22.3566 54.4285 22.3803 54.485C22.4034 54.5421 22.4214 54.6007 22.4336 54.6607C22.4451 54.7215 22.4516 54.7823 22.4516 54.8438Z" fill="#7FE314"/>
<path d="M8.41936 35.1562C8.93355 35.1562 9.35484 34.7345 9.35484 34.2188V32.8125C9.35484 32.2967 8.93355 31.875 8.41936 31.875C7.90444 31.875 7.48387 32.2967 7.48387 32.8125V34.2188C7.48387 34.7345 7.90444 35.1562 8.41936 35.1562Z" fill="#7FE314"/>
</svg>
