<svg width="98" height="57" viewBox="0 0 98 57" fill="none" xmlns="http://www.w3.org/2000/svg">
<path d="M44.201 46.646C45.8192 46.7152 47.0816 48.0718 47.0119 49.6798C46.977 50.4921 46.6024 51.2615 45.967 51.7885L42.721 54.4505C41.4593 55.4623 39.6144 55.2628 38.5961 54.0101C37.5953 52.7823 37.7696 50.9762 38.9881 49.9562L42.2342 47.2942C42.7126 46.914 43.2957 46.6896 43.9046 46.655C44.0092 46.646 44.1048 46.646 44.201 46.646ZM38.1177 41.6156C39.7365 41.5297 41.1203 42.7568 41.2068 44.3641C41.2591 45.2803 40.8678 46.1709 40.1543 46.7581L35.2545 50.7775C34.0102 51.8058 32.1563 51.6244 31.1206 50.3883C30.0939 49.1438 30.2676 47.3032 31.521 46.2831L36.4207 42.2638C36.8992 41.8753 37.4913 41.6419 38.1177 41.6156ZM33.1921 35.8595C34.8109 35.7819 36.1857 37.018 36.2728 38.6253C36.3161 39.5498 35.9157 40.4321 35.2022 41.0193L28.9452 46.1536C27.6834 47.173 25.8379 46.9832 24.8112 45.7298C23.802 44.4936 23.9757 42.6876 25.2032 41.6592L31.4686 36.525C31.9562 36.1275 32.5567 35.8941 33.1921 35.8595ZM25.1942 32.6012C25.2897 32.6012 25.3943 32.6012 25.4899 32.6012C27.1087 32.6705 28.3705 34.0271 28.3014 35.6351C28.2665 36.4557 27.8836 37.2251 27.2482 37.7521L23.7846 40.5872C22.4963 41.5726 20.6515 41.3393 19.6681 40.0602C18.7195 38.8504 18.8848 37.1129 20.051 36.0928L23.5146 33.2494C23.9931 32.8602 24.5853 32.6358 25.2032 32.6012H25.1942ZM44.8532 12.5579C45.7327 12.5579 46.6115 12.6189 47.4903 12.7394C45.3149 14.0794 43.0084 15.1943 40.5979 16.0496C39.0746 16.5946 38.283 18.2711 38.8402 19.7836C39.1618 20.6651 39.8844 21.3396 40.7981 21.5986C45.28 22.8604 50.0752 22.4373 54.2698 20.4235L73.285 35.7556C74.4595 36.7327 74.6165 38.4785 73.633 39.6454C72.7103 40.743 71.0914 40.9591 69.9078 40.1468L55.6884 29.9911C55.2881 29.7231 54.7482 29.818 54.4699 30.2072C54.2 30.5874 54.2872 31.1144 54.6701 31.3997L68.4027 41.1925C69.6902 42.1689 69.9427 43.993 68.9593 45.2803C68.0107 46.5075 66.2614 46.7928 64.9739 45.9285L52.0072 36.6808C51.6242 36.4038 51.076 36.4903 50.797 36.8795C50.5188 37.2687 50.6143 37.804 50.9972 38.081L62.4414 46.2485C63.7812 47.1473 64.1293 48.9624 63.2156 50.2934C62.3109 51.6244 60.4836 51.97 59.143 51.0711C59.0998 51.0365 59.0558 51.0108 59.0126 50.9762L48.2561 43.3012C47.8474 43.0422 47.3076 43.1626 47.0551 43.5691C46.8117 43.941 46.8898 44.4251 47.2378 44.7014L55.4708 50.5787C56.6105 51.4513 56.8197 53.0766 55.9402 54.2088C55.1053 55.2802 53.5737 55.5308 52.4333 54.7795L48.2129 51.7712C49.4481 49.5157 48.6133 46.6979 46.3499 45.4708C45.3058 44.9001 44.0873 44.7533 42.9386 45.047C43.235 42.5061 41.3986 40.1987 38.8312 39.9044C38.518 39.8615 38.1958 39.8615 37.8826 39.8871C38.5006 37.3982 36.9773 34.883 34.4713 34.2605C33.0352 33.9066 31.5126 34.2521 30.3638 35.194L30.05 35.4536C30.0242 32.8865 27.9094 30.8291 25.3246 30.8637C24.263 30.8727 23.2273 31.2439 22.4091 31.9184L19.4156 34.3733L16.6829 32.3851L28.0664 13.7768C31.8167 13.8633 35.5593 13.7421 39.2922 13.4049C41.0938 12.8516 42.9735 12.5579 44.8532 12.5579ZM53.4865 12.2034C54.0696 12.2297 54.6527 12.3419 55.2093 12.5406L63.7205 15.5572L70.2126 13.1978L81.0646 30.4579L75.4172 35.6005C75.1473 35.142 74.7992 34.7445 74.3814 34.4073L54.4783 18.3577C50.4664 20.6222 45.7062 21.1838 41.2682 19.9304C40.6328 19.7579 40.2673 19.1008 40.4409 18.4699C40.5456 18.098 40.8239 17.8044 41.1893 17.6749C44.2701 16.5773 47.1946 15.0821 49.9008 13.2324C50.9449 12.515 52.2073 12.1521 53.4865 12.2034ZM80.1426 2.77419L95.607 27.3638L85.2244 33.811L69.7516 9.21313L80.1426 2.77419ZM18.6846 2.36769L29.1454 8.67713L12.8279 35.3581L2.36723 29.0403L18.6846 2.36769ZM18.1015 0L0 29.6193L13.4368 37.7265L15.7957 33.863L18.1713 35.5915C16.6396 37.6572 17.0923 40.5616 19.1722 42.0823C20.1382 42.7825 21.3302 43.0941 22.5228 42.9466C21.983 45.4535 23.6018 47.9167 26.1253 48.4437C26.9957 48.6342 27.9094 48.5649 28.745 48.254C28.5881 50.8121 30.5549 53.0073 33.1307 53.1542C34.2362 53.2234 35.3152 52.9035 36.2031 52.247C36.2289 54.8134 38.3436 56.8708 40.9201 56.8445C41.99 56.8362 43.0258 56.456 43.8523 55.7815L47.1074 53.1195C47.1074 53.1112 47.1074 53.1112 47.1074 53.1022L51.415 56.188C53.3644 57.5793 56.0797 57.1388 57.4809 55.2026C58.0292 54.4422 58.3165 53.517 58.29 52.5752C60.5003 53.9062 63.3725 53.2061 64.7123 51.0192C65.2696 50.1203 65.4956 49.0573 65.3568 48.0116C67.828 48.7463 70.4302 47.3378 71.1703 44.8828C71.4137 44.0705 71.4221 43.1973 71.2051 42.3767C73.6937 42.5581 75.8608 40.6911 76.0435 38.2188C76.061 37.9425 76.061 37.6662 76.0261 37.3892L81.9958 31.944L84.6678 36.1877L98 27.9164L80.6908 0.3975L67.3586 8.66882L69.2731 11.7027L63.7031 13.7248L55.7924 10.916C53.7648 10.1896 51.5196 10.3627 49.6309 11.3738C46.1065 10.5531 42.4253 10.6653 38.9532 11.7027C35.6807 11.9873 32.3998 12.1085 29.1105 12.0656L31.5384 8.10719L18.1015 0Z" fill="#88E525"/>
</svg>
