<svg width="43" height="43" viewBox="0 0 43 43" fill="none" xmlns="http://www.w3.org/2000/svg">
<path d="M22.9049 0.0449964C9.94536 -0.783617 -0.783619 9.94483 0.0449943 22.9049C0.729594 33.6173 9.3822 42.2699 20.0945 42.955C33.0546 43.7836 43.7836 33.0552 42.955 20.0945C42.2699 9.38221 33.6173 0.729596 22.9049 0.0449964ZM31.2346 32.168C32.0804 29.263 32.585 25.9212 32.6527 22.3267H41.3252C41.135 26.9357 39.366 31.1411 36.5453 34.4206C35.2508 33.5141 33.4421 32.7473 31.2346 32.168ZM6.45465 34.4206C3.63404 31.1411 1.8645 26.9357 1.67481 22.3267H10.3473C10.4145 25.9212 10.9191 29.263 11.7654 32.168C9.55685 32.7478 7.74809 33.5141 6.45465 34.4206ZM11.7606 10.846C10.9174 13.7483 10.4139 17.0842 10.3468 20.6727H1.67481C1.86343 16.0858 3.61738 11.8981 6.41435 8.6256C7.73035 9.51709 9.55201 10.2732 11.7606 10.846ZM20.6727 20.6727H12.0002C12.0717 17.2508 12.5806 14.0202 13.4119 11.2259C15.6473 11.6767 18.1256 11.9336 20.6727 11.9798V20.6727ZM20.6727 22.3267V31.0202C18.1203 31.0664 15.6425 31.327 13.4151 31.7832C12.5817 28.9868 12.0722 25.753 12.0002 22.3267H20.6727ZM22.3267 22.3267H30.9992C30.9278 25.753 30.4178 28.9868 29.5843 31.7832C27.3564 31.327 24.8787 31.0664 22.3267 31.0202V22.3267ZM22.3267 20.6727V11.9793C24.8738 11.9336 27.3521 11.6762 29.5876 11.2259C30.4189 14.0202 30.9278 17.2508 30.9992 20.6727H22.3267ZM22.3267 10.3258V1.73715C25.0426 2.25302 27.4725 5.2687 29.0658 9.64605C26.9878 10.0512 24.6895 10.2818 22.3267 10.3258ZM20.6727 1.73715V10.3258C18.3099 10.2818 16.0116 10.0512 13.9337 9.64605C15.5269 5.2687 17.9569 2.25248 20.6727 1.73715ZM20.6727 32.6736V41.2628C17.9585 40.7475 15.5302 37.7351 13.9369 33.3631C16.0079 32.952 18.3051 32.7188 20.6727 32.6736ZM22.3267 41.2623V32.6736C24.6938 32.7188 26.991 32.952 29.0626 33.3631C27.4693 37.7345 25.0409 40.7475 22.3267 41.2623ZM32.6527 20.6727C32.5855 17.0842 32.082 13.7483 31.2394 10.846C33.448 10.2726 35.2696 9.51709 36.5851 8.6256C39.3821 11.8981 41.136 16.0858 41.3246 20.6727H32.6527ZM35.4421 7.39182C34.2841 8.12532 32.6645 8.77284 30.7338 9.26775C29.6961 6.33375 28.2877 3.94679 26.6278 2.32879C30.003 3.23263 33.0262 5.00485 35.4421 7.39182ZM12.2657 9.26829C10.3355 8.77284 8.71534 8.12585 7.55786 7.39235C9.9733 5.00485 12.997 3.23317 16.3722 2.32932C14.7123 3.94679 13.3033 6.33429 12.2657 9.26829ZM7.59977 35.6474C8.73253 34.9032 10.3398 34.247 12.2711 33.7457C13.3076 36.6727 14.715 39.0554 16.3722 40.6707C13.0159 39.7717 10.0082 38.014 7.59977 35.6474ZM30.7284 33.7457C32.6591 34.247 34.2669 34.9032 35.3997 35.6474C32.9912 38.0145 29.9841 39.7722 26.6272 40.6707C28.2845 39.0554 29.6913 36.6727 30.7284 33.7457Z" fill="#7FE314"/>
</svg>
