<svg width="70" height="68" viewBox="0 0 70 68" fill="none" xmlns="http://www.w3.org/2000/svg">
<path d="M56.3111 65.0566C55.9635 65.592 55.6461 65.592 55.5468 65.592C55.1553 65.592 54.6457 65.2835 54.1924 64.7662C53.2286 63.6633 52.9494 61.7535 53.1106 61.0598C53.2596 61.1043 53.459 61.1802 53.6079 61.2363C54.1981 61.4632 54.9257 61.7156 55.6274 61.577C56.4975 61.4005 56.9452 60.8082 57.2122 60.4551C57.3929 60.2216 57.436 60.1713 57.4922 60.1589C57.7714 60.4674 58.1132 62.2576 56.3111 65.0566ZM57.2993 57.7575C56.1744 57.8829 55.6461 58.5767 55.3352 58.9859C55.2668 59.0807 55.174 59.2003 55.174 59.2135C55.0373 59.2135 54.7019 59.0873 54.4471 58.9925C53.9995 58.8159 53.4777 58.6146 52.9242 58.6146C52.1037 58.6146 51.433 59.0428 51.0415 59.8248C50.3016 61.2866 50.7493 64.4577 52.4269 66.3674C53.3467 67.4201 54.4593 68 55.5468 68C56.6408 68 57.6224 67.4201 58.2939 66.374C60.4005 63.1089 60.363 60.474 59.6296 59.1063C59.1266 58.1609 58.2752 57.6503 57.2993 57.7575ZM67.6097 33.3821C67.5658 33.981 67.5658 34.6682 67.5723 35.3867C67.5845 37.6999 67.591 40.5806 65.9313 42.7114C65.2476 43.5809 64.5834 44.3753 63.968 45.1062C62.2897 47.1174 60.9596 48.7054 60.5624 50.3314L60.5063 50.5459C59.9902 52.6643 59.6052 53.6666 58.3248 53.7359C56.6286 53.8242 55.7584 54.3909 55.1805 54.7696C54.8386 54.9964 54.7573 55.0344 54.6522 55.0344C54.4781 55.0344 54.4528 55.0212 54.1793 54.7819C53.844 54.4982 53.3467 54.0758 52.483 53.9248C52.3088 53.8935 52.129 53.8803 51.9426 53.8803C51.5323 53.8803 51.1156 53.9438 50.7119 54.0065C50.3326 54.07 49.9475 54.1261 49.5935 54.1261C49.1515 54.1261 48.8536 54.0321 48.5988 53.8176C48.1015 53.3886 47.6041 53.0925 47.1695 52.8343C46.2123 52.2733 46.082 52.1537 46.113 51.5424C46.2058 49.664 45.6962 49.0519 44.6714 48.5289C44.4842 48.4282 44.2978 48.34 44.0992 48.1824C43.6328 47.817 43.5962 47.5959 43.6084 46.4929V46.1654C43.6149 45.5286 43.3601 45.1375 43.1485 44.9173C42.8685 44.6335 42.4835 44.4759 42.0668 44.4759C40.9484 44.4759 39.6867 45.6672 39.0657 46.455C38.6115 46.1465 37.804 45.2011 37.4931 43.877C36.9649 41.6522 34.7899 40.2588 31.6757 40.1706C31.5024 40.1648 31.3094 40.1582 31.1108 40.1582C29.5635 40.1582 21.7698 40.3537 20.0979 44.2045C20.0361 44.3563 19.9742 44.5205 19.918 44.6904C19.7691 45.1441 19.7129 45.239 19.5762 45.3017C19.4272 45.3776 19.3214 45.3966 19.0854 45.3966C18.973 45.3966 18.8493 45.39 18.7126 45.3834C18.2958 45.371 17.7798 45.352 17.0464 45.409C14.169 45.6234 12.8268 46.7643 11.9819 47.7345C11.7394 48.0182 11.0931 48.34 10.5274 48.3647C10.4093 48.3647 10.2848 48.3713 10.1481 48.3713C9.1477 48.3713 8.3956 48.1824 7.96094 47.798C8.18478 47.5579 8.46397 47.2115 8.56327 46.714C8.69432 46.0706 8.69432 43.6881 7.02244 41.2611C6.46325 40.442 5.99685 39.2442 5.54917 38.0909C4.93382 36.5152 4.3559 35.0213 3.43043 34.1889C3.02019 33.8235 2.83379 33.5966 2.7467 33.477C2.75321 33.4638 2.76542 33.4514 2.77112 33.439C3.05763 33.0414 3.64776 32.2156 3.15043 30.7918L3.03891 30.5014C2.68484 29.5494 2.02553 27.7783 2.59123 26.0764C2.80286 25.4528 2.80286 25.4528 3.30589 25.3455C3.93346 25.2127 4.87847 25.0172 6.01557 23.9456C6.28906 23.6816 6.55035 23.6057 7.05989 23.4795C7.65001 23.3343 8.38339 23.1578 9.1477 22.5028C9.88108 21.8783 9.93073 21.8659 10.5209 21.6514C10.7016 21.5887 10.9067 21.5128 11.1802 21.4056C11.4227 21.3116 11.7206 21.2357 12.0316 21.154C13.1125 20.8702 14.7412 20.4412 15.3004 18.5505C15.543 17.7313 15.6545 17.6298 15.7164 17.5737C15.8287 17.4723 16.0273 17.2957 16.2137 16.9872C16.5311 16.451 16.475 15.8587 16.4253 15.3357C16.3944 15.0272 16.3627 14.6551 16.4253 14.4472C16.4994 14.4472 16.5743 14.4472 16.6549 14.453C16.7794 14.4596 16.9096 14.4662 17.0464 14.4662C17.5437 14.4662 19.0666 14.4662 20.0605 12.5309C20.3901 11.894 20.4463 11.3207 20.5017 10.8604C20.5578 10.287 20.5887 10.028 21.0926 9.58088C21.8634 8.8937 22.3852 8.57858 22.7335 8.57858C23.2431 8.57858 24.1311 9.26575 25.151 10.1039C25.685 10.5452 26.3378 10.7911 26.9466 10.7911C27.9657 10.7911 29.01 10.0536 29.0474 8.40204C29.0719 7.26774 29.6001 6.8198 30.2098 6.30338C30.6257 5.95031 31.0547 5.58403 31.272 5.0041C31.3591 4.77724 31.434 4.51903 31.508 4.24845C31.6635 3.71224 31.8499 3.04404 32.1486 2.91782C32.2227 2.88647 32.2667 2.87987 32.2667 2.87987C32.3228 2.89307 32.4653 2.98134 32.5711 3.04404C33.031 3.32122 33.7269 3.74359 34.8827 3.74359C35.2002 3.74359 35.5355 3.71224 35.8831 3.64954C36.0947 3.61737 36.2811 3.59922 36.4366 3.59922C36.8029 3.59922 36.9274 3.68089 37.2815 3.9391C37.6233 4.18493 38.0897 4.51903 38.8166 4.74012C39.401 4.91583 40.1653 4.948 40.8556 4.82839C40.5194 5.57166 40.4454 6.22749 40.6187 6.93941C40.4641 7.04666 40.2524 7.1605 40.1092 7.24217C39.4255 7.62659 38.6489 8.05556 38.456 8.93165C38.351 9.41012 38.4625 9.91498 38.7735 10.3497C39.3074 11.0938 40.2215 11.5475 41.3839 12.1143C42.6447 12.7388 44.0748 13.4449 45.2119 14.6361C46.0942 15.5625 46.9888 16.0286 47.8776 16.0286C49.1271 16.0286 50.1901 15.1022 50.7924 13.4763C51.0285 12.8584 51.3394 10.8851 51.7309 7.61999C51.8424 6.70018 52.1908 4.82179 52.5018 3.5357C52.632 4.06532 52.8623 4.47531 53.0675 4.84654C53.3589 5.38275 53.6454 5.88101 53.726 6.90147C53.844 8.37646 54.6335 9.32267 56.1866 9.88363C56.7897 10.4693 57.1625 13.8541 57.3058 15.1402L57.3489 15.5246C57.6224 17.9705 57.8031 19.5841 60.1888 20.7753C61.5253 21.437 61.6434 21.7397 62.1904 23.1834L62.2213 23.2716C62.625 24.3243 63.2037 24.8728 63.6758 25.3076C64.0551 25.6664 64.3278 25.9255 64.5517 26.4741C64.664 26.7323 64.6827 26.8956 64.7071 27.1414C64.7942 27.8666 64.931 28.5158 65.8198 29.7515C66.1495 30.2119 66.4596 30.5707 66.7274 30.8801C67.4542 31.724 67.7212 32.0333 67.6097 33.3821ZM68.5108 29.3036C68.2625 29.014 68.0012 28.7113 67.7399 28.3392C67.1433 27.5077 67.1059 27.2363 67.0627 26.8519C67.0253 26.5433 66.9756 26.1144 66.7396 25.5468C66.3171 24.5198 65.7449 23.9778 65.285 23.5488C64.8935 23.1834 64.6387 22.9441 64.4401 22.4013L64.4027 22.313C63.7499 20.5988 63.3087 19.6534 61.2331 18.6198C60.0773 18.0398 59.978 17.6934 59.7045 15.254L59.6606 14.8754C59.2381 11.0303 58.8035 8.26345 57.0136 7.63319C56.1369 7.33044 56.1182 7.0912 56.0873 6.70018C55.957 5.16166 55.4849 4.29877 55.1366 3.67429C54.9192 3.28327 54.8069 3.06961 54.7703 2.7982C54.5896 1.40488 53.8187 0 52.5075 0C52.085 0 51.4697 0.157564 50.9357 0.895062C50.1649 1.96006 49.3884 7.28012 49.3818 7.33044C49.0025 10.4949 48.6981 12.2974 48.5801 12.6249C48.3375 13.2807 48.0144 13.6272 47.8776 13.6272C47.8402 13.6272 47.5301 13.6082 46.9147 12.9656C45.4911 11.4716 43.7883 10.6269 42.4151 9.9587C42.0301 9.76319 41.5947 9.54953 41.2471 9.34742H41.2528C41.9805 8.94403 43.4904 8.09928 42.9621 6.53024C42.8685 6.25224 42.8067 6.06993 43.3349 5.28211C44.0121 4.26083 43.7826 3.46641 43.5832 3.08198C43.2665 2.47648 42.595 2.07968 41.8804 2.07968C41.6012 2.07968 41.3334 2.14238 41.1038 2.26282C40.8238 2.41378 40.4136 2.49545 40.0099 2.49545C39.8113 2.49545 39.6184 2.47648 39.4881 2.43275C39.1398 2.33211 38.9289 2.17455 38.6554 1.97904C38.1956 1.65071 37.5615 1.19122 36.4431 1.19122C36.1444 1.19122 35.8334 1.22256 35.4794 1.28526C35.2686 1.32321 35.0634 1.34218 34.8892 1.34218C34.3797 1.34218 34.1306 1.19122 33.7888 0.983331C33.4347 0.768846 32.9504 0.478467 32.2789 0.478467C31.9435 0.478467 31.6074 0.547762 31.2476 0.699551C29.8866 1.26629 29.4951 2.66621 29.2338 3.58602C29.1777 3.78814 29.1215 3.98365 29.0906 4.09089C29.0409 4.16596 28.8358 4.33672 28.6869 4.46211C27.9657 5.07422 26.7602 6.09467 26.6853 8.26922C26.6674 8.25685 26.6544 8.25107 26.6422 8.23787C25.1193 6.98974 24.0318 6.17057 22.7335 6.17057C21.5028 6.17057 20.465 6.93941 19.5322 7.77178C18.3333 8.83678 18.2209 9.85806 18.1469 10.6022C18.1029 10.9734 18.0785 11.1945 17.9605 11.4213C17.6308 12.0582 17.3826 12.0582 17.0464 12.0582C16.9471 12.0582 16.8478 12.0582 16.755 12.0516C16.6305 12.045 16.5124 12.045 16.4001 12.045C15.9654 12.045 15.3314 12.1019 14.8153 12.6249C13.8768 13.5769 13.9957 14.825 14.0697 15.5625C14.0762 15.6442 14.0884 15.7391 14.0884 15.8273C13.6782 16.2118 13.3803 16.6721 13.0319 17.8633C12.8765 18.3805 12.5533 18.5315 11.4406 18.8211C11.0809 18.9159 10.7016 19.0166 10.3288 19.1618C10.0797 19.2566 9.88759 19.3259 9.72561 19.3886C8.93688 19.6724 8.64467 19.8044 7.63129 20.6623C7.28373 20.9519 6.95407 21.0336 6.50069 21.1474C5.89104 21.2926 5.13893 21.4815 4.39335 22.1877C3.74706 22.7989 3.32461 22.8872 2.82728 22.9878C1.85785 23.19 0.938077 23.5241 0.347954 25.301C-0.491241 27.8228 0.397606 30.1987 0.820052 31.3462L0.913658 31.6044C0.963309 31.7562 0.969007 31.8378 0.969007 31.8502C0.956798 31.8815 0.894937 31.9764 0.850983 32.0333C0.732958 32.1967 0.627143 32.3551 0.553073 32.525C-0.124958 33.9431 0.832262 35.0774 1.85785 35.9914C2.35518 36.4394 2.87693 37.7881 3.33682 38.9728C3.84067 40.2588 4.3559 41.5886 5.07707 42.6355C6.12708 44.1674 6.26383 45.6795 6.24511 46.1341C6.22069 46.1654 6.18976 46.1902 6.16453 46.2223C5.27568 47.0984 5.17638 48.0372 5.85359 49.0148C6.66837 50.1804 8.11641 50.7727 10.1481 50.7727C10.3165 50.7727 10.4777 50.7727 10.6267 50.767C11.7955 50.71 13.0506 50.1367 13.7588 49.3233C14.169 48.8506 14.9333 47.9745 17.2206 47.8038C17.8424 47.7534 18.2771 47.7724 18.6312 47.7856C18.7931 47.7914 18.9421 47.798 19.0854 47.798C19.4956 47.798 19.9921 47.76 20.5831 47.4763C21.6583 46.9656 21.9684 46.0268 22.1613 45.4659C22.1923 45.3644 22.2232 45.2638 22.2606 45.1755C23.0005 43.4802 27.3691 42.5596 31.1043 42.5596C31.2842 42.5596 31.4527 42.5662 31.6017 42.572C32.5524 42.5975 34.8087 42.8368 35.1872 44.438C35.7651 46.8905 37.6233 48.9579 39.2391 48.9579C39.8797 48.9579 40.4454 48.6485 40.8051 48.1065C40.924 47.9242 41.0916 47.7287 41.265 47.5522C41.3464 48.4159 41.6443 49.3043 42.6512 50.0922C43.0305 50.3825 43.3658 50.5525 43.6019 50.6721C43.6516 50.6977 43.6955 50.7166 43.7329 50.7414C43.7452 50.842 43.7639 51.0441 43.7386 51.4162C43.6328 53.5338 44.9881 54.3282 45.9762 54.9139C46.3425 55.1284 46.7283 55.3619 47.0702 55.6514C47.7596 56.2446 48.5866 56.5284 49.5935 56.5284C50.1217 56.5284 50.6248 56.4525 51.0659 56.3832C51.4697 56.3196 51.8368 56.2503 52.0793 56.2949C52.2966 56.3328 52.3959 56.4079 52.6507 56.6224C53.03 56.9441 53.6079 57.4358 54.6522 57.4358C55.4719 57.4358 56.0189 57.0761 56.4601 56.7923C56.933 56.4838 57.3798 56.1876 58.4494 56.1307C61.6124 55.9666 62.3271 53.0545 62.7992 51.1258L62.8554 50.9179C63.1223 49.8339 64.2912 48.4348 65.7759 46.6629C66.3977 45.913 67.0815 45.0996 67.7839 44.2045C69.9653 41.4187 69.9523 37.9267 69.9401 35.3744C69.9401 34.7062 69.9336 34.0751 69.971 33.5776C70.1639 31.2133 69.3622 30.2869 68.5108 29.3036Z" fill="#7FE314"/>
</svg>
