<svg width="42" height="54" viewBox="0 0 42 54" fill="none" xmlns="http://www.w3.org/2000/svg">
<path d="M17.6842 0.776491C16.9419 1.00382 16.2174 1.29241 15.5276 1.6068L16.1884 3.527C16.8556 3.21503 17.5567 2.93853 18.2788 2.71684C27.3285 -0.0594645 37.1181 5.65599 40.1363 15.5053C40.1742 15.6302 40.2154 15.756 40.2509 15.8801L42 15.2957C41.9677 15.1844 41.933 15.0756 41.8992 14.9644C38.5534 4.04454 27.7174 -2.30131 17.6842 0.776491Z" fill="#7FE314"/>
<path d="M18.7225 5.83818C18.1594 6.01069 17.61 6.22915 17.0864 6.46776L17.6866 8.2348C18.1933 7.99779 18.7249 7.7882 19.2728 7.62053C26.1361 5.51492 33.0624 9.66648 35.3513 17.1369C35.3803 17.2312 35.4118 17.3263 35.4384 17.4206L37.1649 16.8491C37.1399 16.7653 37.1141 16.683 37.0875 16.5984C34.5501 8.31702 26.3322 3.50363 18.7217 5.83737L18.7225 5.83818Z" fill="#7FE314"/>
<path d="M19.6673 10.4646C19.2687 10.5863 18.8782 10.7419 18.5071 10.9111L19.0759 12.6097C19.4349 12.4412 19.8117 12.2929 20.2006 12.1735C25.1526 10.9466 29.0123 13.2965 30.9002 18.6564C30.9212 18.7233 30.943 18.7911 30.9623 18.858L32.7461 18.2735C32.7284 18.2131 32.7098 18.155 32.6921 18.0954C30.8921 12.2219 25.0639 8.80957 19.6681 10.4646H19.6673Z" fill="#7FE314"/>
<path d="M8.59735 38.0608C7.00474 43.1345 5.52267 48.2059 2.90626 53.2805C12.3642 53.2668 14.3586 53.2361 23.8166 53.2224C22.1215 49.9552 20.6637 46.3631 19.5826 43.0958C15.6213 42.4122 11.9923 40.9652 8.59735 38.0608ZM9.24197 40.904L10.7426 41.9358C9.43157 46.6605 7.05396 50.6428 5.24191 52.168C6.68203 48.6154 7.76151 46.1382 9.24197 40.904Z" fill="#7FE314"/>
<path d="M0.240621 12.7838C-1.17287 22.8144 3.70578 33.091 13.1726 38.097C22.6403 43.1039 33.8547 41.3457 41.3409 34.5259L0.240621 12.7838ZM2.34715 16.97L5.91235 18.9732C6.02449 24.8265 7.50092 28.0978 9.54613 32.7234C5.30322 28.5573 2.45526 23.5069 2.34715 16.9708V16.97Z" fill="#7FE314"/>
<path d="M21.6753 19.7657L23.4866 20.7161L21.1485 25.1772L19.3365 24.2268L21.6753 19.7657Z" fill="#7FE314"/>
<path d="M24.6783 20.8136C24.0732 21.9688 22.7403 22.463 21.7012 21.918C20.6621 21.3731 20.3111 19.9946 20.9162 18.8394C21.5213 17.6842 22.8549 17.1901 23.8932 17.735C24.9324 18.2808 25.2842 19.6584 24.6783 20.8136Z" fill="#7FE314"/>
</svg>
