<svg width="60" height="79" viewBox="0 0 60 79" fill="none" xmlns="http://www.w3.org/2000/svg">
<path fill-rule="evenodd" clip-rule="evenodd" d="M13.2465 53.3146L4.96266 71.2281C4.80478 71.5701 4.85087 71.9694 5.08327 72.2686C5.31664 72.5678 5.69906 72.7202 6.08148 72.6659L14.736 71.432L19.5359 78.5364C19.7477 78.8499 20.1183 79.0271 20.5037 78.9966C20.889 78.9671 21.2264 78.7365 21.3852 78.3935L29.9995 59.7644L38.6148 78.3935C38.7736 78.7365 39.111 78.9671 39.4963 78.9966C39.8807 79.0271 40.2523 78.8499 40.4641 78.5364L45.264 71.432L53.9185 72.6659C54.3009 72.7202 54.6834 72.5678 54.9167 72.2686C55.1491 71.9694 55.1952 71.5701 55.0373 71.2281L46.7535 53.3146C54.7422 48.0768 60 39.201 60 29.1428C60 13.0587 46.5574 0 29.9995 0C13.4426 0 0 13.0587 0 29.1428C0 39.201 5.25781 48.0768 13.2465 53.3146ZM44.9424 54.4132C40.9809 56.6295 36.4497 57.993 31.6155 58.2427L39.7542 75.8417L43.8647 69.7569C44.0913 69.4224 44.4962 69.2461 44.9032 69.3033L52.3163 70.36L44.9424 54.4132ZM15.0576 54.4132L7.68275 70.36L15.0968 69.3033C15.5038 69.2461 15.9087 69.4224 16.1343 69.7569L20.2458 75.8417L28.3845 58.2427C23.5503 57.993 19.0191 56.6305 15.0576 54.4132ZM29.9995 2.05529C45.3895 2.05529 57.8849 14.1926 57.8849 29.1428C57.8849 44.092 45.3895 56.2293 29.9995 56.2293C14.6105 56.2293 2.11509 44.092 2.11509 29.1428C2.11509 14.1926 14.6105 2.05529 29.9995 2.05529ZM29.9995 4.90334C16.2284 4.90334 5.04699 15.7648 5.04699 29.1428C5.04699 42.5198 16.2284 53.3813 29.9995 53.3813C43.7716 53.3813 54.952 42.5198 54.952 29.1428C54.952 15.7648 43.7716 4.90334 29.9995 4.90334ZM29.9995 6.95863C42.6037 6.95863 52.8369 16.8987 52.8369 29.1428C52.8369 41.3859 42.6037 51.326 29.9995 51.326C17.3963 51.326 7.16305 41.3859 7.16305 29.1428C7.16305 16.8987 17.3963 6.95863 29.9995 6.95863ZM30.9624 12.2641C30.7898 11.8982 30.4143 11.6638 29.9995 11.6638C29.5857 11.6638 29.2101 11.8982 29.0376 12.2641L24.5426 21.8173L13.7995 23.0188C13.3887 23.0646 13.0425 23.34 12.9141 23.722C12.7866 24.1051 12.9004 24.5243 13.2053 24.7969L21.1695 31.9022L19.025 42.1977C18.9436 42.5922 19.1054 42.9962 19.4407 43.2325C19.7751 43.4688 20.2213 43.4936 20.5821 43.2963L29.9995 38.1348L39.4179 43.2963C39.7787 43.4936 40.2249 43.4688 40.5592 43.2325C40.8946 42.9962 41.0564 42.5922 40.975 42.1977L38.8305 31.9022L46.7947 24.7969C47.0996 24.5243 47.2134 24.1051 47.0859 23.722C46.9575 23.34 46.6113 23.0646 46.2005 23.0188L35.4574 21.8173L30.9624 12.2641ZM29.9995 15.1626L33.7816 23.1989C33.9355 23.5267 34.2552 23.7516 34.6229 23.7935L43.6598 24.8035L36.9606 30.7807C36.687 31.0237 36.5654 31.3886 36.6389 31.7412L38.4422 40.4016L30.5202 36.0595C30.1976 35.8832 29.8024 35.8832 29.4798 36.0595L21.5578 40.4016L23.3611 31.7412C23.4346 31.3886 23.313 31.0237 23.0394 30.7807L16.3402 24.8035L25.3771 23.7935C25.7448 23.7516 26.0645 23.5267 26.2184 23.1989L29.9995 15.1626Z" fill="#88E525"/>
</svg>
