<svg width="71" height="53" viewBox="0 0 71 53" fill="none" xmlns="http://www.w3.org/2000/svg">
<path d="M66.3582 52.4774C66.4647 52.4437 66.5705 52.4058 66.675 52.366C66.7792 52.3256 66.8824 52.2818 66.9849 52.236C67.0866 52.1897 67.1871 52.14 67.2868 52.0876C67.3858 52.0355 67.4832 51.9809 67.5793 51.9222C67.675 51.8644 67.7691 51.8041 67.8615 51.7407C67.9539 51.6773 68.0447 51.6113 68.1331 51.5425C68.2224 51.4741 68.3086 51.403 68.3932 51.3294C68.4776 51.2551 68.56 51.1792 68.6402 51.1011C68.7201 51.0223 68.7981 50.9419 68.8737 50.8585C68.9485 50.7754 69.0221 50.6905 69.0925 50.6028C69.1631 50.5158 69.2309 50.4268 69.2964 50.3355C69.3613 50.2444 69.4239 50.1511 69.4839 50.0564C69.5439 49.9617 69.6016 49.8647 69.656 49.7665C69.7105 49.6684 69.7615 49.5691 69.8104 49.4676C69.8592 49.366 69.9049 49.264 69.9478 49.1599C69.9899 49.056 70.0301 48.9505 70.0665 48.8448C70.1033 48.7382 70.137 48.6311 70.1673 48.5229C70.1976 48.4146 70.2249 48.3059 70.2494 48.1958C70.2735 48.0866 70.2943 47.9762 70.3123 47.8645C70.33 47.7536 70.3445 47.6423 70.3558 47.5305C70.3672 47.4187 70.3754 47.3064 70.3808 47.1943C70.3852 47.0817 70.3868 46.9694 70.3852 46.8565C70.3838 46.7444 70.3793 46.6317 70.3712 46.5195C70.3632 46.4073 70.3515 46.2954 70.3369 46.1838C70.3224 46.0722 70.3051 45.9614 70.2841 45.8504C70.2632 45.7401 70.2388 45.6301 70.2117 45.5211C70.1846 45.412 70.1539 45.3034 70.1208 45.1963C70.0874 45.0885 70.0509 44.9825 70.0115 44.8766C69.9716 44.7717 69.929 44.6676 69.8831 44.5647C69.8379 44.4615 69.7895 44.36 69.7377 44.2597C69.6862 44.16 69.6319 44.0612 69.5746 43.9642C69.5181 43.8676 69.4575 43.7724 69.3955 43.6791C69.3325 43.5854 69.2672 43.4939 69.1995 43.4039C69.1311 43.3142 69.0612 43.2264 68.9883 43.1411C68.9152 43.0551 68.84 42.972 68.7624 42.8905C68.6843 42.8099 68.6045 42.7305 68.5226 42.6541C68.4398 42.5772 68.3556 42.503 68.2692 42.431C68.1824 42.36 68.0937 42.2902 68.0032 42.224C67.9125 42.1571 67.8207 42.0936 67.7266 42.0323C67.6325 41.971 67.5364 41.9126 67.4389 41.8569C67.3414 41.8012 67.2419 41.7483 67.1417 41.698C67.041 41.6485 66.939 41.6017 66.8356 41.5576C66.7322 41.5135 66.6284 41.4725 66.5225 41.4344C66.4166 41.3963 66.3102 41.3613 66.2027 41.3297C66.0952 41.2981 65.9863 41.2692 65.8772 41.2441C65.7678 41.2183 65.6582 41.1963 65.5473 41.177C65.4372 41.1582 65.3258 41.142 65.2148 41.1294C65.1031 41.1171 64.9916 41.1077 64.8797 41.1014C64.7677 41.0951 64.6553 41.0919 64.5433 41.0923C64.4313 41.0927 64.3195 41.0961 64.2074 41.1032C64.096 41.1102 63.9842 41.1203 63.8725 41.1332C63.7618 41.1467 63.6505 41.1633 63.5404 41.1832C63.4302 41.2032 63.3203 41.2261 63.2115 41.2523C63.1024 41.2779 62.9946 41.3075 62.8871 41.3401C62.7802 41.3724 62.6735 41.4077 62.5686 41.4461C62.4632 41.4854 62.3592 41.5265 62.2571 41.5714C62.1541 41.6159 62.0523 41.6638 61.9526 41.7139C61.8525 41.7649 61.7538 41.8177 61.657 41.8744C61.56 41.9304 61.4647 41.9895 61.3712 42.0518C61.2782 42.1132 61.1863 42.178 61.0966 42.245C61.0068 42.3121 60.9187 42.3816 60.8336 42.4539C60.7479 42.5263 60.6644 42.6011 60.5824 42.6783C60.5011 42.7553 60.422 42.8346 60.3451 42.9161C60.2685 42.9983 60.1939 43.0821 60.1221 43.168L43.0722 34.3847C43.1811 34.0855 43.2767 33.7816 43.3582 33.4734C43.4395 33.1645 43.5074 32.8532 43.5608 32.5383C43.6144 32.2242 43.654 31.9079 43.6788 31.5896C43.7036 31.2714 43.7141 30.9525 43.7103 30.6331C43.7068 30.3143 43.6891 29.9956 43.6562 29.6781C43.6238 29.3598 43.5768 29.0446 43.5162 28.7308C43.4549 28.4173 43.3806 28.1073 43.2918 27.8004C43.2023 27.4938 43.1 27.1913 42.9838 26.894C42.8683 26.5965 42.7389 26.3043 42.596 26.0187C42.4538 25.7328 42.299 25.454 42.1317 25.1822C41.9643 24.9105 41.7846 24.6464 41.5934 24.3906C41.4018 24.1356 41.1994 23.8886 40.9861 23.6518C40.7727 23.4143 40.5491 23.1869 40.3156 22.97C40.0812 22.7528 39.8385 22.5464 39.5862 22.3521C39.3338 22.157 39.0732 21.9736 38.8038 21.8019C38.5353 21.6308 38.2588 21.4718 37.9761 21.3254L41.303 12.1873C41.4198 12.2017 41.5364 12.2132 41.6541 12.2214C41.7717 12.2288 41.8897 12.2332 42.007 12.2333C42.1246 12.234 42.2424 12.231 42.3599 12.2243C42.4775 12.2183 42.5945 12.2081 42.7111 12.1942C42.8283 12.1802 42.9447 12.1634 43.0604 12.1424C43.1762 12.1214 43.291 12.0977 43.4053 12.0697C43.5202 12.0415 43.6335 12.0108 43.7456 11.976C43.8583 11.9411 43.9693 11.9029 44.0798 11.8612C44.1896 11.8197 44.2984 11.7748 44.4054 11.7268C44.5131 11.6786 44.619 11.6272 44.7232 11.5726C44.8273 11.518 44.9297 11.4603 45.0303 11.3994C45.131 11.3386 45.2298 11.2745 45.3269 11.2073C45.4235 11.141 45.5182 11.0709 45.6106 10.9985C45.7035 10.9252 45.7935 10.8498 45.882 10.772C45.9696 10.6937 46.0556 10.613 46.1385 10.5295C46.2214 10.446 46.3021 10.3602 46.3797 10.2717C46.458 10.183 46.5327 10.0925 46.6051 9.99973C46.6776 9.90693 46.7472 9.81209 46.8137 9.71453C46.8804 9.61764 46.944 9.51803 47.0049 9.41704C47.0658 9.31605 47.1231 9.21324 47.1776 9.10837C47.2314 9.00372 47.2825 8.8977 47.3307 8.78963C47.3785 8.68246 47.4234 8.57323 47.4647 8.46218C47.5063 8.3518 47.5438 8.24048 47.5784 8.12711C47.6133 8.01442 47.6441 7.90079 47.6716 7.78601C47.6998 7.67101 47.7241 7.55574 47.7445 7.43954C47.7648 7.32333 47.782 7.20665 47.7961 7.08948C47.8093 6.97186 47.8196 6.85443 47.8261 6.73674C47.8324 6.61838 47.8351 6.50042 47.8347 6.38199C47.8345 6.26423 47.8298 6.14642 47.822 6.02814C47.8144 5.91053 47.803 5.79265 47.7883 5.67587C47.7733 5.55841 47.7548 5.44136 47.7329 5.3254C47.711 5.20943 47.6855 5.09388 47.6566 4.97942C47.6278 4.86496 47.5947 4.75113 47.5591 4.63884C47.5233 4.52587 47.4844 4.41467 47.4414 4.30478C47.3989 4.19399 47.3532 4.08496 47.3038 3.97791C47.255 3.87065 47.2028 3.76447 47.1468 3.66027C47.0915 3.55586 47.0331 3.45321 46.9708 3.35253C46.9092 3.25164 46.8447 3.15319 46.777 3.0565C46.7094 2.95981 46.6386 2.86488 46.5655 2.77217C46.4918 2.67968 46.4158 2.58941 46.3369 2.50158C46.258 2.41375 46.1768 2.32813 46.093 2.24563C46.0082 2.16267 45.9221 2.08239 45.833 2.00455C45.744 1.92671 45.6529 1.85176 45.5598 1.77971C45.4667 1.70765 45.3709 1.63871 45.2735 1.57177C45.1756 1.50573 45.0764 1.44236 44.9751 1.38189C44.8732 1.32163 44.7702 1.26473 44.6657 1.21051C44.5606 1.1565 44.4544 1.10585 44.3463 1.05876C44.2387 1.01079 44.1293 0.966381 44.019 0.926003C43.9084 0.884949 43.7967 0.847249 43.684 0.813576C43.5712 0.779229 43.4574 0.748909 43.3425 0.721942C43.228 0.694082 43.1128 0.670926 42.9965 0.651122C42.8807 0.630426 42.7639 0.613758 42.6468 0.6009C42.5298 0.588042 42.4132 0.578779 42.2954 0.572867C42.1776 0.566955 42.0603 0.564635 41.9425 0.565452C41.8242 0.567161 41.707 0.572246 41.5893 0.580467C41.4726 0.589144 41.3553 0.600958 41.2385 0.616364C41.1219 0.632445 41.0055 0.651444 40.8905 0.674494C40.7752 0.696869 40.6603 0.722838 40.5467 0.752857C40.4329 0.7822 40.3198 0.815812 40.2081 0.851906C40.0961 0.888894 39.9856 0.928365 39.8764 0.971887C39.7671 1.01541 39.6588 1.06163 39.5525 1.11168C39.4454 1.16196 39.3406 1.2145 39.2371 1.27109C39.1343 1.32746 39.0324 1.38653 38.9331 1.44922C38.8331 1.51212 38.7353 1.57729 38.6394 1.64562C38.5443 1.71441 38.4507 1.78568 38.3589 1.86011C38.2676 1.93364 38.1783 2.01101 38.0918 2.09043C38.0047 2.17006 37.9206 2.25242 37.8388 2.33704C37.7573 2.42234 37.6783 2.50901 37.6019 2.59863C37.5254 2.68824 37.4518 2.7799 37.3806 2.8745C37.3099 2.96821 37.2417 3.06486 37.177 3.16334C37.1121 3.26114 37.0496 3.36189 36.9911 3.46357C36.932 3.56547 36.8758 3.66943 36.8231 3.7752C36.7708 3.88009 36.7211 3.98792 36.6751 4.09601C36.6286 4.205 36.586 4.31424 36.5462 4.42554C36.5071 4.53662 36.4707 4.64907 36.4383 4.76246C36.4052 4.87606 36.376 4.98993 36.3503 5.10563C36.3243 5.22066 36.3024 5.33662 36.2836 5.45307C36.2642 5.56973 36.2492 5.68644 36.2376 5.8043C36.2257 5.92149 36.2179 6.03961 36.2129 6.15754C36.2087 6.27526 36.2075 6.39345 36.2102 6.51191C36.2126 6.62969 36.2189 6.74774 36.2287 6.86537C36.2378 6.98322 36.2512 7.10044 36.2682 7.21725C36.2852 7.33406 36.3051 7.45067 36.3292 7.56666C36.3532 7.68197 36.38 7.79708 36.4111 7.91157C36.4419 8.02538 36.4762 8.1381 36.514 8.25041C36.5518 8.36272 36.5927 8.47327 36.637 8.58273C36.6814 8.6922 36.729 8.80057 36.7799 8.90718C36.8307 9.01379 36.8846 9.11864 36.942 9.22241C36.9991 9.32549 37.0593 9.42682 37.1229 9.52706C37.1856 9.62684 37.2522 9.72464 37.3216 9.82C37.3904 9.91558 37.463 10.0092 37.5379 10.1006C37.6127 10.1919 37.6905 10.2809 37.7705 10.3676C37.8506 10.4543 37.9333 10.5379 38.0192 10.6198C38.1042 10.7012 38.1921 10.7801 38.2821 10.8562C38.3722 10.9329 38.4649 11.0059 38.5591 11.0768C38.654 11.1475 38.7501 11.2149 38.8491 11.2798L35.5164 20.4206C35.2591 20.3599 34.9999 20.3094 34.7387 20.2686C34.4781 20.2276 34.2163 20.1967 33.9527 20.1761C33.6895 20.1545 33.426 20.1436 33.162 20.1424C32.8987 20.1411 32.6348 20.1496 32.3713 20.1685C32.1085 20.1871 31.8458 20.2154 31.5851 20.2542C31.3241 20.2924 31.0649 20.3404 30.8073 20.3983C30.5498 20.4563 30.2953 20.5237 30.0428 20.6016C29.7907 20.6787 29.5417 20.7652 29.2957 20.8611C29.0504 20.9569 28.8081 21.062 28.5703 21.1763C28.3324 21.2905 28.0996 21.4135 27.8706 21.5457C27.642 21.6771 27.4187 21.8179 27.2007 21.9659C26.9829 22.1147 26.7707 22.2713 26.5642 22.4365C26.3581 22.6009 26.1585 22.7736 25.9649 22.9533C25.7719 23.1328 25.5851 23.3199 25.4057 23.5137C25.2271 23.7079 25.055 23.9082 24.8909 24.1149C24.7261 24.3219 24.57 24.5349 24.4216 24.7537L12.1428 18.3918C12.1719 18.2772 12.1969 18.1617 12.2186 18.0451C12.2412 17.9289 12.2591 17.812 12.2745 17.6944C12.2893 17.577 12.3001 17.4587 12.3079 17.3406C12.3157 17.2224 12.3198 17.1041 12.3209 16.9859C12.3212 16.8672 12.3178 16.749 12.3114 16.6303C12.3051 16.5122 12.2944 16.3941 12.2808 16.2762C12.2674 16.159 12.2502 16.0415 12.2287 15.9247C12.2082 15.8083 12.184 15.6923 12.1563 15.5767C12.1281 15.462 12.0971 15.3475 12.0619 15.2344C12.0275 15.121 11.989 15.0089 11.9478 14.8976C11.906 14.7866 11.8617 14.6772 11.8131 14.5683C11.7648 14.4602 11.7133 14.3538 11.6591 14.2483C11.6043 14.143 11.5465 14.0401 11.4853 13.9383C11.4249 13.8363 11.3608 13.737 11.2943 13.6392C11.2271 13.5416 11.1574 13.4455 11.0848 13.3519C11.0115 13.2586 10.9367 13.1672 10.8582 13.0785C10.7804 12.9895 10.6988 12.9025 10.6161 12.8189C10.5325 12.7349 10.4466 12.653 10.358 12.5743C10.2694 12.4955 10.1794 12.4195 10.0859 12.3461C9.99324 12.2731 9.89833 12.2024 9.80071 12.1348C9.70398 12.0676 9.60433 12.0029 9.50353 11.9416C9.40274 11.8802 9.29991 11.8217 9.19504 11.7662C9.0904 11.7113 8.98439 11.659 8.87656 11.6104C8.76874 11.5617 8.65977 11.5164 8.54944 11.4738C8.43865 11.4321 8.32718 11.3928 8.21478 11.3576C8.10171 11.3225 7.98817 11.2907 7.87348 11.2621C7.75879 11.2336 7.64318 11.2091 7.5271 11.1877C7.41102 11.1663 7.29379 11.1483 7.17698 11.1339C7.0595 11.1197 6.94177 11.1093 6.82445 11.1025C6.70625 11.0952 6.58846 11.0916 6.47043 11.0917C6.35239 11.0918 6.2341 11.0958 6.1169 11.1031C5.99881 11.11 5.88136 11.1211 5.76432 11.1359C5.64707 11.1499 5.53046 11.1682 5.41405 11.1895C5.29852 11.2112 5.18342 11.2365 5.06852 11.2647C4.95384 11.2936 4.84092 11.3256 4.72842 11.3613C4.61592 11.3969 4.50451 11.4359 4.39419 11.4783C4.28388 11.5207 4.17533 11.5662 4.06787 11.6152C3.9604 11.6641 3.85471 11.7162 3.7501 11.7716C3.64617 11.8268 3.544 11.8852 3.44292 11.947C3.34252 12.0086 3.24388 12.0733 3.147 12.1412C3.05013 12.209 2.95569 12.2798 2.86347 12.3529C2.77079 12.4269 2.681 12.5029 2.59298 12.5821C2.50563 12.661 2.41983 12.7425 2.33714 12.8267C2.25444 12.9108 2.17418 12.9979 2.0966 13.0864C2.01923 13.1756 1.94408 13.267 1.87204 13.3611C1.80045 13.4544 1.7313 13.5506 1.66482 13.6481C1.59856 13.7464 1.53564 13.8458 1.47516 13.9481C1.41514 14.0495 1.358 14.153 1.30443 14.2584C1.25019 14.3639 1.19996 14.4704 1.15262 14.5789C1.10528 14.6874 1.06062 14.7973 1.01997 14.9082C0.979319 15.019 0.942232 15.1317 0.908272 15.2448C0.87364 15.3582 0.843696 15.4723 0.816425 15.5877C0.789153 15.7032 0.765681 15.8189 0.745552 15.9358C0.726096 16.0525 0.709765 16.1696 0.69678 16.2879C0.683575 16.4055 0.67417 16.5234 0.668562 16.6416C0.662955 16.7597 0.660474 16.8783 0.662463 16.997C0.663562 17.1152 0.668459 17.2337 0.676936 17.3518C0.685413 17.4698 0.697689 17.5882 0.713326 17.7054C0.728964 17.8227 0.748181 17.9395 0.770978 18.0559C0.793776 18.1723 0.819935 18.2877 0.849674 18.4026C0.880086 18.5173 0.913187 18.6311 0.949649 18.7439C0.986112 18.8566 1.02661 18.9681 1.0698 19.0786C1.11276 19.1885 1.15998 19.2978 1.20946 19.4048C1.25982 19.5123 1.31265 19.6183 1.3693 19.7223C1.4255 19.8272 1.48529 19.9294 1.54756 20.03C1.6105 20.1305 1.6759 20.2294 1.74424 20.3259C1.81257 20.4224 1.88405 20.5171 1.95845 20.6093C2.03285 20.7016 2.1095 20.7917 2.18908 20.8793C2.26866 20.9669 2.35117 21.0521 2.43592 21.135C2.52114 21.2171 2.60793 21.2972 2.69764 21.3748C2.78736 21.4524 2.87956 21.5263 2.97335 21.5981C3.06781 21.6697 3.16363 21.7386 3.26215 21.8045C3.36001 21.8705 3.46057 21.9335 3.56249 21.9937C3.66487 22.0531 3.7686 22.1098 3.87416 22.1629C3.97926 22.2169 4.08685 22.2671 4.19491 22.3142C4.30364 22.361 4.41352 22.4046 4.52454 22.4447C4.63556 22.4849 4.74772 22.5217 4.86103 22.5551C4.97434 22.5886 5.08879 22.6187 5.20416 22.6448C5.31909 22.6717 5.43493 22.6947 5.55171 22.7136C5.66803 22.7334 5.78527 22.7492 5.90209 22.7614C6.01959 22.7733 6.13756 22.7822 6.25578 22.7872C6.37333 22.7924 6.49113 22.7938 6.60941 22.7921C6.72746 22.7897 6.84532 22.7844 6.96321 22.7746C7.08064 22.7658 7.19811 22.7524 7.31471 22.7363C7.43197 22.72 7.54793 22.6996 7.66369 22.6764C7.77923 22.6524 7.8939 22.6258 8.00792 22.5949C8.12217 22.5646 8.23511 22.5304 8.34717 22.4934C8.45901 22.4557 8.56977 22.4147 8.67876 22.3705C8.78864 22.3267 8.89653 22.2792 9.00267 22.2284C9.10947 22.1775 9.21451 22.1234 9.31779 22.0661C9.42107 22.0088 9.52213 21.9493 9.62188 21.8857C9.72163 21.8222 9.81894 21.7556 9.91471 21.6866C10.0103 21.617 10.1036 21.545 10.1945 21.4701C10.286 21.395 10.3745 21.3172 10.4614 21.2369C10.5474 21.1561 10.6312 21.0731 10.7128 20.9878C10.7942 20.9018 10.8727 20.8138 10.9489 20.7235L23.2273 27.0818C23.0882 27.4624 22.9714 27.8499 22.8769 28.2444C22.7822 28.6382 22.7105 29.0365 22.6616 29.4386C22.6129 29.8414 22.587 30.2458 22.5836 30.651C22.5811 31.0568 22.6013 31.4612 22.6449 31.8647C22.6885 32.2682 22.7545 32.6674 22.844 33.0636C22.9332 33.459 23.0445 33.8489 23.1781 34.2322C23.3115 34.6149 23.4667 34.989 23.6436 35.3546C23.8196 35.7198 24.0165 36.0737 24.2336 36.4167L17.3492 42.128C17.2583 42.0582 17.1653 41.9913 17.0704 41.9273C16.9747 41.8635 16.8784 41.8022 16.7794 41.744C16.681 41.6856 16.5806 41.63 16.4791 41.5779C16.3767 41.5252 16.2731 41.4759 16.169 41.4298C16.0643 41.3839 15.9582 41.3406 15.8504 41.3009C15.7431 41.261 15.6345 41.2238 15.5257 41.1904C15.416 41.1565 15.3053 41.1267 15.1942 41.1C15.0829 41.0726 14.9713 41.049 14.8585 41.0288C14.7465 41.0084 14.6333 40.9913 14.5196 40.9774C14.4061 40.9641 14.2922 40.954 14.1778 40.947C14.0634 40.94 13.9494 40.9366 13.8349 40.9363C13.7207 40.9367 13.6064 40.9393 13.4921 40.9465C13.3783 40.9527 13.2644 40.9634 13.1505 40.9764C13.0375 40.9898 12.9243 41.0071 12.8119 41.027C12.6995 41.047 12.5876 41.0705 12.476 41.0976C12.3652 41.1245 12.2552 41.1541 12.1458 41.188C12.0362 41.2212 11.9278 41.2578 11.821 41.2975C11.7136 41.3375 11.6078 41.3799 11.5033 41.4264C11.3985 41.4722 11.2955 41.5212 11.1936 41.5735C11.0917 41.6258 10.9923 41.6811 10.8937 41.7391C10.7951 41.7971 10.6983 41.8582 10.6039 41.9223C10.5086 41.9859 10.4157 42.0525 10.3253 42.122C10.2343 42.1917 10.1454 42.2637 10.059 42.3387C9.97234 42.4129 9.88813 42.4901 9.80547 42.5698C9.7237 42.6499 9.64393 42.7317 9.56727 42.8161C9.48994 42.9008 9.41549 42.9875 9.34327 43.0765C9.27104 43.1655 9.20171 43.2565 9.13505 43.3489C9.06793 43.4422 9.00438 43.5373 8.94282 43.634C8.88216 43.7312 8.82395 43.8291 8.76885 43.9297C8.71308 44.0305 8.6611 44.1316 8.61156 44.2356C8.56248 44.3387 8.51629 44.4439 8.47322 44.5496C8.42969 44.6561 8.39019 44.7636 8.35314 44.8718C8.31631 44.9806 8.28327 45.0897 8.25313 45.2009C8.22276 45.3114 8.19553 45.4224 8.17185 45.5352C8.14796 45.6473 8.12787 45.7597 8.11044 45.8735C8.09369 45.987 8.07985 46.1004 8.06936 46.2149C8.05886 46.3294 8.05194 46.4435 8.04837 46.5588C8.04458 46.6733 8.04458 46.7882 8.0475 46.9028C8.05108 47.0173 8.05758 47.1315 8.0672 47.2462C8.07749 47.3607 8.09048 47.4743 8.10726 47.5882C8.12382 47.7014 8.14329 47.8145 8.16701 47.9268C8.19006 48.0395 8.21648 48.151 8.24647 48.2621C8.27646 48.3732 8.3096 48.4825 8.34564 48.5917C8.38235 48.7006 8.42176 48.8087 8.46431 48.915C8.50686 49.0213 8.55277 49.1265 8.60137 49.2309C8.65042 49.3343 8.70216 49.4369 8.75705 49.5377C8.81194 49.6386 8.86997 49.7376 8.93047 49.8351C8.99097 49.9326 9.05461 50.0284 9.12118 50.1217C9.18708 50.2152 9.25679 50.3068 9.32808 50.3963C9.40027 50.4864 9.47448 50.5735 9.55117 50.659C9.62764 50.7439 9.70726 50.8271 9.7889 50.9073C9.87055 50.9875 9.95445 51.0655 10.0413 51.1411C10.1274 51.2169 10.2156 51.2898 10.3065 51.3596C10.397 51.4303 10.4892 51.4974 10.5844 51.5621C10.6789 51.6269 10.7748 51.6892 10.8734 51.7483C10.9713 51.8076 11.071 51.8633 11.1727 51.9162C11.274 51.9699 11.3772 52.0201 11.4814 52.0669C11.5864 52.1135 11.692 52.1577 11.7987 52.1984C11.9055 52.2392 12.0141 52.2765 12.1234 52.3112C12.2324 52.3453 12.3422 52.3769 12.4535 52.4043C12.5644 52.4326 12.6762 52.4568 12.7885 52.4779C12.9008 52.499 13.0135 52.517 13.1274 52.5316C13.2407 52.5465 13.3548 52.5573 13.4688 52.5652C13.5827 52.5731 13.6969 52.5771 13.8116 52.5781C13.9256 52.5793 14.0399 52.5766 14.1546 52.5708C14.2687 52.5653 14.3823 52.5561 14.4962 52.5431C14.6096 52.5311 14.7231 52.5145 14.8357 52.4952C14.9483 52.476 15.06 52.454 15.1718 52.4276C15.2831 52.402 15.3931 52.3724 15.5028 52.3399C15.6126 52.3073 15.7207 52.2717 15.8285 52.2331C15.9361 52.1938 16.0422 52.152 16.1469 52.1062C16.2519 52.0611 16.3558 52.0126 16.4574 51.9618C16.5596 51.9101 16.6601 51.856 16.7589 51.7987C16.8582 51.7405 16.9555 51.6807 17.0501 51.6173C17.1456 51.5543 17.2393 51.4882 17.3308 51.4198C17.4221 51.3508 17.5112 51.2795 17.5987 51.2057C17.6854 51.1314 17.7705 51.0547 17.8533 50.9757C17.9355 50.8969 18.0162 50.8156 18.0938 50.7316C18.172 50.6474 18.2473 50.5611 18.3198 50.4728C18.3924 50.3852 18.4626 50.2946 18.53 50.202C18.5973 50.1094 18.6624 50.0145 18.7242 49.9185C18.786 49.8224 18.8449 49.7243 18.9008 49.6242C18.9568 49.524 19.0102 49.4225 19.0601 49.3199C19.1099 49.2165 19.1572 49.1125 19.2009 49.0066C19.2453 48.9005 19.2857 48.7935 19.3235 48.6851C19.3612 48.5767 19.3949 48.4673 19.4261 48.3573C19.4574 48.2473 19.4853 48.1361 19.5099 48.0237C19.5344 47.9114 19.5561 47.7992 19.5735 47.6855C19.5918 47.5722 19.6063 47.4586 19.6177 47.3445C19.6291 47.2305 19.6367 47.1162 19.6412 47.0014C19.6456 46.8866 19.6465 46.7722 19.6443 46.6573C19.642 46.5425 19.6369 46.4278 19.6273 46.3131C19.6185 46.1988 19.6062 46.085 19.5901 45.9709C19.5749 45.8572 19.5554 45.7442 19.5331 45.6314C19.5109 45.5192 19.4852 45.4075 19.4558 45.2962C19.4274 45.1853 19.3947 45.075 19.3593 44.9657C19.2656 44.6873 19.1521 44.4167 19.0184 44.1549L25.9056 38.4428C26.044 38.5747 26.1855 38.702 26.3309 38.8257C26.4764 38.9495 26.6253 39.0699 26.7771 39.1856C26.9289 39.3013 27.0836 39.4123 27.241 39.5202C27.3989 39.6273 27.5593 39.7305 27.7226 39.8291C27.886 39.9277 28.0518 40.0224 28.2203 40.1119C28.3889 40.2013 28.559 40.2864 28.7321 40.3669C28.9052 40.4474 29.0803 40.5228 29.257 40.5939C29.4338 40.665 29.6125 40.731 29.7934 40.7918C29.9737 40.8536 30.156 40.9095 30.3391 40.9614C30.5227 41.0124 30.7077 41.0584 30.8933 41.0998C31.0799 41.1416 31.2667 41.1774 31.4545 41.2091C31.6427 41.24 31.831 41.2664 32.0204 41.2871C32.2098 41.3079 32.399 41.3235 32.5896 41.3342C32.7796 41.3451 32.97 41.3507 33.1603 41.351C33.3512 41.3512 33.5412 41.3464 33.7311 41.3365C33.9216 41.3263 34.1111 41.3105 34.3 41.2904C34.4895 41.2702 34.6781 41.245 34.8657 41.2141C35.0539 41.1831 35.2409 41.148 35.4267 41.1072C35.6126 41.0665 35.7967 41.0204 35.9809 40.9698C36.1641 40.9187 36.3459 40.8629 36.5261 40.8024C36.7063 40.7419 36.8856 40.6764 37.0619 40.606C37.2388 40.5354 37.4136 40.4602 37.5861 40.3806C37.7593 40.3007 37.9296 40.2165 38.0982 40.127C38.2661 40.0376 38.432 39.9444 38.5949 39.8463C38.7577 39.7481 38.9183 39.6454 39.0761 39.5385C39.2332 39.4318 39.3881 39.3205 39.5394 39.2052C39.6908 39.0899 39.8392 38.9703 39.9844 38.8473C40.1293 38.7236 40.2709 38.5965 40.4089 38.4654C40.547 38.3342 40.6817 38.1997 40.8129 38.061C40.9434 37.9226 41.0706 37.7808 41.1938 37.6358C41.3174 37.49 41.4366 37.3418 41.5516 37.1898C41.6665 37.0377 41.7777 36.8832 41.8849 36.7255L58.9346 45.5081C58.8716 45.7589 58.8254 46.0132 58.7966 46.2709C58.7676 46.5278 58.7553 46.7861 58.7609 47.0445C58.766 47.3039 58.7884 47.5614 58.828 47.817C58.8672 48.0736 58.9236 48.3261 58.9965 48.5746C59.0695 48.8232 59.1584 49.0659 59.2639 49.3025C59.3694 49.5391 59.4894 49.768 59.6254 49.9888C59.7608 50.2097 59.9105 50.4201 60.0741 50.6207C60.2378 50.8213 60.4141 51.0104 60.6027 51.1873C60.7909 51.3651 60.9909 51.5286 61.2007 51.6792C61.4113 51.8296 61.6306 51.966 61.8591 52.0868C62.0877 52.2082 62.323 52.3133 62.5653 52.4035C62.8081 52.4928 63.0552 52.5657 63.3067 52.6224C63.5591 52.6794 63.8132 52.7188 64.0708 52.7414C64.3275 52.7635 64.5854 52.7689 64.8431 52.7571C65.1007 52.7454 65.3562 52.7157 65.6103 52.6701C65.8642 52.6238 66.1139 52.5602 66.3593 52.4808L66.3582 52.4774ZM14.827 49.8231C14.7275 49.8552 14.6263 49.882 14.5244 49.9045C14.4225 49.927 14.3195 49.9439 14.2157 49.9559C14.1119 49.9678 14.0079 49.9746 13.9039 49.9769C13.799 49.9788 13.6947 49.9752 13.591 49.967C13.4865 49.9583 13.3833 49.9447 13.2799 49.9259C13.1774 49.9076 13.0755 49.8839 12.9749 49.8553C12.8743 49.8267 12.7757 49.7929 12.6779 49.7545C12.5809 49.7165 12.4853 49.6736 12.3925 49.6253C12.2992 49.5779 12.2086 49.5252 12.1205 49.4686C12.0324 49.4121 11.9475 49.3516 11.8655 49.2864C11.7835 49.2212 11.7047 49.152 11.6292 49.0794C11.5538 49.0069 11.4822 48.9301 11.4142 48.8507C11.3459 48.7706 11.282 48.6876 11.2223 48.6018C11.1626 48.5159 11.1069 48.4265 11.0558 48.3349C11.0042 48.2442 10.9579 48.1496 10.9158 48.0536C10.8736 47.9576 10.8361 47.8601 10.8038 47.7602C10.7715 47.6603 10.7441 47.5595 10.7212 47.4565C10.6985 47.3542 10.6807 47.2511 10.6686 47.1469C10.6557 47.0429 10.6487 46.9386 10.6466 46.8333C10.6441 46.729 10.6471 46.6236 10.6551 46.5196C10.6628 46.415 10.6759 46.3108 10.6939 46.208C10.7117 46.1046 10.7351 46.0023 10.7634 45.9014C10.791 45.8008 10.8242 45.7013 10.8618 45.6041C10.8999 45.5061 10.9424 45.4103 10.9897 45.3174C11.0366 45.2239 11.0881 45.1327 11.1442 45.0445C11.2003 44.9562 11.2603 44.8705 11.325 44.7884C11.389 44.7058 11.4577 44.6269 11.5299 44.5514C11.602 44.4758 11.6774 44.4037 11.7571 44.3354C11.8361 44.2674 11.9186 44.2034 12.0038 44.143C12.0892 44.0833 12.1775 44.0279 12.2685 43.9762C12.3596 43.9251 12.4528 43.8778 12.5483 43.8357C12.6439 43.7936 12.741 43.7562 12.8405 43.7241C12.9398 43.6912 13.0401 43.664 13.1427 43.6412C13.2446 43.6187 13.3473 43.6012 13.4509 43.5885C13.5545 43.5759 13.6583 43.5684 13.7632 43.5666C13.8678 43.5641 13.972 43.5669 14.0763 43.5749C14.18 43.5832 14.2836 43.5959 14.387 43.6147C14.4894 43.633 14.5912 43.656 14.6923 43.6837C14.7929 43.7124 14.8919 43.7452 14.9897 43.7837C15.0867 43.8217 15.182 43.8639 15.2753 43.9113C15.3686 43.9587 15.4597 44.0105 15.5478 44.067C15.6365 44.1234 15.7214 44.1839 15.8039 44.2482C15.8866 44.3132 15.9652 44.3817 16.0413 44.4541C16.1167 44.5266 16.1888 44.6025 16.257 44.6826C16.3257 44.7618 16.3897 44.8448 16.4501 44.9304C16.5104 45.016 16.5659 45.1047 16.6177 45.1961C16.6695 45.2875 16.7162 45.3812 16.759 45.477C16.8012 45.573 16.8387 45.6705 16.8717 45.7702C16.904 45.8701 16.9316 45.9716 16.9545 46.0745C16.9772 46.1768 16.9952 46.2806 17.0073 46.3848C17.0197 46.4897 17.0276 46.5945 17.0297 46.6997C17.0318 46.805 17.0285 46.9097 17.0208 47.0143C17.0124 47.1192 16.9993 47.2234 16.9815 47.3268C16.963 47.4305 16.9397 47.5328 16.9116 47.6343C16.8833 47.7352 16.8501 47.8347 16.812 47.9327C16.774 48.0308 16.7314 48.1266 16.6837 48.2203C16.6367 48.3138 16.5844 48.4046 16.5285 48.4935C16.4717 48.582 16.4109 48.6673 16.3463 48.75C16.2815 48.8321 16.213 48.9117 16.1408 48.9873C16.068 49.063 15.9917 49.1347 15.912 49.203C15.8324 49.2712 15.7498 49.3352 15.6638 49.3951C15.5779 49.4557 15.4896 49.5111 15.3978 49.5624C15.3066 49.6135 15.2133 49.6601 15.117 49.7024C15.0212 49.7438 14.9235 49.7814 14.824 49.8136L14.827 49.8231ZM67.604 45.9543C67.6363 46.0542 67.6639 46.1556 67.6866 46.2579C67.7088 46.3611 67.7266 46.4642 67.7387 46.5684C67.7509 46.6726 67.7588 46.7775 67.7609 46.8827C67.7628 46.9872 67.7597 47.0926 67.752 47.1973C67.7433 47.3015 67.7302 47.4057 67.7125 47.5091C67.6938 47.6121 67.6704 47.7144 67.6423 47.8159C67.6141 47.9168 67.5809 48.0163 67.5426 48.1137C67.5045 48.2117 67.4617 48.3068 67.4141 48.4006C67.3671 48.4941 67.3147 48.5848 67.2586 48.6731C67.2025 48.7613 67.1419 48.8473 67.0771 48.9294C67.0123 49.0115 66.9435 49.0904 66.8714 49.1659C66.7986 49.2417 66.7231 49.3138 66.6433 49.3814C66.5636 49.4497 66.4811 49.5137 66.3956 49.5734C66.3096 49.6333 66.2213 49.6887 66.1294 49.74C66.0383 49.7911 65.9449 49.8377 65.8494 49.8798C65.7529 49.9214 65.6558 49.9588 65.5563 49.991C65.4568 50.0231 65.3558 50.0506 65.2537 50.0724C65.1511 50.0952 65.0481 50.1121 64.9443 50.124C64.8407 50.1366 64.736 50.1436 64.6319 50.1453C64.527 50.1471 64.4226 50.1436 64.3183 50.1356C64.2137 50.1269 64.1099 50.1135 64.0072 50.0945C63.9038 50.0757 63.8018 50.052 63.7012 50.0234C63.6006 49.9948 63.5014 49.9612 63.4042 49.9226C63.3071 49.8839 63.2115 49.841 63.118 49.7929C63.0247 49.7455 62.9341 49.6928 62.846 49.6363C62.7577 49.5791 62.6728 49.5186 62.5908 49.4533C62.5081 49.3883 62.4293 49.3191 62.3543 49.2457C62.2788 49.1732 62.2072 49.0964 62.139 49.0163C62.0708 48.9362 62.0068 48.8532 61.9471 48.7674C61.8872 48.6808 61.8315 48.5915 61.7804 48.4999C61.7292 48.4083 61.6832 48.3143 61.6408 48.2176C61.5986 48.1216 61.5616 48.0232 61.5293 47.9233C61.497 47.8234 61.4694 47.722 61.4474 47.6195C61.4247 47.5172 61.4074 47.4132 61.3952 47.309C61.3831 47.2048 61.3754 47.1006 61.3733 46.9954C61.3712 46.8902 61.3745 46.7855 61.3829 46.6806C61.3906 46.5759 61.4039 46.4724 61.4224 46.3687C61.4408 46.2651 61.4644 46.1635 61.4925 46.0619C61.5208 45.9611 61.554 45.8616 61.5923 45.7642C61.6306 45.6668 61.6731 45.571 61.7208 45.4773C61.7685 45.3836 61.8201 45.293 61.8769 45.2046C61.9331 45.1163 61.9938 45.031 62.0586 44.9489C62.1234 44.8668 62.1922 44.7879 62.2644 44.7124C62.3371 44.6366 62.4128 44.5652 62.4925 44.4969C62.5721 44.4286 62.6549 44.3653 62.741 44.3054C62.8264 44.2457 62.9154 44.1901 63.0065 44.139C63.0977 44.0879 63.191 44.0413 63.2875 43.9997C63.383 43.9576 63.481 43.9207 63.5805 43.8885C63.6794 43.8565 63.7797 43.8293 63.8818 43.8074C63.9837 43.7849 64.0867 43.768 64.1905 43.7561C64.2937 43.7444 64.3977 43.7376 64.5016 43.7353C64.6065 43.7334 64.7102 43.7372 64.8145 43.7452C64.9184 43.7541 65.0216 43.7677 65.1247 43.7858C65.2274 43.8048 65.3285 43.828 65.4291 43.8566C65.5297 43.8853 65.6283 43.919 65.7259 43.9568C65.8228 43.9948 65.9177 44.0379 66.0111 44.0853C66.1039 44.1336 66.1949 44.1854 66.2828 44.2413C66.3702 44.298 66.456 44.359 66.5378 44.4235C66.6198 44.4888 66.6984 44.5573 66.7739 44.6298C66.8493 44.7024 66.9214 44.7783 66.9894 44.8577C67.0574 44.9371 67.1214 45.0201 67.1811 45.1059C67.2414 45.1915 67.2969 45.2803 67.3478 45.3712C67.3996 45.4625 67.4463 45.5563 67.4885 45.6523C67.5305 45.7476 67.5681 45.8458 67.6009 45.9448L67.604 45.9543ZM41.0164 3.35795C41.1159 3.32577 41.2169 3.29831 41.319 3.27648C41.4209 3.25397 41.5246 3.23685 41.6284 3.2249C41.7322 3.21295 41.836 3.20549 41.9409 3.20364C42.0457 3.2018 42.1501 3.20533 42.254 3.21424C42.3585 3.22293 42.4624 3.23633 42.5651 3.25532C42.6682 3.27342 42.7702 3.29712 42.871 3.3264C42.9716 3.35502 43.0702 3.38877 43.168 3.42723C43.2652 3.4659 43.3608 3.50882 43.4536 3.5571C43.5469 3.60448 43.6375 3.65722 43.7256 3.71374C43.8139 3.77094 43.899 3.83215 43.981 3.89736C44.0637 3.96235 44.1425 4.03157 44.2173 4.10433C44.2929 4.17755 44.3643 4.25364 44.4326 4.33374C44.5001 4.41406 44.5641 4.49703 44.624 4.58355C44.6837 4.66939 44.7394 4.75878 44.7905 4.85037C44.8417 4.94195 44.8884 5.03574 44.9301 5.13261C44.9723 5.22859 45.0093 5.32699 45.0416 5.42691C45.0739 5.52683 45.1013 5.62759 45.1235 5.73077C45.1462 5.83306 45.1633 5.93641 45.1757 6.04129C45.1878 6.14549 45.1949 6.24986 45.1969 6.35508C45.1988 6.45962 45.1958 6.56501 45.1878 6.669C45.1794 6.77389 45.1663 6.87805 45.1476 6.98104C45.1298 7.08448 45.1065 7.18675 45.0775 7.28784C45.0492 7.38871 45.0161 7.48818 44.9777 7.58559C44.9397 7.68367 44.8969 7.77878 44.8492 7.8725C44.8022 7.966 44.7499 8.05676 44.6938 8.14501C44.637 8.23348 44.5768 8.31854 44.5121 8.40065C44.4473 8.48276 44.3785 8.56168 44.3057 8.63742C44.2335 8.71295 44.1572 8.78462 44.0775 8.85289C43.9983 8.92027 43.9158 8.98425 43.8297 9.04416C43.7436 9.10406 43.6553 9.15946 43.5642 9.21057C43.473 9.26168 43.3788 9.30782 43.2832 9.34991C43.1874 9.39133 43.0897 9.42891 42.9902 9.46109C42.8907 9.49327 42.7901 9.51983 42.6875 9.54256C42.5854 9.5644 42.4827 9.58196 42.3788 9.59392C42.275 9.60587 42.1703 9.61287 42.0662 9.6145C41.9613 9.61635 41.8569 9.61281 41.7526 9.6048C41.648 9.5961 41.5448 9.58249 41.4415 9.56372C41.3388 9.54472 41.2368 9.52103 41.1362 9.49241C41.0356 9.4638 40.9364 9.43026 40.8392 9.39159C40.7414 9.35313 40.6465 9.31 40.553 9.26194C40.4601 9.21367 40.3691 9.16182 40.2808 9.10462C40.1933 9.04788 40.1082 8.98667 40.0255 8.92168C39.9435 8.85647 39.8647 8.78725 39.789 8.71403C39.7143 8.64127 39.642 8.56472 39.5744 8.4844C39.5064 8.40498 39.4422 8.32134 39.3825 8.23549C39.3226 8.14897 39.2672 8.06026 39.2167 7.96845C39.1653 7.87619 39.1186 7.78241 39.0771 7.68621C39.0347 7.58955 38.9979 7.49183 38.9656 7.39191C38.9333 7.29199 38.9064 7.19033 38.8837 7.08805C38.8617 6.98554 38.8446 6.88219 38.8324 6.77799C38.8203 6.67379 38.813 6.56875 38.8112 6.4642C38.8097 6.35877 38.8123 6.25427 38.8207 6.14938C38.8294 6.04517 38.8425 5.94101 38.8612 5.83802C38.8796 5.73436 38.9032 5.63277 38.9315 5.5319C38.9598 5.43103 38.9929 5.33155 39.0313 5.23415C39.0693 5.13607 39.1121 5.04095 39.1598 4.94723C39.2077 4.85419 39.2593 4.76365 39.3155 4.6754C39.3723 4.58693 39.4324 4.50186 39.497 4.41908C39.5617 4.33698 39.6305 4.25806 39.7027 4.18253C39.7755 4.10679 39.8511 4.03533 39.9308 3.96706C40.01 3.89968 40.0925 3.8357 40.1786 3.7758C40.2638 3.71543 40.3521 3.66003 40.4433 3.60893C40.5344 3.55782 40.6284 3.511 40.724 3.46891C40.8198 3.4275 40.9169 3.39013 41.0164 3.35795ZM3.48363 17.9356C3.45131 17.8356 3.4237 17.7342 3.40169 17.6317C3.37879 17.5287 3.36171 17.4254 3.34954 17.3212C3.33738 17.217 3.33015 17.1119 3.32827 17.0074C3.32618 16.9022 3.32877 16.7977 3.33719 16.6928C3.3456 16.5879 3.35891 16.4844 3.37738 16.3807C3.39517 16.2773 3.41875 16.1757 3.4477 16.0746C3.47576 15.9731 3.50916 15.8743 3.54725 15.7762C3.58556 15.6788 3.62811 15.583 3.676 15.49C3.723 15.3965 3.77534 15.3057 3.83146 15.2175C3.88826 15.129 3.94838 15.0439 4.01296 14.9611C4.07775 14.879 4.14654 14.8001 4.21934 14.7244C4.29168 14.6495 4.3678 14.5772 4.44701 14.5098C4.52667 14.4415 4.60921 14.3775 4.6953 14.3176C4.78138 14.2577 4.86967 14.2023 4.96104 14.1519C5.0522 14.1008 5.14556 14.0542 5.24179 14.0119C5.33757 13.9705 5.43555 13.9336 5.53505 13.9014C5.63456 13.8692 5.73492 13.842 5.83749 13.8192C5.9396 13.7974 6.04256 13.7805 6.14638 13.7685C6.24999 13.7559 6.35467 13.7489 6.45885 13.7473C6.56372 13.7454 6.66809 13.749 6.77264 13.7577C6.87698 13.7657 6.98038 13.78 7.08352 13.7981C7.18621 13.8171 7.28819 13.8408 7.38879 13.8694C7.48961 13.8987 7.58884 13.9322 7.68601 13.9709C7.78385 14.0093 7.87875 14.0525 7.97227 14.1005C8.0649 14.1481 8.15616 14.2006 8.24425 14.2572C8.33188 14.3146 8.41681 14.3751 8.49969 14.4408C8.58168 14.506 8.66029 14.5745 8.73596 14.6478C8.81095 14.7212 8.88302 14.7971 8.95058 14.8774C9.01882 14.9575 9.08279 15.0405 9.1427 15.127C9.2024 15.2128 9.25737 15.3024 9.30853 15.394C9.35968 15.4856 9.40635 15.5794 9.44808 15.6763C9.49026 15.7722 9.52728 15.8706 9.5596 15.9706C9.59191 16.0705 9.6193 16.1712 9.64153 16.2744C9.66421 16.3767 9.6813 16.4801 9.69346 16.5843C9.70584 16.6891 9.71353 16.7933 9.71562 16.8985C9.7175 17.003 9.71445 17.1084 9.70582 17.2126C9.69808 17.3173 9.68431 17.4217 9.6663 17.5245C9.64784 17.6281 9.62447 17.7304 9.59619 17.8313C9.56724 17.9324 9.53406 18.0318 9.49642 18.129C9.45833 18.2271 9.4149 18.3224 9.3679 18.4159C9.32001 18.509 9.26856 18.6002 9.21176 18.6887C9.15564 18.7769 9.09484 18.8622 9.03005 18.9443C8.96525 19.0264 8.89646 19.1053 8.82434 19.1808C8.75155 19.2566 8.67588 19.328 8.59621 19.3963C8.51633 19.4639 8.43379 19.5279 8.34771 19.5878C8.2623 19.6475 8.17334 19.7031 8.08218 19.7542C7.99102 19.8053 7.89744 19.8512 7.80189 19.8933C7.70544 19.935 7.60835 19.9723 7.50884 20.0045C7.40933 20.0367 7.30808 20.0635 7.20619 20.086C7.10341 20.108 7.00066 20.1256 6.89684 20.1376C6.79302 20.1495 6.68834 20.1565 6.58348 20.1584C6.47929 20.16 6.37492 20.1565 6.27058 20.1484C6.16602 20.1397 6.06217 20.1263 5.95948 20.1074C5.85612 20.0886 5.75414 20.0649 5.65354 20.0363C5.55294 20.0077 5.45371 19.9741 5.35654 19.9354C5.2587 19.897 5.1638 19.8539 5.07028 19.8058C4.97676 19.7577 4.88639 19.7057 4.79808 19.6485C4.70999 19.592 4.62485 19.5307 4.54218 19.4658C4.4602 19.4005 4.38137 19.3313 4.30592 19.2588C4.23026 19.1856 4.15864 19.1088 4.09062 19.0294C4.02239 18.9493 3.95842 18.8663 3.8985 18.7798C3.83859 18.6933 3.78316 18.6046 3.73201 18.513C3.68063 18.4207 3.63396 18.3269 3.59245 18.2307C3.55005 18.1341 3.51325 18.0363 3.48026 17.9366L3.48363 17.9356ZM25.59 33.1867C25.509 32.9385 25.4408 32.6861 25.3849 32.4305C25.3289 32.1749 25.2851 31.9176 25.2547 31.6583C25.224 31.3982 25.2059 31.1378 25.2008 30.8762C25.195 30.6149 25.2026 30.3536 25.2232 30.0934C25.2435 29.8326 25.2764 29.5736 25.3217 29.3166C25.3678 29.0593 25.4258 28.8049 25.496 28.5533C25.567 28.3021 25.6496 28.0547 25.7447 27.8114C25.8389 27.5676 25.9456 27.3303 26.0641 27.0973C26.1819 26.8646 26.3115 26.6385 26.4514 26.4187C26.5919 26.1988 26.7429 25.9859 26.9039 25.7809C27.0648 25.576 27.236 25.3797 27.4166 25.1916C27.5971 25.0034 27.7858 24.8246 27.9843 24.6552C28.1821 24.4861 28.3883 24.3269 28.6016 24.1782C28.8156 24.0292 29.036 23.8908 29.263 23.7637C29.4906 23.6363 29.7236 23.5207 29.9616 23.4162C30.2005 23.3121 30.444 23.2199 30.6914 23.1399C30.9395 23.0596 31.1902 22.992 31.4448 22.9365C31.6994 22.881 31.9559 22.8383 32.2143 22.8084C32.4734 22.7783 32.7329 22.7608 32.9936 22.7563C33.2536 22.752 33.514 22.7602 33.7734 22.7815C34.0334 22.8025 34.2909 22.8363 34.5474 22.8831C34.8039 22.93 35.0577 22.9888 35.3088 23.0605C35.5593 23.1324 35.8062 23.2158 36.0489 23.3119C36.2907 23.4074 36.5284 23.5155 36.7606 23.6343C36.9924 23.7539 37.2181 23.8845 37.4377 24.0261C37.6572 24.1676 37.8691 24.3198 38.0737 24.4818C38.2786 24.6445 38.4745 24.8161 38.6617 24.9979C38.8499 25.1801 39.0279 25.3701 39.1972 25.5697C39.3664 25.7693 39.5254 25.9759 39.6744 26.1909C39.8234 26.406 39.9619 26.6274 40.0884 26.8557C40.2159 27.0845 40.3316 27.3185 40.436 27.5584C40.5403 27.7984 40.6328 28.0429 40.7131 28.2913C40.7937 28.5405 40.8619 28.7928 40.9178 29.0484C40.9729 29.3036 41.0163 29.5617 41.0467 29.8211C41.0773 30.0811 41.0954 30.3415 41.1003 30.6024C41.1048 30.8642 41.0972 31.1255 41.0766 31.3857C41.0563 31.6465 41.0225 31.905 40.9772 32.1621C40.9312 32.4193 40.8724 32.674 40.8016 32.9258C40.7313 33.1768 40.648 33.4244 40.5526 33.667C40.4575 33.9103 40.3511 34.1484 40.2324 34.3806C40.1145 34.6134 39.9849 34.8395 39.8444 35.0594C39.7037 35.2787 39.5527 35.4916 39.3908 35.6961C39.2298 35.901 39.0586 36.0973 38.8779 36.2848C38.6974 36.4729 38.5078 36.6513 38.31 36.8205C38.1115 36.9898 37.9052 37.149 37.6917 37.2971C37.4777 37.4461 37.2572 37.5838 37.0295 37.7111C36.8025 37.8382 36.5693 37.9531 36.3304 38.0572C36.0915 38.1614 35.8487 38.2533 35.6004 38.3329C35.353 38.4129 35.1023 38.4805 34.8482 38.5351C34.5935 38.5906 34.3375 38.6324 34.079 38.6623C33.8206 38.6922 33.5611 38.7097 33.3009 38.7134C33.0409 38.7177 32.7812 38.7092 32.5218 38.6879C32.2624 38.6667 32.0049 38.6329 31.7484 38.586C31.4928 38.5397 31.2391 38.4808 30.9886 38.409C30.7381 38.3371 30.4919 38.2534 30.2494 38.158C30.0074 38.0618 29.7701 37.9551 29.5383 37.8354C29.3068 37.7164 29.0813 37.5865 28.8617 37.445C28.6424 37.3041 28.4307 37.1526 28.2261 36.9906C28.0221 36.8283 27.8254 36.6563 27.6383 36.4752C27.4504 36.2936 27.2717 36.1038 27.1026 35.9049C26.9336 35.706 26.774 35.4996 26.6252 35.2853C26.4764 35.0709 26.338 34.8494 26.2101 34.6216C26.0828 34.3935 25.9666 34.1604 25.8623 33.9205C25.7575 33.6814 25.6646 33.4378 25.5833 33.1889L25.59 33.1867Z" fill="#7FE314"/>
</svg>
