<svg width="99" height="98" viewBox="0 0 99 98" fill="none" xmlns="http://www.w3.org/2000/svg">
<path d="M36.5509 67.2013C41.9569 67.2013 45.7856 62.155 44.9922 57.657H54.9067V67.3136C50.8518 68.1064 47.8083 71.6994 47.8083 76.084C47.8083 80.4686 50.8518 84.0616 54.9067 84.845V94.407H18.0719V57.657H28.1001C27.8739 63.7206 32.0424 67.2013 36.5509 67.2013ZM55.7001 81.5911C53.1102 81.1385 51.1917 78.8936 51.1917 76.084C51.1917 73.2743 53.1102 71.0294 55.7001 70.5769C57.165 70.3501 58.2901 69.002 58.2901 67.5487V57.657H68.1963C69.7749 57.657 71.0136 56.5346 71.2398 55.0636C71.6934 52.489 73.9435 50.575 76.7596 50.575C79.5769 50.575 81.827 52.489 82.2794 55.0636C82.5067 56.5346 83.7455 57.657 85.3229 57.657H95.1249V94.407H58.2901V84.6276C58.2901 83.166 57.165 81.8179 55.7001 81.5911ZM67.8647 35.9667C67.8647 31.582 64.4813 27.3097 58.2901 27.4231V17.418H95.1249V54.168H85.5503C84.7568 50.1224 81.1555 47.0859 76.7596 47.0859C72.3649 47.0859 68.7636 50.1224 67.9784 54.168H58.2901V44.3885C62.7902 45.1801 67.8647 41.3615 67.8647 35.9667ZM95.5702 14.1641H57.8365C56.2579 14.1641 54.9067 15.3999 54.9067 17.0789V28.093C54.9067 29.8936 56.599 31.0161 58.0639 30.9038C61.4378 30.6864 63.47 32.1385 64.1414 34.2794C65.6064 38.4384 61.6652 41.918 58.2901 41.0224C56.4853 40.5699 54.793 41.8045 54.793 43.6064V54.2814H44.0933C42.2885 54.2814 40.9361 55.9686 41.5034 57.761C42.4022 61.1366 38.9134 64.9564 34.7449 63.6083C32.8264 62.9384 31.3615 61.1366 31.3615 58.666C31.3615 57.5436 31.5889 56.752 30.9174 55.8564C30.3501 54.9513 29.565 54.3936 28.5536 54.3936H17.5141C15.9355 54.3936 14.5843 55.6295 14.5843 57.3179V95.0769C14.5843 96.6519 15.8218 98 17.5141 98C19.6505 98 96.7035 98 95.5702 98C97.1476 98 98.5 96.7641 98.5 95.0769V17.1923C98.5 15.3999 97.2613 14.1641 95.5702 14.1641Z" fill="#7FE314"/>
<path d="M47.8083 21.6903C47.8083 24.5 45.8981 26.7449 43.3082 27.1974C41.8432 27.4231 40.7182 28.7724 40.7182 30.2339V40.1256H30.8037C29.2251 40.1256 27.9864 41.2481 27.7602 42.7096C27.3066 45.2936 25.0565 47.1994 22.2404 47.1994C19.4231 47.1994 17.1742 45.2936 16.7206 42.7096C16.4933 41.2481 15.2557 40.1256 13.6771 40.1256H3.88339V3.3756H40.7182V13.1456C40.7182 14.7206 41.8432 15.9564 43.3082 16.1821C45.8981 16.5224 47.8083 18.8795 47.8083 21.6903ZM13.4497 43.4929C14.2432 47.5385 17.8457 50.575 22.2404 50.575C26.6351 50.575 30.2364 47.5385 31.0299 43.4929H41.2772C42.8546 43.4929 44.207 42.2571 44.207 40.5699V30.3462C48.2619 29.5545 51.3054 25.9615 51.3054 21.5769C51.3054 17.1923 48.2619 13.5981 44.207 12.8159V2.92308C44.207 1.34811 42.9683 0 41.2772 0H3.42983C1.85241 0 0.5 1.23587 0.5 2.92308V40.6821C0.5 42.2571 1.73872 43.6064 3.42983 43.6064L13.4497 43.4929Z" fill="#7FE314"/>
</svg>
