<svg width="99" height="98" viewBox="0 0 99 98" fill="none" xmlns="http://www.w3.org/2000/svg">
<g clip-path="url(#clip0_175_66)">
<path d="M81.9436 7.86217C74.4556 7.86217 68.5392 13.8711 68.5392 21.3591C68.5392 28.8471 74.5481 34.7635 81.9436 34.7635C89.3392 34.7635 95.4405 28.7546 95.4405 21.2666C95.4405 13.7786 89.4317 7.86217 81.9436 7.86217ZM81.9436 31.8053C76.1196 31.8053 71.405 27.0906 71.405 21.2666C71.405 15.4426 76.2121 10.8204 81.9436 10.8204C87.7676 10.8204 92.4823 15.5351 92.4823 21.3591C92.4823 27.1831 87.7676 31.8053 81.9436 31.8053Z" fill="#7FE314"/>
<path d="M86.1961 23.3929C86.1036 23.1155 86.1036 22.9306 85.9187 22.6533C85.8263 22.4684 85.7339 22.1911 85.549 22.0062C85.3641 21.8213 85.2716 21.6364 85.0867 21.4515C84.9019 21.2666 84.717 21.0817 84.4396 20.9893C84.2548 20.8044 83.9774 20.712 83.7925 20.6195C83.5152 20.5271 83.3303 20.3422 83.053 20.2497C82.7756 20.1573 82.4983 20.0649 82.3134 19.9724C82.221 19.9724 82.0361 19.88 81.9436 19.7875C81.8512 19.6951 81.6663 19.6951 81.5739 19.6026C81.4814 19.5102 81.2965 19.5102 81.2041 19.4177L80.9267 19.1404C80.8343 19.048 80.7419 18.9555 80.7419 18.7706C80.6494 18.6782 80.6494 18.4933 80.6494 18.4009V17.9386C80.6494 17.8462 80.7419 17.6613 80.7419 17.5688C80.8343 17.4764 80.8343 17.2915 80.9267 17.1991L81.2041 16.9217C81.2965 16.8293 81.4814 16.7368 81.6663 16.7368C81.8512 16.6444 81.9436 16.6444 82.1285 16.6444H82.6832C82.8681 16.6444 82.9605 16.6444 83.1454 16.7368C83.3303 16.7368 83.5152 16.8293 83.6076 16.8293C83.7001 16.8293 83.885 16.9217 83.9774 16.9217C84.1623 16.9217 84.2547 17.0142 84.3472 17.0142L84.8094 17.1991L84.9019 16.6444L85.0867 15.1653V14.7955L84.717 14.7031C84.6245 14.7031 84.4396 14.6106 84.3472 14.6106C84.2547 14.6106 84.1623 14.5182 83.9774 14.5182C83.885 14.5182 83.7001 14.4257 83.5152 14.4257C83.3303 14.4257 83.2379 14.3333 83.053 14.3333H82.9605V12.5768H80.7419V14.4257H80.6494C80.3721 14.5182 80.0947 14.6106 79.8174 14.7955C79.5401 14.888 79.3552 15.0728 79.1703 15.2577C78.9854 15.4426 78.8005 15.6275 78.6156 15.9048C78.4307 16.0897 78.3383 16.3671 78.2458 16.6444L77.9685 17.4764C77.8761 17.7537 77.8761 18.1235 77.8761 18.4009C77.8761 18.6782 77.8761 18.8631 77.9685 19.1404C78.061 19.4177 78.061 19.6026 78.2458 19.88C78.3383 20.0649 78.5232 20.3422 78.6156 20.5271C78.8005 20.712 78.893 20.8969 79.0779 21.0817C79.2627 21.2666 79.4476 21.4515 79.725 21.544C79.9099 21.7289 80.1872 21.8213 80.3721 21.9137C80.6494 22.0062 80.9267 22.1911 81.1116 22.2835C81.389 22.376 81.6663 22.4684 81.8512 22.5609C81.9436 22.5609 82.1285 22.6533 82.221 22.7457C82.3134 22.8382 82.4983 22.8382 82.5908 22.9306C82.6832 23.0231 82.7756 23.1155 82.8681 23.1155L83.1454 23.3929C83.2379 23.4853 83.2379 23.5777 83.3303 23.7626C83.3303 23.8551 83.4227 24.04 83.4227 24.2249V24.6871C83.4227 24.7795 83.3303 24.9644 83.2379 25.0569L82.9605 25.3342C82.8681 25.4266 82.7756 25.5191 82.5908 25.6115C82.4983 25.704 82.3134 25.704 82.221 25.7964C82.1285 25.7964 81.9436 25.8889 81.7587 25.8889H80.557C80.3721 25.8889 80.1872 25.7964 80.0947 25.7964C79.9099 25.7964 79.725 25.704 79.5401 25.6115C79.3552 25.5191 79.1703 25.5191 78.9854 25.4266C78.893 25.4266 78.8005 25.3342 78.7081 25.3342C78.6156 25.3342 78.5232 25.2417 78.4307 25.2417L77.8761 24.9644L77.7836 25.6115L77.5987 27.2755V27.5529L77.8761 27.6453C78.2458 27.5529 78.4307 27.6453 78.7081 27.7377C78.893 27.8302 79.1703 27.9226 79.3552 27.9226C79.5401 28.0151 79.8174 28.0151 80.0947 28.1075C80.3721 28.2 80.557 28.2 80.8343 28.2H81.0192V30.0489H83.2379V28.1075H83.3303C83.6076 28.0151 83.885 27.9226 84.1623 27.7377C84.4396 27.6453 84.6245 27.4604 84.9019 27.2755C85.0868 27.0906 85.2716 26.9057 85.4565 26.6284C85.6414 26.4435 85.7339 26.1662 85.9187 25.8889L86.1961 25.0569C86.2885 24.7795 86.2885 24.5022 86.2885 24.1324C86.2885 23.8551 86.2885 23.6702 86.1961 23.3929ZM75.4725 36.52C75.0103 35.8729 73.9934 35.7804 73.3463 36.2426L58.3703 48.168L39.0494 40.1253C38.5871 39.9404 38.0325 40.0329 37.6627 40.3102L16.9551 55.1013C16.308 55.5636 16.1231 56.488 16.5853 57.1351C16.8627 57.5973 17.3249 57.7822 17.7871 57.7822C18.0645 57.7822 18.3418 57.6898 18.6191 57.5049L38.6796 43.176L58.0929 51.2187C58.5552 51.4036 59.2023 51.3111 59.5721 51.0338L75.1952 38.6462C75.8423 38.184 75.9347 37.1671 75.4725 36.52Z" fill="#7FE314"/>
<path d="M97.1045 87.1796H90.2636V44.3778C90.2636 43.5458 89.6165 42.8987 88.7845 42.8987H75.1952C74.3632 42.8987 73.7161 43.5458 73.7161 44.3778V87.1796H68.7241V59.1689C68.7241 58.3369 68.077 57.6898 67.245 57.6898H53.5632C52.7312 57.6898 52.0841 58.3369 52.0841 59.1689V87.1796H47.092V56.9502C47.092 56.1182 46.4449 55.4711 45.6129 55.4711H32.0236C31.1916 55.4711 30.5445 56.1182 30.5445 56.9502V87.1796H25.5525V65.64C25.5525 64.808 24.9054 64.1609 24.0734 64.1609H10.3916C9.55956 64.1609 8.91245 64.808 8.91245 65.64V87.1796H1.97911C1.14711 87.1796 0.5 87.8267 0.5 88.6587C0.5 89.4907 1.14711 90.1378 1.97911 90.1378H97.0121C97.8441 90.1378 98.4912 89.4907 98.4912 88.6587C98.5837 87.8267 97.9365 87.1796 97.1045 87.1796ZM22.5018 87.1796H11.8707V67.1191H22.5018V87.1796ZM44.1338 87.1796H33.5027V58.4293H44.1338V87.1796ZM65.6734 87.1796H55.0423V60.648H65.6734V87.1796ZM87.3054 87.1796H76.6743V45.8569H87.3054V87.1796Z" fill="#7FE314"/>
</g>
<defs>
<clipPath id="clip0_175_66">
<rect width="98" height="98" fill="white" transform="translate(0.5)"/>
</clipPath>
</defs>
</svg>
