<svg width="111" height="98" viewBox="0 0 111 98" fill="none" xmlns="http://www.w3.org/2000/svg">
<path fill-rule="evenodd" clip-rule="evenodd" d="M55.412 66.3689C55.2828 66.3689 55.2828 66.3689 55.2187 66.3689C47.2301 65.5965 40.853 62.1818 36.0849 56.3193C23.5868 40.5364 27.0018 12.5771 27.1299 11.4171C27.2591 10.7086 27.903 10.1932 28.6121 10.0641C49.2922 8.32477 53.8658 1.04526 54.059 0.788151C54.1231 0.52986 54.3816 0.336736 54.7029 0.20759C55.412 -0.24264 56.3784 0.07963 56.829 0.788151C56.8931 0.981276 61.4678 8.32477 82.4052 10.0641C83.1131 10.1932 83.693 10.7086 83.8222 11.4171C83.9515 12.5771 87.3653 40.5364 74.8672 56.3193C70.1643 62.2458 63.5939 65.6604 55.6693 66.3689C55.476 66.3689 55.476 66.3689 55.412 66.3689ZM30.0943 13.1565C29.5785 18.6967 28.2255 41.438 38.5336 54.3229C42.7206 59.6048 48.3258 62.5681 55.412 63.2766C62.4342 62.5681 68.1675 59.4757 72.2905 54.3229C82.5333 41.438 81.1815 18.6967 80.6656 13.1565C64.6884 11.5463 57.9247 6.7146 55.412 4.13763C52.7701 6.7146 46.0704 11.5463 30.0943 13.1565Z" fill="#7FE314"/>
<path fill-rule="evenodd" clip-rule="evenodd" d="M55.412 58.3169C55.2828 58.3169 55.2828 58.3169 55.2187 58.3169C49.1629 57.8015 44.3309 55.2246 40.6597 50.65C31.1888 38.7971 33.7655 17.795 33.8308 16.8934C33.9588 16.1848 34.6039 15.5403 35.3118 15.5403C50.4519 14.3164 53.8658 9.03329 53.995 8.84017C54.1231 8.58306 54.3164 8.38994 54.5749 8.19681C55.2828 7.7454 56.3144 8.13165 56.6998 8.84017C56.829 9.03329 60.2441 14.3164 75.5122 15.5403C76.2202 15.6043 76.864 16.1848 76.9293 16.8934C76.9933 17.795 79.6352 38.7971 70.1644 50.65C66.4932 55.2246 61.5318 57.8015 55.5413 58.3169C55.476 58.3169 55.4761 58.3169 55.412 58.3169ZM36.9221 18.5687C36.5355 23.2061 35.7636 39.5056 43.1712 48.7815C46.1997 52.6476 50.3226 54.7731 55.412 55.2885C60.5014 54.7731 64.6884 52.6476 67.7169 48.7815C75.1257 39.5056 74.3525 23.2061 73.966 18.5687C62.6915 17.4088 57.5381 14.1233 55.412 12.0617C53.2219 14.1233 48.1325 17.4088 36.9221 18.5687Z" fill="#7FE314"/>
<path fill-rule="evenodd" clip-rule="evenodd" d="M52.0622 43.951C51.9969 43.951 51.9969 43.951 52.0622 43.951C51.6104 43.951 51.225 43.7567 50.9025 43.4996C50.8384 43.4356 50.7732 43.3065 50.6452 43.2413L42.5913 35.1893C40.981 33.578 40.981 31.0661 42.5913 29.456C43.3004 28.7475 44.3309 28.296 45.2973 28.296C46.3929 28.296 47.4234 28.7475 48.1325 29.456L51.997 33.2569L62.6275 22.6907C63.3354 21.9822 64.3018 21.5319 65.3335 21.5319C66.3639 21.5319 67.4584 21.9822 68.1675 22.6907C68.9406 23.5283 69.3272 24.4951 69.3272 25.5259C69.3272 26.6207 68.8766 27.5875 68.1034 28.296L53.4151 43.2413C53.3499 43.3065 53.2219 43.4356 53.1567 43.4996C52.8993 43.7567 52.4487 43.951 52.0622 43.951ZM45.3625 31.4524C45.2332 31.4524 45.04 31.4524 44.8467 31.7107C44.4601 32.0969 44.4601 32.6763 44.8467 33.0637L52.0622 40.2141L66.1066 26.1705C66.2999 25.9762 66.3639 25.7191 66.3639 25.6551C66.3639 25.462 66.3639 25.2676 66.1066 25.0105C65.8481 24.7523 65.6548 24.7523 65.4615 24.7523C65.3335 24.7523 65.1402 24.7523 64.9469 25.0105L53.4151 36.3492C53.3499 36.4772 53.2219 36.5424 53.1567 36.6063C52.7701 36.9926 52.4487 37.0578 51.997 37.0578C51.5464 37.0578 51.225 36.9286 50.8384 36.6063C50.7732 36.5424 50.6452 36.4772 50.5799 36.3492L45.9423 31.8386C45.7491 31.5176 45.4906 31.4524 45.3625 31.4524Z" fill="#7FE314"/>
<path fill-rule="evenodd" clip-rule="evenodd" d="M81.8253 89.8828C81.6321 89.8828 81.3747 89.8828 81.1815 89.6897C80.4083 89.3674 80.0218 88.4658 80.4083 87.6281C83.3716 81.0571 86.5922 78.8024 89.6847 76.6768C94.7101 73.1982 100.443 69.139 107.207 42.0826C107.4 41.374 107.272 40.7295 106.95 40.2141C106.692 39.7627 106.113 39.3764 105.533 39.2473C104.437 38.925 103.084 39.2473 102.633 40.9226C102.183 42.7911 101.731 44.4652 101.41 46.0766C98.6398 58.3169 96.771 66.3689 80.4083 72.2966C79.6352 72.5537 78.7328 72.1674 78.4755 71.3298C78.153 70.4921 78.5395 69.5905 79.4419 69.3322C85.0459 67.2706 88.7823 65.0159 91.295 62.4401C91.4243 62.3749 91.4883 62.1818 91.5535 62.1178C92.1322 61.5373 91.8749 60.7648 91.5535 60.5065C91.295 60.1202 90.7804 59.6688 89.942 60.1202L80.0218 65.4673C75.7695 67.786 74.9324 70.1059 73.5142 74.4221C73.1928 75.5169 72.7411 76.7408 72.2905 78.1579C72.0331 78.9955 71.0027 79.4469 70.2296 79.0607C69.3912 78.8024 68.9406 77.8368 69.3272 76.9991C69.7778 75.7752 70.2296 74.4861 70.5509 73.4553C72.0331 69.0751 73.1928 65.5964 78.5395 62.6972L88.461 57.3501C90.5219 56.3193 92.712 56.8347 94.065 58.6392C96.1271 55.0314 97.0935 50.7791 98.3813 45.3681C98.7038 43.6927 99.1544 42.0174 99.6062 40.085C100.507 36.6063 103.664 35.4464 106.306 36.1549C107.659 36.5424 108.819 37.3149 109.656 38.4096C110.429 39.6987 110.686 41.1797 110.365 42.7911C103.277 70.9435 97.0935 75.3238 91.6816 79.1887C88.7183 81.1863 86.1416 83.1187 83.4356 88.9172C82.985 89.4966 82.4692 89.8828 81.8253 89.8828Z" fill="#7FE314"/>
<path fill-rule="evenodd" clip-rule="evenodd" d="M75.383 98C74.6098 98 73.9008 97.7429 73.2569 97.2275L62.1757 86.4694C61.5318 85.954 61.2105 85.1163 61.2105 84.3426C61.2105 83.5701 61.4678 82.7325 61.9824 82.0879C61.9824 82.0879 61.9824 82.0879 61.9824 82.0239L67.3944 76.5477C67.9102 75.9683 68.6833 75.5821 69.5205 75.5821C70.2936 75.5821 71.1308 75.8392 71.7106 76.4186L82.7918 87.1127C83.4356 87.6281 83.8222 88.4658 83.8222 89.2395C83.8222 90.0759 83.5649 90.8496 82.985 91.4942L77.6372 97.0344C77.1225 97.5498 76.2854 97.936 75.383 98ZM64.4311 84.1495L75.383 94.9076L80.7949 89.3674L69.7138 78.7384L64.4311 84.1495Z" fill="#7FE314"/>
<path fill-rule="evenodd" clip-rule="evenodd" d="M29.0627 89.8828C28.4188 89.8828 27.903 89.4966 27.5817 88.9812C25.005 83.1839 22.4271 81.3154 19.3998 79.2538C13.9238 75.3878 7.73877 71.0075 0.717746 42.8551C0.265962 41.3089 0.524464 39.7627 1.42566 38.5388C2.13476 37.444 3.29445 36.6063 4.71147 36.2841C7.41742 35.5756 10.5099 36.7355 11.4111 40.2141C11.8617 42.0826 12.3135 43.8859 12.7001 45.496C13.9238 50.8431 14.8902 55.0954 16.9511 58.7032C18.3041 56.8987 20.5595 56.3833 22.6204 57.4793L32.5418 62.8263C37.8885 65.6604 39.0482 69.139 40.4664 73.5205C40.853 74.6792 41.1743 75.8392 41.7542 77.1283C42.0115 77.9008 41.6249 78.8024 40.853 79.1887C40.0146 79.447 39.1134 79.0607 38.7909 78.287C38.211 76.934 37.8885 75.646 37.5019 74.4861C36.0849 70.235 35.377 67.9151 31.0608 65.5964L21.2033 60.2494C20.3662 59.7979 19.8504 60.2494 19.5931 60.5716C19.2705 60.9579 19.0132 61.6664 19.5931 62.1818C19.6571 62.2458 19.7223 62.3749 19.8504 62.568C22.4271 65.2102 26.0994 67.4649 31.7046 69.3973C32.5418 69.7196 32.9924 70.5561 32.6711 71.3937C32.4126 72.1674 31.5114 72.6177 30.7382 72.3606C14.3744 66.4981 12.5708 58.4449 9.73682 46.2057C9.35025 44.5944 8.96369 42.7911 8.5119 40.9226C8.06131 39.2473 6.70833 38.925 5.61385 39.2473C5.034 39.3764 4.45415 39.7627 4.19565 40.2141C3.80908 40.7295 3.74505 41.374 3.93833 42.0826C10.5099 69.139 16.1792 73.1982 21.2033 76.6768C24.2959 78.8024 27.4524 81.0571 30.4809 87.6281C30.8023 88.4658 30.4809 89.3674 29.6426 89.6897C29.5145 89.8828 29.192 89.8828 29.0627 89.8828Z" fill="#7FE314"/>
<path fill-rule="evenodd" clip-rule="evenodd" d="M35.441 98C34.6679 98 33.8308 97.6777 33.2509 97.0344L27.9682 91.5582C27.3232 90.9788 27.0659 90.1411 27.0659 89.3674C27.0659 88.4658 27.4524 87.7573 28.0323 87.1127L39.0482 76.4837C39.564 75.9683 40.4664 75.5821 41.3036 75.5821C42.0767 75.5821 42.9139 75.9683 43.4937 76.5477L48.7764 82.0239C48.7764 82.0239 48.7764 82.0239 48.7764 82.0879C49.9361 83.377 49.872 85.2443 48.7123 86.4694L37.6952 97.2275C36.9873 97.6777 36.2142 98 35.441 98ZM41.1743 78.7384L30.2224 89.3674L35.441 94.7797L46.457 84.1495L41.1743 78.7384Z" fill="#7FE314"/>
</svg>
