<svg width="98" height="98" viewBox="0 0 98 98" fill="none" xmlns="http://www.w3.org/2000/svg">
<g clip-path="url(#clip0_175_88)">
<path d="M54.6829 47.2448C54.8665 47.3134 55.061 47.3484 55.2571 47.3481H73.7661C74.1915 47.3481 74.5994 47.1791 74.9002 46.8783C75.2011 46.5775 75.37 46.1695 75.37 45.7441C75.37 45.3187 75.2011 44.9108 74.9002 44.6099C74.5994 44.3091 74.1915 44.1402 73.7661 44.1402H55.2571C55.0799 44.1408 54.904 44.1705 54.7365 44.2282C54.4862 43.2233 53.9756 42.302 53.2559 41.5573C52.5362 40.8126 51.6329 40.2708 50.6371 39.9865C49.6412 39.7021 48.5881 39.6853 47.5837 39.9377C46.5793 40.1901 45.6591 40.7028 44.916 41.4241C44.1729 42.1454 43.6331 43.0499 43.3509 44.0463C43.0687 45.0428 43.0542 46.096 43.3088 47.0998C43.5634 48.1037 44.0781 49.0227 44.801 49.7642C45.524 50.5058 46.4296 51.0436 47.4266 51.3236C47.4266 51.383 47.4171 51.4423 47.4171 51.5016V70.0106C47.4171 70.436 47.5861 70.844 47.8869 71.1448C48.1877 71.4456 48.5957 71.6146 49.0211 71.6146C49.4465 71.6146 49.8544 71.4456 50.1552 71.1448C50.4561 70.844 50.625 70.436 50.625 70.0106V51.5016C50.625 51.4423 50.625 51.383 50.6155 51.3236C51.5849 51.0468 52.4674 50.5267 53.1793 49.8128C53.8912 49.0989 54.4087 48.2149 54.6829 47.2448ZM49.0115 48.3358C48.4815 48.3358 47.9634 48.1786 47.5227 47.8842C47.0821 47.5897 46.7386 47.1712 46.5358 46.6816C46.333 46.1919 46.2799 45.6531 46.3833 45.1333C46.4867 44.6135 46.7419 44.136 47.1167 43.7613C47.4914 43.3865 47.9689 43.1313 48.4887 43.0279C49.0085 42.9245 49.5473 42.9776 50.037 43.1804C50.5266 43.3832 50.9451 43.7267 51.2396 44.1673C51.534 44.608 51.6912 45.1261 51.6912 45.6561C51.6912 46.3668 51.4089 47.0484 50.9063 47.5509C50.4038 48.0535 49.7222 48.3358 49.0115 48.3358Z" fill="#7FE314"/>
<path d="M81.25 13.3582C72.6963 4.80447 61.0949 -0.000976562 48.9981 -0.000976562C36.9013 -0.000976562 25.2999 4.80447 16.7461 13.3582C8.19239 21.912 3.38694 33.5133 3.38694 45.6102C3.38694 57.707 8.19239 69.3084 16.7461 77.8621C20.9722 82.1101 25.999 85.4776 31.5354 87.7696C37.0718 90.0615 43.0079 91.2325 49 91.2146C52.1545 91.2156 55.3006 90.8911 58.3885 90.2461C58.5989 90.2075 58.7996 90.1272 58.9785 90.0099C59.1575 89.8925 59.3112 89.7406 59.4305 89.563C59.5499 89.3854 59.6325 89.1857 59.6734 88.9757C59.7144 88.7656 59.713 88.5495 59.6692 88.3401C59.6254 88.1306 59.5401 87.9321 59.4184 87.7561C59.2966 87.5801 59.1409 87.4302 58.9604 87.3153C58.7799 87.2004 58.5782 87.1228 58.3672 87.087C58.1563 87.0512 57.9403 87.0581 57.732 87.107C55.3783 87.5968 52.9874 87.8869 50.5848 87.9741V77.8066C50.5848 77.3812 50.4159 76.9732 50.1151 76.6724C49.8142 76.3716 49.4063 76.2026 48.9809 76.2026C48.5555 76.2026 48.1475 76.3716 47.8467 76.6724C47.5459 76.9732 47.3769 77.3812 47.3769 77.8066V87.9722C25.2656 87.1358 7.45145 69.3005 6.63414 47.1931H16.7997C17.2251 47.1931 17.6331 47.0241 17.9339 46.7233C18.2347 46.4225 18.4037 46.0145 18.4037 45.5891C18.4037 45.1637 18.2347 44.7557 17.9339 44.4549C17.6331 44.1541 17.2251 43.9851 16.7997 43.9851H6.63414C7.46485 21.8815 25.3058 4.05779 47.4152 3.24049V13.408C47.4152 13.8334 47.5841 14.2414 47.885 14.5422C48.1858 14.843 48.5937 15.012 49.0191 15.012C49.4445 15.012 49.8525 14.843 50.1533 14.5422C50.4541 14.2414 50.6231 13.8334 50.6231 13.408V3.2424C72.7344 4.07885 90.5486 21.9141 91.3659 44.0234H81.2003C80.7749 44.0234 80.3669 44.1924 80.0661 44.4932C79.7653 44.794 79.5963 45.202 79.5963 45.6274C79.5963 46.0528 79.7653 46.4608 80.0661 46.7616C80.3669 47.0624 80.7749 47.2314 81.2003 47.2314H91.3659C91.2733 49.7098 90.9653 52.1755 90.4452 54.6005C90.3957 54.8083 90.3882 55.0238 90.4231 55.2345C90.458 55.4452 90.5346 55.6468 90.6484 55.8275C90.7623 56.0082 90.9111 56.1643 91.0861 56.2867C91.2611 56.4091 91.4588 56.4954 91.6676 56.5404C91.8763 56.5854 92.092 56.5882 92.3019 56.5487C92.5118 56.5093 92.7117 56.4283 92.8898 56.3105C93.068 56.1928 93.2209 56.0406 93.3395 55.863C93.4581 55.6854 93.54 55.4859 93.5804 55.2762C94.2643 52.0997 94.6089 48.8595 94.6083 45.6102C94.6248 39.6181 93.4527 33.6822 91.1598 28.1461C88.8668 22.6101 85.4986 17.5838 81.25 13.3582Z" fill="#7FE314"/>
<path d="M33.787 16.0494L31.9782 12.9161C31.7655 12.5475 31.4151 12.2786 31.0041 12.1684C30.5931 12.0582 30.1552 12.1158 29.7866 12.3285C29.4181 12.5412 29.1491 12.8916 29.0389 13.3026C28.9287 13.7136 28.9863 14.1515 29.199 14.5201L31.0078 17.6534C31.1106 17.8406 31.2497 18.0054 31.417 18.1382C31.5843 18.2709 31.7765 18.3689 31.9822 18.4264C32.1879 18.4839 32.403 18.4997 32.6149 18.473C32.8267 18.4462 33.0312 18.3774 33.2161 18.2706C33.4011 18.1638 33.5628 18.0211 33.6919 17.851C33.821 17.6808 33.9147 17.4866 33.9677 17.2797C34.0207 17.0728 34.0319 16.8574 34.0005 16.6461C33.9692 16.4349 33.8959 16.232 33.7851 16.0494H33.787ZM21.0547 27.6161L17.9214 25.8073C17.7388 25.6965 17.5359 25.6233 17.3247 25.5919C17.1134 25.5605 16.898 25.5717 16.6911 25.6247C16.4842 25.6777 16.29 25.7715 16.1198 25.9005C15.9496 26.0296 15.807 26.1914 15.7002 26.3763C15.5933 26.5613 15.5245 26.7657 15.4978 26.9776C15.471 27.1895 15.4869 27.4046 15.5444 27.6103C15.6019 27.816 15.6998 28.0081 15.8326 28.1754C15.9653 28.3427 16.1302 28.4818 16.3174 28.5846L19.4507 30.3953C19.8193 30.608 20.2572 30.6656 20.6682 30.5554C21.0792 30.4452 21.4296 30.1762 21.6423 29.8077C21.855 29.4391 21.9126 29.0012 21.8024 28.5902C21.6922 28.1792 21.4232 27.8288 21.0547 27.6161ZM77.7569 30.6097C78.0378 30.6098 78.3137 30.5358 78.557 30.3953L81.6903 28.5846C81.8775 28.4818 82.0423 28.3427 82.1751 28.1754C82.3078 28.0081 82.4058 27.816 82.4633 27.6103C82.5208 27.4046 82.5366 27.1895 82.5099 26.9776C82.4831 26.7657 82.4143 26.5613 82.3075 26.3763C82.2007 26.1914 82.058 26.0296 81.8878 25.9005C81.7177 25.7715 81.5235 25.6777 81.3166 25.6247C81.1097 25.5717 80.8943 25.5605 80.683 25.5919C80.4717 25.6233 80.2689 25.6965 80.0863 25.8073L76.9453 27.6161C76.6391 27.7926 76.3998 28.0653 76.2645 28.3918C76.1293 28.7183 76.1056 29.0804 76.1973 29.4217C76.289 29.763 76.4908 30.0645 76.7714 30.2794C77.0521 30.4942 77.3958 30.6103 77.7492 30.6097H77.7569ZM19.443 60.8193L16.3097 62.63C16.1225 62.7328 15.9577 62.8719 15.8249 63.0392C15.6922 63.2066 15.5942 63.3987 15.5367 63.6044C15.4792 63.8101 15.4634 64.0252 15.4901 64.2371C15.5169 64.449 15.5857 64.6534 15.6925 64.8383C15.7993 65.0233 15.942 65.185 16.1122 65.3141C16.2823 65.4432 16.4765 65.537 16.6834 65.59C16.8903 65.643 17.1057 65.6541 17.317 65.6228C17.5283 65.5914 17.7311 65.5182 17.9137 65.4073L21.0547 63.5986C21.2372 63.4932 21.3971 63.353 21.5254 63.1859C21.6537 63.0187 21.7478 62.828 21.8024 62.6245C21.857 62.4209 21.8709 62.2087 21.8434 61.9998C21.816 61.7909 21.7476 61.5894 21.6423 61.407C21.537 61.2245 21.3968 61.0645 21.2296 60.9362C21.0625 60.8079 20.8717 60.7138 20.6682 60.6593C20.4647 60.6047 20.2524 60.5907 20.0435 60.6182C19.8346 60.6457 19.6332 60.714 19.4507 60.8193H19.443ZM65.6007 18.4554C65.8827 18.4562 66.16 18.3825 66.4043 18.2416C66.6487 18.1008 66.8515 17.8979 66.9922 17.6534L68.8029 14.5201C69.0156 14.1515 69.0732 13.7136 68.963 13.3026C68.8528 12.8916 68.5838 12.5412 68.2153 12.3285C67.8467 12.1158 67.4088 12.0582 66.9978 12.1684C66.5868 12.2786 66.2364 12.5475 66.0237 12.9161L64.2149 16.0494C64.0742 16.2931 64 16.5696 64 16.8511C63.9999 17.1325 64.0739 17.409 64.2145 17.6528C64.3552 17.8966 64.5574 18.0991 64.8011 18.24C65.0447 18.3809 65.3211 18.4551 65.6026 18.4554H65.6007ZM33.1994 72.9736C33.017 72.868 32.8156 72.7994 32.6066 72.7718C32.3976 72.7441 32.1853 72.758 31.9817 72.8126C31.7781 72.8672 31.5872 72.9614 31.4201 73.0899C31.253 73.2183 31.1129 73.3785 31.0078 73.5613L29.1971 76.6946C28.9844 77.0631 28.9268 77.5011 29.037 77.9121C29.1472 78.3231 29.4162 78.6735 29.7847 78.8862C30.1533 79.0989 30.5912 79.1565 31.0022 79.0463C31.4132 78.9361 31.7636 78.6671 31.9763 78.2986L33.7851 75.1652C33.8906 74.9829 33.9591 74.7815 33.9867 74.5727C34.0144 74.3639 34.0006 74.1516 33.9462 73.9481C33.8918 73.7446 33.7979 73.5538 33.6697 73.3866C33.5416 73.2194 33.3818 73.0791 33.1994 72.9736ZM91.1764 77.7109H85.2236V55.7739C85.2231 55.3041 85.0362 54.8538 84.7038 54.5218C84.3715 54.1898 83.921 54.0034 83.4512 54.0034H68.6651C68.1955 54.0039 67.7453 54.1905 67.413 54.5224C67.0808 54.8542 66.8937 55.3043 66.8927 55.7739V77.7109H60.9399C60.5973 77.7112 60.2621 77.8108 59.975 77.9976C59.6878 78.1845 59.4609 78.4505 59.3218 78.7636C59.1826 79.0767 59.1372 79.4234 59.191 79.7617C59.2449 80.1001 59.3956 80.4156 59.625 80.6701L74.7461 97.4143C74.9122 97.5984 75.115 97.7456 75.3415 97.8465C75.568 97.9474 75.8131 97.9997 76.061 98C76.3088 97.9997 76.5537 97.9476 76.7802 97.847C77.0066 97.7465 77.2096 97.5998 77.376 97.4162L92.4971 80.6701C92.7268 80.4152 92.8776 80.0992 92.9312 79.7603C92.9848 79.4214 92.9389 79.0743 92.7991 78.761C92.6593 78.4477 92.4315 78.1817 92.1435 77.9953C91.8554 77.8089 91.5195 77.7101 91.1764 77.7109ZM76.0553 94.0838L64.1689 80.9208H70.1025V57.2113H82.0157V80.9208H87.9493L76.0553 94.0838Z" fill="#7FE314"/>
</g>
<defs>
<clipPath id="clip0_175_88">
<rect width="98" height="98" fill="white"/>
</clipPath>
</defs>
</svg>
