<svg width="120" height="120" viewBox="0 0 120 120" fill="none" xmlns="http://www.w3.org/2000/svg">
<rect x="12" y="12" width="96" height="96" rx="12.8" fill="#7FE314"/>
<mask id="mask0_175_125" style="mask-type:alpha" maskUnits="userSpaceOnUse" x="28" y="28" width="64" height="64">
<rect x="28.8" y="28.8" width="62.4" height="62.4" fill="#D9D9D9"/>
</mask>
<g mask="url(#mask0_175_125)">
<path d="M51.29 82.1L35.3 66.11C34.8667 65.6767 34.5417 65.2 34.325 64.68C34.1083 64.16 34 63.6183 34 63.055C34 62.4917 34.1083 61.95 34.325 61.43C34.5417 60.91 34.8667 60.4333 35.3 60L50.25 45.115L43.36 38.225L47.39 34L73.39 60C73.8233 60.4333 74.1375 60.91 74.3325 61.43C74.5275 61.95 74.625 62.4917 74.625 63.055C74.625 63.6183 74.5275 64.16 74.3325 64.68C74.1375 65.2 73.8233 65.6767 73.39 66.11L57.4 82.1C56.9667 82.5333 56.49 82.8583 55.97 83.075C55.45 83.2917 54.9083 83.4 54.345 83.4C53.7817 83.4 53.24 83.2917 52.72 83.075C52.2 82.8583 51.7233 82.5333 51.29 82.1ZM54.345 49.21L40.435 63.12H68.255L54.345 49.21ZM80.28 83.4C78.72 83.4 77.3983 82.8475 76.315 81.7425C75.2317 80.6375 74.69 79.2833 74.69 77.68C74.69 76.51 74.9825 75.405 75.5675 74.365C76.1525 73.325 76.8133 72.3067 77.55 71.31L80.28 67.8L83.14 71.31C83.8333 72.3067 84.4833 73.325 85.09 74.365C85.6967 75.405 86 76.51 86 77.68C86 79.2833 85.4367 80.6375 84.31 81.7425C83.1833 82.8475 81.84 83.4 80.28 83.4Z" fill="#345E08"/>
</g>
</svg>
