<svg width="120" height="120" viewBox="0 0 120 120" fill="none" xmlns="http://www.w3.org/2000/svg">
<rect x="12" y="12" width="96" height="96" rx="12.8" fill="#7FE314"/>
<mask id="mask0_175_118" style="mask-type:alpha" maskUnits="userSpaceOnUse" x="28" y="28" width="64" height="64">
<rect x="28.8" y="28.8" width="62.4" height="62.4" fill="#D9D9D9"/>
</mask>
<g mask="url(#mask0_175_118)">
<path d="M34.26 57.6601L28.8 52.2001C32.7867 48.1267 37.445 44.9417 42.775 42.6451C48.105 40.3484 53.8467 39.2001 60 39.2001C61.04 39.2001 62.08 39.2326 63.12 39.2976C64.16 39.3626 65.2 39.4601 66.24 39.5901L62.34 47.1301C61.82 47.0434 61.3975 47.0001 61.0725 47.0001H60C54.9733 47.0001 50.2608 47.9426 45.8625 49.8276C41.4642 51.7126 37.5967 54.3234 34.26 57.6601ZM45.31 68.7101L39.85 63.1201C42.2767 60.6934 45.0608 58.7759 48.2025 57.3676C51.3442 55.9592 54.7567 55.1467 58.44 54.9301L54.28 63.3801C52.59 63.9001 50.9867 64.6042 49.47 65.4926C47.9533 66.3809 46.5667 67.4534 45.31 68.7101ZM58.18 80.4101C56.88 79.9334 55.8725 79.0342 55.1575 77.7126C54.4425 76.3909 54.41 75.0801 55.06 73.7801L70.66 42.0601C70.8333 41.7134 71.0825 41.4859 71.4075 41.3776C71.7325 41.2692 72.09 41.2801 72.48 41.4101C72.8267 41.5401 73.0867 41.7567 73.26 42.0601C73.4333 42.3634 73.4767 42.7101 73.39 43.1001L64.94 77.2901C64.5933 78.7201 63.7267 79.7276 62.34 80.3126C60.9533 80.8976 59.5667 80.9301 58.18 80.4101ZM74.69 68.7101C74.43 68.4501 74.1483 68.1901 73.845 67.9301C73.5417 67.6701 73.2167 67.4101 72.87 67.1501L74.95 58.9601C75.86 59.6101 76.7592 60.2709 77.6475 60.9426C78.5358 61.6142 79.37 62.3401 80.15 63.1201L74.69 68.7101ZM85.74 57.6601C84.44 56.3601 83.0425 55.1684 81.5475 54.0851C80.0525 53.0017 78.46 52.0267 76.77 51.1601L78.59 43.3601C80.93 44.4867 83.1617 45.7867 85.285 47.2601C87.4083 48.7334 89.38 50.3801 91.2 52.2001L85.74 57.6601Z" fill="#345E08"/>
</g>
</svg>
