<svg width="120" height="120" viewBox="0 0 120 120" fill="none" xmlns="http://www.w3.org/2000/svg">
<rect x="12" y="12" width="96" height="96" rx="12.8" fill="#7FE314"/>
<mask id="mask0_175_104" style="mask-type:alpha" maskUnits="userSpaceOnUse" x="28" y="28" width="64" height="64">
<rect x="28.8" y="28.8" width="62.4" height="62.4" fill="#D9D9D9"/>
</mask>
<g mask="url(#mask0_175_104)">
<path d="M41.67 73.1301C39.2 70.6601 37.3042 67.8543 35.9825 64.7126C34.6608 61.5709 34 58.2668 34 54.8001C34 51.3334 34.6608 48.0293 35.9825 44.8876C37.3042 41.7459 39.2 38.9401 41.67 36.4701L44.79 39.5901C42.7533 41.6268 41.1825 43.9559 40.0775 46.5776C38.9725 49.1993 38.42 51.9401 38.42 54.8001C38.42 57.6601 38.9725 60.4009 40.0775 63.0226C41.1825 65.6443 42.7533 67.9734 44.79 70.0101L41.67 73.1301ZM47.65 67.1501C46.0033 65.5034 44.7467 63.6184 43.88 61.4951C43.0133 59.3718 42.58 57.1401 42.58 54.8001C42.58 52.4601 43.0133 50.2284 43.88 48.1051C44.7467 45.9818 46.0033 44.0968 47.65 42.4501L50.77 45.5701C49.5133 46.8268 48.5708 48.2459 47.9425 49.8276C47.3142 51.4093 47 53.0668 47 54.8001C47 56.5334 47.3142 58.1909 47.9425 59.7726C48.5708 61.3543 49.5133 62.7734 50.77 64.0301L47.65 67.1501ZM57.4 83.4001V60.7801C56.23 60.2601 55.2875 59.4584 54.5725 58.3751C53.8575 57.2918 53.5 56.1001 53.5 54.8001C53.5 52.9801 54.1283 51.4418 55.385 50.1851C56.6417 48.9284 58.18 48.3001 60 48.3001C61.82 48.3001 63.3583 48.9284 64.615 50.1851C65.8717 51.4418 66.5 52.9801 66.5 54.8001C66.5 56.1001 66.1425 57.2918 65.4275 58.3751C64.7125 59.4584 63.77 60.2601 62.6 60.7801V83.4001H57.4ZM72.35 67.1501L69.23 64.0301C70.4867 62.7734 71.4292 61.3543 72.0575 59.7726C72.6858 58.1909 73 56.5334 73 54.8001C73 53.0668 72.6858 51.4093 72.0575 49.8276C71.4292 48.2459 70.4867 46.8268 69.23 45.5701L72.35 42.4501C73.9967 44.0968 75.2533 45.9818 76.12 48.1051C76.9867 50.2284 77.42 52.4601 77.42 54.8001C77.42 57.1401 76.9867 59.3718 76.12 61.4951C75.2533 63.6184 73.9967 65.5034 72.35 67.1501ZM78.33 73.1301L75.21 70.0101C77.2467 67.9734 78.8175 65.6443 79.9225 63.0226C81.0275 60.4009 81.58 57.6601 81.58 54.8001C81.58 51.9401 81.0275 49.1993 79.9225 46.5776C78.8175 43.9559 77.2467 41.6268 75.21 39.5901L78.33 36.4701C80.8 38.9401 82.6958 41.7459 84.0175 44.8876C85.3392 48.0293 86 51.3334 86 54.8001C86 58.2668 85.3392 61.5709 84.0175 64.7126C82.6958 67.8543 80.8 70.6601 78.33 73.1301Z" fill="#345E08"/>
</g>
</svg>
