<svg width="120" height="120" viewBox="0 0 120 120" fill="none" xmlns="http://www.w3.org/2000/svg">
<rect x="12" y="12" width="96" height="96" rx="12.8" fill="#7FE314"/>
<mask id="mask0_175_111" style="mask-type:alpha" maskUnits="userSpaceOnUse" x="28" y="28" width="64" height="64">
<rect x="28.8" y="28.8" width="62.4" height="62.4" fill="#D9D9D9"/>
</mask>
<g mask="url(#mask0_175_111)">
<path d="M57.4 80.8001H45.7C41.7567 80.8001 38.3875 79.4351 35.5925 76.7051C32.7975 73.9751 31.4 70.6384 31.4 66.6951C31.4 63.3151 32.4183 60.3034 34.455 57.6601C36.4917 55.0167 39.1567 53.3267 42.45 52.5901C43.5333 48.6034 45.7 45.3751 48.95 42.9051C52.2 40.4351 55.8833 39.2001 60 39.2001C65.07 39.2001 69.3708 40.9659 72.9025 44.4976C76.4342 48.0292 78.2 52.3301 78.2 57.4001C81.19 57.7467 83.6708 59.0359 85.6425 61.2676C87.6142 63.4992 88.6 66.1101 88.6 69.1001C88.6 72.3501 87.4625 75.1126 85.1875 77.3876C82.9125 79.6626 80.15 80.8001 76.9 80.8001H62.6V62.2101L66.76 66.2401L70.4 62.6001L60 52.2001L49.6 62.6001L53.24 66.2401L57.4 62.2101V80.8001Z" fill="#345E08"/>
</g>
</svg>
