<svg width="103" height="103" viewBox="0 0 103 103" fill="none" xmlns="http://www.w3.org/2000/svg">
<path d="M62.0362 100.525C56.7544 100.525 51.4725 100.525 46.1906 100.525C45.1675 100.538 44.1517 100.351 43.1991 99.9747C42.9739 99.913 42.7782 99.7717 42.6478 99.5766C42.5174 99.3815 42.4609 99.1457 42.4888 98.9122C42.507 88.7857 42.507 78.6583 42.4888 68.53C42.4888 68.0097 42.6473 67.6849 43.0953 67.4756C43.1554 67.4454 43.2073 67.3958 43.2647 67.36C45.1771 66.0993 47.4556 65.1578 48.8926 63.5062C50.8241 61.2572 52.0999 58.4356 53.6654 55.8645C53.9014 55.4062 54.0019 54.8894 53.955 54.3753C53.955 50.9747 53.955 47.575 53.955 44.1763C53.955 42.5439 54.6407 41.9548 56.2608 42.1613C61.1128 42.7806 63.6372 45.6077 63.741 50.6948C63.8147 54.6092 63.7874 58.5237 63.741 62.4381C63.741 63.2391 63.935 63.4649 64.7464 63.4594C70.3688 63.4208 75.9912 63.4318 81.611 63.4429C83.761 63.4429 85.3019 64.4559 86.2553 66.3993C86.3752 66.626 86.4378 66.8789 86.4378 67.1357C86.4378 67.3925 86.3752 67.6454 86.2553 67.872C85.3374 69.7825 83.8375 70.812 81.7339 70.8478C79.348 70.8863 76.9629 70.8863 74.5788 70.8478C73.8056 70.8313 73.4232 71.0047 73.568 71.847C73.6049 72.0851 73.6049 72.3275 73.568 72.5655C73.4641 73.2372 73.7838 73.3555 74.3876 73.35C76.8464 73.3198 79.3051 73.3115 81.7476 73.35C83.8102 73.3776 85.2991 74.3878 86.228 76.2322C86.3669 76.4854 86.4387 76.7705 86.4363 77.0598C86.4339 77.3491 86.3574 77.633 86.2144 77.8838C85.2636 79.7199 83.7774 80.7164 81.7148 80.7412C79.2942 80.7687 76.8737 80.777 74.4559 80.7412C73.7209 80.7247 73.5488 80.9587 73.5652 81.6661C73.6007 83.2297 73.5652 83.2297 75.1307 83.2297C76.8354 83.2297 78.5402 83.1856 80.2422 83.2462C82.2994 83.3205 83.761 84.3638 84.638 86.244C84.747 86.4567 84.8039 86.6927 84.8039 86.9321C84.8039 87.1716 84.747 87.4076 84.638 87.6203C83.7419 89.5473 82.2475 90.5823 80.1466 90.6484C78.2725 90.6979 76.3983 90.6979 74.5242 90.6484C73.7756 90.6264 73.4314 90.8108 73.5707 91.6008C73.6062 91.8048 73.6062 92.0135 73.5707 92.2175C73.4259 93.0433 73.8166 93.1809 74.5406 93.1534C75.9065 93.1011 77.2725 93.0956 78.6385 93.1534C80.5701 93.2332 81.9716 94.1912 82.8977 95.9061C83.0727 96.2001 83.1631 96.5373 83.1588 96.88C83.1544 97.2228 83.0555 97.5575 82.8731 97.8468C81.8678 99.6637 80.346 100.567 78.2888 100.567L62.0362 100.525Z" fill="#F6F6F6"/>
<path d="M18.7805 83.1884V66.5094C18.7805 64.3347 19.663 63.4373 21.8021 63.4373H37.0275C39.1804 63.4373 40.0464 64.321 40.0491 66.5122C40.0491 77.6645 40.0491 88.8178 40.0491 99.972C40.0491 102.078 39.1503 103 37.0822 103H21.7502C19.6848 103 18.7833 102.078 18.7833 99.972C18.7778 94.3784 18.7769 88.7838 18.7805 83.1884ZM29.3752 99.0773C29.8613 99.087 30.3393 98.9513 30.7488 98.6873C31.1583 98.4234 31.481 98.043 31.676 97.5944C31.8711 97.1457 31.9298 96.6488 31.8446 96.1665C31.7595 95.6843 31.5344 95.2383 31.1978 94.8848C30.8612 94.5314 30.4282 94.2865 29.9534 94.181C29.4787 94.0755 28.9836 94.1142 28.5306 94.2921C28.0777 94.47 27.6873 94.7793 27.4087 95.1807C27.1302 95.5822 26.976 96.0578 26.9656 96.5475C26.956 97.2039 27.2036 97.8375 27.6547 98.3111C28.1058 98.7847 28.724 99.06 29.3752 99.0773Z" fill="#F6F6F6"/>
<path d="M95.0005 26.5807C95.0005 27.957 95.036 29.3334 94.9841 30.7098C94.9649 30.9446 95.0113 31.1801 95.118 31.3898C95.2247 31.5994 95.3874 31.7749 95.5878 31.8962C97.5603 33.3607 99.511 34.8582 101.486 36.3199C102.44 37.0301 103.199 37.8367 102.953 39.1415C102.707 40.4463 101.795 40.9638 100.615 41.2776C98.2488 41.9025 95.9075 42.6237 93.5388 43.2514C93.2617 43.3077 93.0066 43.4433 92.804 43.642C92.6015 43.8408 92.4601 44.0941 92.3969 44.3717C91.6292 46.7474 90.7823 49.0982 90.0091 51.4739C89.6512 52.575 89.0666 53.3843 87.8727 53.5522C86.6269 53.7284 85.8401 53.0567 85.1953 52.0574C83.8293 49.9296 82.395 47.8402 81.0208 45.7261C80.9089 45.5211 80.7412 45.3526 80.5374 45.2404C80.3337 45.1283 80.1023 45.0771 79.8707 45.093C77.2507 45.0737 74.628 44.9911 72.0053 44.9636C70.9125 44.9636 70.0929 44.5424 69.6011 43.5459C69.1093 42.5494 69.3607 41.619 70.03 40.7711C71.5982 38.7836 73.139 36.7741 74.7318 34.8086C75.1853 34.2581 75.3246 33.7736 75.0842 33.0496C74.3111 30.7098 73.6554 28.3342 72.8986 25.9861C72.538 24.8492 72.5216 23.8114 73.445 22.958C74.3684 22.1047 75.3137 22.1845 76.3928 22.6029C78.7369 23.5141 81.1192 24.3399 83.4632 25.2566C83.7029 25.3703 83.9703 25.4113 84.2327 25.3747C84.4951 25.338 84.7413 25.2252 84.9413 25.0501C86.9821 23.5636 89.0584 22.1267 91.1046 20.6457C92.039 19.9713 93.0006 19.6987 94.0552 20.2878C95.1097 20.8769 95.3474 21.7688 95.2982 22.8699C95.2491 24.1032 95.2846 25.3474 95.2846 26.5724L95.0005 26.5807Z" fill="#F6F6F6"/>
<path d="M60.4926 32.7276C59.9449 32.717 59.4107 32.5541 58.9491 32.2568C56.7635 31.0924 54.5424 29.95 52.365 28.7471C52.1162 28.5789 51.8241 28.4878 51.5246 28.4849C51.2251 28.4819 50.9313 28.5673 50.6793 28.7306C48.4937 29.939 46.2808 31.0594 44.0952 32.2431C43.0871 32.7936 42.0954 32.9781 41.1255 32.2431C40.1557 31.5081 39.9726 30.5694 40.1966 29.4077C40.6529 27.0183 40.9944 24.6042 41.4534 22.2175C41.5507 21.8615 41.5423 21.4844 41.4291 21.1331C41.316 20.7818 41.1031 20.4717 40.8168 20.241C39.0465 18.5894 37.3444 16.8496 35.6042 15.1594C34.8173 14.3969 34.3229 13.5546 34.6644 12.4067C35.0059 11.2588 35.8582 10.7385 37.0057 10.5789C39.5328 10.2265 42.0544 9.80808 44.5842 9.47775C44.85 9.46101 45.1051 9.36636 45.3182 9.20546C45.5313 9.04456 45.693 8.82441 45.7836 8.57209C46.8436 6.35062 47.9692 4.16768 49.0183 1.92693C49.5373 0.825828 50.234 0 51.5262 0C52.7693 0 53.4578 0.825828 53.9632 1.88289C55.0314 4.1429 56.1488 6.36989 57.2416 8.62164C57.3281 8.85728 57.4809 9.06242 57.6813 9.212C57.8817 9.36159 58.1209 9.44915 58.3699 9.46399C60.968 9.80533 63.5607 10.232 66.1479 10.6091C67.227 10.7633 67.9783 11.2946 68.3198 12.3571C68.6613 13.4197 68.2652 14.2841 67.5002 15.0411C65.6944 16.8139 63.9213 18.6197 62.0663 20.3401C61.457 20.8907 61.4215 21.4412 61.5472 22.157C61.9971 24.6877 62.4342 27.2211 62.8585 29.7573C62.9303 30.1135 62.9235 30.4813 62.8385 30.8345C62.7534 31.1877 62.5923 31.5177 62.3665 31.8012C62.1407 32.0847 61.8558 32.3146 61.532 32.4747C61.2081 32.6348 60.8533 32.7211 60.4926 32.7276Z" fill="#F6F6F6"/>
<path d="M15.4612 53.5605C14.3165 53.5605 13.5051 52.9411 13.0707 51.6803C12.2238 49.2193 11.3878 46.7584 10.5791 44.2864C10.5157 44.0248 10.379 43.7871 10.1852 43.6016C9.99144 43.4162 9.74883 43.2907 9.4863 43.2403C7.0275 42.5852 4.56871 41.864 2.10992 41.1868C0.995261 40.8812 0.224839 40.2371 0.0335994 39.0562C-0.14398 37.9551 0.399687 37.1595 1.2548 36.5209C3.27921 35.0096 5.2763 33.4653 7.31163 31.9678C7.55371 31.8201 7.74842 31.6052 7.87245 31.3489C7.99649 31.0926 8.0446 30.8057 8.01102 30.5226C7.87442 27.9515 7.82252 25.3777 7.70777 22.8149C7.6586 21.6862 7.98097 20.7696 9.0082 20.23C10.0354 19.6905 10.967 19.9548 11.8686 20.6017C13.934 22.0909 16.0513 23.5471 18.1194 25.0529C18.3092 25.2146 18.5409 25.3184 18.7872 25.352C19.0336 25.3857 19.2843 25.3478 19.51 25.2428C21.8923 24.3261 24.2937 23.4645 26.6733 22.5423C27.7661 22.1212 28.7496 22.1349 29.6074 22.9718C30.4653 23.8086 30.4707 24.7693 30.1374 25.8319C29.3698 28.2819 28.6458 30.7428 27.8672 33.19C27.776 33.4256 27.7534 33.6825 27.8017 33.9306C27.8501 34.1787 27.9676 34.4078 28.1404 34.5912C29.6812 36.5181 31.1701 38.4753 32.7137 40.394C33.4705 41.3299 33.9786 42.2906 33.4268 43.4936C32.853 44.7434 31.7603 44.9471 30.5254 44.9526C28.1076 44.9526 25.6898 45.0627 23.2719 45.0572C22.9905 45.0388 22.7099 45.1035 22.4644 45.2433C22.2188 45.3831 22.0191 45.592 21.8896 45.8445C20.5236 47.9751 19.1084 50.0755 17.7178 52.1923C17.1714 53.0099 16.4911 53.5742 15.4612 53.5605Z" fill="#F6F6F6"/>
</svg>
