<svg width="99" height="99" viewBox="0 0 99 99" fill="none" xmlns="http://www.w3.org/2000/svg">
<path d="M34.7995 33.1667H38.0664V36.4336H34.7995V33.1667Z" fill="#7FE314"/>
<path d="M34.7995 39.7005H38.0664V42.9662H34.7995V39.7005Z" fill="#7FE314"/>
<path d="M34.7995 46.2331H38.0664V49.5H34.7995V46.2331Z" fill="#7FE314"/>
<path d="M34.7995 52.7669H38.0664V56.0338H34.7995V52.7669Z" fill="#7FE314"/>
<path d="M41.3333 33.1667H44.6002V36.4336H41.3333V33.1667Z" fill="#7FE314"/>
<path d="M41.3333 39.7005H44.6002V42.9662H41.3333V39.7005Z" fill="#7FE314"/>
<path d="M41.3333 46.2331H44.6002V49.5H41.3333V46.2331Z" fill="#7FE314"/>
<path d="M41.3333 52.7669H44.6002V56.0338H41.3333V52.7669Z" fill="#7FE314"/>
<path d="M47.8671 33.1667H51.1329V36.4336H47.8671V33.1667Z" fill="#7FE314"/>
<path d="M47.8671 39.7005H51.1329V42.9662H47.8671V39.7005Z" fill="#7FE314"/>
<path d="M47.8671 46.2331H51.1329V49.5H47.8671V46.2331Z" fill="#7FE314"/>
<path d="M47.8671 52.7669H51.1329V56.0338H47.8671V52.7669Z" fill="#7FE314"/>
<path d="M54.3998 33.1667H57.6667V36.4336H54.3998V33.1667Z" fill="#7FE314"/>
<path d="M41.3333 26.6329H44.6002V29.8998H41.3333V26.6329Z" fill="#7FE314"/>
<path d="M47.8671 26.6329H51.1329V29.8998H47.8671V26.6329Z" fill="#7FE314"/>
<path d="M54.3998 26.6329H57.6667V29.8998H54.3998V26.6329Z" fill="#7FE314"/>
<path d="M54.3998 39.7005H57.6667V42.9662H54.3998V39.7005Z" fill="#7FE314"/>
<path d="M54.3998 46.2331H57.6667V49.5H54.3998V46.2331Z" fill="#7FE314"/>
<path d="M54.3998 52.7669H57.6667V56.0338H54.3998V52.7669Z" fill="#7FE314"/>
<path d="M60.9336 33.1667H64.2005V36.4336H60.9336V33.1667Z" fill="#7FE314"/>
<path d="M60.9336 39.7005H64.2005V42.9662H60.9336V39.7005Z" fill="#7FE314"/>
<path d="M60.9336 46.2331H64.2005V49.5H60.9336V46.2331Z" fill="#7FE314"/>
<path d="M60.9336 52.7669H64.2005V56.0338H60.9336V52.7669Z" fill="#7FE314"/>
<path d="M96.8671 25H72.3671V2.13286C72.3671 1.23018 71.637 0.5 70.7331 0.5H28.2669C27.363 0.5 26.6329 1.23018 26.6329 2.13286V25H2.13286C1.23018 25 0.5 25.7302 0.5 26.6329V85.4336C0.5 86.3363 1.23018 87.0664 2.13286 87.0664H5.54745C5.45766 87.5993 5.39976 88.1428 5.39976 88.7005V96.8671C5.39976 97.7698 6.12994 98.5 7.03381 98.5H91.9662C92.8701 98.5 93.6002 97.7698 93.6002 96.8671V88.7005C93.6002 88.1428 93.5423 87.5993 93.4525 87.0664H96.8671C97.7698 87.0664 98.5 86.3363 98.5 85.4336V26.6329C98.5 25.7302 97.7698 25 96.8671 25ZM70.7331 70.7331C70.7331 72.5349 69.268 74 67.4662 74C65.6656 74 64.2005 72.5349 64.2005 70.7331C64.2005 68.9313 65.6656 67.4662 67.4662 67.4662C69.268 67.4662 70.7331 68.9313 70.7331 70.7331ZM31.5338 67.4662C33.3344 67.4662 34.7995 68.9313 34.7995 70.7331C34.7995 72.5349 33.3344 74 31.5338 74C29.732 74 28.2669 72.5349 28.2669 70.7331C28.2669 68.9313 29.732 67.4662 31.5338 67.4662ZM21.7331 95.2331H8.66667V88.7005C8.66667 85.0968 11.5968 82.1667 15.2005 82.1667C18.8029 82.1667 21.7331 85.0968 21.7331 88.7005V95.2331ZM11.9336 75.6329C11.9336 73.8322 13.3987 72.3671 15.2005 72.3671C17.0011 72.3671 18.4662 73.8322 18.4662 75.6329C18.4662 77.4347 17.0011 78.8998 15.2005 78.8998C13.3987 78.8998 11.9336 77.4347 11.9336 75.6329ZM21.9812 81.6409C21.368 81.049 20.678 80.535 19.9266 80.1203C21.0395 78.947 21.7331 77.3744 21.7331 75.6329C21.7331 72.0304 18.8029 69.1002 15.2005 69.1002C11.5968 69.1002 8.66667 72.0304 8.66667 75.6329C8.66667 77.3744 9.3614 78.947 10.4744 80.1203C8.91479 80.9828 7.61984 82.26 6.72661 83.7995H3.7669V28.2669H26.6329V66.4572C25.6286 67.6056 25 69.0908 25 70.7331C25 72.4747 25.6947 74.0473 26.8077 75.2205C24.3939 76.5545 22.6051 78.8785 21.9812 81.6409ZM38.0664 95.2331H25V83.7995C25 80.1971 27.9302 77.2669 31.5338 77.2669C35.1363 77.2669 38.0664 80.1971 38.0664 83.7995V95.2331ZM57.6667 95.2331H41.3333V83.7995C41.3333 79.2968 44.9972 75.6329 49.5 75.6329C54.0028 75.6329 57.6667 79.2968 57.6667 83.7995V95.2331ZM44.6002 67.4662C44.6002 64.7652 46.799 62.5664 49.5 62.5664C52.201 62.5664 54.3998 64.7652 54.3998 67.4662C54.3998 70.1683 52.201 72.3671 49.5 72.3671C46.799 72.3671 44.6002 70.1683 44.6002 67.4662ZM59.4472 78.185C58.3555 76.2603 56.7262 74.6841 54.7613 73.6597C56.523 72.1604 57.6667 69.9557 57.6667 67.4662C57.6667 62.9634 54.0028 59.2995 49.5 59.2995C44.9972 59.2995 41.3333 62.9634 41.3333 67.4662C41.3333 69.9557 42.477 72.1604 44.2387 73.6597C42.2738 74.6841 40.6445 76.2603 39.5528 78.185C38.695 76.9644 37.5714 75.9448 36.2599 75.2205C37.3729 74.0473 38.0664 72.4747 38.0664 70.7331C38.0664 67.1306 35.1363 64.2005 31.5338 64.2005C30.9667 64.2005 30.4255 64.295 29.8998 64.4321V3.7669H69.1002V64.4321C68.5745 64.295 68.0333 64.2005 67.4662 64.2005C63.8637 64.2005 60.9336 67.1306 60.9336 70.7331C60.9336 72.4747 61.6271 74.0473 62.7413 75.2205C61.4298 75.9448 60.305 76.9644 59.4472 78.185ZM74 95.2331H60.9336V83.7995C60.9336 80.1971 63.8637 77.2669 67.4662 77.2669C71.0698 77.2669 74 80.1971 74 83.7995V95.2331ZM90.3333 95.2331H77.2669V88.7005C77.2669 85.0968 80.1971 82.1667 83.7995 82.1667C87.4032 82.1667 90.3333 85.0968 90.3333 88.7005V95.2331ZM80.5338 75.6329C80.5338 73.8322 81.9989 72.3671 83.7995 72.3671C85.6013 72.3671 87.0664 73.8322 87.0664 75.6329C87.0664 77.4347 85.6013 78.8998 83.7995 78.8998C81.9989 78.8998 80.5338 77.4347 80.5338 75.6329ZM95.2331 83.7995H92.2734C91.3802 82.26 90.0852 80.9828 88.5256 80.1203C89.6386 78.947 90.3333 77.3744 90.3333 75.6329C90.3333 72.0304 87.4032 69.1002 83.7995 69.1002C80.1971 69.1002 77.2669 72.0304 77.2669 75.6329C77.2669 77.3744 77.9605 78.947 79.0746 80.1203C78.3232 80.5362 77.6344 81.049 77.02 81.6409C76.3961 78.8785 74.6073 76.5545 72.1935 75.2205C73.3053 74.0473 74 72.4747 74 70.7331C74 69.0908 73.3714 67.6056 72.3671 66.4572V28.2669H95.2331V83.7995Z" fill="#7FE314"/>
<path d="M77.2669 38.0664H80.5338V64.2005H77.2669V38.0664Z" fill="#7FE314"/>
<path d="M87.0664 38.0664H90.3333V64.2005H87.0664V38.0664Z" fill="#7FE314"/>
<path d="M8.66667 38.0664H11.9336V64.2005H8.66667V38.0664Z" fill="#7FE314"/>
<path d="M18.4662 38.0664H21.7331V64.2005H18.4662V38.0664Z" fill="#7FE314"/>
<path d="M39.7005 23.3671H59.2995C60.2034 23.3671 60.9336 22.637 60.9336 21.7331V8.66667C60.9336 7.76399 60.2034 7.03381 59.2995 7.03381H39.7005C38.7966 7.03381 38.0664 7.76399 38.0664 8.66667V21.7331C38.0664 22.637 38.7966 23.3671 39.7005 23.3671ZM41.3333 10.2995H57.6667V20.1002H41.3333V10.2995Z" fill="#7FE314"/>
</svg>
