<svg xmlns="http://www.w3.org/2000/svg" width="36" height="36" viewBox="0 0 36 36"><defs><style>.a{fill-rule:evenodd;}</style></defs><path class="a" d="M18,33.75A15.75,15.75,0,1,0,2.25,18,15.75,15.75,0,0,0,18,33.75ZM18,36A18,18,0,1,0,0,18,18,18,0,0,0,18,36Z"/><path class="a" d="M10.454,17.2a1.125,1.125,0,0,1,1.593,0L18,23.159,23.954,17.2A1.126,1.126,0,1,1,25.547,18.8l-6.75,6.75a1.125,1.125,0,0,1-1.593,0l-6.75-6.75a1.125,1.125,0,0,1,0-1.593Z"/><path class="a" d="M18,10.125a1.125,1.125,0,0,1,1.125,1.125V22.5a1.125,1.125,0,0,1-2.25,0V11.25A1.125,1.125,0,0,1,18,10.125Z"/></svg>