<svg id="Layer_1" data-name="Layer 1" xmlns="http://www.w3.org/2000/svg" viewBox="0 0 1925 875"><defs><style>.cls-1{fill:#12345b;}</style></defs><title>bg_blue_curve_bottom</title><path class="cls-1" d="M1925,875c-65-10-135-19-208-26s-152-14-233-20-167-10-253-12-179-4-269-4-181,1-269,4-171,7-253,12-159,12-233,20S65,865,0,875V0C65,10,134,19,208,26S360,41,440,46,607,56,693,59s179,4,269,4,181-1,269-4,171-7,253-12,159-12,233-20,143-17,208-26V875Z" transform="translate(0 0)"/><rect class="cls-1" width="1925" height="72.08"/></svg>