<svg xmlns="http://www.w3.org/2000/svg" width="217.036" height="36.906" viewBox="0 0 217.036 36.906"><defs><style>.a{fill:#80e315;}.b{fill:#14345a;}</style></defs><g transform="translate(-611.2 -503.5)"><path class="a" d="M612.152,504h4.4c3.054,0,4.348,1.4,4.348,4.3v.725c0,1.915-.569,3.106-1.915,3.623v.052c1.553.518,2.174,1.915,2.174,3.882v1.6c0,2.9-1.5,4.4-4.451,4.4H612.1V504Zm4.037,7.609c1.087,0,1.76-.466,1.76-1.967v-1.035c0-1.346-.466-1.915-1.5-1.915h-1.4v4.917Zm.569,8.385c.983,0,1.5-.466,1.5-1.812v-1.6c0-1.708-.569-2.278-1.915-2.278H615.05v5.746h1.708Z" transform="translate(-0.434 -0.241)"/><path class="a" d="M635.8,518.234V504h2.95v14.441c0,1.346.569,1.812,1.5,1.812s1.5-.466,1.5-1.812V504H644.6v14.234c0,3-1.5,4.71-4.348,4.71S635.8,521.185,635.8,518.234Z" transform="translate(-11.867 -0.241)"/><path class="a" d="M659.8,504h2.951v18.634H659.8Z" transform="translate(-23.444 -0.241)"/><path class="a" d="M672.7,504h2.95v15.994h4.814v2.64H672.7Z" transform="translate(-29.667 -0.241)"/><path class="a" d="M693.5,504h4.451c2.95,0,4.348,1.6,4.348,4.607v9.421c0,3-1.449,4.607-4.348,4.607H693.5Zm4.451,15.994c.932,0,1.5-.466,1.5-1.812V508.5c0-1.346-.569-1.812-1.5-1.812h-1.5v13.3Z" transform="translate(-39.7 -0.241)"/><path class="a" d="M717.5,504h2.95v18.634H717.5Z" transform="translate(-51.277 -0.241)"/><path class="a" d="M730.5,504h3.675l2.847,11.129h.052V504h2.588v18.634h-3l-3.52-13.613h-.052v13.613H730.5Z" transform="translate(-57.548 -0.241)"/><path class="a" d="M755.1,517.993V508.21c0-3,1.5-4.71,4.348-4.71s4.348,1.708,4.348,4.71v1.6h-2.743v-1.76c0-1.346-.569-1.812-1.5-1.812s-1.5.518-1.5,1.812v10.2c0,1.346.569,1.812,1.5,1.812s1.5-.466,1.5-1.812v-3.623H759.6v-2.64h4.245V518.1c0,3-1.5,4.71-4.348,4.71S755.1,520.944,755.1,517.993Z" transform="translate(-69.415 0)"/><path class="a" d="M789.6,518.145v-9.99c0-2.9,1.5-4.555,4.3-4.555,2.847,0,4.3,1.708,4.3,4.555v1.967H795.5v-2.174c0-1.242-.569-1.708-1.449-1.708s-1.449.518-1.449,1.708v10.4c0,1.242.569,1.708,1.449,1.708s1.449-.466,1.449-1.708v-2.847h2.743v2.64c0,2.9-1.5,4.555-4.3,4.555C791.1,522.7,789.6,520.992,789.6,518.145Z" transform="translate(-86.057 -0.048)"/><path class="a" d="M812.5,517.993V508.21c0-3,1.553-4.71,4.451-4.71s4.452,1.708,4.452,4.71v9.783c0,3-1.553,4.71-4.452,4.71S812.5,520.944,812.5,517.993Zm5.953.155V508c0-1.346-.569-1.812-1.5-1.812s-1.5.518-1.5,1.812v10.145c0,1.346.569,1.812,1.5,1.812S818.453,519.494,818.453,518.148Z" transform="translate(-97.104 0)"/><path class="a" d="M836.5,504h3.675l2.847,11.129h.052V504h2.588v18.634h-3l-3.52-13.613h-.052v13.613H836.5Z" transform="translate(-108.681 -0.241)"/><path class="a" d="M861.6,504h3.675l2.847,11.129h.052V504h2.588v18.634h-3l-3.52-13.613h-.052v13.613H861.6Z" transform="translate(-120.789 -0.241)"/><path class="a" d="M886.6,504h7.971v2.64H889.5v4.917h4.037v2.64H889.5v5.745h5.073v2.64H886.6Z" transform="translate(-132.849 -0.241)"/><path class="a" d="M908,518.145v-9.99c0-2.9,1.5-4.555,4.3-4.555,2.847,0,4.3,1.708,4.3,4.555v1.967h-2.743v-2.174c0-1.242-.569-1.708-1.449-1.708s-1.449.518-1.449,1.708v10.4c0,1.242.569,1.708,1.449,1.708s1.449-.466,1.449-1.708v-2.847h2.743v2.64c0,2.9-1.5,4.555-4.3,4.555S908,520.992,908,518.145Z" transform="translate(-143.172 -0.048)"/><path class="a" d="M932.754,506.64H929.7V504h9.058v2.64H935.7v15.994h-2.95Z" transform="translate(-153.639 -0.241)"/><path class="a" d="M953,504h2.95v18.634H953Z" transform="translate(-164.879 -0.241)"/><path class="a" d="M965.5,517.993V508.21c0-3,1.553-4.71,4.451-4.71s4.452,1.708,4.452,4.71v9.783c0,3-1.553,4.71-4.452,4.71S965.5,520.944,965.5,517.993Zm5.953.155V508c0-1.346-.569-1.812-1.5-1.812s-1.5.518-1.5,1.812v10.145c0,1.346.569,1.812,1.5,1.812S971.453,519.494,971.453,518.148Z" transform="translate(-170.909 0)"/><path class="a" d="M989.6,504h3.675l2.847,11.129h.052V504h2.588v18.634h-3l-3.52-13.613h-.052v13.613H989.6Z" transform="translate(-182.534 -0.241)"/><path class="a" d="M1013.7,518.042v-1.087h2.743v1.294c0,1.346.569,1.812,1.5,1.812s1.5-.466,1.5-1.863c0-1.553-.569-2.536-2.485-4.193-2.433-2.174-3.261-3.675-3.261-5.8,0-2.95,1.5-4.607,4.348-4.607s4.244,1.708,4.244,4.71v.776h-2.743V508.1c0-1.346-.518-1.812-1.449-1.812s-1.449.518-1.449,1.76c0,1.346.621,2.329,2.536,4.037,2.433,2.174,3.209,3.623,3.209,5.953,0,3.054-1.553,4.762-4.4,4.762S1013.7,520.992,1013.7,518.042Z" transform="translate(-194.16 -0.048)"/><path class="b" d="M614.875,553.594H611.2V552.3h8.851v1.294h-3.675v10.352h-1.449V553.594Z" transform="translate(0 -23.54)"/><path class="b" d="M640.182,558.615h-6.832v5.331H631.9V552.3h1.449v5.021h6.832V552.3h1.449v11.646h-1.449Z" transform="translate(-9.985 -23.54)"/><path class="b" d="M662.841,561.358h-5.9l-1.035,2.588h-1.6l4.659-11.646h1.812l4.71,11.646h-1.6Zm-5.487-1.294h5.021l-2.536-6.47Z" transform="translate(-20.791 -23.54)"/><path class="b" d="M678.675,553.594H675V552.3h8.8v1.294h-3.675v10.352h-1.449V553.594Z" transform="translate(-30.776 -23.54)"/><path class="b" d="M715.038,554.267l-3.986,9.679h-.569l-3.934-9.679v9.679H705.1V552.3h2.07l3.623,8.851,3.623-8.851h2.07v11.646h-1.449Z" transform="translate(-45.296 -23.54)"/><path class="b" d="M739.241,561.358h-5.9l-1.035,2.588h-1.6l4.659-11.646h1.812l4.71,11.646h-1.6Zm-5.435-1.294h5.021l-2.536-6.47Z" transform="translate(-57.645 -23.54)"/><path class="b" d="M755.875,553.594H752.2V552.3h8.851v1.294h-3.779v10.352h-1.449V553.594Z" transform="translate(-68.016 -23.54)"/><path class="b" d="M775.675,553.594H772V552.3h8.851v1.294h-3.675v10.352h-1.449V553.594Z" transform="translate(-77.567 -23.54)"/><path class="b" d="M792.8,552.3h7.609v1.294h-6.16v3.727h6.056v1.294h-6.056v4.037h6.16v1.294H792.8Z" transform="translate(-87.601 -23.54)"/><path class="b" d="M816.479,559.24h-2.329v4.607H812.7V552.2h4.659a3.369,3.369,0,0,1,3.623,3.52,3.2,3.2,0,0,1-3,3.364l3.157,4.762h-1.708Zm.725-5.694h-3.054V558H817.2a2.175,2.175,0,0,0,2.329-2.226A2.2,2.2,0,0,0,817.2,553.546Z" transform="translate(-97.2 -23.492)"/></g></svg>