<svg xmlns="http://www.w3.org/2000/svg" width="87.241" height="90" viewBox="0 0 87.241 90"><defs><style>.a{fill:#80e315;}</style></defs><g transform="translate(-608.704 -255.849)"><path class="a" d="M619.19,315.91a33.734,33.734,0,0,0-.862,4.014,4.071,4.071,0,0,0,.309,8.088c2.442,9.143,10.948,10,19.92,7.245,4.159,7.559,10.8,13.064,18.485,9.46a4.077,4.077,0,0,0,6.212-5.188,31.213,31.213,0,0,0,2.787-4.182,27.941,27.941,0,0,0,7.573,1.148c.059,0,.118,0,.176,0a4.09,4.09,0,0,0,7.859-1.591,4.037,4.037,0,0,0-.057-.563,11.221,11.221,0,0,0,5.073-8.347,24.506,24.506,0,0,0-1.179-10.094c7.142-3.988,10.9-9.152,10.418-14.583-.435-4.939-4.149-9.4-10.412-12.88a28.069,28.069,0,0,0,1.123-7.245,4.063,4.063,0,0,0-1.9-7.881,11.034,11.034,0,0,0-7.643-5.28,23.513,23.513,0,0,0-10.978,1.056c-2.618-4.849-6.029-8.537-10.35-9.939a4.077,4.077,0,0,0-8.068.481c-3.739,1.71-6.761,5.137-9.137,9.451-6.761-2.021-12.963-1.815-17.048,2.27-4.3,4.3-4.424,10.548-2.381,17.178-6.507,3.64-10.159,8.23-10.391,13.207-.244,5.25,3.476,10.263,10.475,14.179Zm7.53-26.01a4.094,4.094,0,0,0,4.09-4.091c0-.008,0-.015,0-.024.689-.2,1.408-.383,2.168-.566a80.152,80.152,0,0,0-1.239,8.479c-1.775,2.137-3.479,4.382-5.045,6.705a57.5,57.5,0,0,1-5.371-11c.708-.362,1.455-.709,2.225-1.046A4.066,4.066,0,0,0,626.72,289.9Zm-2.272-4.091a2.272,2.272,0,1,1,2.272,2.273A2.274,2.274,0,0,1,624.448,285.809Zm53.111,28.22a4.094,4.094,0,0,0-4.09,4.09,4.018,4.018,0,0,0,.058.574q-.922.254-1.863.481c.564-2.826.969-5.674,1.239-8.459,1.736-2.115,3.432-4.376,5.008-6.729a59.044,59.044,0,0,1,5.361,11.036c-.7.355-1.44.7-2.2,1.03a4.078,4.078,0,0,0-3.509-2.023Zm2.272,4.09a2.272,2.272,0,1,1-2.272-2.272A2.275,2.275,0,0,1,679.831,318.119Zm-46.336-23.653a90.913,90.913,0,0,1,11.024-11.1,90.52,90.52,0,0,1,15.445-.016,72.254,72.254,0,0,1,11.153,11.075,80.36,80.36,0,0,1,.032,15.564,79.987,79.987,0,0,1-11.084,11.03,90.688,90.688,0,0,1-15.556-.034,80.1,80.1,0,0,1-10.969-11.019,86.921,86.921,0,0,1-.045-15.5Zm.344-3.21c.262-2.011.632-4.21,1.123-6.481,2.073-.442,4.214-.8,6.4-1.075A95.233,95.233,0,0,0,633.839,291.256Zm29.412-7.562c2.187.273,4.329.631,6.4,1.071.448,2.135.808,4.284,1.089,6.395A75.9,75.9,0,0,0,663.251,283.694ZM641.32,320.642c-2.162-.272-4.28-.625-6.333-1.054-.442-2.076-.809-4.226-1.094-6.426a74.983,74.983,0,0,0,7.427,7.48Zm2.549,2.17c2.1,1.721,4.335,3.4,6.662,4.959A59.6,59.6,0,0,1,639.5,333.1a55.443,55.443,0,0,1-4.06-11.518,82.413,82.413,0,0,0,8.429,1.23Zm3.222.244a86.755,86.755,0,0,0,10.375.007c-1.706,1.289-3.464,2.515-5.245,3.657C650.457,325.562,648.74,324.329,647.091,323.056Zm13.621-.232a81.6,81.6,0,0,0,8.581-1.255,52.651,52.651,0,0,1-4.133,11.621,53.292,53.292,0,0,1-11.279-5.414c2.347-1.529,4.644-3.2,6.831-4.952Zm2.556-2.137a78.586,78.586,0,0,0,7.534-7.5c-.272,2.14-.624,4.3-1.072,6.431C667.628,320.06,665.467,320.415,663.268,320.687Zm9.893-13.2A77.692,77.692,0,0,0,673.144,297c1.3,1.719,2.551,3.5,3.717,5.308-1.17,1.782-2.415,3.516-3.7,5.179Zm-.306-13.825c-.29-2.749-.718-5.607-1.3-8.459a53.76,53.76,0,0,1,11.765,4.17A53.036,53.036,0,0,1,677.95,300.6C676.372,298.2,674.655,295.872,672.855,293.659ZM660.749,281.6c-2.148-1.731-4.437-3.4-6.8-4.96a59.61,59.61,0,0,1,11.294-5.41,56.083,56.083,0,0,1,3.976,11.592,80.945,80.945,0,0,0-8.471-1.222Zm-3.361-.251a92.932,92.932,0,0,0-10.37.017c1.631-1.249,3.369-2.472,5.172-3.631C653.986,278.89,655.731,280.107,657.388,281.347Zm-13.6.262a81.119,81.119,0,0,0-8.381,1.218,56.815,56.815,0,0,1,4.052-11.553,59.64,59.64,0,0,1,11.042,5.4,75.817,75.817,0,0,0-6.713,4.936Zm-12.3,15.342a90.092,90.092,0,0,0,0,10.432c-1.292-1.694-2.541-3.454-3.711-5.252C628.938,300.371,630.181,298.637,631.49,296.951Zm.248,13.629a83.265,83.265,0,0,0,1.251,8.56,53.151,53.151,0,0,1-11.618-4.125,52.6,52.6,0,0,1,5.37-11.247c1.61,2.419,3.311,4.717,5,6.812Zm-15.067,13.372a2.272,2.272,0,1,1,2.273,2.273A2.274,2.274,0,0,1,616.671,323.952Zm3.776,3.8a4.07,4.07,0,0,0-.3-7.685,30.8,30.8,0,0,1,.7-3.28,56.808,56.808,0,0,0,12.573,4.364,57.854,57.854,0,0,0,4.309,12.527C630.025,335.957,622.637,335.445,620.447,327.748ZM659.817,344a2.272,2.272,0,1,1,2.273-2.273A2.275,2.275,0,0,1,659.817,344Zm2.126-5.75a4.049,4.049,0,0,0-2.126-.613,4.066,4.066,0,0,0-3.807,5.556c-6.582,2.872-12.165-2.22-15.683-8.524a63.621,63.621,0,0,0,11.855-5.824,56.9,56.9,0,0,0,12.09,5.951,29.387,29.387,0,0,1-2.329,3.454Zm15.616-1.081a2.273,2.273,0,1,1,2.272-2.272A2.275,2.275,0,0,1,677.559,337.173Zm7.3-11.417a9.521,9.521,0,0,1-3.928,6.841,4.075,4.075,0,0,0-7.442,2.075,26.02,26.02,0,0,1-6.577-.963,56.207,56.207,0,0,0,4.326-12.571q1.48-.342,2.923-.74a4.089,4.089,0,0,0,7.485-2.279c0-.111-.024-.215-.033-.324q1.153-.5,2.221-1.03a22.231,22.231,0,0,1,1.025,8.991Zm9.232-24.283c.406,4.611-2.892,9.089-9.181,12.672a61.643,61.643,0,0,0-5.885-11.871,56.875,56.875,0,0,0,5.908-12.031C690.422,293.388,693.725,297.294,694.094,301.473ZM687.55,277.34a2.272,2.272,0,1,1-2.272-2.272A2.275,2.275,0,0,1,687.55,277.34Zm-10.828-7.529a9.3,9.3,0,0,1,6.261,4.146,4.074,4.074,0,0,0,1.813,7.425,26.248,26.248,0,0,1-.94,6.2,57.335,57.335,0,0,0-12.723-4.352,60.108,60.108,0,0,0-4.221-12.528,21.4,21.4,0,0,1,9.81-.889ZM651.73,257.667a2.272,2.272,0,1,1-2.272,2.272A2.275,2.275,0,0,1,651.73,257.667Zm-3.778,3.831a4.075,4.075,0,0,0,7.7-.471c3.589,1.335,6.477,4.483,8.757,8.6a63.324,63.324,0,0,0-12.151,5.924,61.49,61.49,0,0,0-11.951-5.9c2.018-3.61,4.537-6.567,7.642-8.152Zm-25.18,11.133c3.549-3.548,8.971-3.682,14.913-1.927a58.42,58.42,0,0,0-4.287,12.55c-1.075.244-2.075.5-3.019.763a4.074,4.074,0,0,0-7.637,2.708q-1.024.45-1.982.927c-1.757-6.022-1.547-11.462,2.012-15.021ZM619.7,290.285a61.836,61.836,0,0,0,5.926,11.757,54.748,54.748,0,0,0-5.9,12.088c-6.142-3.527-9.4-7.871-9.2-12.314.2-4.186,3.475-8.253,9.165-11.531Z"/><path class="a" d="M646.57,299.228h1.335v1.818H646.57Z"/><path class="a" d="M650.179,299.228h1.334v1.818h-1.334Z"/><path class="a" d="M654.03,299.228h1.335v1.818H654.03Z"/><path class="a" d="M657.638,299.228h1.335v1.818h-1.335Z"/><path class="a" d="M646.57,307.525h1.335v1.818H646.57Z"/><path class="a" d="M650.179,307.525h1.334v1.818h-1.334Z"/><path class="a" d="M654.03,307.525h1.335v1.818H654.03Z"/><path class="a" d="M657.638,307.525h1.335v1.818h-1.335Z"/><path class="a" d="M652.771,313.831c6.058,0,12.18-1.649,12.308-4.8h.012V292.979c0-3.215-6.2-4.9-12.32-4.9s-12.319,1.682-12.319,4.9v15.955C640.452,312.149,646.649,313.831,652.771,313.831Zm0-1.818c-6.41,0-10.5-1.824-10.5-3.079v-5.3c2.284,1.462,6.4,2.219,10.5,2.219s8.217-.757,10.5-2.219v5.3c0,1.255-4.091,3.079-10.5,3.079Zm0-22.113c6.411,0,10.5,1.824,10.5,3.079s-4.091,3.08-10.5,3.08-10.5-1.824-10.5-3.08S646.361,289.9,652.771,289.9Zm-10.5,5.758c2.284,1.462,6.4,2.219,10.5,2.219s8.217-.757,10.5-2.219v5.3c0,1.256-4.091,3.08-10.5,3.08s-10.5-1.824-10.5-3.08Z"/></g></svg>