<svg xmlns="http://www.w3.org/2000/svg" width="53.078" height="90" viewBox="0 0 53.078 90"><defs><style>.a{fill:#80e315;}</style></defs><g transform="translate(-518.851 -258.64)"><path class="a" d="M555.1,325.035c7.4-11.683,16.825-28.749,16.825-39.864a26.534,26.534,0,0,0-53.068,0c0,11.115,9.428,28.179,16.826,39.862-10.15,1.781-16.836,6.244-16.836,11.393,0,6.849,11.658,12.214,26.538,12.214s26.538-5.365,26.532-12.215C571.921,331.28,565.243,326.819,555.1,325.035Zm-9.715-63.826a23.991,23.991,0,0,1,23.963,23.962c0,15.042-19.242,43.052-23.963,49.7-4.721-6.643-23.963-34.653-23.963-49.7A23.991,23.991,0,0,1,545.389,261.209Zm0,84.86c-14.335,0-23.966-4.986-23.966-9.643,0-3.889,6.592-7.626,15.78-9.029,3.816,5.879,6.808,9.961,7.157,10.435a1.287,1.287,0,0,0,2.07,0c.35-.473,3.342-4.554,7.157-10.433,9.185,1.406,15.768,5.141,15.768,9.027C569.355,341.083,559.724,346.069,545.389,346.069Z"/><path class="a" d="M545.389,303.639a18,18,0,1,1,18-18A18,18,0,0,1,545.389,303.639Zm0-33.429a15.429,15.429,0,1,0,15.429,15.429A15.429,15.429,0,0,0,545.389,270.21Z"/></g></svg>