<svg xmlns="http://www.w3.org/2000/svg" width="90" height="90" viewBox="0 0 90 90"><defs><style>.a{fill:#80e315;}</style></defs><g transform="translate(-390.274 -262.838)"><g transform="translate(450.061 283.02)"><path class="a" d="M439.507,277.284l-3.737,8.194h3.261v-3.327h1.409v3.327h1.033v1.278H440.44v1.836h-1.409v-1.836h-4.9v-1.032l3.982-8.44Z" transform="translate(-434.131 -277.153)"/><path class="a" d="M449.012,285.461a3.245,3.245,0,1,1-6.49-.016V280.43a3.245,3.245,0,1,1,6.49-.016Zm-3.245-7.03a1.845,1.845,0,0,0-1.852,1.983v5.047a1.849,1.849,0,1,0,3.688,0v-5.047A1.842,1.842,0,0,0,445.767,278.431Z" transform="translate(-434.131 -277.153)"/><path class="a" d="M450.109,280.4H452.7v-2.606h1.181V280.4h2.606v1.18h-2.606v2.59H452.7v-2.59h-2.589Z" transform="translate(-434.131 -277.153)"/></g><path class="a" d="M452.207,307.372a20.287,20.287,0,1,0-8.444-30.866c-3.676-2.121-6.685-3.862-6.734-3.911-.018-.006-.036-.014-.053-.022a.663.663,0,0,1-.333-.877,7.1,7.1,0,0,0-1.156-6.034,7.5,7.5,0,0,0-5.395-2.824,6.932,6.932,0,0,0-5.395,2.7,6.843,6.843,0,0,0-1.156,6.034.784.784,0,0,1-.385.9c-.128,0-20.166,11.555-20.294,11.683a.474.474,0,0,1-.385.128.975.975,0,0,1-.514-.257,6.833,6.833,0,1,0-6.551,11.427.815.815,0,0,1,.642.77v23.367a.816.816,0,0,1-.642.77,6.849,6.849,0,0,0,1.67,13.481,7.022,7.022,0,0,0,4.881-2.054.665.665,0,0,1,.514-.257.47.47,0,0,1,.385.128l10.147,5.777,10.019,5.777.053.021a.664.664,0,0,1,.333.878,7.1,7.1,0,0,0,1.156,6.034,6.753,6.753,0,0,0,5.395,2.7,7.652,7.652,0,0,0,5.523-2.439,6.848,6.848,0,0,0,1.156-6.034,1,1,0,0,1,.385-.9l20.166-11.683a.469.469,0,0,1,.385-.128.97.97,0,0,1,.514.257,7.022,7.022,0,0,0,4.881,2.054,6.851,6.851,0,0,0,6.807-6.8,6.754,6.754,0,0,0-5.138-6.676.814.814,0,0,1-.642-.77V308.606a20.4,20.4,0,0,1-2.055.248v10.6a.816.816,0,0,1-.642.77,5.95,5.95,0,0,0-2.954,1.541.979.979,0,0,1-.514.257.473.473,0,0,1-.385-.128l-9.248-5.136a.77.77,0,0,1-.257-1.027Zm7.043,16.836a4.348,4.348,0,0,1,3.725-1.926q.091,0,.181,0a4.661,4.661,0,0,1,4.571,4.75v.039a4.6,4.6,0,0,1-4.624,4.583,4.824,4.824,0,0,1-4.5-3.338A4.281,4.281,0,0,1,459.249,324.207Zm.732-53.7a18.135,18.135,0,1,1-18.141,18.135A18.16,18.16,0,0,1,459.981,270.509ZM425.34,307.735a4.6,4.6,0,0,1,4.624-4.583c.067,0,.135,0,.2,0a4.523,4.523,0,0,1,4.422,4.622c0,.036,0,.072,0,.109a4.634,4.634,0,0,1-4.625,4.641,4.714,4.714,0,0,1-4.624-4.75Zm-.514-4.712a.473.473,0,0,1-.385-.128l-16.055-10.656a.791.791,0,0,1-.257-.9.865.865,0,0,1,.771-.514V290.7h19.266a.828.828,0,0,1,.771.77v8.987a.816.816,0,0,1-.642.77,5.955,5.955,0,0,0-2.954,1.541A.979.979,0,0,1,424.826,303.023Zm6.294,12.325a.813.813,0,0,1,.642-.77,6.759,6.759,0,0,0,3.339-1.926.665.665,0,0,1,.514-.257.47.47,0,0,1,.385.128l8.092,4.494a.771.771,0,0,1,.257,1.027l-10.918,21.312a.71.71,0,0,1-.642.385h-.257c-.257-.128-.514-.128-.771-.257a.814.814,0,0,1-.642-.77Zm4.624-11.683a.983.983,0,0,1-.642-.257,6.983,6.983,0,0,0-3.339-2.054.814.814,0,0,1-.642-.77V291.6a.826.826,0,0,1,.771-.77V290.7h7.9a20.138,20.138,0,0,0,3.245,9.078l-6.91,3.76A.474.474,0,0,1,435.744,303.665Zm-.771-29.144a.665.665,0,0,1,.514-.257c.128,0,.257.128.514.128l6.606,3.827a20.13,20.13,0,0,0-2.916,10.424h-7.8a.828.828,0,0,1-.771-.77V277.217a.813.813,0,0,1,.642-.77A8.294,8.294,0,0,0,434.974,274.521Zm-9.633-4.789a4.6,4.6,0,0,1,4.624-4.583h.023a4.74,4.74,0,0,1,4.729,4.75v.039a4.6,4.6,0,0,1-4.624,4.583c-.385,0-.771-.128-1.156-.128a4.815,4.815,0,0,1-3.6-4.622Zm-21.45,16.344,20.294-11.683a.47.47,0,0,1,.385-.128.97.97,0,0,1,.514.257,6.981,6.981,0,0,0,3.211,1.926.815.815,0,0,1,.642.77v10.656a.829.829,0,0,1-.771.77H404.532a.829.829,0,0,1-.771-.77c-.128,0-.128-.385-.257-.9A.781.781,0,0,1,403.89,286.076Zm-.9,6.163c.128-.257.257-.385.514-.385h.771l19.138,12.71a.737.737,0,0,1,.257.9,6.6,6.6,0,0,0-.257,3.852.784.784,0,0,1-.385.9l-8.22,4.237a.474.474,0,0,1-.385.128h-.257c-.257,0-.385-.257-.514-.385l-10.789-21.056A1.123,1.123,0,0,1,402.991,292.239Zm-10.661-3.466v-.039a4.639,4.639,0,0,1,8.092-3.043,4.994,4.994,0,0,1,1.156,3.723,4.645,4.645,0,0,1-4.11,4.108h-.514A4.714,4.714,0,0,1,392.33,288.772Zm8.734,40.314a4.757,4.757,0,0,1-4.11,2.439,4.622,4.622,0,1,1,0-9.244c.128,0,.385,0,.385-.128a4.512,4.512,0,0,1,3.725,2.439A4.656,4.656,0,0,1,401.064,329.086Zm.642-7.7a.644.644,0,0,1-.771,0,6.812,6.812,0,0,0-2.184-1.027.814.814,0,0,1-.642-.77V296.219a.813.813,0,0,1,.642-.77,9.043,9.043,0,0,0,1.67-.642.47.47,0,0,1,.385-.128h.257c.257,0,.385.257.514.385l10.276,20.157a.86.86,0,0,1-.385,1.027Zm22.478,19.387a.673.673,0,0,1-.514.257.474.474,0,0,1-.385-.128l-9.248-5.392-10.147-5.777c-.018-.006-.036-.014-.053-.022a.663.663,0,0,1-.333-.877,7.12,7.12,0,0,0-.514-4.879.86.86,0,0,1,.385-1.027l8.991-4.622a.47.47,0,0,1,.385-.128h.128c.257,0,.385.257.514.385,10.661,20.67,10.918,21.312,10.918,21.312A.792.792,0,0,1,424.184,340.77Zm-8.863-23.238a.86.86,0,0,1,.385-1.027l8.22-4.237a.47.47,0,0,1,.385-.128c.257,0,.385.128.385.257a7.381,7.381,0,0,0,3.468,2.054.813.813,0,0,1,.642.77v23.367a.816.816,0,0,1-.642.77,1.806,1.806,0,0,0-.771.257h-.257a.708.708,0,0,1-.642-.385Zm17.725,32.053a4.623,4.623,0,1,1-6.165-6.889,509.468,509.468,0,0,1,.257-.257,4.486,4.486,0,0,1,2.826-1.027,3.862,3.862,0,0,1,2.826,1.027.128.128,0,0,0,.128.128l.128.128a4.621,4.621,0,0,1,0,6.889Zm22.991-25.762a.437.437,0,0,1,.053.021.664.664,0,0,1,.333.878,6.4,6.4,0,0,0-.128,4.108.784.784,0,0,1-.385.9c-.128,0-19.395,11.17-19.395,11.17a.474.474,0,0,1-.385.128.974.974,0,0,1-.514-.257.787.787,0,0,1-.128-.9l10.661-20.8c.128-.128.257-.385.514-.385h.257c.128,0,.257,0,.257.128Zm-9.89-8.987c-.128.128-.257.385-.514.385h-.257a.473.473,0,0,1-.385-.128l-7.964-4.494c-.018-.006-.036-.014-.053-.022a.663.663,0,0,1-.333-.877,7.89,7.89,0,0,0,0-3.466.781.781,0,0,1,.385-.9l7.246-3.871a20.43,20.43,0,0,0,6.128,5.052Z" transform="translate(0)"/></g></svg>