<svg aria-hidden="true" style="position: absolute; width: 0; height: 0; overflow: hidden;" version="1.1" xmlns="http://www.w3.org/2000/svg" xmlns:xlink="http://www.w3.org/1999/xlink">
<defs>

<symbol id="icon_down-arrow-circle" viewBox="0 0 24 24">
  <path d="M12 24C5.383 24 0 18.617 0 12S5.383 0 12 0s12 5.383 12 12-5.383 12-12 12zm0-23C5.935 1 1 5.935 1 12s4.935 11 11 11 11-4.935 11-11S18.065 1 12 1z"/>
  <path d="M12 19a.5.5 0 01-.5-.5v-13a.5.5 0 011 0v13a.5.5 0 01-.5.5z"/>
  <path d="M12 19a.502.502 0 01-.354-.146l-4-4a.5.5 0 01.707-.707L12 17.793l3.646-3.646a.5.5 0 01.707.707l-4 4A.498.498 0 0112 19z"/>
</symbol>
<symbol id="icon_next"
	 viewBox="0 0 512.002 512.002" style="enable-background:new 0 0 512.002 512.002;" xml:space="preserve">
<g>
	<g>
		<path d="M388.425,241.951L151.609,5.79c-7.759-7.733-20.321-7.72-28.067,0.04c-7.74,7.759-7.72,20.328,0.04,28.067l222.72,222.105
			L123.574,478.106c-7.759,7.74-7.779,20.301-0.04,28.061c3.883,3.89,8.97,5.835,14.057,5.835c5.074,0,10.141-1.932,14.017-5.795
			l236.817-236.155c3.737-3.718,5.834-8.778,5.834-14.05S392.156,245.676,388.425,241.951z"/>
	</g>
</g><g></g><g></g><g></g><g></g><g></g><g></g><g></g><g></g><g></g><g></g><g></g><g></g><g></g><g></g><g></g>
</symbol>
<symbol  id="icon_back_arrow" viewBox="0 0 476.213 476.213" style="enable-background:new 0 0 476.213 476.213;" xml:space="preserve">
<polygon points="476.213,223.107 57.427,223.107 151.82,128.713 130.607,107.5 0,238.106 130.607,368.714 151.82,347.5
	57.427,253.107 476.213,253.107 "/>
<g></g><g></g><g></g><g></g><g></g><g></g><g></g><g></g><g></g><g></g><g></g><g></g><g></g><g></g><g></g>
</symbol>

<symbol id="icon-twitter" viewBox="0 0 40 40"><defs><style>.a{fill:#0d345b;}</style></defs><path class="a" d="M6141,11049a19.931,19.931,0,1,1,7.784-1.571A19.874,19.874,0,0,1,6141,11049Zm-11-13.149h0a12.788,12.788,0,0,0,6.918,2.025,12.991,12.991,0,0,0,5.509-1.168,12.135,12.135,0,0,0,4.025-3.016,13.282,13.282,0,0,0,3.308-8.657c0-.226,0-.412-.011-.585a9.077,9.077,0,0,0,2.249-2.335,9.014,9.014,0,0,1-2.59.71,4.534,4.534,0,0,0,1.985-2.5,9.149,9.149,0,0,1-2.867,1.1,4.516,4.516,0,0,0-7.809,3.086,4.479,4.479,0,0,0,.117,1.029,12.851,12.851,0,0,1-9.3-4.717,4.512,4.512,0,0,0,1.4,6.025,4.482,4.482,0,0,1-2.043-.563.393.393,0,0,0,0,.059,4.521,4.521,0,0,0,3.622,4.423,4.472,4.472,0,0,1-1.19.161,4.569,4.569,0,0,1-.848-.083,4.512,4.512,0,0,0,4.217,3.136,9,9,0,0,1-5.606,1.933A9.38,9.38,0,0,1,6130,11035.852Z" transform="translate(-6121 -11009.001)"/>
</symbol>

<symbol id="icon-facebook" viewBox="0 0 40 40"><defs><style>.a{fill:#0d345b;}</style></defs><g transform="translate(51.999 -6.001)"><path class="a" d="M5465.24,10186h0a19.979,19.979,0,0,1-12.021-6.739,20.187,20.187,0,0,1,1.006-27.368,20.012,20.012,0,0,1,34.142,14.228,20.2,20.2,0,0,1-4.852,13.141,19.979,19.979,0,0,1-12.024,6.738v-14.062h4.66l.887-5.817h-5.547v-3.772a3.271,3.271,0,0,1,.7-2.169,3.212,3.212,0,0,1,2.562-.975h2.521v-4.951a30.55,30.55,0,0,0-4.478-.393,7.515,7.515,0,0,0-5.49,2.023,8.018,8.018,0,0,0-2.063,5.806v4.431h-5.078v5.817h5.078V10186Z" transform="translate(-5500.365 -10140)"/></g>
</symbol>

<symbol id="icon-linkedin" viewBox="0 0 40 40"><defs><style>.a{fill:#0d345b;}</style></defs><path class="a" d="M61,41A20,20,0,1,0,81,61,20,20,0,0,0,61,41ZM55.472,71.365H50.635V57.545h4.837ZM53.053,55.472a2.419,2.419,0,1,1,2.419-2.419,2.419,2.419,0,0,1-2.419,2.419ZM71.365,71.365H67.219V64.631c0-1.606-.178-3.672-2.379-3.672-2.235,0-2.577,1.749-2.577,3.555v6.85H58.236V57.545h3.853V59.41h.059c.574-1.089,1.976-1.865,4.065-1.865,4.347,0,5.151,2.5,5.151,6.225Z" transform="translate(-41 -41)"/>
</symbol>

<symbol id="icon-mail" viewBox="0 0 40 40"><defs><style>.a{fill:#0d345b;}</style></defs><path class="a" d="M6141,11049a19.931,19.931,0,1,1,7.784-1.571A19.874,19.874,0,0,1,6141,11049Zm-8-28a2,2,0,0,0-1.991,2l-.011,12a2,2,0,0,0,2,2h16a2,2,0,0,0,2-2v-12a2,2,0,0,0-2-2Zm8,9h0l-8-5v-2l8,5,8-5v2l-8,5Z" transform="translate(-6121 -11009.001)"/>
</symbol>

<symbol id="icon-back-arrow-strong" viewBox="0 0 40 40"><defs><style>.a{fill:#80e315;}</style></defs><path class="a" d="M20.563,40.563a20,20,0,1,1,20-20A20,20,0,0,1,20.563,40.563Zm9.355-23.548H20.563V11.3a.968.968,0,0,0-1.653-.685L9.692,19.877a.959.959,0,0,0,0,1.363l9.218,9.266a.968.968,0,0,0,1.653-.685v-5.71h9.355a.971.971,0,0,0,.968-.968V17.982A.971.971,0,0,0,29.917,17.014Z" transform="translate(-0.563 -0.563)"/>
</symbol>

<symbol id="icon-mobile-cloud" viewBox="0 0 100.003 100"><defs><style>.a{fill:#80e315;}</style></defs><g transform="translate(-399 -962)"><g transform="translate(1017.416 720.635)"><rect class="a" width="10.479" height="2.159" transform="translate(-573.674 288.599)"/><rect class="a" width="10.479" height="2.159" transform="translate(-573.674 330.888)"/><path class="a" d="M-581.988,341.365a7.665,7.665,0,0,1-7.657-7.655V310.877h-7.593a21.127,21.127,0,0,1-20.622-16.389,21.228,21.228,0,0,1,15.843-25.465l.7-.163-.077-.717a20.275,20.275,0,0,1-.115-2.182,24.725,24.725,0,0,1,11.876-21.046,24.562,24.562,0,0,1,12.7-3.551,24.44,24.44,0,0,1,21.079,11.874l.3.5.573-.13a15.548,15.548,0,0,1,3.447-.387,16.189,16.189,0,0,1,16.129,15.091l.05.761h.67A21.108,21.108,0,0,1-518.413,289.7a21.221,21.221,0,0,1-21.2,21.175h-7.613V333.71a7.665,7.665,0,0,1-7.658,7.655Zm0-57.589a5.928,5.928,0,0,0-5.9,5.894v44.04a5.928,5.928,0,0,0,5.9,5.9h27.112a5.929,5.929,0,0,0,5.9-5.893V289.671a5.929,5.929,0,0,0-5.9-5.9Zm5.061-40.672a22.7,22.7,0,0,0-16.145,6.7,22.681,22.681,0,0,0-6.673,16.151,21.6,21.6,0,0,0,.3,3.522.9.9,0,0,1-.164.644.875.875,0,0,1-.576.346A19.324,19.324,0,0,0-616.7,289.7a19.461,19.461,0,0,0,19.44,19.414h7.611V289.671a7.665,7.665,0,0,1,7.658-7.654h27.109a7.665,7.665,0,0,1,7.658,7.654v19.444l7.779,0a19.38,19.38,0,0,0,18.987-16.2,19.294,19.294,0,0,0-3.33-14.493,19.308,19.308,0,0,0-12.607-7.9.878.878,0,0,1-.744-.873s.017-.254.017-.289a14.334,14.334,0,0,0-.629-4.209A14.3,14.3,0,0,0-551.5,254.978a14.374,14.374,0,0,0-4.212.633.907.907,0,0,1-.282.047.852.852,0,0,1-.757-.459,22.8,22.8,0,0,0-20.157-12.1Z" transform="translate(0 0)"/><path class="a" d="M-587.238,270.559a19.854,19.854,0,0,1,18.774-18.765v2.161a17.689,17.689,0,0,0-16.611,16.6Z" transform="translate(-6.821 -0.004)"/><path class="a" d="M-573.294,345.035a1.081,1.081,0,0,1-1.08-1.08V311.469a1.081,1.081,0,0,1,1.08-1.081h32.5a1.081,1.081,0,0,1,1.079,1.081v32.487a1.081,1.081,0,0,1-1.079,1.08Zm1.083-2.157h30.338V312.551h-30.338Z" transform="translate(-11.372 -17.84)"/></g></g>
</symbol>

<symbol id="icon-mobile-wi-fi" viewBox="0 0 49.789 90"><defs><style>.a{fill:#80e315;}</style></defs><g transform="translate(472.998 -242.365)"><path class="a" d="M-465.933,332.365A7.073,7.073,0,0,1-473,325.3v-75.87a7.073,7.073,0,0,1,7.065-7.066h35.659a7.073,7.073,0,0,1,7.066,7.066v3.225a1,1,0,0,1-1,1,1,1,0,0,1-1-1v-3.225a5.08,5.08,0,0,0-5.074-5.074h-29.793l1.887,3.4a2.8,2.8,0,0,0,2.445,1.439h15.261a1,1,0,0,1,1,1,1,1,0,0,1-1,1h-15.261a4.794,4.794,0,0,1-4.187-2.463l-2.425-4.365h-3.587a5.08,5.08,0,0,0-5.073,5.074V325.3a5.079,5.079,0,0,0,5.073,5.073h35.659A5.079,5.079,0,0,0-425.2,325.3V285.374a1,1,0,0,1,1-1,1,1,0,0,1,1,1V325.3a7.073,7.073,0,0,1-7.066,7.065Z" transform="translate(0 0)"/><path class="a" d="M-407.243,292.06a3.253,3.253,0,0,1-3.041-2.044,3.247,3.247,0,0,1,.71-3.587,3.273,3.273,0,0,1,2.332-.967,3.273,3.273,0,0,1,2.333.967,3.245,3.245,0,0,1,.709,3.588A3.253,3.253,0,0,1-407.243,292.06Z" transform="translate(-33.757 -4.695)"/><path class="a" d="M-415.266,282.342a1.405,1.405,0,0,1-1-.414,1.406,1.406,0,0,1-.415-1,1.406,1.406,0,0,1,.415-1,13.179,13.179,0,0,1,9.379-3.889,13.173,13.173,0,0,1,9.377,3.889,1.369,1.369,0,0,1,.3,1.535,1.4,1.4,0,0,1-1.3.878,1.408,1.408,0,0,1-1-.414,10.363,10.363,0,0,0-7.378-3.058,10.365,10.365,0,0,0-7.378,3.058A1.407,1.407,0,0,1-415.266,282.342Z" transform="translate(-34.112 -5.24)"/><path class="a" d="M-390.074,274.963a1.4,1.4,0,0,1-1-.415,21.6,21.6,0,0,0-15.377-6.359,21.6,21.6,0,0,0-15.376,6.359,1.4,1.4,0,0,1-1,.415,1.4,1.4,0,0,1-1-.415,1.405,1.405,0,0,1-.415-1,1.41,1.41,0,0,1,.414-1,24.422,24.422,0,0,1,17.376-7.2,24.42,24.42,0,0,1,17.376,7.2,1.407,1.407,0,0,1,.415,1,1.409,1.409,0,0,1-.414,1A1.406,1.406,0,0,1-390.074,274.963Z" transform="translate(-34.549 -5.858)"/></g>
</symbol>

<symbol id="image-overlay-top" viewBox="0 0 1920 96" style="enable-background:new 0 0 1920 96;" xml:space="preserve">
<path class="st0" d="M1.3,48.4V0.1h1918v48.3C1919.3,48.4,986.9,156.3,1.3,48.4z"/>
</symbol>

<symbol id="image-overlay-bottom" viewBox="0 0 1920 96" style="enable-background:new 0 0 1920 96;" xml:space="preserve">
<path class="st0" d="M1.3,48v48.3h1918V48C1919.3,48,986.9-59.9,1.3,48z"/>
</symbol>

<symbol  id="icon-gift" viewBox="0 0 100 93.378"><defs><style>.a{fill:#80e315;}</style></defs><g transform="translate(-4.998 -21.527)"><path class="a" d="M203.124,32.511a5.347,5.347,0,0,0-3.8-1.584l-4.415-.008.6-.613a5.116,5.116,0,0,0-7.143-7.327l-.078.077L181,30.316l-5.346-5.366a5.081,5.081,0,0,0-3.615-1.505h-.01a5.12,5.12,0,0,0-4.568,7.423l-5.017-.009h-.01a5.383,5.383,0,0,0-5.383,5.374l-.011,5.929a1.2,1.2,0,0,0,1.193,1.2H160V64.7a5.39,5.39,0,0,0,5.384,5.384h30.964A5.39,5.39,0,0,0,201.73,64.7V43.36h1.758a1.2,1.2,0,0,0,1.2-1.193l.011-5.845A5.348,5.348,0,0,0,203.124,32.511Zm-13.155-7.76a2.726,2.726,0,0,1,3.837,3.873L191.582,30.9H183.8ZM170.1,26.631a2.708,2.708,0,0,1,1.924-.795h.005a2.709,2.709,0,0,1,1.926.8l4.234,4.25-7.766-.07-.331-.333a2.726,2.726,0,0,1,.007-3.855Zm4.372,41.061h-9.09A3,3,0,0,1,162.39,64.7V43.36h12.1Zm.014-26.723H159.429l.009-4.732a2.993,2.993,0,0,1,2.993-2.988h.006l12.055.022Zm10.635,26.723h-8.258l.013-24.332h8.258Zm.014-26.723h-8.258l0-7.693,8.258.015ZM199.34,64.7a3,3,0,0,1-2.993,2.993h-8.834l.013-24.332H199.34Zm2.955-23.729H187.526l0-7.673,11.786.022a2.993,2.993,0,0,1,2.988,3h0Z" transform="translate(-121.752)"/><path class="a" d="M93.647,297.2l-.635.342a7.16,7.16,0,0,0-8.567-2.226l-.027.014-1.337.72A9.349,9.349,0,0,0,72.3,295.022L65.534,298.7h-9a13.082,13.082,0,0,1-5.664-1.3l-1.232-.6a21,21,0,0,0-21.852,2.134c-.026.02-.052.04-.076.062l-2.974,2.648c-1.084.965-12.285,6.849-19.09,10.331a1.2,1.2,0,1,0,1.089,2.128c2.985-1.527,17.957-9.219,19.59-10.673l2.938-2.615A18.615,18.615,0,0,1,48.6,298.959l1.232.6a15.485,15.485,0,0,0,6.7,1.536H68.488a7.7,7.7,0,0,1,7.587,6.434l-8.841-.4a51.729,51.729,0,0,0-9.4.434,1.2,1.2,0,1,0,.3,2.371l.026,0a49.3,49.3,0,0,1,8.964-.414l10.192.461a1.2,1.2,0,0,0,1.248-1.14c0-.018,0-.037,0-.055,0-.245-.012-.488-.029-.729l1.48-.78,14.765-7.965a6,6,0,0,1,7.329,1.281L72.129,321.174a20.7,20.7,0,0,1-12.709,1.769l-17.922-3.3a7.849,7.849,0,0,0-5.732.779L17.809,330.686a1.2,1.2,0,1,0,1.176,2.081l.01-.006L36.942,322.5a5.466,5.466,0,0,1,4.012-.532q.037.01.075.016l17.962,3.308a23.106,23.106,0,0,0,14.274-2.015,1.188,1.188,0,0,0,.146-.086l31.068-21.332a1.2,1.2,0,0,0,.348-1.6A8.383,8.383,0,0,0,93.647,297.2Zm-20.192-.088.028-.016a6.958,6.958,0,0,1,7.289.2l-6.288,3.388a10.032,10.032,0,0,0-4.236-1.827Zm5.438,8.048-.841.444a10.07,10.07,0,0,0-1.751-3.184l9.237-4.977a4.723,4.723,0,0,1,5.32,1.262Z" transform="translate(0 -218.016)"/></g>
</symbol>


<symbol  id="icon_map" viewBox="0 0 12 16"><defs><style>.a{fill:#667179;}</style></defs><g transform="translate(-1118.973 3356.435)"><path class="a" d="M1122.8-3343.12c-.142-.182-.271-.348-.4-.515a39.262,39.262,0,0,1-2.358-3.2,6.476,6.476,0,0,1-.968-4.679,5.983,5.983,0,0,1,6.878-4.829,5.845,5.845,0,0,1,4.806,4.362,10.438,10.438,0,0,1,.215,1.14v.92c-.041.255-.074.511-.123.764a7.039,7.039,0,0,1-1.242,2.763c-.751,1.046-1.545,2.062-2.32,3.09-.044.058-.087.117-.141.191l-.6.778c-.413.552-.82,1.108-1.227,1.663-.23.314-.47.313-.7,0-.406-.557-.816-1.111-1.22-1.668Zm2.172,1.713c.036-.045.058-.072.079-.1.835-1.1,1.68-2.185,2.5-3.291.621-.835,1.252-1.668,1.81-2.546a5.555,5.555,0,0,0,.838-3.9,5.309,5.309,0,0,0-6.852-4.22,5.357,5.357,0,0,0-3.377,6.874,9.053,9.053,0,0,0,1.411,2.476c.877,1.161,1.774,2.305,2.659,3.46C1124.354-3342.251,1124.653-3341.836,1124.972-3341.407Z" transform="translate(0 0)"/><path class="a" d="M1223.612-3254.029a2.481,2.481,0,0,1-2.465,2.483,2.481,2.481,0,0,1-2.484-2.481,2.48,2.48,0,0,1,2.473-2.473A2.48,2.48,0,0,1,1223.612-3254.029Zm-.707.015a1.774,1.774,0,0,0-1.754-1.778,1.774,1.774,0,0,0-1.781,1.751,1.774,1.774,0,0,0,1.762,1.787A1.774,1.774,0,0,0,1222.9-3254.014Z" transform="translate(-96.165 -96.391)"/><path class="a" d="M1322.174-3304.966c0,.069,0,.122,0,.175a.359.359,0,0,1-.345.356.354.354,0,0,1-.358-.359,3.906,3.906,0,0,0-.237-1.351,3.844,3.844,0,0,0-2.282-2.316c-.213-.084-.316-.213-.3-.385a.361.361,0,0,1,.527-.286,4.537,4.537,0,0,1,2.389,2.027A4.557,4.557,0,0,1,1322.174-3304.966Z" transform="translate(-192.616 -45.594)"/><path class="a" d="M1280.17-3316a.359.359,0,0,1-.362.352.352.352,0,0,1-.341-.353.352.352,0,0,1,.359-.352A.359.359,0,0,1,1280.17-3316Z" transform="translate(-154.812 -38.663)"/></g></symbol>


<symbol id="icon_call" viewBox="0 0 512 512"><path fill="currentColor" d="M497.39 361.8l-112-48a24 24 0 0 0-28 6.9l-49.6 60.6A370.66 370.66 0 0 1 130.6 204.11l60.6-49.6a23.94 23.94 0 0 0 6.9-28l-48-112A24.16 24.16 0 0 0 122.6.61l-104 24A24 24 0 0 0 0 48c0 256.5 207.9 464 464 464a24 24 0 0 0 23.4-18.6l24-104a24.29 24.29 0 0 0-14.01-27.6z"></path></symbol>

<symbol id="magnifying_icon" viewBox="0 0 118.783 118.783" style="enable-background:new 0 0 118.783 118.783;" xml:space="preserve">
<g>
	<path d="M115.97,101.597L88.661,74.286c4.64-7.387,7.333-16.118,7.333-25.488c0-26.509-21.49-47.996-47.998-47.996
		S0,22.289,0,48.798c0,26.51,21.487,47.995,47.996,47.995c10.197,0,19.642-3.188,27.414-8.605l26.984,26.986
		c1.875,1.873,4.333,2.806,6.788,2.806c2.458,0,4.913-0.933,6.791-2.806C119.72,111.423,119.72,105.347,115.97,101.597z
		 M47.996,81.243c-17.917,0-32.443-14.525-32.443-32.443s14.526-32.444,32.443-32.444c17.918,0,32.443,14.526,32.443,32.444
		S65.914,81.243,47.996,81.243z"/>
</g><g></g><g></g><g></g><g></g><g></g><g></g><g></g><g></g><g></g><g></g><g></g><g></g><g></g><g></g><g></g></symbol>

<symbol id="icon-linkedin" viewBox="0 0 40 40"><defs><style>.a{fill:#0d345b;}</style></defs><path class="a" d="M61,41A20,20,0,1,0,81,61,20,20,0,0,0,61,41ZM55.472,71.365H50.635V57.545h4.837ZM53.053,55.472a2.419,2.419,0,1,1,2.419-2.419,2.419,2.419,0,0,1-2.419,2.419ZM71.365,71.365H67.219V64.631c0-1.606-.178-3.672-2.379-3.672-2.235,0-2.577,1.749-2.577,3.555v6.85H58.236V57.545h3.853V59.41h.059c.574-1.089,1.976-1.865,4.065-1.865,4.347,0,5.151,2.5,5.151,6.225Z" transform="translate(-41 -41)"/>
</symbol>

<symbol id="icon-checked"  viewBox="0 0 28 23" fill="none" xmlns="http://www.w3.org/2000/svg">
<path d="M2 10.6889L11.375 19L26 2" stroke="#6DB81E" stroke-width="5"/>
</symbol>
<!-- bottom curve gray for background end -->


<symbol id="icon_caret_down" xmlns="http://www.w3.org/2000/svg" viewBox="0 0 256 256"><rect /><polyline fill="none" stroke-linecap="round" stroke-linejoin="round" stroke-width="12" points="208 96 128 176 48 96"/></symbol>

</defs>
</svg>
