<svg xmlns="http://www.w3.org/2000/svg" width="1920.001" height="1110.263" viewBox="0 0 1920.001 1110.263"><defs><style>.a{fill:#f0efe8;}</style></defs><g transform="translate(0 -1661.919)"><path class="a" d="M2435,1089H515V460.919c64.56,9.84,134.3,18.739,207.288,26.447,73.794,7.794,151.842,14.469,231.975,19.841,81.588,5.47,166.489,9.664,252.344,12.467C1294.527,522.544,1384.828,524,1475,524s180.473-1.455,268.393-4.326c85.856-2.8,170.756-7,252.344-12.467,80.133-5.372,158.181-12.047,231.974-19.841,72.979-7.707,142.721-16.605,207.288-26.447V1089Z" transform="translate(-515 1201)"/><path class="a" d="M1920,264.084h0c-64.559-9.841-134.3-18.74-207.287-26.448-73.794-7.794-151.842-14.469-231.975-19.841-81.587-5.47-166.488-9.664-252.344-12.467C1140.473,202.457,1050.173,201,960,201s-180.473,1.455-268.394,4.326c-85.855,2.8-170.756,7-252.344,12.467-80.133,5.372-158.18,12.047-231.975,19.841C134.309,245.343,64.568,254.241,0,264.083V-232.6H1920v496.68Z" transform="translate(0 2508.098)"/></g></svg>