<svg xmlns="http://www.w3.org/2000/svg" width="90.227" height="90" viewBox="0 0 90.227 90"><defs><style>.a{fill:#80e315;}</style></defs><path class="a" d="M738.609,350.185a26.124,26.124,0,0,1-22.029-11.566c-5.961-9.214-5.066-21.789,2.307-32A31.121,31.121,0,0,1,738.9,293.261c7.885-1.969,13.853-7.261,15.644-13.827a21.074,21.074,0,0,1,7.076-10.876l.08-.067.071-.079a25.781,25.781,0,0,1,19.24-8.227c6.312,0,12.2,2.419,15.741,6.469,8.408,8.97,8.147,23.1-.573,32.912a26.733,26.733,0,0,1-11.036,7.733,28.3,28.3,0,0,0-15.993,18.392,34.4,34.4,0,0,1-8.34,14.468A30.3,30.3,0,0,1,738.609,350.185Zm.85-53.982c-7.139,1.21-13.295,5.31-18.3,12.186-6.7,9.143-7.391,20.237-1.79,28.95,3.678,6.132,11.058,9.964,19.236,9.964a28.869,28.869,0,0,0,20.2-8.559,30.2,30.2,0,0,0,7.936-13.457,27.824,27.824,0,0,1,17.68-19.893,23.069,23.069,0,0,0,9.921-7.426c7.549-8.806,7.776-21.943.473-29.246a19.374,19.374,0,0,0-13.812-5.656,24.435,24.435,0,0,0-17.3,7.4,24.113,24.113,0,0,0-6.162,9.865C754.985,288.018,748.4,293.8,739.459,296.2Z" transform="translate(-712.661 -260.185)"/></svg>