<svg xmlns="http://www.w3.org/2000/svg" width="90.001" height="64.543" viewBox="0 0 90.001 64.543"><defs><style>.a{fill:#80e315;}</style></defs><path class="a" d="M936.631,362.286l-5.888-10.2a1.287,1.287,0,0,0-1.115-.643h-4.6v-10.2a1.286,1.286,0,0,0-1.286-1.286h-30.65V333.44H904.38a1.286,1.286,0,0,0,1.284-1.288V311.864a1.286,1.286,0,0,0-1.286-1.286H879.229a1.285,1.285,0,0,0-1.285,1.286v20.291a1.285,1.285,0,0,0,1.285,1.285h11.289v6.515H858.991a1.286,1.286,0,0,0-1.286,1.286v10.486L846.939,373.26a1.285,1.285,0,0,0,1.151,1.86h21.8a1.285,1.285,0,0,0,1.151-1.86l-10.768-21.536v-9.2h30.241V350.8a12.187,12.187,0,0,0,1.2,24.325h.169c.084,0,.167,0,.251,0a12.188,12.188,0,0,0,.95-24.328v-8.266h29.365v8.918h-4.6a1.286,1.286,0,0,0-1.114.643l-5.889,10.2a1.284,1.284,0,0,0,0,1.286l5.889,10.2a1.286,1.286,0,0,0,1.114.643h11.777a1.287,1.287,0,0,0,1.115-.643l5.888-10.2A1.284,1.284,0,0,0,936.631,362.286Zm-56.116-49.137h22.577v17.72H880.515Zm-30.345,59.4,8.821-17.646,8.823,17.646Zm51.446-9.505a9.617,9.617,0,0,1-9.728,9.505H891.5a9.617,9.617,0,0,1,.223-19.233h.169c.075,0,.149,0,.223,0A9.617,9.617,0,0,1,901.616,363.044Zm27.27,8.8H918.593l-5.143-8.915,5.143-8.913h10.293l5.143,8.913Z" transform="translate(-846.803 -310.578)"/></svg>