<?xml version="1.0" encoding="utf-8"?>
<!-- Generator: Adobe Illustrator 21.0.0, SVG Export Plug-In . SVG Version: 6.00 Build 0)  -->
<svg version="1.1" id="Layer_1" xmlns="http://www.w3.org/2000/svg" xmlns:xlink="http://www.w3.org/1999/xlink" x="0px" y="0px"
	 viewBox="0 0 170 50.3" style="enable-background:new 0 0 170 50.3;" xml:space="preserve">
<style type="text/css">
	.st0{fill:#FFFFFF;}
</style>
<title>VertelLogo_RBG-white</title>
<path class="st0" d="M23.6,25.7c-0.8,0.1-0.8,0.2-1.1,0.5c-0.3,0.7-0.4,1.4-0.3,2.2v3.2l-8.8,15.8h-1.9L2.6,31.6v-3.2
	c0-0.7-0.1-1.5-0.3-2.2c-0.3-0.4-0.2-0.5-1.1-0.5c-0.6,0-0.7,0.2-0.9,0.4c-0.3,0.5-0.4,1-0.4,1.5v4c0,0.6,0.2,1.2,0.5,1.7L9,47.5
	c0.3,0.6,0.5,1.2,0.9,1.8c0.2,0.3,0.4,0.7,0.7,0.9h3.6l0.1-0.1c0.2-0.2,0.4-0.4,0.5-0.6c0.4-0.6,0.7-1.3,1-2l8.5-14.2
	c0.3-0.5,0.5-1.1,0.5-1.7v-4c0-0.5-0.1-1.1-0.4-1.5C24.2,25.8,23.8,25.7,23.6,25.7 M69,25.7h-4.5c-1.1,0-2.5,0.8-4.1,2.1l-3.5,4V28
	c0-0.6-0.1-1.3-0.3-1.8c-0.2-0.3-0.3-0.4-1-0.5c-0.9,0.1-0.8,0.2-1,0.5c-0.2,0.4-0.3,0.9-0.3,1.3v19.4c-0.1,1,0,1.9,0.3,2.8
	c0.2,0.3,0.2,0.4,1,0.5s0.8-0.2,1-0.5c0.3-0.6,0.4-1.3,0.3-2V35.6l5-5.5c1-1,2.4-1.6,3.8-1.7h1.7c0.8,0,1.5,0,2.3,0.2
	c1,0.2,1.8,0.7,2.4,1.5c0.7,1,1,2.2,0.9,3.4c0,0.5,0.1,1.1,0.4,1.5c0.2,0.3,0.6,0.5,1,0.4c0.8-0.1,0.7-0.1,1-0.5
	c0.2-0.6,0.4-1.3,0.3-2c0.1-2-0.6-4-2.1-5.4c-1.2-1.2-2.9-1.8-4.5-1.7 M139.6,16.5c-0.6-0.2-1.3-0.4-1.9-0.3h-4.2
	c-1.6,0-2.3,0.2-2.3,0.3s-0.4,0.5-0.4,2.1v29.2c0,0.7,0.1,1.4,0.3,2c0.2,0.3,0.2,0.4,1,0.5s0.8-0.2,1-0.5c0.3-0.6,0.4-1.3,0.3-2v-29
	h4.3c0.6,0,1.3-0.1,1.9-0.3c0.4-0.3,0.4-0.2,0.5-1S139.9,16.7,139.6,16.5 M122.6,39.9c1.6,0,2.1-0.3,2.1-0.3s0.3-0.7,0.3-2.3v-1.7
	c0.1-1.2-0.1-2.4-0.4-3.6c-0.4-1.1-1.1-2-2-2.6l-2.3-1.8c-2.1-1.6-2.6-1.7-5.3-1.7h-2.6c-0.9-0.1-1.7,0-2.5,0.3c-1,0.4-2,1-2.8,1.8
	l-2,1.7c-0.8,0.6-1.5,1.4-1.8,2.4c-0.3,1.1-0.5,2.2-0.4,3.3v5.5c0,1.4,0.1,2.7,0.5,4c0.5,0.9,1.1,1.7,1.9,2.3l2.4,2.1
	c0.5,0.5,1.1,0.8,1.7,1c0.8,0.1,1.6,0.2,2.4,0.2h10.9c0.6,0,1.3-0.1,1.9-0.3c0.3-0.3,0.4-0.2,0.5-1s-0.2-0.8-0.4-1
	c-0.6-0.2-1.3-0.4-1.9-0.3H113c-0.9,0-1.8-0.1-2.7-0.3c-0.8-0.2-1.6-0.6-2.2-1.3l-1.4-1.5c-0.7-1-1.1-2.2-1.3-3.5l0,0v-0.1
	c0-0.1,0-0.2,0-0.3v-0.8L122.6,39.9L122.6,39.9z M105.4,37.3v-2.7c0-0.8,0.1-1.7,0.5-2.5c0.3-0.6,0.8-1,1.3-1.4l2-1.5
	c1.1-0.7,2.4-1,3.8-0.9h2.2c1.3-0.1,2.7,0.3,3.7,1.1l2.2,1.9c0.5,0.5,0.9,1.1,1.1,1.8c0.1,0.5,0.2,1.1,0.2,1.6v2.5L105.4,37.3
	L105.4,37.3z M122.6,39.9c1.6,0,2.1-0.3,2.1-0.3s0.3-0.7,0.3-2.3v-1.7c0.1-1.2-0.1-2.4-0.4-3.6c-0.4-1.1-1.1-2-2-2.6l-2.3-1.8
	c-2.1-1.6-2.6-1.7-5.3-1.7h-2.6c-0.9-0.1-1.7,0-2.5,0.3c-1,0.4-2,1-2.8,1.8l-2,1.7c-0.8,0.6-1.5,1.4-1.8,2.4
	c-0.3,1.1-0.5,2.2-0.4,3.3v5.5c0,1.4,0.1,2.7,0.5,4c0.5,0.9,1.1,1.7,1.9,2.3l2.4,2.1c0.5,0.5,1.1,0.8,1.7,1c0.8,0.1,1.6,0.2,2.4,0.2
	h10.9c0.6,0,1.3-0.1,1.9-0.3c0.3-0.3,0.4-0.2,0.5-1s-0.2-0.8-0.4-1c-0.6-0.2-1.3-0.4-1.9-0.3H113c-0.9,0-1.8-0.1-2.7-0.3
	c-0.8-0.2-1.6-0.6-2.2-1.3l-1.4-1.5c-0.7-1-1.1-2.2-1.3-3.5l0,0v-0.1c0-0.1,0-0.2,0-0.3v-0.8L122.6,39.9L122.6,39.9z M105.4,37.3
	v-2.7c0-0.8,0.1-1.7,0.5-2.5c0.3-0.6,0.8-1,1.3-1.4l2-1.5c1.1-0.7,2.4-1,3.8-0.9h2.2c1.3-0.1,2.7,0.3,3.7,1.1l2.2,1.9
	c0.5,0.5,0.9,1.1,1.1,1.8c0.1,0.5,0.2,1.1,0.2,1.6v2.5L105.4,37.3L105.4,37.3z M99.2,42.8c-0.7,0-1.3,0.5-1.4,1.2
	c-0.2,1.3-1,2.4-2.1,3.1c-1.1,0.5-2.2,0.6-3.3,0.5h-1c-0.9,0-1.8-0.1-2.7-0.4c-0.8-0.3-1.4-0.8-1.9-1.5c-0.6-1.3-0.9-2.7-0.8-4.1
	V28.4h10.6c0.6,0,1.3-0.1,1.9-0.4c0.3-0.3,0.4-0.2,0.5-1s-0.2-0.8-0.4-1c-0.6-0.2-1.3-0.4-1.9-0.3H86v-7.3c0-0.7-0.1-1.4-0.3-2
	c-0.2-0.3-0.2-0.4-1-0.4s-0.8,0.2-1,0.4c-0.3,0.6-0.4,1.3-0.3,2v7.3H80c-0.7-0.1-1.4,0.1-2,0.3c-0.3,0.2-0.4,0.2-0.4,1
	s0.2,0.8,0.5,1c0.6,0.2,1.2,0.4,1.9,0.3h3.3v13.5c0,2.7,0.1,4.3,1.7,6s3.6,2.3,6.2,2.3h1c2.9,0,5-0.4,6.7-2.4
	c0.9-1.1,1.4-2.4,1.6-3.8C100.5,43.3,99.9,42.7,99.2,42.8C99.2,42.7,99.2,42.7,99.2,42.8l-0.1,0"/>
<path class="st0" d="M136.6,45.8h2v0.2h-0.8v2.5h-0.3v-2.5h-0.9L136.6,45.8z"/>
<path class="st0" d="M139,48.6v-2.7h0.4l0.9,2.4l0,0l0.9-2.4h0.4v2.7h-0.3v-2.4l0,0l-0.9,2.4h-0.2l-0.9-2.4l0,0v2.4L139,48.6z"/>
<path class="st0" d="M47.3,39.9c1.6,0,2.1-0.3,2.1-0.3s0.3-0.7,0.3-2.3v-1.7c0.1-1.2-0.1-2.4-0.4-3.6c-0.4-1.1-1.1-2-2-2.6L45,27.5
	c-2.1-1.6-2.6-1.7-5.3-1.7h-2.5c-0.9,0-1.7,0-2.5,0.3c-1,0.4-2,1-2.8,1.8l-2,1.7c-0.8,0.6-1.5,1.4-1.8,2.4c-0.3,1.1-0.5,2.2-0.4,3.3
	v5.5c-0.1,1.4,0.1,2.7,0.4,4.1c0.5,0.9,1.2,1.7,2,2.3l2.4,2.1c0.5,0.5,1.1,0.8,1.7,1c0.8,0.1,1.6,0.2,2.4,0.2h10.9
	c0.6,0,1.3-0.1,1.9-0.3c0.3-0.3,0.5-0.2,0.5-1s-0.2-0.8-0.5-1c-0.6-0.2-1.3-0.4-1.9-0.3h-9.6c-0.9,0-1.8-0.1-2.7-0.3
	c-0.8-0.2-1.6-0.7-2.1-1.3l-1.4-1.5c-0.7-1-1.2-2.2-1.3-3.5l0,0v-0.1c0-0.1,0-0.2,0-0.3v-0.8L47.3,39.9L47.3,39.9z M30.2,34.6
	c0-0.8,0.1-1.7,0.5-2.5c0.3-0.6,0.7-1,1.3-1.4l2-1.5c1.1-0.7,2.4-1,3.8-0.9h2.2c1.3-0.1,2.7,0.3,3.7,1.1l2.2,1.9
	c0.5,0.5,0.9,1.1,1.1,1.8c0.1,0.5,0.2,1.1,0.2,1.6v2.5H30.2V34.6z"/>
<path class="st0" d="M152.5,35.6c9.7,0,17.5-7.8,17.5-17.5c0,0,0,0,0,0v-0.6C170,7.9,162.1,0,152.5,0l0,0c-8.3,0-15.2,5-18,14.4
	c1.3-2.7,4-4.5,7-4.5c4.4,0,7.9,3.6,7.9,7.9s-3.6,8-7.9,8c-3,0-5.8-1.8-7-4.5C137.2,29.6,142.7,35.6,152.5,35.6 M143,27.3
	c5.1-0.1,9.2-4.3,9.2-9.5l0,0c0.1-5.1-4-9.4-9.2-9.5c-1.6,0-3.1,0.4-4.5,1.2c1.8-1.9,4.3-3,6.9-3.2c6.3,0,11.4,5.1,11.4,11.4
	s-5.1,11.4-11.4,11.4c-2.6-0.2-5-1.3-6.9-3.2C139.9,26.8,141.4,27.2,143,27.3 M149.6,32.8c-3.1,0-6.2-1-8.7-2.8
	c-0.8-0.6-1.6-1.4-2.2-2.2c2.4,2.3,5.6,3.5,8.9,3.5c7.4-0.1,13.3-6.1,13.3-13.5l0,0c0.1-7.4-5.9-13.5-13.3-13.5
	c-3.3,0-6.5,1.2-8.9,3.5c0.6-0.8,1.4-1.5,2.2-2.2c6.8-4.8,16.1-3.2,20.9,3.5s3.2,16.1-3.5,20.9C155.7,31.8,152.7,32.8,149.6,32.8"/>
</svg>
