<svg xmlns="http://www.w3.org/2000/svg" width="170" height="50.273" viewBox="0 0 170 50.273"><defs><style>.a{fill:#80e315;}.b{fill:#0d345b;}</style></defs><g transform="translate(-165.5 -208.5)"><g transform="translate(165.5 224.464)"><path class="a" d="M189.059,267.852c-.837.064-.8.161-1.062.515a4.8,4.8,0,0,0-.322,2.189v3.218l-8.819,15.835H176.99l-8.851-15.867v-3.219a6.022,6.022,0,0,0-.322-2.189c-.257-.354-.225-.451-1.062-.515-.611.032-.708.161-.9.386a2.773,2.773,0,0,0-.354,1.545v4.023a3.215,3.215,0,0,0,.515,1.674l8.5,14.226a17.879,17.879,0,0,0,.869,1.77,3.04,3.04,0,0,0,.74.9h3.6a.4.4,0,0,1,.1-.064,2.76,2.76,0,0,0,.515-.612,13.036,13.036,0,0,0,1.03-2l8.5-14.226a3.215,3.215,0,0,0,.515-1.674v-4.023a2.855,2.855,0,0,0-.354-1.545,1.18,1.18,0,0,0-.966-.354m45.541,0h-4.57c-1.094-.032-2.543.8-4.087,2.092L222.531,274V270.1a4.068,4.068,0,0,0-.354-1.835c-.225-.29-.257-.418-.966-.451-.9.064-.8.161-1.03.483a4.679,4.679,0,0,0-.29,1.32v19.44a6.649,6.649,0,0,0,.322,2.832c.225.29.193.386,1,.451.8-.064.772-.161,1-.451a4.61,4.61,0,0,0,.322-1.963V277.7l4.956-5.5a5.819,5.819,0,0,1,3.83-1.706h1.674a11.714,11.714,0,0,1,2.285.161,3.856,3.856,0,0,1,2.414,1.48,5.163,5.163,0,0,1,.869,3.379,2.632,2.632,0,0,0,.386,1.545,1.019,1.019,0,0,0,1,.418c.8-.064.74-.129.966-.451a4.852,4.852,0,0,0,.322-2.028,6.813,6.813,0,0,0-2.092-5.407,6.263,6.263,0,0,0-4.538-1.738m70.42-9.237a4.544,4.544,0,0,0-1.931-.322h-4.216c-1.577-.032-2.285.225-2.317.322-.1.032-.386.515-.386,2.124v29.192a4.61,4.61,0,0,0,.322,1.963c.225.29.193.386,1,.451.8-.064.8-.161,1-.451a4.61,4.61,0,0,0,.322-1.963V260.964h4.281a4.229,4.229,0,0,0,1.867-.322c.354-.257.451-.225.515-1-.064-.8-.161-.8-.451-1.03m-16.994,23.463c1.609,0,2.06-.29,2.092-.354.1-.032.354-.74.322-2.349v-1.738a11.292,11.292,0,0,0-.418-3.6,5.43,5.43,0,0,0-1.963-2.607l-2.317-1.835c-2.092-1.609-2.607-1.674-5.343-1.738h-2.575a7.889,7.889,0,0,0-2.543.257,8.569,8.569,0,0,0-2.768,1.77l-2.028,1.706A5.514,5.514,0,0,0,268.652,274a9.58,9.58,0,0,0-.418,3.251v5.471a13.51,13.51,0,0,0,.483,4.055,7.339,7.339,0,0,0,1.931,2.285l2.414,2.124a4.251,4.251,0,0,0,1.706,1.03,10.455,10.455,0,0,0,2.414.161H288.06a4.229,4.229,0,0,0,1.867-.322c.354-.257.451-.225.515-1-.064-.8-.161-.772-.451-1a4.544,4.544,0,0,0-1.931-.322H278.5a10.252,10.252,0,0,1-2.7-.29,4.37,4.37,0,0,1-2.189-1.287l-1.384-1.513a7.409,7.409,0,0,1-1.255-3.508h0v-.064c0-.1-.032-.161-.032-.257v-.772h17.09Zm-17.155-2.671v-2.7a4.824,4.824,0,0,1,.515-2.446,4.172,4.172,0,0,1,1.287-1.384l2-1.448a6.149,6.149,0,0,1,3.766-.933h2.156a5.409,5.409,0,0,1,3.733,1.094l2.221,1.931a3.8,3.8,0,0,1,1.062,1.77,5.92,5.92,0,0,1,.161,1.609v2.543h-16.9Zm17.155,2.671c1.609,0,2.06-.29,2.092-.354.1-.032.354-.74.322-2.349v-1.738a11.292,11.292,0,0,0-.418-3.6,5.43,5.43,0,0,0-1.963-2.607l-2.317-1.835c-2.092-1.609-2.607-1.674-5.343-1.738h-2.575a7.889,7.889,0,0,0-2.543.257,8.569,8.569,0,0,0-2.768,1.77l-2.028,1.706A5.514,5.514,0,0,0,268.652,274a9.58,9.58,0,0,0-.418,3.251v5.471a13.51,13.51,0,0,0,.483,4.055,7.339,7.339,0,0,0,1.931,2.285l2.414,2.124a4.251,4.251,0,0,0,1.706,1.03,10.455,10.455,0,0,0,2.414.161H288.06a4.229,4.229,0,0,0,1.867-.322c.354-.257.451-.225.515-1-.064-.8-.161-.772-.451-1a4.544,4.544,0,0,0-1.931-.322H278.5a10.252,10.252,0,0,1-2.7-.29,4.37,4.37,0,0,1-2.189-1.287l-1.384-1.513a7.409,7.409,0,0,1-1.255-3.508h0v-.064c0-.1-.032-.161-.032-.257v-.772h17.09Zm-17.155-2.671v-2.7a4.824,4.824,0,0,1,.515-2.446,4.172,4.172,0,0,1,1.287-1.384l2-1.448a6.149,6.149,0,0,1,3.766-.933h2.156a5.409,5.409,0,0,1,3.733,1.094l2.221,1.931a3.8,3.8,0,0,1,1.062,1.77,5.92,5.92,0,0,1,.161,1.609v2.543h-16.9Zm-6.212,5.5a1.393,1.393,0,0,0-1.384,1.159,4.561,4.561,0,0,1-2.092,3.09,7.006,7.006,0,0,1-3.347.547h-1.03a7.843,7.843,0,0,1-2.7-.386,3.588,3.588,0,0,1-1.867-1.48,7.479,7.479,0,0,1-.74-4.152v-13.2h10.621a4.229,4.229,0,0,0,1.867-.322c.354-.257.451-.225.515-1-.064-.8-.161-.772-.451-1a4.544,4.544,0,0,0-1.931-.322H251.5v-7.338a4.61,4.61,0,0,0-.322-1.963c-.225-.29-.193-.386-1-.451-.8.064-.8.161-1,.451a4.61,4.61,0,0,0-.322,1.963v7.338h-3.379a4.544,4.544,0,0,0-1.931.322c-.322.225-.418.193-.451,1,.064.772.161.772.515,1a4.323,4.323,0,0,0,1.867.322h3.347v13.453c.032,2.7.1,4.248,1.674,6.051,1.706,1.8,3.6,2.35,6.244,2.35l1.03.032c2.929-.032,4.989-.386,6.662-2.382a7.366,7.366,0,0,0,1.609-3.766,1.3,1.3,0,0,0-1.384-1.32" transform="translate(-165.5 -258.1)"/></g><path class="a" d="M590,350.9h1.963v.225h-.837v2.51h-.258v-2.51H590Z" transform="translate(-287.876 -96.569)"/><path class="a" d="M597.3,353.636V350.9h.386l.9,2.414h0l.869-2.414h.418v2.736h-.257v-2.414h-.032l-.9,2.414h-.225l-.9-2.414h0v2.414Z" transform="translate(-292.826 -96.569)"/><g transform="translate(193.05 208.5)"><path class="a" d="M270.894,302.626c1.609,0,2.06-.29,2.092-.354.1-.032.354-.74.322-2.349v-1.738a11.291,11.291,0,0,0-.418-3.6,5.429,5.429,0,0,0-1.963-2.607l-2.317-1.835c-2.092-1.609-2.607-1.674-5.343-1.738h-2.575a7.89,7.89,0,0,0-2.543.257,8.57,8.57,0,0,0-2.768,1.77l-2.028,1.738a5.514,5.514,0,0,0-1.835,2.414,9.58,9.58,0,0,0-.418,3.251V303.3a13.512,13.512,0,0,0,.483,4.055,7.34,7.34,0,0,0,1.931,2.285l2.414,2.124a4.25,4.25,0,0,0,1.706,1.03,10.455,10.455,0,0,0,2.414.161h10.878a4.385,4.385,0,0,0,1.9-.322c.354-.257.451-.225.515-1.03-.064-.8-.161-.772-.451-1a4.544,4.544,0,0,0-1.931-.322H261.4a10.249,10.249,0,0,1-2.7-.29,4.467,4.467,0,0,1-2.189-1.287l-1.384-1.513a7.409,7.409,0,0,1-1.255-3.508h0v-.064c0-.1-.032-.161-.032-.258v-.772h17.058Zm-17.122-5.375a4.825,4.825,0,0,1,.515-2.446,4.172,4.172,0,0,1,1.287-1.384l2-1.448a6.149,6.149,0,0,1,3.766-.933h2.156a5.409,5.409,0,0,1,3.733,1.094l2.221,1.931a3.8,3.8,0,0,1,1.062,1.77,5.92,5.92,0,0,1,.161,1.609v2.543h-16.9Z" transform="translate(-251.1 -262.684)"/><path class="b" d="M601.291,244.1a17.52,17.52,0,0,0,17.541-17.541v-.515A17.54,17.54,0,0,0,601.291,208.5c-8.336,0-15.223,4.956-17.991,14.387a7.864,7.864,0,0,1,7.016-4.538,7.95,7.95,0,0,1,0,15.9,7.738,7.738,0,0,1-7.016-4.538c2.768,8.4,8.271,14.387,17.991,14.387m-9.462-8.336A9.337,9.337,0,0,0,601,226.3h0a9.337,9.337,0,0,0-9.173-9.462,8.91,8.91,0,0,0-4.506,1.223,10.545,10.545,0,0,1,6.855-3.154,11.393,11.393,0,0,1,0,22.787,10.545,10.545,0,0,1-6.855-3.154,9,9,0,0,0,4.506,1.223m6.566,5.536a14.941,14.941,0,0,1-8.69-2.768,14.08,14.08,0,0,1-2.221-2.156,12.98,12.98,0,0,0,8.915,3.476,13.436,13.436,0,0,0,13.292-13.55h0a13.436,13.436,0,0,0-13.292-13.55,12.979,12.979,0,0,0-8.915,3.476,12.787,12.787,0,0,1,2.221-2.156,15,15,0,1,1,8.69,27.228" transform="translate(-476.382 -208.5)"/></g></g></svg>