<svg id="Layer_1" data-name="Layer 1" xmlns="http://www.w3.org/2000/svg" viewBox="0 0 170 50.28"><defs><style>.cls-1{fill:#80e315;}.cls-2{fill:#fff;}</style></defs><title>VertelLogo_RBG-white</title><path class="cls-1" d="M23.56,25.72c-.84.06-.8.16-1.06.52a4.8,4.8,0,0,0-.32,2.19v3.22L13.36,47.47H11.49L2.64,31.61V28.39a6,6,0,0,0-.32-2.19c-.26-.35-.23-.45-1.06-.52-.61,0-.71.16-.9.39A2.77,2.77,0,0,0,0,27.61v4a3.22,3.22,0,0,0,.51,1.67L9,47.54a17.88,17.88,0,0,0,.87,1.77,3,3,0,0,0,.74.9h3.6l.1-.06a2.76,2.76,0,0,0,.51-.61,13,13,0,0,0,1-2l8.5-14.23a3.22,3.22,0,0,0,.51-1.67v-4a2.86,2.86,0,0,0-.35-1.55,1.18,1.18,0,0,0-1-.35m45.54,0H64.54c-1.09,0-2.54.8-4.09,2.09L57,31.86V28a4.07,4.07,0,0,0-.35-1.83c-.23-.29-.26-.42-1-.45-.9.06-.8.16-1,.48a4.68,4.68,0,0,0-.29,1.32V46.92a6.65,6.65,0,0,0,.32,2.83c.23.29.19.39,1,.45s.77-.16,1-.45a4.61,4.61,0,0,0,.32-2V35.56l5-5.5a5.82,5.82,0,0,1,3.83-1.71H67.5a11.71,11.71,0,0,1,2.29.16A3.86,3.86,0,0,1,72.19,30a5.16,5.16,0,0,1,.87,3.38,2.63,2.63,0,0,0,.39,1.55,1,1,0,0,0,1,.42c.8-.06.74-.13,1-.45a4.85,4.85,0,0,0,.32-2,6.81,6.81,0,0,0-2.09-5.41,6.26,6.26,0,0,0-4.54-1.74m70.42-9.24a4.54,4.54,0,0,0-1.93-.32h-4.22c-1.58,0-2.29.23-2.32.32s-.39.52-.39,2.12V47.8a4.61,4.61,0,0,0,.32,2c.23.29.19.39,1,.45s.8-.16,1-.45a4.61,4.61,0,0,0,.32-2v-29h4.28a4.23,4.23,0,0,0,1.87-.32c.35-.26.45-.23.52-1s-.16-.8-.45-1m-17,23.46c1.61,0,2.06-.29,2.09-.35s.35-.74.32-2.35V35.5a11.29,11.29,0,0,0-.42-3.6,5.43,5.43,0,0,0-2-2.61l-2.32-1.83c-2.09-1.61-2.61-1.67-5.34-1.74h-2.58a7.89,7.89,0,0,0-2.54.26A8.57,8.57,0,0,0,107,27.74l-2,1.71a5.51,5.51,0,0,0-1.85,2.41,9.58,9.58,0,0,0-.42,3.25v5.47a13.51,13.51,0,0,0,.48,4.05,7.34,7.34,0,0,0,1.93,2.29l2.41,2.12a4.25,4.25,0,0,0,1.71,1,10.46,10.46,0,0,0,2.41.16h10.88a4.23,4.23,0,0,0,1.87-.32c.35-.26.45-.23.52-1s-.16-.77-.45-1a4.54,4.54,0,0,0-1.93-.32H113a10.25,10.25,0,0,1-2.7-.29A4.37,4.37,0,0,1,108.11,46l-1.38-1.51A7.41,7.41,0,0,1,105.47,41h0v-.06c0-.1,0-.16,0-.26v-.77h17.09Zm-17.15-2.67v-2.7a4.82,4.82,0,0,1,.52-2.45,4.17,4.17,0,0,1,1.29-1.38l2-1.45a6.15,6.15,0,0,1,3.77-.93h2.16a5.41,5.41,0,0,1,3.73,1.09l2.22,1.93a3.8,3.8,0,0,1,1.06,1.77,5.92,5.92,0,0,1,.16,1.61V37.3h-16.9Zm17.15,2.67c1.61,0,2.06-.29,2.09-.35s.35-.74.32-2.35V35.5a11.29,11.29,0,0,0-.42-3.6,5.43,5.43,0,0,0-2-2.61l-2.32-1.83c-2.09-1.61-2.61-1.67-5.34-1.74h-2.58a7.89,7.89,0,0,0-2.54.26A8.57,8.57,0,0,0,107,27.74l-2,1.71a5.51,5.51,0,0,0-1.85,2.41,9.58,9.58,0,0,0-.42,3.25v5.47a13.51,13.51,0,0,0,.48,4.05,7.34,7.34,0,0,0,1.93,2.29l2.41,2.12a4.25,4.25,0,0,0,1.71,1,10.46,10.46,0,0,0,2.41.16h10.88a4.23,4.23,0,0,0,1.87-.32c.35-.26.45-.23.52-1s-.16-.77-.45-1a4.54,4.54,0,0,0-1.93-.32H113a10.25,10.25,0,0,1-2.7-.29A4.37,4.37,0,0,1,108.11,46l-1.38-1.51A7.41,7.41,0,0,1,105.47,41h0v-.06c0-.1,0-.16,0-.26v-.77h17.09Zm-17.15-2.67v-2.7a4.82,4.82,0,0,1,.52-2.45,4.17,4.17,0,0,1,1.29-1.38l2-1.45a6.15,6.15,0,0,1,3.77-.93h2.16a5.41,5.41,0,0,1,3.73,1.09l2.22,1.93a3.8,3.8,0,0,1,1.06,1.77,5.92,5.92,0,0,1,.16,1.61V37.3h-16.9Zm-6.21,5.5a1.39,1.39,0,0,0-1.38,1.16A4.56,4.56,0,0,1,95.7,47a7,7,0,0,1-3.35.55h-1a7.84,7.84,0,0,1-2.7-.39,3.59,3.59,0,0,1-1.87-1.48A7.48,7.48,0,0,1,86,41.55V28.35H96.63A4.23,4.23,0,0,0,98.5,28c.35-.26.45-.23.52-1s-.16-.77-.45-1a4.54,4.54,0,0,0-1.93-.32H86V18.36a4.61,4.61,0,0,0-.32-2c-.23-.29-.19-.39-1-.45s-.8.16-1,.45a4.61,4.61,0,0,0-.32,2V25.7H80A4.54,4.54,0,0,0,78,26c-.32.23-.42.19-.45,1s.16.77.51,1a4.32,4.32,0,0,0,1.87.32h3.35V41.8c0,2.7.1,4.25,1.67,6.05s3.6,2.35,6.24,2.35l1,0c2.93,0,5-.39,6.66-2.38a7.37,7.37,0,0,0,1.61-3.77,1.3,1.3,0,0,0-1.28-1.32h-.11" transform="translate(0)"/><path class="cls-1" d="M136.62,45.83h2v.23h-.84v2.51h-.26V46.06h-.87Z" transform="translate(0)"/><path class="cls-1" d="M139,48.57V45.83h.39l.9,2.41h0l.87-2.41h.42v2.74h-.26V46.15h0l-.9,2.41h-.22l-.9-2.41h0v2.41Z" transform="translate(0)"/><path class="cls-1" d="M47.34,39.94c1.61,0,2.06-.29,2.09-.35s.35-.74.32-2.35V35.5a11.29,11.29,0,0,0-.42-3.6,5.43,5.43,0,0,0-2-2.61l-2.32-1.83c-2.09-1.61-2.61-1.67-5.34-1.74H37.14A7.89,7.89,0,0,0,34.6,26a8.57,8.57,0,0,0-2.77,1.77l-2,1.74A5.51,5.51,0,0,0,28,31.9a9.58,9.58,0,0,0-.42,3.25v5.46A13.51,13.51,0,0,0,28,44.67,7.34,7.34,0,0,0,30,47l2.41,2.12a4.25,4.25,0,0,0,1.71,1,10.46,10.46,0,0,0,2.41.16H47.38a4.39,4.39,0,0,0,1.9-.32c.35-.26.45-.23.52-1s-.16-.77-.45-1a4.54,4.54,0,0,0-1.93-.32H37.85a10.25,10.25,0,0,1-2.7-.29A4.47,4.47,0,0,1,33,46l-1.38-1.51A7.41,7.41,0,0,1,30.32,41h0v-.06c0-.1,0-.16,0-.26v-.77H47.35ZM30.22,34.57a4.83,4.83,0,0,1,.51-2.45A4.17,4.17,0,0,1,32,30.74l2-1.45a6.15,6.15,0,0,1,3.77-.93h2.16a5.41,5.41,0,0,1,3.73,1.09l2.22,1.93A3.8,3.8,0,0,1,47,33.15a5.92,5.92,0,0,1,.16,1.61V37.3H30.22Z" transform="translate(0)"/><path class="cls-2" d="M152.46,35.6A17.52,17.52,0,0,0,170,18.1v-.56A17.54,17.54,0,0,0,152.46,0h0c-8.34,0-15.22,5-18,14.39a7.86,7.86,0,0,1,7-4.54,7.95,7.95,0,0,1,0,15.9,7.74,7.74,0,0,1-7-4.54c2.77,8.4,8.27,14.39,18,14.39M143,27.26a9.34,9.34,0,0,0,9.17-9.46h0A9.34,9.34,0,0,0,143,8.34a8.91,8.91,0,0,0-4.51,1.22,10.55,10.55,0,0,1,6.85-3.15,11.39,11.39,0,0,1,0,22.79A10.55,10.55,0,0,1,138.49,26,9,9,0,0,0,143,27.26m6.57,5.54A14.94,14.94,0,0,1,140.87,30a14.08,14.08,0,0,1-2.22-2.16,13,13,0,0,0,8.91,3.48A13.44,13.44,0,0,0,160.86,17.8h0A13.44,13.44,0,0,0,147.56,4.25a13,13,0,0,0-8.91,3.48,12.79,12.79,0,0,1,2.22-2.16,15,15,0,1,1,8.69,27.23" transform="translate(0)"/></svg>