<svg xmlns="http://www.w3.org/2000/svg" width="1716.871" height="1720.156" viewBox="0 0 1716.871 1720.156"><defs><style>.a{fill:#f4f4f4;}</style></defs><g transform="translate(-664.433 -57.954)"><g transform="translate(664.433 57.954)"><path class="a" d="M1533.741,1778.11c467.53.531,846.982-378,847.562-845.534V905.662C2381.4,437.6,2002.048,58.051,1533.984,57.954h-.243c-402.787,0-735.56,239.469-869.309,695.165a379.892,379.892,0,0,1,339.007-219.271c212.121.193,383.992,172.305,383.8,384.474-.193,211.878-171.92,383.6-383.8,383.8a373.918,373.918,0,0,1-339.007-219.271c133.749,405.88,399.646,695.165,869.309,695.165m-457.2-402.787c248.412-4.4,446.472-208.787,443.137-457.195h0c3.335-248.456-194.823-452.845-443.228-457.194a430.477,430.477,0,0,0-217.727,59.094,509.548,509.548,0,0,1,331.226-152.4c304.024,0,550.5,246.475,550.5,550.5,0,304.071-246.475,550.547-550.5,550.547a509.551,509.551,0,0,1-331.226-152.4,434.651,434.651,0,0,0,217.727,59.094m317.26,267.493a721.947,721.947,0,0,1-419.892-133.747A679.917,679.917,0,0,1,866.5,1404.845,627.042,627.042,0,0,0,1297.268,1572.8c358-3.817,645.3-296.727,642.255-654.722h0c3.043-358-284.259-650.9-642.255-654.722A627.042,627.042,0,0,0,866.5,431.315,616.977,616.977,0,0,1,973.819,327.139C1300.118,95.3,1752.575,171.89,1984.458,498.188c231.834,326.3,155.251,778.8-171.1,1010.639a724.845,724.845,0,0,1-419.65,133.94" transform="translate(-664.432 -57.954)"/></g></g></svg>