<svg xmlns="http://www.w3.org/2000/svg" width="3290.557" height="3296.852" viewBox="0 0 3290.557 3296.852"><defs><style>.a{fill:rgba(244,244,244,0.05);}</style></defs><g transform="translate(-664.433 -57.954)"><g transform="translate(664.433 57.954)"><path class="a" d="M2330.551,3354.805c896.069,1.019,1623.327-724.474,1624.438-1620.551v-51.583c.182-897.1-726.88-1624.532-1623.973-1624.718h-.465c-771.983,0-1409.775,458.966-1666.119,1332.354a728.1,728.1,0,0,1,649.741-420.256c406.552.37,735.96,330.241,735.589,736.883-.371,406.086-329.5,735.216-735.589,735.586a716.652,716.652,0,0,1-649.741-420.256C920.776,2800.175,1430.392,3354.62,2330.551,3354.62m-876.267-771.981c476.106-8.428,855.709-400.161,849.316-876.259h0c6.393-476.191-373.4-867.923-849.491-876.258a825.053,825.053,0,0,0-417.3,113.26,976.6,976.6,0,0,1,634.828-292.086c582.693,0,1055.088,472.394,1055.088,1055.085,0,582.783-472.395,1055.178-1055.088,1055.178a976.6,976.6,0,0,1-634.828-292.086,833.054,833.054,0,0,0,417.3,113.26m608.06,512.678A1383.686,1383.686,0,0,1,1257.4,2839.07a1303.136,1303.136,0,0,1-205.684-199.663,1201.789,1201.789,0,0,0,825.606,321.906c686.135-7.316,1236.78-568.706,1230.946-1254.841h0c5.833-686.133-544.812-1247.524-1230.946-1254.84a1201.788,1201.788,0,0,0-825.606,321.906A1182.5,1182.5,0,0,1,1257.4,573.874C1882.789,129.54,2749.968,276.324,3194.4,901.707,3638.729,1527.09,3491.949,2394.365,2866.47,2838.7a1389.24,1389.24,0,0,1-804.3,256.71" transform="translate(-664.432 -57.954)"/></g></g></svg>