<svg xmlns="http://www.w3.org/2000/svg" width="40" height="40" viewBox="0 0 40 40"><defs><style>.a{fill:#80e315;}</style></defs><path class="a" d="M224.113,218.742l9.292-5.351-9.292-5.351Z" transform="translate(-207.997 -193.39)"/><path class="a" d="M20,0A20,20,0,1,0,40,20,20,20,0,0,0,20,0ZM32.5,20.02a33.009,33.009,0,0,1-.515,6.012,3.131,3.131,0,0,1-2.2,2.2C27.824,28.75,20,28.75,20,28.75s-7.8,0-9.779-.535a3.132,3.132,0,0,1-2.2-2.2A32.863,32.863,0,0,1,7.5,20a32.987,32.987,0,0,1,.515-6.012,3.2,3.2,0,0,1,2.2-2.224C12.176,11.25,20,11.25,20,11.25s7.824,0,9.779.535a3.132,3.132,0,0,1,2.2,2.2A31.322,31.322,0,0,1,32.5,20.02Z"/></svg>