<svg width="78" height="77" viewBox="0 0 78 77" fill="none" xmlns="http://www.w3.org/2000/svg">
<g clip-path="url(#clip0_308_65)">
<path d="M44.3567 5.58984H73.1021C75.5487 5.58984 76.5736 6.59837 76.5736 9.01372C76.5736 22.4328 76.5736 35.852 76.5736 49.2711C76.5736 49.6647 76.7931 50.1608 76.2631 50.4357C75.5044 50.8316 75.0958 50.6336 74.9464 49.7788C74.4608 47.1539 72.1449 45.7261 69.6213 46.518C69.0797 46.688 68.7505 46.6647 68.3419 46.2152C67.8965 45.6907 67.3162 45.2973 66.6634 45.0773C66.0105 44.8573 65.3099 44.8191 64.637 44.9668C64.0487 45.0809 63.8292 44.8876 63.8736 44.3006C63.8997 43.9515 63.8942 43.6007 63.8572 43.2525C63.6238 40.8861 61.8332 39.1904 59.676 39.2626C57.3415 39.3418 55.6466 41.1493 55.6232 43.6555C55.5937 47.1492 55.5937 50.643 55.6232 54.1367C55.6232 54.8704 55.4412 55.3339 54.7338 55.6251C53.34 56.1732 52.1497 57.1371 51.3253 58.3851C51.0568 58.7927 50.6786 58.8183 50.2584 58.8183C48.4818 58.8183 46.7052 58.8183 44.9286 58.8183H15.4781C13.1786 58.823 12.1397 57.7632 12.1397 55.4597C12.1397 53.3052 12.1561 51.1507 12.1397 48.9962C12.1252 48.7094 12.1727 48.4228 12.279 48.156C12.3854 47.8891 12.5481 47.6482 12.756 47.4497C16.2392 43.9233 16.7645 39.9963 14.3342 35.6128C14.0517 35.1027 14.2151 34.8232 14.5537 34.4855C16.1668 32.8854 17.7847 31.2922 19.3675 29.6665C20.0305 29.001 20.4583 28.1384 20.5863 27.2089C20.7144 26.2794 20.5357 25.3335 20.0772 24.5143C18.6765 22.099 15.4571 21.6611 13.3864 23.5966C13.0385 23.9204 12.7234 24.6192 12.2938 24.4282C11.9063 24.2581 12.1397 23.5244 12.1397 23.0586C12.1288 18.3149 12.1288 13.5704 12.1397 8.82506C12.1397 6.67524 13.216 5.58984 15.3591 5.58984C25.0273 5.58984 34.6931 5.58984 44.3567 5.58984ZM48.8554 30.279C49.4297 30.3 50.0343 30.0741 50.5783 30.3582C51.4724 30.8241 51.414 31.6602 51.3253 32.4964C51.0919 34.574 51.1619 34.6905 53.0319 35.4405C55.761 36.5329 55.4318 36.9242 57.6216 34.4156C58.2706 33.6726 59.1181 33.6726 59.8021 34.383C60.2457 34.8489 60.6729 35.3147 61.1188 35.7805C61.3155 36.0184 61.5873 36.1825 61.8898 36.246C62.1922 36.3094 62.5073 36.2685 62.7833 36.1299C63.5841 35.7829 64.3919 35.4521 65.202 35.1237C65.525 35.0202 65.8013 34.8068 65.9826 34.5207C66.164 34.2346 66.2388 33.894 66.1941 33.5585C66.1537 32.9203 66.1373 32.2806 66.1451 31.6393C66.1451 30.7868 66.7101 30.2418 67.5715 30.2418C67.9801 30.2418 68.3886 30.2534 68.7948 30.2651C70.5481 30.3186 70.6742 30.2651 71.3185 28.6346C72.4858 25.6906 72.7893 26.217 70.345 23.9414C69.5396 23.1937 69.5722 22.3925 70.408 21.6448C70.8212 21.2768 71.2298 20.9041 71.6383 20.5315C72.1683 20.0493 72.3387 19.4857 72.0446 18.8032C71.678 17.9461 71.3442 17.0796 70.9776 16.2202C70.8776 15.9431 70.6896 15.7063 70.4423 15.5456C70.1949 15.385 69.9017 15.3095 69.6073 15.3304C69.0563 15.3304 68.5053 15.4236 67.9544 15.4515C66.6447 15.5144 66.1288 15.0183 66.1451 13.7256C66.1451 13.1433 66.1731 12.561 66.1895 11.9788C66.2203 11.6711 66.1444 11.3621 65.9745 11.1036C65.8045 10.845 65.5508 10.6524 65.2556 10.558C64.4175 10.2249 63.5841 9.87784 62.753 9.52614C62.0713 9.23965 61.5063 9.39803 61.0231 9.9384C60.6169 10.4042 60.2177 10.8701 59.7951 11.2986C59.0947 12.023 58.378 12.0207 57.694 11.2986C57.2504 10.8328 56.8185 10.367 56.3796 9.90114C55.9407 9.4353 55.3734 9.24198 54.7198 9.52381C53.8653 9.89182 52.9992 10.2365 52.1401 10.5999C51.8345 10.7096 51.576 10.9209 51.4081 11.1983C51.2402 11.4757 51.173 11.8022 51.2179 12.1232C51.26 12.7334 51.3393 13.3413 51.351 13.9516C51.3697 14.8949 50.7837 15.4725 49.8335 15.4515C49.2522 15.4515 48.6663 15.3654 48.092 15.3188C47.7432 15.2657 47.387 15.3386 47.0873 15.5243C46.7877 15.7101 46.5644 15.9965 46.4578 16.332C46.1192 17.1705 45.7784 18.0043 45.4235 18.8335C45.2923 19.0992 45.2539 19.401 45.3144 19.6909C45.3749 19.9808 45.5308 20.2423 45.7574 20.4336C46.2383 20.8995 46.7379 21.3467 47.2212 21.8102C47.8982 22.4623 47.9215 23.2077 47.2492 23.8529C46.7823 24.3001 46.3013 24.7123 45.8251 25.1409C45.3488 25.5695 45.1247 26.1378 45.4049 26.7899C45.7691 27.6797 46.1356 28.5679 46.5045 29.4545C46.6033 29.7148 46.7842 29.936 47.0201 30.0847C47.2559 30.2334 47.5337 30.3016 47.8118 30.279H48.8554ZM34.5118 53.1049H42.9839C45.022 53.1049 47.0601 53.0932 49.0981 53.1049C49.6421 53.1049 49.8709 52.9465 49.8872 52.3619C49.9456 50.4613 49.9666 50.4636 48.0196 50.424C47.9612 50.424 47.9029 50.424 47.8445 50.424C47.2912 50.4729 47.0531 50.2354 47.0694 49.667C47.0951 48.7959 47.0484 47.9202 47.0811 47.0491C47.1021 46.4574 46.9107 46.2106 46.2873 46.2245C44.0415 46.2711 44.443 45.9916 44.401 48.0436C44.401 48.1601 44.401 48.2765 44.401 48.393C44.345 50.7222 44.8306 50.3844 42.2859 50.431C41.6742 50.431 41.4665 50.1981 41.4758 49.6111C41.5015 48.1554 41.4992 46.6997 41.4758 45.2439C41.4478 43.1989 41.8377 43.4761 39.5872 43.4295C38.9592 43.4156 38.7841 43.6624 38.7957 44.2587C38.8237 45.6562 38.8214 47.0537 38.7957 48.4512C38.763 50.7058 39.1553 50.3774 36.802 50.4403C36.0573 50.459 35.8682 50.1701 35.8682 49.4691C35.8962 46.6484 35.8915 43.8255 35.8682 41.0025C35.8682 39.0181 36.167 39.2976 34.1033 39.2347C33.3375 39.2091 33.1811 39.5212 33.1881 40.2083C33.2161 42.9427 33.2161 45.6787 33.1881 48.4163C33.1671 50.7152 33.585 50.3774 31.1454 50.438C30.4263 50.4566 30.2536 50.1538 30.2676 49.5063C30.2979 48.0506 30.2863 46.5949 30.2676 45.1415C30.2512 43.2199 30.5384 43.4854 28.5353 43.4272C27.8163 43.4062 27.5665 43.6345 27.5828 44.3589C27.6272 46.1034 27.5828 47.8526 27.6038 49.5972C27.6038 50.1818 27.4218 50.4357 26.8031 50.424C24.2351 50.3798 24.737 50.7082 24.6786 48.393C24.6786 48.2765 24.6786 48.1601 24.6786 48.0436C24.6366 45.9846 25.0358 46.2478 22.7993 46.2269C22.741 46.2269 22.6826 46.2269 22.6242 46.2269C22.176 46.2012 21.9986 46.4202 22.0056 46.8581C22.0056 47.643 22.0056 48.4303 22.0056 49.2152C22.0056 50.4124 22.0056 50.4077 20.8056 50.417C19.036 50.431 19.2718 50.2027 19.1901 51.9939C19.1481 52.9046 19.4632 53.1142 20.3317 53.1072C25.0849 53.0909 29.8007 53.1049 34.5165 53.1049H34.5118ZM29.0583 16.9003C25.6218 16.9003 22.1853 16.9143 18.7489 16.9003C18.0765 16.9003 17.7543 17.082 17.8454 17.79C17.8582 17.9932 17.8582 18.1971 17.8454 18.4003C17.8454 19.5812 17.8454 19.5835 19.05 19.5835C25.5168 19.5835 31.9827 19.5835 38.4479 19.5835C40.2852 19.5835 40.0331 19.8164 40.1078 17.967C40.1428 17.1053 39.8416 16.8863 39.0152 16.8956C35.7001 16.9236 32.3804 16.9003 29.0583 16.9003ZM31.7617 25.1549C34.0052 25.1549 36.2487 25.1549 38.4899 25.1549C40.2969 25.1549 40.0401 25.3878 40.1101 23.4988C40.1428 22.6813 39.865 22.4623 39.0689 22.4693C34.4371 22.5019 29.8077 22.4693 25.1759 22.4903C23.2149 22.4903 23.4857 22.1852 23.4297 24.2744C23.411 24.9732 23.6631 25.1782 24.3355 25.1688C26.8124 25.1409 29.2871 25.1549 31.7617 25.1549ZM33.2535 11.3033C31.4769 11.3033 29.7003 11.2916 27.9237 11.3033C26.0163 11.3173 26.2895 11.0308 26.2241 13.0502C26.2008 13.7908 26.4716 13.9818 27.1813 13.9818C30.8792 13.9539 34.5795 13.9818 38.2775 13.9632C40.3365 13.9632 40.0564 14.3289 40.1031 12.0999C40.1171 11.4803 39.8696 11.294 39.2813 11.301C37.2736 11.3266 35.2635 11.3103 33.2535 11.3103V11.3033ZM30.3703 30.7449C32.1166 30.7449 33.8721 30.7565 35.6114 30.7449C37.5187 30.7286 37.2456 31.0174 37.311 28.9957C37.3343 28.255 37.0635 28.064 36.3538 28.064C32.6558 28.0919 28.9579 28.064 25.2576 28.0826C23.2009 28.0826 23.4787 27.7193 23.432 29.9599C23.4203 30.5795 23.6654 30.7658 24.2538 30.7588C26.2918 30.7449 28.3322 30.7449 30.3703 30.7449ZM20.6445 12.5774C20.6445 13.9912 20.6445 13.9912 21.7931 13.9935C23.3176 13.9935 23.3176 13.9935 23.3176 12.78C23.3176 11.3219 23.3176 11.3219 22.127 11.3219C20.6469 11.308 20.6469 11.308 20.6445 12.5774Z" fill="#88E525"/>
<path d="M58.2706 52.8214V43.4791C58.2706 42.6755 58.6441 42.1305 59.4379 41.9698C59.7533 41.8902 60.0868 41.9243 60.3794 42.0663C60.672 42.2082 60.905 42.4487 61.0371 42.7454C61.2285 43.0971 61.1818 43.4814 61.1841 43.8587C61.1841 47.059 61.2052 50.2616 61.1701 53.4619C61.1701 54.2235 61.3219 54.5636 62.1763 54.5286C64.1023 54.4494 63.8385 54.7196 63.8572 52.8423C63.8572 51.5916 63.8455 50.3385 63.8572 49.0877C63.8736 48.1025 64.4595 47.5108 65.3467 47.5318C66.1918 47.5504 66.7474 48.1304 66.7591 49.0807C66.7778 51.0582 66.7918 53.0403 66.7591 55.0178C66.7474 55.7025 66.9692 55.9378 67.6602 55.9191C69.7403 55.8632 69.4205 56.1311 69.4438 54.1676C69.4555 53.0636 69.4438 51.9572 69.4438 50.8509C69.4438 49.5489 69.9411 48.9153 70.9263 48.9293C71.8764 48.941 72.3574 49.5652 72.3597 50.8113C72.3597 52.6443 72.3924 54.4797 72.348 56.3104C72.3293 57.0558 72.5278 57.3469 73.3215 57.3213C75.3036 57.2514 75.0071 57.5263 75.0351 55.5837C75.0351 55.1761 75.0141 54.7639 75.0608 54.3633C75.0957 54.0116 75.2646 53.6867 75.5326 53.4557C75.8007 53.2247 76.1474 53.1052 76.5012 53.1218C77.2576 53.1218 77.9019 53.6203 77.9253 54.3772C78.0794 59.5969 78.1587 64.8212 75.8102 69.6915C75.3209 70.6842 75.0928 71.7846 75.1472 72.8895C75.1962 73.9935 75.1472 75.0999 75.1635 76.2062C75.1635 76.7466 74.9954 76.9981 74.4141 76.9958C70.2212 76.9849 66.0291 76.9849 61.8378 76.9958C61.2075 76.9958 61.0511 76.7256 61.0464 76.1526C61.0464 75.0486 61.1071 73.9469 60.946 72.8429C60.8422 72.0615 60.5705 71.3118 60.1494 70.6449C59.7284 69.978 59.1679 69.4097 58.5064 68.9788C57.2551 68.1263 55.9617 67.3344 54.7384 66.4447C52.0117 64.4602 51.937 60.6101 54.575 58.6909C54.8271 58.5069 55.0956 58.1947 55.4178 58.3578C55.74 58.5208 55.5765 58.8842 55.5812 59.159C55.5952 60.1792 55.5999 61.197 55.5812 62.2149C55.5812 62.697 55.761 62.8973 56.2489 62.8927C58.7072 62.8671 58.2286 63.1396 58.2496 61.0293C58.2776 58.2949 58.2496 55.5581 58.2496 52.8214H58.2706Z" fill="#88E525"/>
<path d="M9.46196 25.0946C9.45963 25.1233 9.45963 25.1521 9.46196 25.1808C9.75378 26.8578 9.20983 28.1878 7.82777 29.1753C7.2558 29.583 7.22779 29.9486 7.78575 30.475C9.01606 31.6396 8.98571 31.6652 10.1973 30.4564C11.8455 28.8097 13.4821 27.1536 15.1466 25.5255C15.4169 25.2341 15.7812 25.0466 16.1759 24.996C16.5707 24.9453 16.9707 25.0346 17.3061 25.2484C17.9714 25.6932 18.1372 26.3431 17.9691 27.0884C17.8687 27.5333 17.5465 27.8431 17.236 28.1528C15.3762 30.0038 13.5218 31.8562 11.6728 33.7102C10.6713 34.7164 10.6573 35.1264 11.5654 36.2304C13.8813 39.0487 13.7576 42.7078 11.2176 45.3328C9.55067 47.0494 7.8301 48.7031 6.16089 50.4081C5.69398 50.8948 5.4185 50.8972 5.07532 50.2706C3.4707 47.3343 1.84429 44.4089 0.19609 41.4943C-0.0747191 41.0122 -0.105068 40.6069 0.364178 40.2832C2.15479 39.0487 2.46528 37.3135 2.38591 35.2568C2.24583 32.0309 2.34622 28.7957 2.34855 25.5651C2.34855 23.4689 3.43413 22.3765 5.50488 22.3672C6.58345 22.3672 7.65968 22.3835 8.73825 22.3672C9.25652 22.3672 9.48064 22.5628 9.46196 23.0869C9.44095 23.7577 9.46196 24.4262 9.46196 25.097V25.0946Z" fill="#88E525"/>
<path d="M40.0657 2.92544C34.3904 2.92544 28.7127 2.9068 23.0351 2.94174C22.155 2.94174 21.8678 2.70882 21.9028 1.81209C21.9845 -0.258538 21.6857 0.0116458 23.7401 0.0116458C34.8604 0.00388195 45.9807 0 57.101 0C58.3897 0 58.3967 0 58.3897 1.2857C58.3897 3.10944 58.5694 2.91612 56.7555 2.91612C51.1883 2.92854 45.6251 2.93165 40.0657 2.92544Z" fill="#88E525"/>
<path d="M36.041 64.4158C31.7057 64.4158 27.3681 64.3925 23.0328 64.4345C22.1503 64.4345 21.8655 64.1829 21.9029 63.3001C21.9822 61.2318 21.6857 61.5044 23.7402 61.502C32.1212 61.4904 40.5 61.502 48.881 61.4834C49.7238 61.4834 50.2211 61.5789 50.0343 62.6037C49.9339 63.1557 50.4545 63.8708 50.0343 64.2668C49.6141 64.6627 48.867 64.4065 48.2647 64.4088C44.1886 64.4205 40.1148 64.4158 36.041 64.4158Z" fill="#88E525"/>
<path d="M16.6548 64.4061C16.0174 64.4061 15.3778 64.4364 14.7428 64.4061C13.9957 64.3472 13.3023 63.9957 12.8141 63.4283C12.3259 62.861 12.0826 62.1239 12.1374 61.3782C12.1724 61.0545 12.2191 60.7563 12.6463 60.938C14.4486 61.709 16.3536 61.4877 18.2283 61.4784C19.029 61.4784 19.2858 61.7322 19.2602 62.5242C19.1925 64.7229 19.4936 64.3875 17.3528 64.4131C17.1194 64.4131 16.8859 64.4131 16.6525 64.4131L16.6548 64.4061Z" fill="#88E525"/>
<path d="M62.5266 0C63.9833 0 63.9833 0 63.9833 1.46039C63.9833 2.92078 63.9833 2.91845 62.4332 2.91845C61.0628 2.91845 61.0628 2.91845 61.0651 1.36955C61.0651 0 61.0651 0 62.5266 0Z" fill="#88E525"/>
<path d="M50.2654 22.6065C50.6413 21.3837 49.8148 20.5102 48.8203 19.7067C48.4655 19.4202 48.0732 19.1593 48.3534 18.5421C48.6055 17.9854 49.0538 17.9109 49.5043 18.018C51.4864 18.4839 52.5626 17.1888 53.6715 15.9404C53.8876 15.6605 53.9894 15.3093 53.9563 14.9575C53.9563 14.4055 53.9563 13.8511 53.919 13.2991C53.8956 12.8519 54.1034 12.612 54.4933 12.4303C54.9345 12.2254 55.2263 12.3931 55.4598 12.7355C56.3446 14.0328 57.5165 14.5126 59.111 14.4008C60.1616 14.3263 60.9787 14.0934 61.5857 13.2362C61.7538 13.0033 61.9709 12.8007 62.1553 12.5771C62.4074 12.2743 62.7039 12.3022 63.0238 12.435C63.3436 12.5678 63.6004 12.7238 63.6004 13.1151C63.6168 13.2302 63.6168 13.3471 63.6004 13.4622C62.9724 15.4513 64.3218 16.5111 65.5428 17.6547C66.0914 18.1624 66.7404 17.9668 67.3637 18.032C67.987 18.0972 68.7341 17.636 69.1216 18.5304C69.5092 19.4248 68.6547 19.695 68.2345 20.1003C66.8198 21.4559 66.7754 24.1787 68.2018 25.5133C68.4586 25.7462 68.7038 26.0024 68.9722 26.212C69.1043 26.3053 69.1965 26.4447 69.2307 26.6025C69.2648 26.7603 69.2384 26.9252 69.1567 27.0645C69.0096 27.4046 68.8438 27.6934 68.4073 27.6701C68.204 27.6839 68 27.6776 67.798 27.6515C65.6805 27.0645 64.7934 28.7043 63.6985 29.9317C63.4207 30.2415 63.4463 30.6887 63.5024 31.0963C63.5584 31.5039 63.5701 31.9069 63.6074 32.3121C63.6367 32.4998 63.5974 32.6918 63.4967 32.8529C63.396 33.0141 63.2406 33.1338 63.0588 33.1902C62.6339 33.3766 62.3024 33.3067 62.0783 32.9317C61.0137 31.1452 59.3142 31.1848 57.5586 31.3013C56.515 31.3665 56.1578 32.2725 55.5508 32.8455C55.2077 33.1646 54.9322 33.4348 54.4233 33.1693C54.1011 33.0039 53.9026 32.8129 53.926 32.4402C53.9178 32.3535 53.9178 32.2661 53.926 32.1794C54.4163 30.2345 53.2256 29.0839 51.9463 27.9729C51.764 27.8046 51.5464 27.679 51.3094 27.6053C51.0723 27.5316 50.8217 27.5115 50.5759 27.5467C50.2024 27.5979 49.8242 27.6212 49.4483 27.6608C48.9417 27.712 48.5542 27.6095 48.3394 27.0575C48.1246 26.5055 48.4421 26.2563 48.7783 25.9582C50.2677 24.6701 50.2654 24.6678 50.2654 22.6065ZM53.6645 22.8091C53.6681 24.1598 54.2046 25.4547 55.158 26.4137C56.1113 27.3727 57.4048 27.9186 58.7585 27.9333C61.4433 27.9892 63.8806 25.5156 63.8455 22.7695C63.8141 21.4492 63.274 20.1918 62.3376 19.2584C61.4011 18.325 60.1403 17.7873 58.8169 17.7572C58.1456 17.7495 57.4794 17.8743 56.8566 18.1243C56.2338 18.3744 55.6667 18.7448 55.1878 19.2143C54.709 19.6838 54.328 20.2431 54.0665 20.86C53.8051 21.4769 53.6685 22.1393 53.6645 22.8091Z" fill="#88E525"/>
<path d="M61.1818 22.8515C61.1878 23.1717 61.1291 23.4898 61.0091 23.7868C60.8891 24.0838 60.7104 24.3536 60.4835 24.5802C60.2567 24.8067 59.9864 24.9853 59.6888 25.1053C59.3912 25.2253 59.0725 25.2842 58.7515 25.2785C58.1041 25.286 57.4801 25.0368 57.0165 24.5857C56.553 24.1346 56.2879 23.5184 56.2792 22.8725C56.2786 22.5449 56.3428 22.2204 56.4681 21.9177C56.5934 21.6149 56.7773 21.3398 57.0094 21.108C57.2414 20.8763 57.517 20.6925 57.8204 20.5672C58.1237 20.442 58.4489 20.3776 58.7772 20.3779C59.0979 20.3828 59.4145 20.4506 59.7089 20.5776C60.0033 20.7045 60.2698 20.8881 60.4931 21.1178C60.7164 21.3475 60.8921 21.6188 61.0103 21.9163C61.1285 22.2138 61.1868 22.5316 61.1818 22.8515Z" fill="#88E525"/>
</g>
<defs>
<clipPath id="clip0_308_65">
<rect width="78" height="77" fill="white"/>
</clipPath>
</defs>
</svg>
