<svg id="Group_152" data-name="Group 152" xmlns="http://www.w3.org/2000/svg" xmlns:xlink="http://www.w3.org/1999/xlink" width="50.871" height="64.036" viewBox="0 0 50.871 64.036">
  <defs>
    <clipPath id="clip-path">
      <rect id="Rectangle_41" data-name="Rectangle 41" width="50.871" height="64.036" fill="none"/>
    </clipPath>
  </defs>
  <g id="Group_151" data-name="Group 151" clip-path="url(#clip-path)">
    <path id="Path_264" data-name="Path 264" d="M14.477,7.745h9.011l1.974-5.922H12.5ZM25.057,22.07v6.373a19.527,19.527,0,0,0,11.575,17.9l.419.187.421-.187a19.527,19.527,0,0,0,11.575-17.9V22.07l-4.628-4.63H29.685ZM4.784,1.823A2.964,2.964,0,0,0,1.823,4.784V59.252a2.964,2.964,0,0,0,2.961,2.961h28.4a2.964,2.964,0,0,0,2.959-2.961V48.119l-.588-.275a21.433,21.433,0,0,1-12.319-19.4V21.691a.91.91,0,0,1,.267-.644l5.162-5.162a.915.915,0,0,1,.646-.267h6.831V4.784A2.964,2.964,0,0,0,33.18,1.823h-5.8L25.009,8.943a.909.909,0,0,1-.863.624H13.818a.913.913,0,0,1-.865-.624L10.58,1.823Zm0,62.213A4.789,4.789,0,0,1,0,59.252V4.784A4.789,4.789,0,0,1,4.784,0h28.4a4.79,4.79,0,0,1,4.784,4.784V15.617H44.8a.915.915,0,0,1,.646.267L50.6,21.047a.91.91,0,0,1,.267.644v6.752a21.433,21.433,0,0,1-12.319,19.4l-.588.275V59.252a4.79,4.79,0,0,1-4.784,4.784Z" fill="#14355b"/>
    <path id="Path_265" data-name="Path 265" d="M19.94,22.515a.907.907,0,0,1-.644-.267L15.645,18.6a.912.912,0,0,1,0-1.288.91.91,0,0,1,1.288,0l3.007,3L26.6,13.657a.912.912,0,1,1,1.29,1.288l-7.3,7.3a.907.907,0,0,1-.644.267" transform="translate(15.286 13.31)" fill="#8bc63f"/>
    <path id="Path_266" data-name="Path 266" d="M8.031,29.139a.911.911,0,0,1,0-1.823h7.745a.911.911,0,0,1,0,1.823Z" transform="translate(7.077 27.152)" fill="#14355b"/>
  </g>
</svg>
