<svg xmlns="http://www.w3.org/2000/svg" xmlns:xlink="http://www.w3.org/1999/xlink" width="68.87" height="66.943" viewBox="0 0 68.87 66.943">
  <defs>
    <clipPath id="clip-path">
      <rect id="Rectangle_42" data-name="Rectangle 42" width="68.87" height="66.943" fill="none"/>
    </clipPath>
  </defs>
  <g id="Group_154" data-name="Group 154" transform="translate(0 0)">
    <g id="Group_153" data-name="Group 153" transform="translate(0 0)" clip-path="url(#clip-path)">
      <path id="Path_267" data-name="Path 267" d="M18.972,11.67a4.824,4.824,0,0,1-.659-.132.513.513,0,0,1-.309-.22.424.424,0,0,1,.325-.655,7.245,7.245,0,0,0,.77.148.441.441,0,0,1,.284.173.434.434,0,0,1-.348.69Z" transform="translate(18.992 11.293)" fill="#8cc740"/>
      <path id="Path_268" data-name="Path 268" d="M13.332,16.631H14.5V15.611h-.35V11.248l-.585-.043H11.489v4.948l.583.043h1.26Zm20.734,0h1.17V15.611h-.348V11.248l-.585-.043h-2.08v4.948l.585.043h1.258Zm-3.953,4.676c-.161,0-.327-.008-.494-.023a.432.432,0,0,1-.393-.467.421.421,0,0,1,.426-.4c.2.014.344.021.488.021a2.816,2.816,0,0,0,2.055-.741,3.455,3.455,0,0,0,.906-1.97l.1-.669h-.677c-.422,0-1.163,0-1.163-1.493V11.831c0-1.359.618-1.445.85-1.478l.743-.105-.282-.692a10.221,10.221,0,0,0-9.527-6.6,10.587,10.587,0,0,0-9.772,6.57l-.338.809h.875c.739,0,1.108.5,1.108,1.491v3.737c0,.99-.369,1.493-1.1,1.493H11.68c-.317,0-1.058,0-1.06-1.495V11.831c0-1.491.741-1.491,1.058-1.491h.455L12.3,9.9A11.477,11.477,0,0,1,23.141,2.1a11.206,11.206,0,0,1,10.6,7.767l.1.463.813.014c.733,0,1.1.5,1.1,1.491v3.737c0,.99-.369,1.493-1.1,1.493h-.527l-.142.525a5.7,5.7,0,0,1-.492,1.783,3.532,3.532,0,0,1-3.377,1.938" transform="translate(11.247 2.22)" fill="#8bc63f"/>
      <path id="Path_269" data-name="Path 269" d="M20.007,20.3c-3.544,0-6.42-5.516-6.42-9.115a6.694,6.694,0,0,1,6.42-6.776,6.7,6.7,0,0,1,6.422,6.776,10.969,10.969,0,0,1-1,4.235.428.428,0,0,1-.4.257c-.278-.082-.36-.167-.4-.274a.43.43,0,0,1,.006-.332,10.274,10.274,0,0,0,.924-3.889,5.893,5.893,0,0,0-5.555-5.911,5.893,5.893,0,0,0-5.555,5.911c0,3.109,2.6,8.253,5.555,8.253a2.742,2.742,0,0,0,.805-.124l.056,0a.447.447,0,0,1,.482.292.434.434,0,0,1-.29.539,3.646,3.646,0,0,1-1.054.159" transform="translate(14.389 4.669)" fill="#14355b"/>
      <path id="Path_270" data-name="Path 270" d="M16.917,18a.433.433,0,0,1-.424-.437l0-.268a.434.434,0,0,1,.743-.3.424.424,0,0,1,.124.307l0,.268a.435.435,0,0,1-.434.428Z" transform="translate(17.466 17.867)" fill="#14355b"/>
      <path id="Path_271" data-name="Path 271" d="M6.744,33.073a.546.546,0,0,1,0-1.091H49a.546.546,0,1,1,0,1.091Z" transform="translate(6.564 33.87)" fill="#14355b"/>
      <path id="Path_272" data-name="Path 272" d="M5.94,27.474a.545.545,0,1,1,0-1.089H17.178V23.512a9.87,9.87,0,0,1,5.773-9.175,8.6,8.6,0,0,0,2.078-1.213.444.444,0,0,1,.3-.121.439.439,0,0,1,.321.138.433.433,0,0,1-.023.605,6.514,6.514,0,0,1-1.1.764l-2.839,1.629a9.011,9.011,0,0,0-3.644,7.373v2.872H28.249V24.317a.433.433,0,1,1,.867,0v2.067H39.322V23.512a9.009,9.009,0,0,0-3.4-7.19l-2.977-1.758a6.919,6.919,0,0,1-1.2-.813.435.435,0,0,1-.023-.614A.43.43,0,0,1,32.046,13a.437.437,0,0,1,.292.113,8.176,8.176,0,0,0,2.078,1.219l.089.051.148.049a9.868,9.868,0,0,1,5.535,9.082v2.87H51.6a.545.545,0,0,1,.387.161.535.535,0,0,1,.156.383.545.545,0,0,1-.544.546Z" transform="translate(5.712 13.767)" fill="#14355b"/>
      <path id="Path_273" data-name="Path 273" d="M2.974,20.589a.545.545,0,1,1,0-1.089h1.82a.545.545,0,1,1,0,1.089Z" transform="translate(2.571 20.651)" fill="#14355b"/>
      <path id="Path_274" data-name="Path 274" d="M30.329,20.589a.545.545,0,1,1,0-1.089H32.12a.545.545,0,1,1,0,1.089Z" transform="translate(31.541 20.651)" fill="#14355b"/>
      <path id="Path_275" data-name="Path 275" d="M4.114,1.091A2.847,2.847,0,0,0,1.27,3.935L1.089,44.784a2.845,2.845,0,0,0,2.844,2.841H64.754A2.845,2.845,0,0,0,67.6,44.784l.181-40.851a2.846,2.846,0,0,0-2.843-2.841Zm25.8,48.181c-.1,2.119-1.027,6.383-6.058,11.137l-1.069,1.009H46.169l-.995-1c-4.973-4.973-5.959-9.48-6.152-11.187l-.058-.519H29.936ZM21.2,62.51a.545.545,0,0,1-.334-.978c6.859-5.327,7.849-10.3,7.958-12.2l.035-.618H3.935A3.938,3.938,0,0,1,0,44.784L.179,3.933A3.937,3.937,0,0,1,4.114,0H64.935A3.941,3.941,0,0,1,68.87,3.935l-.181,40.851a3.935,3.935,0,0,1-3.935,3.931h-24.7l.1.669c.284,1.917,1.62,6.935,7.874,12.161a.546.546,0,0,1-.352.964Z" transform="translate(0 0)" fill="#14355b"/>
    </g>
  </g>
</svg>
