<svg id="Group_145" data-name="Group 145" xmlns="http://www.w3.org/2000/svg" xmlns:xlink="http://www.w3.org/1999/xlink" width="68" height="71" viewBox="0 0 68 71">
  <defs>
    <clipPath id="clip-path">
      <rect id="Rectangle_34" data-name="Rectangle 34" width="68" height="71" fill="none"/>
    </clipPath>
  </defs>
  <g id="Group_137" data-name="Group 137" transform="translate(0 0)" clip-path="url(#clip-path)">
    <path id="Path_234" data-name="Path 234" d="M20.984,43.725l1.382-1.393a10.464,10.464,0,0,1,7.362-3.125c.207,0,.415.006.624.02,1.059.07,2.385.115,3.865.115,4.192,0,14.337-.393,17.954-4.037L66.4,20.962a1.787,1.787,0,0,0-.126-2.629,5.115,5.115,0,0,0-6.705.168L50.4,26.927l.091.34a5.9,5.9,0,0,1,.193,1.551,2.973,2.973,0,0,1-2.966,2.944H27.709a.546.546,0,0,1,0-1.092H47.717A1.884,1.884,0,0,0,49.6,28.812a4.76,4.76,0,0,0-1.376-3.4A4.7,4.7,0,0,0,44.85,24h-8.9a10.819,10.819,0,0,1-3.808-.68,17.8,17.8,0,0,0-6.1-1.145,13.353,13.353,0,0,0-5.16,1,9.284,9.284,0,0,0-2.393,1.5L9.59,32.16s.506.516.539.545ZM6.929,31.886a1.853,1.853,0,0,0-1.319.551l-3.979,4.01a1.886,1.886,0,0,0-.549,1.336,1.865,1.865,0,0,0,.547,1.326L14.911,52.5a1.865,1.865,0,0,0,2.645,0l3.977-4.01a1.9,1.9,0,0,0,0-2.66c-.283-.285-12.886-12.987-13.288-13.389a1.839,1.839,0,0,0-1.319-.551m9.3,22.253a2.917,2.917,0,0,1-2.088-.869L.863,39.883a3,3,0,0,1,0-4.211l3.977-4.008A2.911,2.911,0,0,1,6.915,30.8a2.971,2.971,0,0,1,1.511.414l.35.209,9.017-7.592a10.453,10.453,0,0,1,2.673-1.674,14.409,14.409,0,0,1,5.571-1.08,18.926,18.926,0,0,1,6.483,1.213,9.713,9.713,0,0,0,3.428.611h8.9a5.773,5.773,0,0,1,4.727,2.428l.378.523,8.887-8.159a6.2,6.2,0,0,1,8.122-.207,2.891,2.891,0,0,1,.2,4.248L52.94,36.078C49.032,40.016,38.6,40.44,34.3,40.44h0c-1.5,0-2.867-.047-4.023-.123-.2-.014-.392-.02-.588-.02A9.213,9.213,0,0,0,23.135,43.1L21.752,44.5l.407.412a3.049,3.049,0,0,1,.14,4.352l-3.977,4.01a2.928,2.928,0,0,1-2.09.867" transform="translate(-0.001 16.862)" fill="#14365c"/>
    <path id="Path_235" data-name="Path 235" d="M27.7,4.54A2.2,2.2,0,0,0,25.72,5.782L24.165,8.946a3.29,3.29,0,0,1-2.478,1.813l-3.45.506a2.205,2.205,0,0,0-1.787,1.52,2.235,2.235,0,0,0,.561,2.287l2.5,2.447a3.34,3.34,0,0,1,.951,2.945l-.592,3.477a2.228,2.228,0,0,0,2.179,2.611,2.174,2.174,0,0,0,1.033-.262l3.09-1.639a3.267,3.267,0,0,1,3.078,0l3.076,1.639a2.217,2.217,0,0,0,3.216-2.346l-.586-3.485a3.334,3.334,0,0,1,.947-2.934L38.4,15.074a2.231,2.231,0,0,0,.561-2.287,2.207,2.207,0,0,0-1.789-1.52l-3.454-.508a3.292,3.292,0,0,1-2.482-1.818L29.689,5.786A2.2,2.2,0,0,0,27.7,4.54M22.046,27.647a3.348,3.348,0,0,1-2.533-1.2,3.274,3.274,0,0,1-.716-2.688l.592-3.479a2.247,2.247,0,0,0-.638-1.975l-2.495-2.445a3.287,3.287,0,0,1-.836-3.412,3.241,3.241,0,0,1,2.659-2.26l3.45-.508a2.213,2.213,0,0,0,1.663-1.215L24.748,5.3A3.286,3.286,0,0,1,30.66,5.3L32.2,8.456a2.218,2.218,0,0,0,1.665,1.221l3.458.508a3.243,3.243,0,0,1,2.659,2.262,3.284,3.284,0,0,1-.834,3.408L36.662,18.3a2.245,2.245,0,0,0-.638,1.971l.586,3.488a3.263,3.263,0,0,1-.716,2.684,3.353,3.353,0,0,1-2.537,1.2,3.233,3.233,0,0,1-1.539-.393l-3.076-1.637a2.195,2.195,0,0,0-2.066,0l-3.088,1.639a3.268,3.268,0,0,1-1.541.391" transform="translate(15.756 3.617)" fill="#14365c"/>
    <path id="Path_236" data-name="Path 236" d="M21.653,0a.546.546,0,0,0-.543.547V2.172a.542.542,0,1,0,1.084,0V.547A.544.544,0,0,0,21.653,0" transform="translate(21.808 0)" fill="#8cc740"/>
    <path id="Path_237" data-name="Path 237" d="M17.916,3.718a.539.539,0,0,1-.472-.273L16.64,2.04a.553.553,0,0,1,.2-.75.526.526,0,0,1,.27-.074.54.54,0,0,1,.47.275L18.384,2.9a.544.544,0,0,1-.468.82" transform="translate(17.115 1.276)" fill="#8cc740"/>
    <path id="Path_238" data-name="Path 238" d="M13.784,4.543a.54.54,0,0,0-.47.275.547.547,0,0,0,.2.746l1.393.811a.539.539,0,0,0,.272.074.546.546,0,0,0,.272-1.018l-1.4-.813a.526.526,0,0,0-.27-.074" transform="translate(13.679 4.766)" fill="#8cc740"/>
    <path id="Path_239" data-name="Path 239" d="M12.566,9.085a.547.547,0,0,0,0,1.094h1.61a.547.547,0,0,0,0-1.094Z" transform="translate(12.423 9.531)" fill="#8cc740"/>
    <path id="Path_240" data-name="Path 240" d="M29.946,9.086a.546.546,0,0,0,0,1.092h1.61a.546.546,0,0,0,0-1.092Z" transform="translate(30.375 9.532)" fill="#8cc740"/>
    <path id="Path_241" data-name="Path 241" d="M30.229,4.543a.512.512,0,0,0-.266.074l-1.4.813a.549.549,0,0,0-.2.744.546.546,0,0,0,.472.275.537.537,0,0,0,.268-.072l1.4-.813a.553.553,0,0,0,.2-.748.552.552,0,0,0-.472-.273" transform="translate(29.228 4.766)" fill="#8cc740"/>
    <path id="Path_242" data-name="Path 242" d="M26.6,1.216a.533.533,0,0,0-.47.275L25.33,2.9a.55.55,0,0,0,.2.748.541.541,0,0,0,.27.074.533.533,0,0,0,.47-.275l.805-1.406a.55.55,0,0,0-.2-.748.526.526,0,0,0-.27-.074" transform="translate(26.092 1.276)" fill="#8cc740"/>
  </g>
</svg>
