<svg xmlns="http://www.w3.org/2000/svg" xmlns:xlink="http://www.w3.org/1999/xlink" width="63.438" height="63.455" viewBox="0 0 63.438 63.455">
  <defs>
    <clipPath id="clip-path">
      <rect id="Rectangle_35" data-name="Rectangle 35" width="63.438" height="63.455" fill="none"/>
    </clipPath>
  </defs>
  <g id="Group_141" data-name="Group 141" transform="translate(0 0)">
    <g id="Group_142" data-name="Group 142" transform="translate(0 0)">
      <g id="Group_141-2" data-name="Group 141" clip-path="url(#clip-path)">
        <path id="Path_243" data-name="Path 243" d="M21.037,22.055a3.772,3.772,0,0,0-3.763,3.763V28.33A3.741,3.741,0,0,0,19.592,31.8l1.447.6,1.445-.6A3.747,3.747,0,0,0,24.8,28.33V22.055ZM15.288,35.968a3.748,3.748,0,0,0-2.318,3.477v4.122H29.1V39.443a3.741,3.741,0,0,0-2.318-3.475l-5.747-2.4Zm-2.855,8.674A.537.537,0,0,1,11.9,44.1V39.443a4.806,4.806,0,0,1,2.976-4.467l4.636-1.931-.929-.546A4.838,4.838,0,0,1,16.2,28.33V25.82a4.851,4.851,0,0,1,4.84-4.84h4.3a.538.538,0,0,1,.537.539V28.33A4.838,4.838,0,0,1,23.5,32.5l-.929.546L27.2,34.976a4.808,4.808,0,0,1,2.978,4.467V44.1a.537.537,0,0,1-.537.537Z" transform="translate(10.668 18.813)" fill="#14355b"/>
        <path id="Path_244" data-name="Path 244" d="M6.288,24.767a1.45,1.45,0,0,0-1.113,2.378l4.053,4.865h8.129l1.364-1.364a1.611,1.611,0,0,0,.474-1.14V26.783A1.622,1.622,0,0,0,17.9,25.2l-3.649-.73a.537.537,0,0,1-.431-.527V18.567a1.614,1.614,0,1,0-3.228,0v8.6a.537.537,0,0,1-.537.539.526.526,0,0,1-.379-.157l-2.361-2.36a1.441,1.441,0,0,0-1.024-.425M9.515,36.314h7.53V33.086H9.515Zm-.537,1.074a.538.538,0,0,1-.539-.537V32.743L4.348,27.834a2.525,2.525,0,0,1,3.725-3.4l1.443,1.44v-7.3a2.689,2.689,0,1,1,5.377,0V23.5l3.215.643a2.705,2.705,0,0,1,2.162,2.638v2.722a2.683,2.683,0,0,1-.787,1.9L18.12,32.771v4.08a.538.538,0,0,1-.539.537Z" transform="translate(3.37 14.237)" fill="#8bc63f"/>
        <path id="Path_245" data-name="Path 245" d="M10.453,23.167a15.6,15.6,0,1,1,27.406-.245l-.931-.541a14.519,14.519,0,1,0-25.553.23Z" transform="translate(7.617 0)" fill="#14355b"/>
        <path id="Path_246" data-name="Path 246" d="M21.548,3.909a9.143,9.143,0,1,0,9.142,9.144,9.152,9.152,0,0,0-9.142-9.144m0,19.36A10.217,10.217,0,1,1,31.765,13.053,10.229,10.229,0,0,1,21.548,23.268" transform="translate(10.16 2.542)" fill="#8bc63f"/>
      </g>
    </g>
    <rect id="Rectangle_36" data-name="Rectangle 36" width="1.075" height="1.074" transform="translate(27.943 11.83)" fill="#8bc63f"/>
    <rect id="Rectangle_37" data-name="Rectangle 37" width="1.075" height="1.074" transform="translate(34.395 11.83)" fill="#8bc63f"/>
    <g id="Group_144" data-name="Group 144" transform="translate(0 0)">
      <g id="Group_143" data-name="Group 143" clip-path="url(#clip-path)">
        <path id="Path_247" data-name="Path 247" d="M18.479,12.3a3.772,3.772,0,0,1-3.727-3.226h1.093a2.689,2.689,0,0,0,5.269,0H22.2A3.769,3.769,0,0,1,18.479,12.3" transform="translate(13.228 8.135)" fill="#8bc63f"/>
        <path id="Path_248" data-name="Path 248" d="M22.612,24.481H34.444V19.1H22.612Zm0,10.756H34.444V29.858H22.612Zm5.377,3.226V36.312H22.074a.537.537,0,0,1-.537-.537V29.321a.538.538,0,0,1,.537-.539H27.99V25.556H22.074a.537.537,0,0,1-.537-.537V18.565a.537.537,0,0,1,.537-.537H27.99V15.877h1.075v2.151h5.916a.537.537,0,0,1,.537.537v6.455a.537.537,0,0,1-.537.537H29.065v3.226h5.916a.538.538,0,0,1,.537.539v6.455a.537.537,0,0,1-.537.537H29.065v2.151Z" transform="translate(19.313 14.237)" fill="#8bc63f"/>
        <path id="Path_249" data-name="Path 249" d="M15.586,44.8A15.591,15.591,0,1,1,29.944,23.131l-1.005.383A14.519,14.519,0,0,0,1.061,29.193,14.522,14.522,0,0,0,19.2,43.259l.305,1.034a15.51,15.51,0,0,1-3.924.5" transform="translate(0 12.209)" fill="#14355b"/>
        <path id="Path_250" data-name="Path 250" d="M32.021,44.807A15.583,15.583,0,0,1,28.08,44.3l.305-1.032A14.516,14.516,0,1,0,18.653,23.52l-1.007-.385A15.6,15.6,0,1,1,32.021,44.807" transform="translate(15.824 12.202)" fill="#14355b"/>
      </g>
    </g>
  </g>
</svg>
