<svg id="Group_150" data-name="Group 150" xmlns="http://www.w3.org/2000/svg" xmlns:xlink="http://www.w3.org/1999/xlink" width="42.059" height="75.532" viewBox="0 0 42.059 75.532">
  <defs>
    <clipPath id="clip-path">
      <rect id="Rectangle_40" data-name="Rectangle 40" width="42.059" height="75.532" fill="none"/>
    </clipPath>
  </defs>
  <g id="Group_149" data-name="Group 149" transform="translate(0 0)" clip-path="url(#clip-path)">
    <path id="Path_253" data-name="Path 253" d="M5.488,1.414A4.079,4.079,0,0,0,1.412,5.487V8.368H40.645V5.487a4.078,4.078,0,0,0-4.075-4.073ZM1.412,59.775H40.647V9.783H1.412Zm0,10.271A4.081,4.081,0,0,0,5.488,74.12H36.571a4.079,4.079,0,0,0,4.075-4.075V61.187H1.412Zm4.076,5.487A5.5,5.5,0,0,1,0,70.043V5.487A5.5,5.5,0,0,1,5.49,0H36.571a5.5,5.5,0,0,1,5.488,5.488V70.045a5.5,5.5,0,0,1-5.488,5.487H5.488Z" transform="translate(0 0)" fill="#14365c"/>
    <path id="Path_254" data-name="Path 254" d="M14.558,40.273a2.88,2.88,0,1,0,2.879,2.879,2.884,2.884,0,0,0-2.879-2.879m0,7.173a4.293,4.293,0,1,1,4.292-4.293,4.3,4.3,0,0,1-4.292,4.293" transform="translate(6.472 24.501)" fill="#14365c"/>
    <path id="Path_255" data-name="Path 255" d="M5.08,25.886h5.761V15.343H5.08ZM4.373,27.3a.708.708,0,0,1-.708-.708V14.635a.707.707,0,0,1,.708-.7h7.173a.707.707,0,0,1,.708.7V26.59a.708.708,0,0,1-.708.708Z" transform="translate(2.311 8.784)" fill="#8cc740"/>
    <path id="Path_256" data-name="Path 256" d="M18.277,36.15h5.761V25.607H18.277Zm-.706,1.412a.708.708,0,0,1-.708-.708V24.9a.708.708,0,0,1,.708-.706h7.173a.706.706,0,0,1,.706.706V36.854a.707.707,0,0,1-.706.708Z" transform="translate(10.632 15.255)" fill="#8cc740"/>
    <path id="Path_257" data-name="Path 257" d="M25.295,27.107a.7.7,0,0,1-.7-.631,10.054,10.054,0,0,0-13.445-8.329l-.223.057a.724.724,0,0,1-.678-.466.708.708,0,0,1,.421-.907A11.467,11.467,0,0,1,26,26.334a.71.71,0,0,1-.58.77l.021,0Z" transform="translate(6.433 10.175)" fill="#14365c"/>
    <path id="Path_258" data-name="Path 258" d="M17.31,34.473A11.473,11.473,0,0,1,5.9,24.178a.707.707,0,0,1,.633-.773.742.742,0,0,1,.774.631,10.076,10.076,0,0,0,13.3,8.467l.311-.047a.711.711,0,0,1,.589.481.705.705,0,0,1-.437.9,11.37,11.37,0,0,1-3.765.638" transform="translate(3.72 14.757)" fill="#14365c"/>
    <path id="Path_259" data-name="Path 259" d="M19.4,27.808a.706.706,0,1,1,0-1.412h1.2a.706.706,0,1,1,0,1.412Z" transform="translate(11.789 16.643)" fill="#8cc740"/>
    <path id="Path_260" data-name="Path 260" d="M3.64,44.671a.706.706,0,1,1,0-1.412h1.2a.706.706,0,1,1,0,1.412Z" transform="translate(1.849 27.275)" fill="#14365c"/>
    <path id="Path_261" data-name="Path 261" d="M21.97,4.346a.707.707,0,1,1,0-1.414h1.2a.707.707,0,0,1,0,1.414Z" transform="translate(13.406 1.849)" fill="#8cc740"/>
    <path id="Path_262" data-name="Path 262" d="M20.5,46.52a.706.706,0,1,1,0-1.412h4.075V41.034a.706.706,0,1,1,1.412,0v3.584a1.9,1.9,0,0,1-1.9,1.9Z" transform="translate(12.482 25.426)" fill="#14365c"/>
    <path id="Path_263" data-name="Path 263" d="M6.172,17.543a.706.706,0,1,1,0-1.412h1.2a.706.706,0,1,1,0,1.412Z" transform="translate(3.445 10.171)" fill="#8cc740"/>
  </g>
</svg>
