<svg xmlns="http://www.w3.org/2000/svg" viewBox="0 0 48.82 48.83"><defs><style>.cls-1{fill:#0d345b;}</style></defs><g id="Layer_2" data-name="Layer 2"><g id="Layer_1-2" data-name="Layer 1"><path class="cls-1" d="M24.23,48.81c-4.9,0-9.8-.07-14.7,0A9.54,9.54,0,0,1,.05,40.56a7.58,7.58,0,0,1,0-1.17V11.28A9.38,9.38,0,0,1,9.42,1.87c1.23,0,2.46,0,3.69,0a1.88,1.88,0,0,1,2,1.94,1.9,1.9,0,0,1-2,1.89c-1.49,0-3-.08-4.45.09a5.57,5.57,0,0,0-4.74,4.73,15.56,15.56,0,0,0-.1,1.81V39a5.65,5.65,0,0,0,3.36,5.5A5.74,5.74,0,0,0,9.7,45H39.1a1.93,1.93,0,0,0,2.14-2.15c0-1.53,0-3,0-4.57,0-.53-.13-.72-.68-.71-2.27,0-4.53,0-6.8,0a7.54,7.54,0,0,1-1.5-14.94,5.94,5.94,0,0,1,1.33-.13H46.72a1.91,1.91,0,0,1,2.1,2.11V35.49a1.89,1.89,0,0,1-2.07,2.07c-1.68,0-1.68,0-1.68,1.69v3.86a5.63,5.63,0,0,1-5.73,5.7ZM39.11,26.32h-4.8a7.81,7.81,0,0,0-1.28.12,3.69,3.69,0,0,0,.91,7.29c3.5,0,7,0,10.48,0,.44,0,.58-.14.57-.57,0-2.09,0-4.18,0-6.27,0-.48-.17-.59-.62-.59C42.62,26.33,40.87,26.32,39.11,26.32Z"/><path class="cls-1" d="M45.07,15.76c0,.4,0,.82,0,1.22a1.87,1.87,0,0,1-1.89,1.84A1.9,1.9,0,0,1,41.24,17c0-.52,0-1,0-1.58a1.94,1.94,0,0,0-2.18-2.17H9.61a2.16,2.16,0,0,1-1.48-.43,1.86,1.86,0,0,1,.07-3,4,4,0,0,1,1-.49L32.74.24a2,2,0,0,1,3,1.3q1.47,3.63,2.92,7.28a.72.72,0,0,0,.75.56,5.59,5.59,0,0,1,5.68,5.79v.59Zm-25-6.5,0,.11h14c.38,0,.55,0,.37-.48-.55-1.34-1.08-2.68-1.6-4-.14-.35-.31-.44-.66-.29s-.83.34-1.25.5Z"/></g></g></svg>