<svg xmlns="http://www.w3.org/2000/svg" viewBox="0 0 45.47 59.33"><defs><style>.cls-1{fill:#0d345b;}</style></defs><g id="Layer_2" data-name="Layer 2"><g id="Layer_1-2" data-name="Layer 1"><path class="cls-1" d="M8.26,59.33A2,2,0,0,1,7,57.22C7,55.14,7,53.05,7,51a1.93,1.93,0,0,1,2.17-2.18h11c.82,0,.82,0,.82-.83V25.32c0-.81,0-.81-.84-.81-4.74,0-9.49,0-14.23,0a2.33,2.33,0,0,1-2.14-1.11c-1.07-1.58-2.18-3.13-3.27-4.7a1.81,1.81,0,0,1,0-2.44c1.14-1.65,2.3-3.29,3.44-4.94a2.06,2.06,0,0,1,1.84-.89H20.16c.8,0,.8,0,.8-.79C21,7.11,21,4.56,21,2a1.77,1.77,0,0,1,2-2c5.62,0,11.23,0,16.85,0A2,2,0,0,1,41.6.93C42.72,2.54,43.86,4.15,45,5.77a1.83,1.83,0,0,1,0,2.49c-1.13,1.64-2.28,3.26-3.41,4.89a2.2,2.2,0,0,1-2,.93h-14c-1.19,0-1-.08-1,1.06V48c0,.83,0,.83.82.83H36.16c1.67,0,2.34.68,2.34,2.35,0,2,0,4.06,0,6.08a2,2,0,0,1-1.3,2.11ZM31.88,3.56H25.11c-.44,0-.61.11-.61.58q0,2.87,0,5.73c0,.43.14.58.57.58H38.61a.81.81,0,0,0,.73-.37c.61-.89,1.22-1.79,1.86-2.66a.6.6,0,0,0,0-.82C40.56,5.75,40,4.9,39.38,4a1,1,0,0,0-.9-.48C36.28,3.57,34.08,3.56,31.88,3.56ZM13.59,20.88c2.25,0,4.51,0,6.77,0,.44,0,.61-.13.6-.6,0-1.87,0-3.74,0-5.61,0-.45-.12-.61-.59-.61H6.89a.82.82,0,0,0-.77.39c-.61.89-1.23,1.78-1.86,2.65a.55.55,0,0,0,0,.77c.59.81,1.17,1.62,1.72,2.46a1.09,1.09,0,0,0,1,.55C9.23,20.87,11.41,20.88,13.59,20.88Zm9.14,34.93c3.82,0,7.64,0,11.46,0,.55,0,.72-.17.69-.69s0-1.28,0-1.91c0-.81,0-.81-.79-.81H14.63c-1.14,0-2.28,0-3.41,0-.49,0-.65.17-.63.64a19.64,19.64,0,0,1,0,2c0,.58.14.76.74.76C15.13,55.8,18.93,55.81,22.73,55.81Z"/><path class="cls-1" d="M31.4,29.07A5.36,5.36,0,0,1,34,24.2a1.67,1.67,0,0,0,.79-2,1.66,1.66,0,0,0-3.23.41,2,2,0,0,1-1.11,1.76,1.79,1.79,0,0,1-2.53-1.65,5.28,5.28,0,0,1,10.21-1.88,5.21,5.21,0,0,1-2,6.3A2,2,0,0,0,35,29.17a2.63,2.63,0,0,1-.08.92A1.77,1.77,0,0,1,33,31.46a1.8,1.8,0,0,1-1.6-1.64C31.38,29.57,31.4,29.32,31.4,29.07Z"/><path class="cls-1" d="M31.39,36.59a1.81,1.81,0,1,1,1.77,1.87A1.9,1.9,0,0,1,31.39,36.59Z"/></g></g></svg>