<svg xmlns="http://www.w3.org/2000/svg" viewBox="0 0 49.22 37.54"><defs><style>.cls-1{fill:#0d345b;}</style></defs><g id="Layer_2" data-name="Layer 2"><g id="Layer_1-2" data-name="Layer 1"><path class="cls-1" d="M0,8.78A10.75,10.75,0,0,1,1.64,4.56,9.89,9.89,0,0,1,10.12,0q14.48,0,29,0A10.18,10.18,0,0,1,49.2,9.13c0,.31,0,.61,0,.92,0,3.5,0,7,0,10.51a10.16,10.16,0,0,1-8.74,10,12.31,12.31,0,0,1-1.72.08H13.35a1.86,1.86,0,0,0-1.07.31L2.6,37.1a2.28,2.28,0,0,1-1,.43,1.55,1.55,0,0,1-1.65-1ZM24.58,3H10.79A11.14,11.14,0,0,0,9.5,3a7.18,7.18,0,0,0-6.58,7.24q0,11.28,0,22.57c0,.14-.08.32.07.4s.25-.09.37-.16q3.87-2.46,7.73-4.93a2.76,2.76,0,0,1,1.62-.47H38.55a9.54,9.54,0,0,0,1.77-.15,7.17,7.17,0,0,0,5.94-7.12c0-3.41,0-6.82,0-10.23a7,7,0,0,0-2.59-5.51A7.32,7.32,0,0,0,38.79,3Z"/><path class="cls-1" d="M18.61,16.15H19c.33,0,.76.16,1-.09a2.93,2.93,0,0,0,.36-1.33c0-.19-.12-.23-.28-.23h-.87a1.47,1.47,0,0,1,0-2.94c.43,0,.87,0,1.3,0s.6-.1.67-.53c.15-.83.34-1.66.54-2.48A1.48,1.48,0,0,1,23.5,7.34a1.5,1.5,0,0,1,1.08,1.82q-.2,1-.42,1.92c-.07.31,0,.48.35.46.6,0,1.21,0,1.82,0,.34,0,.48-.12.55-.45.17-.86.35-1.72.56-2.58a1.47,1.47,0,0,1,1.84-1.17,1.5,1.5,0,0,1,1.06,1.83q-.19,1-.42,1.92c-.08.33,0,.47.36.45a11.28,11.28,0,0,1,1.3,0,1.47,1.47,0,0,1,0,2.94c-.66,0-1.31,0-2,0-.28,0-.45.09-.49.39s-.12.63-.2.94,0,.34.29.34H30a1.47,1.47,0,0,1,0,2.94,11.1,11.1,0,0,1-1.29,0c-.42,0-.56.14-.63.52-.16.83-.33,1.66-.53,2.48a1.5,1.5,0,0,1-3,0,2.42,2.42,0,0,1,.09-.85c.12-.58.24-1.16.37-1.74.07-.27,0-.38-.29-.38-.66,0-1.31,0-2,0-.29,0-.39.13-.44.39-.17.84-.35,1.69-.54,2.53a1.47,1.47,0,0,1-1.43,1.31,1.45,1.45,0,0,1-1.52-1.79c.13-.69.28-1.38.43-2.07.07-.28,0-.38-.3-.37q-.67,0-1.35,0a1.47,1.47,0,0,1,0-2.94Zm5.85,0c1.38,0,1.38,0,1.59-1.26a.06.06,0,0,0,0,0c.07-.25,0-.37-.28-.36H24.64c-1.3,0-1.29,0-1.48,1.29,0,.28,0,.39.3.38Z"/><path class="cls-1" d="M38.41,23.32a4.5,4.5,0,0,1-4.53-4.5,1.48,1.48,0,0,1,2.95-.13,1.59,1.59,0,0,0,1.34,1.63,1.55,1.55,0,0,0,.55-3.06,3,3,0,0,1-.89-.18A1.39,1.39,0,0,1,37,15.92a12.46,12.46,0,0,1,0-2.73,1.45,1.45,0,0,1,1.59-1.27,1.4,1.4,0,0,1,1.33,1.44,1.42,1.42,0,0,0,.91,1.57,4.42,4.42,0,0,1,2,5.09A4.52,4.52,0,0,1,38.41,23.32Z"/><path class="cls-1" d="M12.33,13v4c0,1-.56,1.69-1.46,1.7S9.38,18.07,9.38,17V9c0-1,.56-1.7,1.46-1.7S12.33,8,12.33,9Z"/><path class="cls-1" d="M10.84,23.32a1.5,1.5,0,0,1-1.52-1.47,1.5,1.5,0,1,1,1.52,1.47Z"/><path class="cls-1" d="M38.42,7.31a1.47,1.47,0,1,1,0,2.94,1.47,1.47,0,0,1,0-2.94Z"/></g></g></svg>