<svg width="262" height="75" viewBox="0 0 262 75" fill="none" xmlns="http://www.w3.org/2000/svg">
<rect x="159.238" y="44.1973" width="18.2681" height="23.1038" rx="5" fill="#88E525"/>
<rect x="180.656" y="45.1973" width="16.2681" height="21.1038" rx="4" stroke="#88E525" stroke-width="2"/>
<rect x="179.656" y="19" width="18.2681" height="23.1038" rx="5" fill="#88E525"/>
<rect x="201.07" y="45.1973" width="16.2681" height="21.1038" rx="4" stroke="#88E525" stroke-width="2"/>
<rect x="200.07" y="19" width="18.2681" height="23.1038" rx="5" fill="#88E525"/>
<rect x="220.488" y="44.1973" width="18.2681" height="23.1038" rx="5" fill="#88E525"/>
<path d="M260 54.4082C259.74 55.3242 259.477 56.2401 259.225 57.1602C256.715 66.3609 248.447 72.917 238.955 72.9458C217.815 73.016 180.189 73.0201 159.049 72.9458C149.12 72.9128 140.572 65.742 138.449 55.9678C138.334 55.4397 138.152 54.9281 138 54.4041V48.6278C138.33 47.4437 138.602 46.2472 138.993 45.0837C141.099 38.8082 145.159 34.2821 151.284 31.7488C152.455 31.2661 152.941 30.6307 153.176 29.4301C154.647 21.9044 159.935 18.055 167.268 16.1282C169.44 15.5588 171.678 15.2906 173.92 15.27C178.985 15.2287 189.875 14.9729 190.448 14.1477C197.491 3.9898 209.341 -0.25987 220.795 3.16875C232.233 6.59324 239.845 16.7223 240.216 29.001C240.224 29.2733 240.249 29.5456 240.282 29.9953C241.321 30.1975 242.388 30.3377 243.419 30.6142C252 32.9412 257.375 38.4328 259.551 47.0641C259.683 47.5881 259.852 48.108 260 48.6278V54.4082Z" stroke="#88E525" stroke-width="3" stroke-miterlimit="10"/>
<rect y="44" width="18.2681" height="23.1038" rx="5" fill="#88E525"/>
<rect x="21.418" y="45" width="16.2681" height="21.1038" rx="4" stroke="#88E525" stroke-width="2"/>
<rect x="41.832" y="45" width="16.2681" height="21.1038" rx="4" stroke="#88E525" stroke-width="2"/>
<rect x="61.25" y="44" width="18.2681" height="23.1038" rx="5" fill="#88E525"/>
<path d="M105 26.5L95 20.7265V32.2735L105 26.5ZM71.5 40.5V29.5H69.5V40.5H71.5ZM73.5 27.5H96V25.5H73.5V27.5ZM71.5 29.5C71.5 28.3954 72.3954 27.5 73.5 27.5V25.5C71.2909 25.5 69.5 27.2909 69.5 29.5H71.5Z" fill="#88E525"/>
<path d="M64.5 26.5L54.5 20.7265V32.2735L64.5 26.5ZM31 40.5V29.5H29V40.5H31ZM33 27.5H55.5V25.5H33V27.5ZM31 29.5C31 28.3954 31.8954 27.5 33 27.5V25.5C30.7909 25.5 29 27.2909 29 29.5H31Z" fill="#88E525"/>
</svg>
