<svg width="126" height="75" viewBox="0 0 126 75" fill="none" xmlns="http://www.w3.org/2000/svg">
<rect x="23.2383" y="40.1973" width="18.2681" height="23.1038" rx="5" fill="#88E525"/>
<rect x="43.6562" y="40.1973" width="18.2681" height="23.1038" rx="5" fill="#88E525"/>
<rect x="64.0703" y="40.1973" width="18.2681" height="23.1038" rx="5" fill="#88E525"/>
<rect x="84.4883" y="40.1973" width="18.2681" height="23.1038" rx="5" fill="#88E525"/>
<path d="M124 54.4082C123.74 55.3242 123.477 56.2401 123.225 57.1602C120.715 66.3609 112.447 72.917 102.955 72.9458C81.8152 73.016 44.1889 73.0201 23.0491 72.9458C13.1201 72.9128 4.57189 65.742 2.44926 55.9678C2.33385 55.4397 2.1525 54.9281 2 54.4041V48.6278C2.32973 47.4437 2.60176 46.2472 2.99331 45.0837C5.09946 38.8082 9.15926 34.2821 15.284 31.7488C16.4545 31.2661 16.9409 30.6307 17.1758 29.4301C18.6472 21.9044 23.9353 18.055 31.2676 16.1282C33.4397 15.5588 35.6778 15.2906 37.9199 15.27C42.9854 15.2287 53.8747 14.9729 54.4476 14.1477C61.4915 3.9898 73.3411 -0.25987 84.7951 3.16875C96.2326 6.59324 103.845 16.7223 104.216 29.001C104.224 29.2733 104.249 29.5456 104.282 29.9953C105.321 30.1975 106.388 30.3377 107.419 30.6142C116 32.9412 121.375 38.4328 123.551 47.0641C123.683 47.5881 123.852 48.108 124 48.6278V54.4082Z" stroke="#88E525" stroke-width="3" stroke-miterlimit="10"/>
</svg>
