<svg width="367" height="251" viewBox="0 0 367 251" fill="none" xmlns="http://www.w3.org/2000/svg">
<rect x="181" y="13" width="23" height="29" rx="4" stroke="#88E525" stroke-width="2"/>
<rect x="180" y="53" width="25" height="31" rx="5" fill="#88E525"/>
<rect x="180" y="220" width="25" height="31" rx="5" fill="#88E525"/>
<rect x="219" y="220" width="25" height="31" rx="5" fill="#88E525"/>
<rect x="258" y="220" width="25" height="31" rx="5" fill="#88E525"/>
<rect x="297" y="220" width="25" height="31" rx="5" fill="#88E525"/>
<rect x="220" y="12" width="24" height="31" rx="5" fill="#88E525"/>
<rect x="296" y="35" width="24" height="31" rx="5" fill="#88E525"/>
<path d="M365 40.7547C364.515 38.8454 364.022 36.9361 363.552 35.0182C358.861 15.8392 343.409 2.1731 325.67 2.1129C286.163 1.9667 215.845 1.9581 176.338 2.11291C157.782 2.18172 141.806 17.1293 137.84 37.5038C137.624 38.6046 137.285 39.6711 137 40.7633L137 52.804C137.616 55.2723 138.125 57.7664 138.856 60.1918C142.792 73.273 150.38 82.7077 161.826 87.9884C164.013 88.9947 164.922 90.3191 165.361 92.8219C168.111 108.509 177.994 116.533 191.697 120.55C195.756 121.737 199.939 122.296 204.129 122.339C213.596 122.425 233.946 122.958 235.017 124.678C248.181 145.852 270.326 154.711 291.732 147.564C313.107 140.425 327.334 119.311 328.027 93.7163C328.042 93.1487 328.089 92.581 328.15 91.6436C330.091 91.2222 332.086 90.9298 334.012 90.3535C350.049 85.5029 360.093 74.0557 364.16 56.0635C364.407 54.9713 364.723 53.8876 365 52.8039L365 40.7547Z" stroke="#88E525" stroke-width="3" stroke-miterlimit="10"/>
<path d="M0 48H330" stroke="white" stroke-dasharray="2 2"/>
<path d="M0 89H330" stroke="white" stroke-dasharray="2 2"/>
<path d="M0 132H330" stroke="white" stroke-dasharray="2 2"/>
<path d="M1.69715 38V26.192H5.20715C6.01115 26.192 6.71315 26.288 7.31315 26.48C7.92515 26.672 8.39915 26.978 8.73515 27.398C9.08315 27.818 9.25715 28.376 9.25715 29.072C9.25715 29.66 9.10715 30.194 8.80715 30.674C8.51915 31.142 8.09315 31.466 7.52915 31.646V31.718C8.23715 31.85 8.81315 32.15 9.25715 32.618C9.71315 33.086 9.94115 33.728 9.94115 34.544C9.94115 35.312 9.74915 35.954 9.36515 36.47C8.99315 36.986 8.47115 37.37 7.79915 37.622C7.12715 37.874 6.34715 38 5.45915 38H1.69715ZM3.19115 31.214H4.93715C5.94515 31.214 6.67115 31.04 7.11515 30.692C7.55915 30.344 7.78115 29.87 7.78115 29.27C7.78115 28.586 7.54715 28.1 7.07915 27.812C6.62315 27.524 5.93315 27.38 5.00915 27.38H3.19115V31.214ZM3.19115 36.812H5.24315C6.26315 36.812 7.05515 36.626 7.61915 36.254C8.18315 35.87 8.46515 35.282 8.46515 34.49C8.46515 33.758 8.18315 33.224 7.61915 32.888C7.06715 32.54 6.27515 32.366 5.24315 32.366H3.19115V36.812ZM14.1512 38.216C13.4192 38.216 12.8072 38 12.3152 37.568C11.8352 37.124 11.5952 36.512 11.5952 35.732C11.5952 34.772 12.0212 34.04 12.8732 33.536C13.7372 33.02 15.0992 32.66 16.9592 32.456C16.9592 32.084 16.9052 31.73 16.7972 31.394C16.7012 31.058 16.5212 30.788 16.2572 30.584C16.0052 30.368 15.6392 30.26 15.1592 30.26C14.6552 30.26 14.1812 30.356 13.7372 30.548C13.2932 30.74 12.8972 30.956 12.5492 31.196L11.9732 30.17C12.3812 29.906 12.8792 29.654 13.4672 29.414C14.0672 29.162 14.7152 29.036 15.4112 29.036C16.4792 29.036 17.2532 29.366 17.7332 30.026C18.2132 30.674 18.4532 31.544 18.4532 32.636V38H17.2292L17.1032 36.956H17.0492C16.6412 37.292 16.1912 37.586 15.6992 37.838C15.2192 38.09 14.7032 38.216 14.1512 38.216ZM14.5832 37.028C15.0032 37.028 15.3992 36.926 15.7712 36.722C16.1432 36.518 16.5392 36.23 16.9592 35.858V33.428C15.5072 33.608 14.4872 33.878 13.8992 34.238C13.3232 34.598 13.0352 35.06 13.0352 35.624C13.0352 36.116 13.1852 36.476 13.4852 36.704C13.7852 36.92 14.1512 37.028 14.5832 37.028ZM24.6615 38.216C23.8935 38.216 23.1975 38.036 22.5735 37.676C21.9495 37.316 21.4575 36.794 21.0975 36.11C20.7375 35.426 20.5575 34.604 20.5575 33.644C20.5575 32.66 20.7495 31.826 21.1335 31.142C21.5295 30.458 22.0455 29.936 22.6815 29.576C23.3295 29.216 24.0255 29.036 24.7695 29.036C25.3455 29.036 25.8375 29.138 26.2455 29.342C26.6655 29.546 27.0255 29.786 27.3255 30.062L26.5695 31.034C26.3175 30.806 26.0475 30.62 25.7595 30.476C25.4835 30.332 25.1715 30.26 24.8235 30.26C24.2955 30.26 23.8215 30.404 23.4015 30.692C22.9935 30.968 22.6695 31.364 22.4295 31.88C22.2015 32.384 22.0875 32.972 22.0875 33.644C22.0875 34.64 22.3335 35.45 22.8255 36.074C23.3295 36.686 23.9835 36.992 24.7875 36.992C25.1955 36.992 25.5735 36.908 25.9215 36.74C26.2695 36.56 26.5755 36.35 26.8395 36.11L27.4875 37.1C27.0915 37.448 26.6535 37.724 26.1735 37.928C25.6935 38.12 25.1895 38.216 24.6615 38.216ZM29.4145 38V25.184H30.8725V33.86H30.9265L34.6525 29.252H36.2905L33.3565 32.762L36.6865 38H35.0665L32.5105 33.788L30.8725 35.696V38H29.4145ZM36.7976 34.058V32.924H40.9376V34.058H36.7976ZM45.6814 38.216C44.7574 38.216 44.0794 37.928 43.6474 37.352C43.2154 36.764 42.9994 35.912 42.9994 34.796V29.252H44.4934V34.598C44.4934 35.414 44.6194 36.008 44.8714 36.38C45.1354 36.752 45.5554 36.938 46.1314 36.938C46.5874 36.938 46.9894 36.824 47.3374 36.596C47.6974 36.356 48.0814 35.978 48.4894 35.462V29.252H49.9654V38H48.7414L48.6154 36.632H48.5614C48.1534 37.112 47.7214 37.496 47.2654 37.784C46.8094 38.072 46.2814 38.216 45.6814 38.216ZM52.9164 41.69V29.252H54.1404L54.2664 30.26H54.3204C54.7164 29.924 55.1484 29.636 55.6164 29.396C56.0964 29.156 56.5944 29.036 57.1104 29.036C58.2384 29.036 59.0964 29.444 59.6844 30.26C60.2724 31.064 60.5664 32.144 60.5664 33.5C60.5664 34.484 60.3864 35.33 60.0264 36.038C59.6784 36.746 59.2164 37.286 58.6404 37.658C58.0764 38.03 57.4584 38.216 56.7864 38.216C56.3784 38.216 55.9704 38.126 55.5624 37.946C55.1664 37.766 54.7644 37.52 54.3564 37.208L54.3924 38.738V41.69H52.9164ZM56.5344 36.974C57.2544 36.974 57.8484 36.668 58.3164 36.056C58.7964 35.432 59.0364 34.58 59.0364 33.5C59.0364 32.54 58.8564 31.766 58.4964 31.178C58.1484 30.578 57.5604 30.278 56.7324 30.278C56.3604 30.278 55.9824 30.38 55.5984 30.584C55.2264 30.788 54.8244 31.082 54.3924 31.466V36.056C54.7884 36.392 55.1724 36.632 55.5444 36.776C55.9164 36.908 56.2464 36.974 56.5344 36.974ZM66.6483 38L67.0983 34.328H65.6583V33.302H67.2243L67.5483 30.638H66.0183V29.594H67.6743L68.0883 26.3H69.0423L68.6283 29.594H71.0223L71.4543 26.3H72.4083L71.9763 29.594H73.4343V30.638H71.8683L71.5443 33.302H73.0743V34.328H71.4183L70.9683 38H70.0143L70.4463 34.328H68.0703L67.6203 38H66.6483ZM68.1963 33.302H70.5723L70.8963 30.638H68.5203L68.1963 33.302ZM75.3976 38V36.776H78.0256V28.316H75.9376V27.362C76.4656 27.266 76.9216 27.152 77.3056 27.02C77.7016 26.876 78.0556 26.708 78.3676 26.516H79.5016V36.776H81.8776V38H75.3976Z" fill="white"/>
<path d="M1.69715 82V70.192H5.20715C6.01115 70.192 6.71315 70.288 7.31315 70.48C7.92515 70.672 8.39915 70.978 8.73515 71.398C9.08315 71.818 9.25715 72.376 9.25715 73.072C9.25715 73.66 9.10715 74.194 8.80715 74.674C8.51915 75.142 8.09315 75.466 7.52915 75.646V75.718C8.23715 75.85 8.81315 76.15 9.25715 76.618C9.71315 77.086 9.94115 77.728 9.94115 78.544C9.94115 79.312 9.74915 79.954 9.36515 80.47C8.99315 80.986 8.47115 81.37 7.79915 81.622C7.12715 81.874 6.34715 82 5.45915 82H1.69715ZM3.19115 75.214H4.93715C5.94515 75.214 6.67115 75.04 7.11515 74.692C7.55915 74.344 7.78115 73.87 7.78115 73.27C7.78115 72.586 7.54715 72.1 7.07915 71.812C6.62315 71.524 5.93315 71.38 5.00915 71.38H3.19115V75.214ZM3.19115 80.812H5.24315C6.26315 80.812 7.05515 80.626 7.61915 80.254C8.18315 79.87 8.46515 79.282 8.46515 78.49C8.46515 77.758 8.18315 77.224 7.61915 76.888C7.06715 76.54 6.27515 76.366 5.24315 76.366H3.19115V80.812ZM14.1512 82.216C13.4192 82.216 12.8072 82 12.3152 81.568C11.8352 81.124 11.5952 80.512 11.5952 79.732C11.5952 78.772 12.0212 78.04 12.8732 77.536C13.7372 77.02 15.0992 76.66 16.9592 76.456C16.9592 76.084 16.9052 75.73 16.7972 75.394C16.7012 75.058 16.5212 74.788 16.2572 74.584C16.0052 74.368 15.6392 74.26 15.1592 74.26C14.6552 74.26 14.1812 74.356 13.7372 74.548C13.2932 74.74 12.8972 74.956 12.5492 75.196L11.9732 74.17C12.3812 73.906 12.8792 73.654 13.4672 73.414C14.0672 73.162 14.7152 73.036 15.4112 73.036C16.4792 73.036 17.2532 73.366 17.7332 74.026C18.2132 74.674 18.4532 75.544 18.4532 76.636V82H17.2292L17.1032 80.956H17.0492C16.6412 81.292 16.1912 81.586 15.6992 81.838C15.2192 82.09 14.7032 82.216 14.1512 82.216ZM14.5832 81.028C15.0032 81.028 15.3992 80.926 15.7712 80.722C16.1432 80.518 16.5392 80.23 16.9592 79.858V77.428C15.5072 77.608 14.4872 77.878 13.8992 78.238C13.3232 78.598 13.0352 79.06 13.0352 79.624C13.0352 80.116 13.1852 80.476 13.4852 80.704C13.7852 80.92 14.1512 81.028 14.5832 81.028ZM24.6615 82.216C23.8935 82.216 23.1975 82.036 22.5735 81.676C21.9495 81.316 21.4575 80.794 21.0975 80.11C20.7375 79.426 20.5575 78.604 20.5575 77.644C20.5575 76.66 20.7495 75.826 21.1335 75.142C21.5295 74.458 22.0455 73.936 22.6815 73.576C23.3295 73.216 24.0255 73.036 24.7695 73.036C25.3455 73.036 25.8375 73.138 26.2455 73.342C26.6655 73.546 27.0255 73.786 27.3255 74.062L26.5695 75.034C26.3175 74.806 26.0475 74.62 25.7595 74.476C25.4835 74.332 25.1715 74.26 24.8235 74.26C24.2955 74.26 23.8215 74.404 23.4015 74.692C22.9935 74.968 22.6695 75.364 22.4295 75.88C22.2015 76.384 22.0875 76.972 22.0875 77.644C22.0875 78.64 22.3335 79.45 22.8255 80.074C23.3295 80.686 23.9835 80.992 24.7875 80.992C25.1955 80.992 25.5735 80.908 25.9215 80.74C26.2695 80.56 26.5755 80.35 26.8395 80.11L27.4875 81.1C27.0915 81.448 26.6535 81.724 26.1735 81.928C25.6935 82.12 25.1895 82.216 24.6615 82.216ZM29.4145 82V69.184H30.8725V77.86H30.9265L34.6525 73.252H36.2905L33.3565 76.762L36.6865 82H35.0665L32.5105 77.788L30.8725 79.696V82H29.4145ZM36.7976 78.058V76.924H40.9376V78.058H36.7976ZM45.6814 82.216C44.7574 82.216 44.0794 81.928 43.6474 81.352C43.2154 80.764 42.9994 79.912 42.9994 78.796V73.252H44.4934V78.598C44.4934 79.414 44.6194 80.008 44.8714 80.38C45.1354 80.752 45.5554 80.938 46.1314 80.938C46.5874 80.938 46.9894 80.824 47.3374 80.596C47.6974 80.356 48.0814 79.978 48.4894 79.462V73.252H49.9654V82H48.7414L48.6154 80.632H48.5614C48.1534 81.112 47.7214 81.496 47.2654 81.784C46.8094 82.072 46.2814 82.216 45.6814 82.216ZM52.9164 85.69V73.252H54.1404L54.2664 74.26H54.3204C54.7164 73.924 55.1484 73.636 55.6164 73.396C56.0964 73.156 56.5944 73.036 57.1104 73.036C58.2384 73.036 59.0964 73.444 59.6844 74.26C60.2724 75.064 60.5664 76.144 60.5664 77.5C60.5664 78.484 60.3864 79.33 60.0264 80.038C59.6784 80.746 59.2164 81.286 58.6404 81.658C58.0764 82.03 57.4584 82.216 56.7864 82.216C56.3784 82.216 55.9704 82.126 55.5624 81.946C55.1664 81.766 54.7644 81.52 54.3564 81.208L54.3924 82.738V85.69H52.9164ZM56.5344 80.974C57.2544 80.974 57.8484 80.668 58.3164 80.056C58.7964 79.432 59.0364 78.58 59.0364 77.5C59.0364 76.54 58.8564 75.766 58.4964 75.178C58.1484 74.578 57.5604 74.278 56.7324 74.278C56.3604 74.278 55.9824 74.38 55.5984 74.584C55.2264 74.788 54.8244 75.082 54.3924 75.466V80.056C54.7884 80.392 55.1724 80.632 55.5444 80.776C55.9164 80.908 56.2464 80.974 56.5344 80.974ZM66.6483 82L67.0983 78.328H65.6583V77.302H67.2243L67.5483 74.638H66.0183V73.594H67.6743L68.0883 70.3H69.0423L68.6283 73.594H71.0223L71.4543 70.3H72.4083L71.9763 73.594H73.4343V74.638H71.8683L71.5443 77.302H73.0743V78.328H71.4183L70.9683 82H70.0143L70.4463 78.328H68.0703L67.6203 82H66.6483ZM68.1963 77.302H70.5723L70.8963 74.638H68.5203L68.1963 77.302ZM74.6956 82V81.118C75.8476 79.966 76.8256 78.958 77.6296 78.094C78.4336 77.218 79.0456 76.432 79.4656 75.736C79.8856 75.028 80.0956 74.368 80.0956 73.756C80.0956 73.096 79.9156 72.556 79.5556 72.136C79.1956 71.716 78.6496 71.506 77.9176 71.506C77.4376 71.506 76.9936 71.644 76.5856 71.92C76.1776 72.184 75.8056 72.508 75.4696 72.892L74.6236 72.046C75.1036 71.518 75.6136 71.098 76.1536 70.786C76.7056 70.462 77.3536 70.3 78.0976 70.3C79.1656 70.3 80.0056 70.612 80.6176 71.236C81.2296 71.848 81.5356 72.664 81.5356 73.684C81.5356 74.404 81.3316 75.136 80.9236 75.88C80.5276 76.612 79.9756 77.386 79.2676 78.202C78.5716 79.006 77.7676 79.882 76.8556 80.83C77.1676 80.806 77.4916 80.782 77.8276 80.758C78.1636 80.734 78.4816 80.722 78.7816 80.722H82.1116V82H74.6956Z" fill="white"/>
<path d="M1.69715 126V114.192H5.20715C6.01115 114.192 6.71315 114.288 7.31315 114.48C7.92515 114.672 8.39915 114.978 8.73515 115.398C9.08315 115.818 9.25715 116.376 9.25715 117.072C9.25715 117.66 9.10715 118.194 8.80715 118.674C8.51915 119.142 8.09315 119.466 7.52915 119.646V119.718C8.23715 119.85 8.81315 120.15 9.25715 120.618C9.71315 121.086 9.94115 121.728 9.94115 122.544C9.94115 123.312 9.74915 123.954 9.36515 124.47C8.99315 124.986 8.47115 125.37 7.79915 125.622C7.12715 125.874 6.34715 126 5.45915 126H1.69715ZM3.19115 119.214H4.93715C5.94515 119.214 6.67115 119.04 7.11515 118.692C7.55915 118.344 7.78115 117.87 7.78115 117.27C7.78115 116.586 7.54715 116.1 7.07915 115.812C6.62315 115.524 5.93315 115.38 5.00915 115.38H3.19115V119.214ZM3.19115 124.812H5.24315C6.26315 124.812 7.05515 124.626 7.61915 124.254C8.18315 123.87 8.46515 123.282 8.46515 122.49C8.46515 121.758 8.18315 121.224 7.61915 120.888C7.06715 120.54 6.27515 120.366 5.24315 120.366H3.19115V124.812ZM14.1512 126.216C13.4192 126.216 12.8072 126 12.3152 125.568C11.8352 125.124 11.5952 124.512 11.5952 123.732C11.5952 122.772 12.0212 122.04 12.8732 121.536C13.7372 121.02 15.0992 120.66 16.9592 120.456C16.9592 120.084 16.9052 119.73 16.7972 119.394C16.7012 119.058 16.5212 118.788 16.2572 118.584C16.0052 118.368 15.6392 118.26 15.1592 118.26C14.6552 118.26 14.1812 118.356 13.7372 118.548C13.2932 118.74 12.8972 118.956 12.5492 119.196L11.9732 118.17C12.3812 117.906 12.8792 117.654 13.4672 117.414C14.0672 117.162 14.7152 117.036 15.4112 117.036C16.4792 117.036 17.2532 117.366 17.7332 118.026C18.2132 118.674 18.4532 119.544 18.4532 120.636V126H17.2292L17.1032 124.956H17.0492C16.6412 125.292 16.1912 125.586 15.6992 125.838C15.2192 126.09 14.7032 126.216 14.1512 126.216ZM14.5832 125.028C15.0032 125.028 15.3992 124.926 15.7712 124.722C16.1432 124.518 16.5392 124.23 16.9592 123.858V121.428C15.5072 121.608 14.4872 121.878 13.8992 122.238C13.3232 122.598 13.0352 123.06 13.0352 123.624C13.0352 124.116 13.1852 124.476 13.4852 124.704C13.7852 124.92 14.1512 125.028 14.5832 125.028ZM24.6615 126.216C23.8935 126.216 23.1975 126.036 22.5735 125.676C21.9495 125.316 21.4575 124.794 21.0975 124.11C20.7375 123.426 20.5575 122.604 20.5575 121.644C20.5575 120.66 20.7495 119.826 21.1335 119.142C21.5295 118.458 22.0455 117.936 22.6815 117.576C23.3295 117.216 24.0255 117.036 24.7695 117.036C25.3455 117.036 25.8375 117.138 26.2455 117.342C26.6655 117.546 27.0255 117.786 27.3255 118.062L26.5695 119.034C26.3175 118.806 26.0475 118.62 25.7595 118.476C25.4835 118.332 25.1715 118.26 24.8235 118.26C24.2955 118.26 23.8215 118.404 23.4015 118.692C22.9935 118.968 22.6695 119.364 22.4295 119.88C22.2015 120.384 22.0875 120.972 22.0875 121.644C22.0875 122.64 22.3335 123.45 22.8255 124.074C23.3295 124.686 23.9835 124.992 24.7875 124.992C25.1955 124.992 25.5735 124.908 25.9215 124.74C26.2695 124.56 26.5755 124.35 26.8395 124.11L27.4875 125.1C27.0915 125.448 26.6535 125.724 26.1735 125.928C25.6935 126.12 25.1895 126.216 24.6615 126.216ZM29.4145 126V113.184H30.8725V121.86H30.9265L34.6525 117.252H36.2905L33.3565 120.762L36.6865 126H35.0665L32.5105 121.788L30.8725 123.696V126H29.4145ZM36.7976 122.058V120.924H40.9376V122.058H36.7976ZM45.6814 126.216C44.7574 126.216 44.0794 125.928 43.6474 125.352C43.2154 124.764 42.9994 123.912 42.9994 122.796V117.252H44.4934V122.598C44.4934 123.414 44.6194 124.008 44.8714 124.38C45.1354 124.752 45.5554 124.938 46.1314 124.938C46.5874 124.938 46.9894 124.824 47.3374 124.596C47.6974 124.356 48.0814 123.978 48.4894 123.462V117.252H49.9654V126H48.7414L48.6154 124.632H48.5614C48.1534 125.112 47.7214 125.496 47.2654 125.784C46.8094 126.072 46.2814 126.216 45.6814 126.216ZM52.9164 129.69V117.252H54.1404L54.2664 118.26H54.3204C54.7164 117.924 55.1484 117.636 55.6164 117.396C56.0964 117.156 56.5944 117.036 57.1104 117.036C58.2384 117.036 59.0964 117.444 59.6844 118.26C60.2724 119.064 60.5664 120.144 60.5664 121.5C60.5664 122.484 60.3864 123.33 60.0264 124.038C59.6784 124.746 59.2164 125.286 58.6404 125.658C58.0764 126.03 57.4584 126.216 56.7864 126.216C56.3784 126.216 55.9704 126.126 55.5624 125.946C55.1664 125.766 54.7644 125.52 54.3564 125.208L54.3924 126.738V129.69H52.9164ZM56.5344 124.974C57.2544 124.974 57.8484 124.668 58.3164 124.056C58.7964 123.432 59.0364 122.58 59.0364 121.5C59.0364 120.54 58.8564 119.766 58.4964 119.178C58.1484 118.578 57.5604 118.278 56.7324 118.278C56.3604 118.278 55.9824 118.38 55.5984 118.584C55.2264 118.788 54.8244 119.082 54.3924 119.466V124.056C54.7884 124.392 55.1724 124.632 55.5444 124.776C55.9164 124.908 56.2464 124.974 56.5344 124.974ZM66.6483 126L67.0983 122.328H65.6583V121.302H67.2243L67.5483 118.638H66.0183V117.594H67.6743L68.0883 114.3H69.0423L68.6283 117.594H71.0223L71.4543 114.3H72.4083L71.9763 117.594H73.4343V118.638H71.8683L71.5443 121.302H73.0743V122.328H71.4183L70.9683 126H70.0143L70.4463 122.328H68.0703L67.6203 126H66.6483ZM68.1963 121.302H70.5723L70.8963 118.638H68.5203L68.1963 121.302ZM78.2236 126.216C77.3116 126.216 76.5496 126.054 75.9376 125.73C75.3256 125.394 74.8276 125.016 74.4436 124.596L75.1996 123.624C75.5476 123.984 75.9556 124.302 76.4236 124.578C76.8916 124.854 77.4616 124.992 78.1336 124.992C78.8296 124.992 79.3996 124.8 79.8436 124.416C80.2876 124.032 80.5096 123.522 80.5096 122.886C80.5096 122.43 80.3896 122.034 80.1496 121.698C79.9216 121.35 79.5376 121.08 78.9976 120.888C78.4696 120.696 77.7496 120.6 76.8376 120.6V119.466C77.6536 119.466 78.2956 119.37 78.7636 119.178C79.2436 118.986 79.5856 118.728 79.7896 118.404C79.9936 118.08 80.0956 117.72 80.0956 117.324C80.0956 116.76 79.9156 116.316 79.5556 115.992C79.2076 115.668 78.7276 115.506 78.1156 115.506C77.6356 115.506 77.1916 115.614 76.7836 115.83C76.3876 116.046 76.0156 116.328 75.6676 116.676L74.8756 115.74C75.3196 115.32 75.8116 114.978 76.3516 114.714C76.8916 114.438 77.4976 114.3 78.1696 114.3C79.1656 114.3 79.9876 114.558 80.6356 115.074C81.2836 115.578 81.6076 116.292 81.6076 117.216C81.6076 117.912 81.4156 118.482 81.0316 118.926C80.6476 119.37 80.1436 119.712 79.5196 119.952V120.024C80.2156 120.18 80.8036 120.51 81.2836 121.014C81.7636 121.506 82.0036 122.148 82.0036 122.94C82.0036 123.612 81.8356 124.194 81.4996 124.686C81.1636 125.178 80.7076 125.556 80.1316 125.82C79.5676 126.084 78.9316 126.216 78.2236 126.216Z" fill="white"/>
<path d="M192.5 210L198.274 200H186.726L192.5 210ZM191.5 80V201H193.5V80H191.5Z" fill="#88E525"/>
<path d="M232 210L237.774 200L226.227 200L232 210ZM231 32L231 201L233 201L233 32L231 32Z" fill="#88E525"/>
<rect x="259" y="96" width="24" height="31" rx="5" fill="#88E525"/>
<rect x="260" y="13" width="22" height="29" rx="4" stroke="#88E525" stroke-width="2"/>
<rect x="260" y="54" width="22" height="29" rx="4" stroke="#88E525" stroke-width="2"/>
<path d="M271 210L276.774 200L265.227 200L271 210ZM270 112L270 201L272 201L272 112L270 112Z" fill="#88E525"/>
<path d="M308 210L313.774 200L302.227 200L308 210ZM307 32L307 201L309 201L309 32L307 32Z" fill="#88E525"/>
</svg>
