<svg id="Group_172" data-name="Group 172" xmlns="http://www.w3.org/2000/svg" width="62.403" height="53.018" viewBox="0 0 62.403 53.018">
  <path id="Path_281" data-name="Path 281" d="M3.656,38.392h55.09V3.656H3.656Zm53.263-1.828H5.485V5.484H56.919Z" fill="#80e315"/>
  <rect id="Rectangle_125" data-name="Rectangle 125" width="1.828" height="1.828" transform="translate(30.288 51.19)" fill="#80e315"/>
  <path id="Path_282" data-name="Path 282" d="M29.373,45.007V42.049H33.03v2.958l1.264,2.526H28.11ZM0,0V5.462H1.828V1.829H60.575V40.221H1.828V7.29H0V42.049H27.544v2.526l-1.478,2.958H16.2L13.834,49.9v3.121H28.459V51.19h-12.8v-.535l1.292-1.294h28.5l1.293,1.294v.535h-12.8v1.828H48.569V49.9l-2.363-2.364H36.337l-1.479-2.958V42.049H62.4V0Z" fill="#80e315"/>
  <rect id="Rectangle_126" data-name="Rectangle 126" width="1.828" height="1.828" transform="translate(53.262 10.969)" fill="#80e315"/>
  <rect id="Rectangle_127" data-name="Rectangle 127" width="1.828" height="1.828" transform="translate(53.262 7.313)" fill="#80e315"/>
  <path id="Path_283" data-name="Path 283" d="M19.306,20.736l-.874,6.3L28.75,21.076l1.4,2.417-4.475,7.751,1.583.914L31.2,25.322l3.948,6.836,1.583-.914-4.475-7.751,1.4-2.417L43.97,27.033l-.874-6.3,5.89-2.391L38.668,12.388l.915-1.583L38,9.89,31.2,21.665,24.4,9.89l-1.583.915.914,1.583L13.417,18.345Zm18.449-6.765,7.078,4.087L41.09,19.577l.555,4-7.078-4.087Zm-13.107,0,3.188,5.521-7.079,4.087.556-4L17.57,18.058Z" fill="#80e315"/>
</svg>
