<svg xmlns="http://www.w3.org/2000/svg" width="68.999" height="67.618" viewBox="0 0 68.999 67.618">
  <g id="Group_167" data-name="Group 167" transform="translate(-718.351 -1080.53)">
    <g id="Group_45" data-name="Group 45">
      <path id="Path_106" data-name="Path 106" d="M756.123,1113.63a1.33,1.33,0,0,0-1.33-1.33h-1.63a1.331,1.331,0,0,0,0,2.661h1.63a1.331,1.331,0,0,0,1.33-1.331Zm-9.978-3.431a5.746,5.746,0,0,0,.762.011,3.774,3.774,0,0,0,3.705,3.046h.507a2.12,2.12,0,0,0-.033.374,2.086,2.086,0,0,0,.033.374h-.507a4.525,4.525,0,0,1-4.467-3.805Zm-.38-.795a2.9,2.9,0,0,1-2.417-2.858v-1.767a2.9,2.9,0,0,1,2.9-2.9h.193a7.562,7.562,0,0,1,15.076,0h.193a2.9,2.9,0,0,1,2.9,2.9v1.767a2.9,2.9,0,0,1-2.9,2.9h-.856a.643.643,0,0,1-.642-.643v-6.316a6.233,6.233,0,0,0-12.466,0v6.316a.643.643,0,0,1-.353.574,3.927,3.927,0,0,1-1.627.028Z" fill="#80e315" fill-rule="evenodd"/>
    </g>
    <path id="Path_107" data-name="Path 107" d="M775.226,1148.148a3.689,3.689,0,0,1-3.024-1.619l-.2-.28a17.649,17.649,0,0,1-2.479-4.432,2.254,2.254,0,0,1,.359-2.252,2.127,2.127,0,0,1,1.655-.667,3.644,3.644,0,0,1,.638.06c.509.09.969.212,1.376.319a7.4,7.4,0,0,0,1.921.334,4.283,4.283,0,0,0,.819-.08,2.309,2.309,0,0,1,.471-.051,1.9,1.9,0,0,1,1.33.532,3.614,3.614,0,0,1,.826,3.005,2.515,2.515,0,0,1-.284.787l-.113.232,0,.118c0,.056.013.169.022.265a2.956,2.956,0,0,1-.023,1.056,3.373,3.373,0,0,1-3.3,2.673Zm-4.032-6.81a16.469,16.469,0,0,0,2.238,3.922l.2.285a1.938,1.938,0,0,0,1.6.868,1.758,1.758,0,0,0,.308-.028,1.614,1.614,0,0,0,1.3-1.3l.013-.05,0-.051a3.208,3.208,0,0,0-.021-.335,3.167,3.167,0,0,1,0-.943,2.445,2.445,0,0,1,.262-.7l.11-.228.009-.07a2.478,2.478,0,0,0-.132-1.16l-.152-.374-.4.071a6.012,6.012,0,0,1-1.049.092,8.944,8.944,0,0,1-2.368-.388c-.416-.111-.81-.212-1.238-.289-.063-.012-.119-.019-.168-.024l-.7-.072Z" fill="#80e315"/>
    <path id="Path_108" data-name="Path 108" d="M770.213,1136.106a1.837,1.837,0,0,1-.755-.173,2.59,2.59,0,0,1-1.132-1.348c-.07-.142-.173-.346-.229-.43l-.036-.053-.224-.188-.769-.136a6.262,6.262,0,0,1-3.9-2.236,5.505,5.505,0,0,1-.832-1.948,5.721,5.721,0,0,0-.422-1.192l-.189-.318-.36.088c-.087.022-.2.052-.277.078a3.349,3.349,0,0,1-.939.168,1.7,1.7,0,0,1-.837-.21,1.456,1.456,0,0,1-.784-1.168l-.043-.337-.329-.084a3.768,3.768,0,0,1-.56-.179,7.752,7.752,0,0,1-3.006-2.3c-2.073-2.449-3.97-3.653-6.342-4.025a9.151,9.151,0,0,0-1.4-.11,11.5,11.5,0,0,0-6.1,1.946,13.266,13.266,0,0,1-5.5,2.122c-.5.062-.974.091-1.435.118a9.774,9.774,0,0,0-2.6.393,17.179,17.179,0,0,0-1.647.693,8.188,8.188,0,0,1-3.512,1.012,5.714,5.714,0,0,1-2.018-.383c-.176-.066-.358-.127-.541-.19a3.836,3.836,0,0,1-2.472-1.617,2.13,2.13,0,0,1,0-1.711,5.25,5.25,0,0,1,.631-1.1,2.717,2.717,0,0,0,.507-.949,1.908,1.908,0,0,0-.288-1,4.766,4.766,0,0,1-.435-1.241,15.441,15.441,0,0,1-.156-2.4,6.942,6.942,0,0,0-.7-3.611c-.186-.339-.428-.706-.686-1.093a7.2,7.2,0,0,1-1.522-3.575,12.68,12.68,0,0,1,.909-4.251l.216-.646c1.139-3.507,4.728-4.708,7.611-5.673l.117-.04c.564-.189,1.1-.369,1.607-.561.331-.126.687-.24,1.031-.349a7.513,7.513,0,0,0,2.315-1.014c.425-.343.5-.682.606-1.356a5.356,5.356,0,0,1,.386-1.447,4.347,4.347,0,0,1,1.224-1.48l.614-.552c1.157-1.047,2.351-2.131,3.6-3.13a5.463,5.463,0,0,1,3.011-1.355c.089-.007.177-.01.263-.01a4.843,4.843,0,0,1,1.9.471,3.21,3.21,0,0,0,1.126.319c.638-.017,1.276-.708,2.24-1.975a12.1,12.1,0,0,1,.881-1.08,5.314,5.314,0,0,1,4.134-1.746,11.376,11.376,0,0,1,1.4.1c.348.043.8.062,1.279.08a8.868,8.868,0,0,1,3.835.689,2.2,2.2,0,0,1,1.125,1.316,3.545,3.545,0,0,1-.7,2.626,3.21,3.21,0,0,0-.6,1.471l.006.077.028.072c.288.729,1.382,1.428,2.574,2.141.367.219.714.427,1.02.638a3.876,3.876,0,0,0,1.946.779,1.03,1.03,0,0,0,.349-.056c.288-.1.5-.389.642-.879a10.439,10.439,0,0,0,.179-3.543,10.829,10.829,0,0,1,.472-4.825c.57-1.4,1.389-1.7,1.975-1.7.982.021,1.861.881,2.364,2.3.1.285.189.573.275.852a9.675,9.675,0,0,0,.558,1.52,1.721,1.721,0,0,0,.808.741,4.257,4.257,0,0,1,1.07.815,7.541,7.541,0,0,1,1.416,3.556,13.765,13.765,0,0,0,.346,1.391c.614,1.822,1.674,2.6,3.279,3.765l.187.137a5.863,5.863,0,0,1,2.013,2.94,5.583,5.583,0,0,0,.934,1.755l2.989,3.409c.173.2.456.279,1.067.4a2.832,2.832,0,0,1,1.886.947,2.989,2.989,0,0,1,.152,2.495,3.86,3.86,0,0,0-.15.92,20.25,20.25,0,0,1,.414,4.5c0,.264.016.569.035.893a7.778,7.778,0,0,1-.154,2.678.862.862,0,0,1-.828.613h0a.9.9,0,0,1-.256-.039.87.87,0,0,1-.572-1.085,6.68,6.68,0,0,0,.08-2.065c-.02-.332-.039-.672-.039-.995a17.924,17.924,0,0,0-.368-4.079,4.092,4.092,0,0,1,.148-1.732c.045-.2.112-.493.14-.7l.059-.435-.425-.113c-.141-.038-.326-.077-.466-.1a3.359,3.359,0,0,1-2.026-.959l-2.989-3.409a7.1,7.1,0,0,1-1.246-2.267,4.19,4.19,0,0,0-1.42-2.17l-.185-.134c-1.738-1.267-3.112-2.268-3.9-4.616a14.667,14.667,0,0,1-.4-1.572,6.342,6.342,0,0,0-1-2.754,2.707,2.707,0,0,0-.675-.5,3.369,3.369,0,0,1-1.469-1.444,11.065,11.065,0,0,1-.668-1.79c-.092-.3-.171-.555-.255-.792a3.653,3.653,0,0,0-.224-.507l-.516-.955-.39,1.014a9.411,9.411,0,0,0-.316,3.99,11.924,11.924,0,0,1-.246,4.132,2.814,2.814,0,0,1-1.727,2.026,2.753,2.753,0,0,1-.923.153,5.609,5.609,0,0,1-2.935-1.085c-.248-.171-.577-.368-.927-.577-1.247-.746-2.795-1.673-3.31-3.028a3.652,3.652,0,0,1,.686-3.072,7.145,7.145,0,0,0,.487-.962l.144-.407-.381-.2a7.764,7.764,0,0,0-3.023-.474c-.522-.02-1.018-.038-1.466-.093a9.7,9.7,0,0,0-1.184-.083,3.616,3.616,0,0,0-2.885,1.21,11.523,11.523,0,0,0-.755.931c-.932,1.226-1.988,2.617-3.54,2.659h-.005a4.659,4.659,0,0,1-1.854-.447,3.326,3.326,0,0,0-1.246-.342l-.115,0a3.687,3.687,0,0,0-2.071.98c-1.2.96-2.374,2.025-3.512,3.057l-.607.546a2.922,2.922,0,0,0-.822.921,3.963,3.963,0,0,0-.254,1.008,3.465,3.465,0,0,1-1.227,2.429,8.824,8.824,0,0,1-2.876,1.315c-.343.11-.667.213-.947.32-.561.213-1.154.411-1.729.6-2.959.99-5.7,1.908-6.57,4.585l-.194.581a11.6,11.6,0,0,0-.848,3.71,5.885,5.885,0,0,0,1.235,2.686c.263.394.534.8.763,1.22a8.669,8.669,0,0,1,.915,4.427,13.569,13.569,0,0,0,.133,2.136,3.286,3.286,0,0,0,.295.786,3.376,3.376,0,0,1,.431,1.994,4.036,4.036,0,0,1-.792,1.671,4.194,4.194,0,0,0-.428.709l-.161.4.369.218a7.391,7.391,0,0,0,1.192.48c.244.083.419.142.588.2a4.049,4.049,0,0,0,1.419.273,6.53,6.53,0,0,0,2.764-.842,18.46,18.46,0,0,1,1.827-.767,11.09,11.09,0,0,1,3.053-.483c.475-.029.9-.055,1.328-.109a11.465,11.465,0,0,0,4.795-1.869,13.16,13.16,0,0,1,7.012-2.213,10.992,10.992,0,0,1,1.687.132,12.088,12.088,0,0,1,7.4,4.618,5.954,5.954,0,0,0,2.361,1.824,2.642,2.642,0,0,0,.325.1,2.367,2.367,0,0,1,1.236.639,1.4,1.4,0,0,1,.333.6l.131.484.483-.133a3.087,3.087,0,0,1,.822-.128,1.873,1.873,0,0,1,1.109.349,4.019,4.019,0,0,1,1.29,2.366,4.1,4.1,0,0,0,.524,1.346,4.515,4.515,0,0,0,2.864,1.607c.133.025.246.043.346.058a2.367,2.367,0,0,1,1.49.684,2.671,2.671,0,0,1,.523.732l.4.773.463-.738a2.719,2.719,0,0,1,.791-.858,2.625,2.625,0,0,1,1.459-.451,4.334,4.334,0,0,1,1.052.16,3.117,3.117,0,0,0,.731.121c.406-.019.563-.2.875-.569a3.134,3.134,0,0,1,1.739-1.2c.3-.071.579-.109.823-.143.8-.11,1.085-.174,1.436-.695a3.2,3.2,0,0,0,.317-1.852v-.313a5.228,5.228,0,0,1,.866-2.949l.093-.171a.867.867,0,0,1,.763-.454.854.854,0,0,1,.413.1.868.868,0,0,1,.348,1.176l-.094.174a3.536,3.536,0,0,0-.656,2.119l0,.3a4.667,4.667,0,0,1-.614,2.837,3.258,3.258,0,0,1-2.608,1.439c-.243.033-.472.066-.7.118-.321.074-.506.279-.807.632a2.763,2.763,0,0,1-2.035,1.178l-.17.005a4.613,4.613,0,0,1-1.126-.169,2.811,2.811,0,0,0-.64-.114.87.87,0,0,0-.507.162l-.048.031-.04.041a2.78,2.78,0,0,0-.361.545,3.213,3.213,0,0,1-.743.977A1.516,1.516,0,0,1,770.213,1136.106Z" fill="#80e315"/>
  </g>
</svg>
