<svg xmlns="http://www.w3.org/2000/svg" width="61.9" height="70.1" viewBox="0 0 61.9 70.1">
  <path id="Vertel_Icon_Network" d="M34.7,70a5.257,5.257,0,0,1-4.2-2.1,5.533,5.533,0,0,1-.9-4.7.517.517,0,0,0-.3-.7L21.5,58l-7.9-4.5a.367.367,0,0,0-.3-.1.52.52,0,0,0-.4.2,5.464,5.464,0,0,1-3.8,1.6A5.335,5.335,0,0,1,7.8,44.7a.634.634,0,0,0,.5-.6V25.9a.634.634,0,0,0-.5-.6,5.261,5.261,0,0,1-4-5.2,5.3,5.3,0,0,1,9.1-3.7.758.758,0,0,0,.4.2.367.367,0,0,0,.3-.1c.1-.1,15.7-9.1,15.8-9.1a.61.61,0,0,0,.3-.7A5.335,5.335,0,0,1,30.6,2,5.4,5.4,0,0,1,34.8-.1,5.838,5.838,0,0,1,39,2.1a5.533,5.533,0,0,1,.9,4.7.517.517,0,0,0,.3.7c.1.1,15.6,9,15.7,9.1a.367.367,0,0,0,.3.1.52.52,0,0,0,.4-.2,5.464,5.464,0,0,1,3.8-1.6,5.335,5.335,0,0,1,5.3,5.3,5.46,5.46,0,0,1-4,5.2.634.634,0,0,0-.5.6V44.2a.634.634,0,0,0,.5.6,5.261,5.261,0,0,1,4,5.2,5.335,5.335,0,0,1-5.3,5.3,5.464,5.464,0,0,1-3.8-1.6.758.758,0,0,0-.4-.2.367.367,0,0,0-.3.1L40.2,62.7a.779.779,0,0,0-.3.7,5.335,5.335,0,0,1-.9,4.7A5.951,5.951,0,0,1,34.7,70Zm0-8.9a3.5,3.5,0,0,0-2.2.8.1.1,0,0,0-.1.1.1.1,0,0,0-.1.1,3.6,3.6,0,1,0,4.8,0L37,62a.1.1,0,0,1-.1-.1A3.008,3.008,0,0,0,34.7,61.1ZM47.9,43.4h-.2c-.2,0-.3.2-.4.3L39,59.9a.616.616,0,0,0,.1.7.758.758,0,0,0,.4.2.367.367,0,0,0,.3-.1S54.8,52,54.9,52a.61.61,0,0,0,.3-.7,4.992,4.992,0,0,1,.1-3.2.517.517,0,0,0-.3-.7l-6.9-3.9C48.1,43.4,48,43.4,47.9,43.4ZM21.3,43a.367.367,0,0,0-.3.1l-7,3.6a.67.67,0,0,0-.3.8,5.544,5.544,0,0,1,.4,3.8.517.517,0,0,0,.3.7l7.9,4.5,7.2,4.2a.367.367,0,0,0,.3.1.52.52,0,0,0,.4-.2.616.616,0,0,0,.1-.7s-.2-.5-8.5-16.6c-.1-.1-.2-.3-.4-.3Zm9-4.7a.367.367,0,0,0-.3.1l-6.4,3.3a.67.67,0,0,0-.3.8L32,59.4a.55.55,0,0,0,.5.3h.2a1.421,1.421,0,0,1,.6-.2.634.634,0,0,0,.5-.6V40.7a.634.634,0,0,0-.5-.6,5.74,5.74,0,0,1-2.7-1.6C30.6,38.4,30.5,38.3,30.3,38.3Zm8.8.2a.52.52,0,0,0-.4.2,5.261,5.261,0,0,1-2.6,1.5.634.634,0,0,0-.5.6V59a.634.634,0,0,0,.5.6c.2.1.4.1.6.2h.2a.55.55,0,0,0,.5-.3l8.5-16.6a.6.6,0,0,0-.2-.8l-6.3-3.5A.367.367,0,0,0,39.1,38.5Zm21.3,7.7a3.388,3.388,0,0,0-2.9,1.5,3.338,3.338,0,0,0-.5,3.2,3.755,3.755,0,0,0,3.5,2.6,3.585,3.585,0,0,0,3.6-3.6A3.63,3.63,0,0,0,60.4,46.2ZM9,46.2a3.6,3.6,0,1,0,0,7.2,3.7,3.7,0,0,0,3.2-1.9,3.628,3.628,0,0,0,0-3.5,3.513,3.513,0,0,0-2.9-1.9C9.3,46.2,9.1,46.2,9,46.2ZM57.5,24.7h-.2c-.2,0-.3.2-.4.3L48.7,41.1a.6.6,0,0,0,.2.8l7.2,4a.367.367,0,0,0,.3.1.758.758,0,0,0,.4-.2,4.637,4.637,0,0,1,2.3-1.2.634.634,0,0,0,.5-.6V25.9a.634.634,0,0,0-.5-.6,5.023,5.023,0,0,1-1.3-.5A.367.367,0,0,0,57.5,24.7ZM12,24.7a.367.367,0,0,0-.3.1,6.943,6.943,0,0,1-1.3.5.634.634,0,0,0-.5.6V44.1a.634.634,0,0,0,.5.6,5.306,5.306,0,0,1,1.7.8.5.5,0,0,0,.6,0l7.6-4a.67.67,0,0,0,.3-.8L12.6,25c-.1-.1-.2-.3-.4-.3Zm41.6,1.2a.367.367,0,0,0-.3.1L40.2,33a.61.61,0,0,0-.3.7,6.15,6.15,0,0,1,0,2.7.517.517,0,0,0,.3.7l6.2,3.5a.367.367,0,0,0,.3.1h.2c.2,0,.3-.2.4-.3l6.9-13.5a.616.616,0,0,0-.1-.7C53.9,26,53.8,25.9,53.6,25.9ZM14.2,22.5h-.1c-.2,0-.3.1-.4.3h0a.878.878,0,0,0-.1.7L22,39.9c.1.1.2.3.4.3h.2a.367.367,0,0,0,.3-.1l6.4-3.3a.61.61,0,0,0,.3-.7,5.145,5.145,0,0,1,.2-3,.574.574,0,0,0-.2-.7L14.7,22.5Zm20.5,8.8a3.585,3.585,0,0,0-3.6,3.6,3.671,3.671,0,0,0,3.6,3.7,3.608,3.608,0,0,0,3.6-3.7A3.522,3.522,0,0,0,34.7,31.3Zm1.5-9.6a.645.645,0,0,0-.6.6v7a.634.634,0,0,0,.5.6,5.438,5.438,0,0,1,2.6,1.6.764.764,0,0,0,.5.2.367.367,0,0,0,.3-.1L55.3,23a.63.63,0,0,0,.3-.8l-.1-.2a.675.675,0,0,0-.6-.4H36.2Zm-17.9,0a.675.675,0,0,0-.6.4.618.618,0,0,0,.2.7l12.5,8.3a.367.367,0,0,0,.3.1.758.758,0,0,0,.4-.2,4.637,4.637,0,0,1,2.3-1.2.634.634,0,0,0,.5-.6v-7a.645.645,0,0,0-.6-.6h-15Zm42.1-5.2a3.571,3.571,0,0,0-2.7,1.2,3.658,3.658,0,0,0-.9,2.8v.2a1.087,1.087,0,0,0,.1.5,3.664,3.664,0,0,0,3.5,2.5A3.585,3.585,0,0,0,64,20.1,3.524,3.524,0,0,0,60.4,16.5ZM9,16.5a3.585,3.585,0,0,0-3.6,3.6A3.671,3.671,0,0,0,9,23.8h.4a3.616,3.616,0,0,0,3.2-3.2,3.887,3.887,0,0,0-.9-2.9A3.605,3.605,0,0,0,9,16.5ZM39,8.8a.52.52,0,0,0-.4.2,6.437,6.437,0,0,1-2.5,1.5.634.634,0,0,0-.5.6v8.3a.645.645,0,0,0,.6.6H54.6a.56.56,0,0,0,.6-.5,1.884,1.884,0,0,1,.2-.8.517.517,0,0,0-.3-.7L39.4,8.9C39.2,8.9,39.1,8.8,39,8.8Zm-8.5,0a.367.367,0,0,0-.3.1L14.4,18a.61.61,0,0,0-.3.7c.1.4.1.7.2.7a.645.645,0,0,0,.6.6H33.3a.645.645,0,0,0,.6-.6V11.1a.634.634,0,0,0-.5-.6A5.427,5.427,0,0,1,30.9,9,.758.758,0,0,0,30.5,8.8Zm4.2-7.1a3.585,3.585,0,0,0-3.6,3.6,3.75,3.75,0,0,0,2.8,3.6c.3,0,.6.1.9.1a3.585,3.585,0,0,0,3.6-3.6A3.691,3.691,0,0,0,34.7,1.7Z" transform="translate(-3.8 0.1)" fill="#80e315"/>
</svg>
