<svg xmlns="http://www.w3.org/2000/svg" xmlns:xlink="http://www.w3.org/1999/xlink" width="59.857" height="59.857" viewBox="0 0 59.857 59.857">
  <defs>
    <clipPath id="clip-path">
      <rect id="Rectangle_124" data-name="Rectangle 124" width="59.857" height="59.857" transform="translate(0 0)" fill="#80e315"/>
    </clipPath>
  </defs>
  <g id="Group_171" data-name="Group 171" transform="translate(0 0)">
    <g id="Group_170" data-name="Group 170" clip-path="url(#clip-path)">
      <path id="Path_279" data-name="Path 279" d="M29.089,58.077l-.1,1.754a16.726,16.726,0,0,0,1.86,0l-.1-1.754A15.2,15.2,0,0,1,29.089,58.077Z" fill="#80e315"/>
      <path id="Path_280" data-name="Path 280" d="M59.857,29.885A16.714,16.714,0,0,0,46.3,13.485C43.09-3.121,19.828-4.961,14.167,11.159l-.215.6,1.874-.025C20.777-2.422,41.106-1.177,44.46,13.24a16.683,16.683,0,0,0-14.531,6.543C20.534,7.2-.052,13.97,0,29.885a16.714,16.714,0,0,0,13.556,16.4A16.761,16.761,0,0,0,27.145,59.626l.291-1.733A14.859,14.859,0,0,1,15.392,46.53a16.691,16.691,0,0,0,14.537-6.543A16.686,16.686,0,0,0,44.465,46.53,14.858,14.858,0,0,1,32.423,57.893l.291,1.733A16.763,16.763,0,0,0,46.3,46.285,16.714,16.714,0,0,0,59.857,29.885ZM43.188,14.949a14.817,14.817,0,0,1,1.571.083,14.986,14.986,0,0,1-6.284,13.806,16.536,16.536,0,0,0-5.432-2.073,16.546,16.546,0,0,0-2.07-5.439A14.9,14.9,0,0,1,43.188,14.949ZM29.929,31.541a14.845,14.845,0,0,1-1.571-.083,15.037,15.037,0,0,1,0-3.146,15,15,0,0,1,3.142,0,15.037,15.037,0,0,1,0,3.146,14.831,14.831,0,0,1-1.571.083M31.2,33.25a14.805,14.805,0,0,1-1.272,3.466,14.9,14.9,0,0,1-1.273-3.466,16.891,16.891,0,0,0,2.545,0m-4.632-2.091a14.817,14.817,0,0,1-3.461-1.274,14.817,14.817,0,0,1,3.461-1.274,16.931,16.931,0,0,0,0,2.548m2.087-4.639a14.9,14.9,0,0,1,1.273-3.466A14.805,14.805,0,0,1,31.2,26.52,16.891,16.891,0,0,0,28.656,26.52Zm4.632,2.091a14.808,14.808,0,0,1,3.462,1.274,14.808,14.808,0,0,1-3.462,1.274,16.671,16.671,0,0,0,0-2.548m-4.4-7.285a16.591,16.591,0,0,0-2.07,5.439,16.55,16.55,0,0,0-5.432,2.073A14.977,14.977,0,0,1,15.1,15.032,14.947,14.947,0,0,1,28.884,21.326ZM1.755,29.885A14.958,14.958,0,0,1,13.309,15.331a16.731,16.731,0,0,0,6.533,14.554A16.723,16.723,0,0,0,13.31,44.439,14.959,14.959,0,0,1,1.755,29.885M16.669,44.821a14.85,14.85,0,0,1-1.572-.083,14.99,14.99,0,0,1,6.285-13.806,16.576,16.576,0,0,0,5.432,2.073,16.591,16.591,0,0,0,2.07,5.439A14.9,14.9,0,0,1,16.669,44.821Zm26.519,0a14.9,14.9,0,0,1-12.215-6.377,16.546,16.546,0,0,0,2.07-5.439,16.559,16.559,0,0,0,5.432-2.073A14.99,14.99,0,0,1,44.76,44.738,14.85,14.85,0,0,1,43.188,44.821Zm3.36-.382a16.73,16.73,0,0,0-6.532-14.554,16.735,16.735,0,0,0,6.533-14.554C61.837,18.987,61.826,40.791,46.548,44.439Z" fill="#80e315"/>
      <rect id="Rectangle_119" data-name="Rectangle 119" width="1.755" height="1.757" transform="translate(22.936 5.261)" fill="#80e315"/>
      <rect id="Rectangle_120" data-name="Rectangle 120" width="1.755" height="1.757" transform="translate(26.52 5.261)" fill="#80e315"/>
      <rect id="Rectangle_121" data-name="Rectangle 121" width="1.755" height="1.757" transform="translate(47.501 21.076)" fill="#80e315"/>
      <rect id="Rectangle_122" data-name="Rectangle 122" width="1.755" height="1.757" transform="translate(21.159 47.434)" fill="#80e315"/>
      <rect id="Rectangle_123" data-name="Rectangle 123" width="1.755" height="1.757" transform="translate(7.138 21.076)" fill="#80e315"/>
    </g>
  </g>
</svg>
