<svg xmlns="http://www.w3.org/2000/svg" xmlns:xlink="http://www.w3.org/1999/xlink" width="66.351" height="65.884" viewBox="0 0 66.351 65.884">
  <defs>
    <clipPath id="clip-path">
      <rect id="Rectangle_118" data-name="Rectangle 118" width="66.351" height="65.884" transform="translate(0 0)" fill="none"/>
    </clipPath>
  </defs>
  <g id="Group_169" data-name="Group 169" transform="translate(0 0)">
    <g id="Group_168" data-name="Group 168" clip-path="url(#clip-path)">
      <path id="Path_278" data-name="Path 278" d="M65.531,28.265l-7.008-7.793A3.19,3.19,0,0,0,52.961,22.6v3.25H43.082a14.188,14.188,0,0,0-5.541,1.12V13.391h3.426A3.191,3.191,0,0,0,43.1,7.828L35.309.82a3.186,3.186,0,0,0-4.267,0L23.249,7.829a3.191,3.191,0,0,0,2.134,5.562h3.426v6.953a.972.972,0,0,0,1.944,0V12.419a.972.972,0,0,0-.972-.972h-4.4a1.248,1.248,0,0,1-.834-2.174l7.792-7.007a1.244,1.244,0,0,1,1.668,0L41.8,9.273a1.247,1.247,0,0,1-.834,2.174h-4.4a.972.972,0,0,0-.972.972V27.98a14.385,14.385,0,0,0-4.844,4.964V24.232a.972.972,0,0,0-1.944,0V39.581a14.183,14.183,0,0,0-5.54-1.12h-9.88v-3.25a3.19,3.19,0,0,0-5.561-2.133L.82,40.871a3.183,3.183,0,0,0,0,4.266l7.008,7.792A3.19,3.19,0,0,0,13.39,50.8v-3.6h9.879a5.547,5.547,0,0,1,5.541,5.541v12.18a.972.972,0,0,0,.972.972h6.787a.972.972,0,0,0,.972-.972V40.127a5.548,5.548,0,0,1,5.541-5.542h9.88v3.6a3.19,3.19,0,0,0,5.561,2.134l1.722-1.916a.972.972,0,1,0-1.445-1.3l-1.722,1.915a1.246,1.246,0,0,1-2.172-.834V33.613a.972.972,0,0,0-.972-.971H43.082A7.493,7.493,0,0,0,35.6,40.126V45.55a14.376,14.376,0,0,0-4.844-4.964v-.46A12.342,12.342,0,0,1,43.082,27.8H53.934a.972.972,0,0,0,.971-.972V22.6a1.247,1.247,0,0,1,2.173-.834l7.008,7.794a1.243,1.243,0,0,1,0,1.666l-2.693,2.993a.972.972,0,1,0,1.445,1.3l2.693-2.994A3.184,3.184,0,0,0,65.531,28.265ZM35.6,52.733V63.941H30.754V52.733a7.494,7.494,0,0,0-7.485-7.485H12.418a.972.972,0,0,0-.972.972V50.8a1.246,1.246,0,0,1-2.173.833L2.265,43.837a1.245,1.245,0,0,1,0-1.667l7.008-7.792a1.246,1.246,0,0,1,2.173.833v4.222a.972.972,0,0,0,.972.972H23.269A12.342,12.342,0,0,1,35.6,52.733" fill="#80e315"/>
    </g>
  </g>
</svg>
