<svg width="111" height="85" viewBox="0 0 111 85" fill="none" xmlns="http://www.w3.org/2000/svg">
<path d="M110.244 23.9984C110.849 23.3936 110.849 22.4121 110.244 21.8073C109.64 21.2026 108.66 21.2015 108.055 21.8073L82.4874 47.4039L60.7053 25.597C60.7002 25.5919 60.6951 25.5878 60.6899 25.5826C60.6663 25.56 60.6427 25.5385 60.6181 25.5179C60.6027 25.5046 60.5873 25.4912 60.5719 25.4789C60.5493 25.4615 60.5257 25.445 60.5021 25.4276C60.4837 25.4142 60.4642 25.4009 60.4447 25.3875C60.4241 25.3752 60.4036 25.3639 60.3831 25.3516C60.3595 25.3372 60.3349 25.3239 60.3113 25.3116C60.2928 25.3023 60.2743 25.2941 60.2569 25.2859C60.2292 25.2736 60.2015 25.2602 60.1727 25.25C60.1553 25.2428 60.1378 25.2366 60.1194 25.2305C60.0906 25.2212 60.0619 25.2109 60.0321 25.2027C60.0126 25.1966 59.9921 25.1925 59.9716 25.1873C59.9439 25.1812 59.9172 25.174 59.8895 25.1688C59.8648 25.1647 59.8402 25.1617 59.8156 25.1586C59.792 25.1555 59.7684 25.1514 59.7448 25.1493C59.716 25.1473 59.6873 25.1463 59.6575 25.1452C59.638 25.1452 59.6185 25.1432 59.599 25.1432C59.5672 25.1442 59.5354 25.1463 59.5046 25.1483C59.4862 25.1493 59.4687 25.1504 59.4502 25.1514C59.4195 25.1545 59.3887 25.1596 59.3589 25.1647C59.3394 25.1678 59.3199 25.1709 59.3014 25.175C59.2737 25.1801 59.247 25.1873 59.2193 25.1945C59.1968 25.2007 59.1742 25.2058 59.1516 25.213C59.129 25.2202 59.1075 25.2284 59.0849 25.2366C59.0582 25.2459 59.0305 25.2561 59.0038 25.2674C58.9864 25.2746 58.9679 25.2838 58.9505 25.2921C58.9207 25.3064 58.8909 25.3208 58.8622 25.3362C58.8571 25.3403 58.8509 25.3424 58.8448 25.3454L50.8021 29.9247C48.5115 31.1188 45.9069 31.3129 43.4634 30.473C41.378 29.7563 39.6621 28.3723 38.5364 26.52C40.3066 25.0723 44.6343 21.8042 50.9693 18.7723C52.6873 17.9499 54.6217 17.7137 56.5634 17.8246C56.6332 17.8338 56.704 17.841 56.7728 17.841C56.7789 17.841 56.7851 17.839 56.7912 17.839C62.6634 18.2548 68.5274 21.7652 68.6054 21.8124C69.2222 22.1872 70.0165 22.0866 70.5193 21.5691L88.9292 2.62988C89.5254 2.01692 89.5121 1.03535 88.8994 0.438818C88.2868 -0.157717 87.3067 -0.144369 86.7104 0.468594L69.1308 18.5536C67.0404 17.4355 62.2447 15.1653 57.1802 14.767C47.7685 10.1713 37.9842 12.5523 34.9127 13.503L25.2649 3.84451C24.6605 3.23976 23.6804 3.23976 23.0759 3.84451C22.4704 4.44926 22.4704 5.43082 23.0759 6.03557L33.401 16.3728C33.83 16.803 34.4734 16.9406 35.042 16.727C35.1302 16.6931 42.2934 14.0636 50.2879 15.6879C50.0683 15.7773 49.8507 15.8728 49.6352 15.9754C40.7715 20.2169 35.7501 24.8115 35.5397 25.0056C35.0492 25.4594 34.9045 26.1771 35.1805 26.7849C36.6091 29.9309 39.1931 32.2821 42.4576 33.4043C43.7877 33.8612 45.1546 34.0892 46.5134 34.0892C48.4889 34.0892 50.4501 33.6086 52.2614 32.6589C52.2778 32.6497 52.2932 32.6415 52.3086 32.6332L59.3497 28.6238L83.6779 52.9791L83.6799 52.9812L88.7116 58.0173C89.3859 58.6929 89.7574 59.5903 89.7574 60.5441C89.7574 61.499 89.3859 62.3963 88.7116 63.0709L86.187 65.5977L78.6308 58.0327C78.0263 57.4269 77.0463 57.4269 76.4418 58.0327C75.8374 58.6375 75.8374 59.619 76.4418 60.2248L84.5215 68.3134C85.913 69.7067 85.913 71.9738 84.5215 73.3671C83.8472 74.0416 82.9513 74.4133 81.9979 74.4133C81.0445 74.4133 80.1476 74.0416 79.4734 73.3671L77.9514 71.8423L77.9504 71.8413L69.3617 63.2434C68.7573 62.6387 67.7772 62.6387 67.1728 63.2434C66.5683 63.8492 66.5683 64.8297 67.1728 65.4355L75.7614 74.0334C77.153 75.4267 77.153 77.6927 75.7614 79.086C74.3698 80.4793 72.1049 80.4793 70.7133 79.086L62.1257 70.4891C62.1257 70.4891 62.1226 70.4871 62.1216 70.485L60.0937 68.4551C59.4892 67.8504 58.5092 67.8504 57.9047 68.4551C57.3003 69.0609 57.3003 70.0414 57.9047 70.6472L62.7291 75.477C64.1207 76.8703 64.0355 79.2225 62.5392 80.7206C61.043 82.2186 58.6929 82.3048 57.3013 80.9115L54.7767 78.3847L55.9394 77.2214C57.1586 76.0006 57.8308 74.3763 57.8308 72.6494C57.8308 70.9224 57.1586 69.2981 55.9394 68.0773L55.647 67.7847C54.3406 66.4766 52.6082 65.8493 50.8924 65.8986C51.2126 65.1244 51.3798 64.2886 51.3798 63.4262C51.3798 61.6992 50.7076 60.0749 49.4874 58.8531L49.196 58.5615C48.1133 57.4772 46.7135 56.8273 45.2059 56.6938C45.3804 56.1035 45.4717 55.4833 45.4717 54.8498C45.4717 53.1228 44.7995 51.4996 43.5804 50.2777L43.2879 49.9851V49.9862C42.0677 48.7643 40.4462 48.0918 38.7211 48.0918C38.0879 48.0918 37.4691 48.1832 36.879 48.3577C36.7466 46.8484 36.0959 45.448 35.0132 44.3637L34.7218 44.0711C33.5016 42.8503 31.8801 42.1778 30.155 42.1778C28.4288 42.1778 26.8074 42.8503 25.5872 44.0721L23.0451 46.6174L2.64233 26.1925C2.03787 25.5878 1.0578 25.5878 0.453345 26.1925C-0.151115 26.7983 -0.151115 27.7788 0.453345 28.3836L20.8562 48.8085L19.1341 50.5324C16.6157 53.053 16.6157 57.1559 19.1341 59.6765L22.8984 63.4457C22.9774 63.5237 23.0616 63.5915 23.1509 63.649C23.1509 63.6592 23.1498 63.6695 23.1498 63.6798C23.1498 65.4067 23.822 67.031 25.0422 68.2529C26.3815 69.5938 28.1415 70.2643 29.9015 70.2643C30.5173 70.2643 31.133 70.18 31.7313 70.0158C31.8319 71.5836 32.4876 73.0447 33.6083 74.1669L34.1615 74.7213C35.3488 75.9093 36.9077 76.5037 38.4676 76.5037C39.03 76.5037 39.5913 76.4247 40.1363 76.2707C40.1178 76.4699 40.1075 76.6721 40.1075 76.8754C40.1075 78.6024 40.7797 80.2267 41.9989 81.4475L42.2914 81.7401C43.5506 82.9999 45.2039 83.6303 46.8582 83.6303C48.5125 83.6303 50.1668 82.9999 51.426 81.7401L52.5877 80.5768L55.1113 83.1036C56.3766 84.3696 58.0494 85 59.7448 85C61.5304 85 63.3407 84.3008 64.7282 82.9126C65.7309 81.9085 66.3733 80.6815 66.6524 79.4043L68.5243 81.2781C69.8235 82.5789 71.5302 83.2299 73.2368 83.2299C74.9445 83.2299 76.6512 82.5789 77.9504 81.2781C79.0967 80.1302 79.7371 78.665 79.8715 77.1619C80.5601 77.3929 81.2795 77.5099 81.9979 77.5099C83.7046 77.5099 85.4112 76.859 86.7115 75.5581C88.7229 73.5436 89.1765 70.5517 88.0723 68.0947L90.9006 65.263C93.5001 62.6612 93.5001 58.428 90.9006 55.8262L84.6764 49.595L110.244 23.9984ZM21.3231 57.4855C20.0126 56.1723 20.0126 54.0366 21.3231 52.7245L27.7772 46.2632C28.4124 45.6276 29.257 45.2775 30.155 45.2775C31.053 45.2775 31.8976 45.6276 32.5328 46.2632L32.8243 46.5548C33.4595 47.1914 33.8095 48.0364 33.8095 48.9358C33.8095 49.8352 33.4595 50.6802 32.8243 51.3168L23.9934 60.1581L21.3231 57.4855ZM27.2312 66.0608C26.596 65.4252 26.246 64.5792 26.246 63.6808C26.246 62.7814 26.596 61.9353 27.2312 61.2998L35.0132 53.5079L35.0153 53.5058L36.3433 52.1772C36.9775 51.5417 37.8221 51.1915 38.7211 51.1915C39.619 51.1915 40.4636 51.5417 41.0979 52.1772V52.1782L41.3903 52.4698C42.0256 53.1064 42.3755 53.9514 42.3755 54.8508C42.3755 55.7492 42.0256 56.5953 41.3903 57.2308L32.5697 66.0608C31.0991 67.5352 28.7039 67.5352 27.2312 66.0608ZM36.3504 72.5292L35.7973 71.9748C35.162 71.3392 34.8121 70.4942 34.8121 69.5948C34.8121 68.6954 35.162 67.8504 35.7973 67.2138L42.2524 60.7525C42.8866 60.117 43.7312 59.7679 44.6292 59.7679C45.5271 59.7679 46.3717 60.118 47.007 60.7536L47.2984 61.0452C47.9337 61.6817 48.2836 62.5267 48.2836 63.4262C48.2836 64.3256 47.9337 65.1706 47.2984 65.8072L40.5837 72.5292C39.4169 73.6977 37.5173 73.6977 36.3504 72.5292ZM44.4804 79.548L44.1889 79.2564C43.5537 78.6198 43.2037 77.7748 43.2037 76.8754C43.2037 75.976 43.5537 75.131 44.1889 74.4944L48.7024 69.9768C49.3571 69.3196 50.2191 68.9921 51.0802 68.9921C51.9412 68.9921 52.8022 69.3196 53.458 69.9757L53.7494 70.2683C54.3847 70.9049 54.7346 71.7499 54.7346 72.6494C54.7346 73.5488 54.3847 74.3938 53.7494 75.0293L49.236 79.548C47.9255 80.8612 45.7919 80.8602 44.4804 79.548Z" fill="#7FE314"/>
</svg>
