<svg width="85" height="85" viewBox="0 0 85 85" fill="none" xmlns="http://www.w3.org/2000/svg">
<path d="M82.2577 50.726C82.2577 52.5091 81.1068 54.0196 79.5164 54.5874V53.4673C79.5164 51.1974 77.6738 49.3548 75.4029 49.3548C74.9212 49.3548 74.4662 49.4563 74.0327 49.6069V49.3548C74.0327 47.0839 72.1902 45.2423 69.9192 45.2423C69.3781 45.2423 68.8647 45.354 68.3933 45.5416C67.9168 43.7964 66.3314 42.5 64.4356 42.5C63.9539 42.5 63.4979 42.6015 63.0644 42.7521V38.8046C66.3745 37.2305 68.5481 33.8836 68.5481 30.1616C68.5481 24.8706 64.2429 20.5644 58.9519 20.5644C53.661 20.5644 49.3548 24.8706 49.3548 30.1616C49.3548 33.8836 51.5294 37.2305 54.8384 38.8046V65.1909C54.614 64.9336 54.4582 64.618 54.405 64.2583L52.4128 51.3255C52.1187 49.3927 50.479 47.9836 48.5196 47.9836H47.8125C45.6379 47.9836 43.8712 49.7514 43.8712 51.925C43.8712 52.1023 43.8814 52.2734 43.9081 52.4445L44.2247 54.8384H6.85481C4.58388 54.8384 2.74233 52.9969 2.74233 50.726V6.85481C2.74233 4.58388 4.58388 2.74233 6.85481 2.74233H78.1452C80.4161 2.74233 82.2577 4.58388 82.2577 6.85481V50.726ZM58.9519 28.7904C56.681 28.7904 54.8384 30.633 54.8384 32.9029V35.6401C53.1465 34.3704 52.0971 32.3515 52.0971 30.1616C52.0971 26.3801 55.1705 23.3067 58.9519 23.3067C62.7324 23.3067 65.8067 26.3801 65.8067 30.1616C65.8067 32.3515 64.7563 34.3704 63.0644 35.6401V32.9029C63.0644 30.633 61.2218 28.7904 58.9519 28.7904ZM76.774 69.6302C76.774 70.4439 76.5383 71.2371 76.0833 71.9114L72.4412 77.3735C71.687 78.5039 71.2904 79.8156 71.2904 81.1765V82.2577H54.8384V81.4389C54.8384 79.8914 54.3035 78.3696 53.3392 77.1593L50.0086 72.9936C49.5423 72.4095 49.2421 71.7085 49.1406 70.9686L46.6237 52.0859C46.6186 52.0326 46.6125 51.9793 46.6125 51.925C46.6125 51.2671 47.1536 50.726 47.8125 50.726H48.5196C49.1191 50.726 49.6171 51.1543 49.7084 51.7436L51.6954 64.6764C52.0428 66.9207 53.9387 68.5481 56.2096 68.5481H57.5808V32.9029C57.5808 32.1486 58.1967 31.5327 58.9519 31.5327C59.7072 31.5327 60.3221 32.1486 60.3221 32.9029V63.0644H63.0644V46.6125C63.0644 45.8582 63.6803 45.2423 64.4356 45.2423C65.1908 45.2423 65.8067 45.8582 65.8067 46.6125V63.0644H68.5481V49.3548C68.5481 48.5995 69.164 47.9836 69.9192 47.9836C70.6745 47.9836 71.2904 48.5995 71.2904 49.3548V63.0644H74.0327V53.4673C74.0327 52.713 74.6486 52.0971 75.4029 52.0971C76.1581 52.0971 76.774 52.713 76.774 53.4673V69.6302ZM78.1452 0H6.85481C3.07436 0 0 3.07436 0 6.85481V50.726C0 54.5064 3.07436 57.5808 6.85481 57.5808H44.5885L46.426 71.3334C46.5858 72.5652 47.0839 73.7325 47.8658 74.707L51.1974 78.8677C51.7754 79.5963 52.0971 80.5125 52.0971 81.4389V85H74.0327V81.1765C74.0327 80.3618 74.2674 79.5748 74.7234 78.8953L78.3645 73.4322C79.1198 72.3029 79.5164 70.9901 79.5164 69.6302V57.4414C82.644 56.804 85 54.035 85 50.726V6.85481C85 3.07436 81.9256 0 78.1452 0Z" fill="#7FE314"/>
<path d="M13.9504 32.9029C14.3849 31.6875 15.3862 30.718 16.6712 30.3491L23.3067 28.4532V24.5006L22.6263 24.104C21.3361 23.3498 20.5644 22.0319 20.5644 20.5644V17.8221C20.5644 16.6713 21.0522 15.5676 21.8977 14.7918C22.7544 14.0037 23.8796 13.6297 25.052 13.726C27.1466 13.9074 28.7904 15.8299 28.7904 18.106V20.5644C28.7904 22.0319 28.0187 23.3498 26.7285 24.104L26.048 24.5006V28.4532L32.6836 30.3491C33.9686 30.718 34.9709 31.6875 35.4044 32.9029H13.9504ZM33.4388 27.7144L28.7904 26.3862V26.0214C30.4987 24.7312 31.5327 22.7062 31.5327 20.5644V18.106C31.5327 14.4218 28.7904 11.2993 25.2877 10.995C23.3652 10.8228 21.4591 11.4715 20.0448 12.7668C18.6317 14.0632 17.8221 15.9057 17.8221 17.8221V20.5644C17.8221 22.7062 18.8561 24.7312 20.5644 26.0214V26.3862L15.916 27.7144C13.0025 28.5444 10.9673 31.2427 10.9673 34.274V35.6452H38.3875V34.274C38.3875 31.2427 36.3523 28.5444 33.4388 27.7144Z" fill="#7FE314"/>
<path d="M8.22598 8.22597H41.1288V38.3875H8.22598V8.22597ZM5.48364 41.1288H43.8712V5.48364H5.48364V41.1288Z" fill="#7FE314"/>
<path d="M9.59714 49.3548C8.84187 49.3548 8.22598 48.7389 8.22598 47.9836C8.22598 47.2284 8.84187 46.6125 9.59714 46.6125C10.3514 46.6125 10.9673 47.2284 10.9673 47.9836C10.9673 48.7389 10.3514 49.3548 9.59714 49.3548ZM9.59714 43.8712C7.32621 43.8712 5.48364 45.7127 5.48364 47.9836C5.48364 50.2546 7.32621 52.0971 9.59714 52.0971C11.867 52.0971 13.7096 50.2546 13.7096 47.9836C13.7096 45.7127 11.867 43.8712 9.59714 43.8712Z" fill="#7FE314"/>
<path d="M20.5644 49.3548C19.8091 49.3548 19.1932 48.7389 19.1932 47.9836C19.1932 47.2284 19.8091 46.6125 20.5644 46.6125C21.3197 46.6125 21.9356 47.2284 21.9356 47.9836C21.9356 48.7389 21.3197 49.3548 20.5644 49.3548ZM20.5644 43.8712C18.2935 43.8712 16.4519 45.7127 16.4519 47.9836C16.4519 50.2546 18.2935 52.0971 20.5644 52.0971C22.8353 52.0971 24.6779 50.2546 24.6779 47.9836C24.6779 45.7127 22.8353 43.8712 20.5644 43.8712Z" fill="#7FE314"/>
<path d="M31.5327 49.3548C30.7775 49.3548 30.1616 48.7389 30.1616 47.9836C30.1616 47.2284 30.7775 46.6125 31.5327 46.6125C32.287 46.6125 32.9029 47.2284 32.9029 47.9836C32.9029 48.7389 32.287 49.3548 31.5327 49.3548ZM31.5327 43.8712C29.2618 43.8712 27.4192 45.7127 27.4192 47.9836C27.4192 50.2546 29.2618 52.0971 31.5327 52.0971C33.8026 52.0971 35.6452 50.2546 35.6452 47.9836C35.6452 45.7127 33.8026 43.8712 31.5327 43.8712Z" fill="#7FE314"/>
<path d="M75.4028 10.9673C74.6486 10.9673 74.0327 10.3514 74.0327 9.59714C74.0327 8.84187 74.6486 8.22597 75.4028 8.22597C76.1581 8.22597 76.774 8.84187 76.774 9.59714C76.774 10.3514 76.1581 10.9673 75.4028 10.9673ZM75.4028 5.48364C73.1329 5.48364 71.2904 7.32621 71.2904 9.59714C71.2904 11.867 73.1329 13.7096 75.4028 13.7096C77.6738 13.7096 79.5163 11.867 79.5163 9.59714C79.5163 7.32621 77.6738 5.48364 75.4028 5.48364Z" fill="#7FE314"/>
<path d="M64.4356 10.9673C63.6803 10.9673 63.0644 10.3514 63.0644 9.59714C63.0644 8.84187 63.6803 8.22597 64.4356 8.22597C65.1908 8.22597 65.8067 8.84187 65.8067 9.59714C65.8067 10.3514 65.1908 10.9673 64.4356 10.9673ZM64.4356 5.48364C62.1646 5.48364 60.3221 7.32621 60.3221 9.59714C60.3221 11.867 62.1646 13.7096 64.4356 13.7096C66.7065 13.7096 68.548 11.867 68.548 9.59714C68.548 7.32621 66.7065 5.48364 64.4356 5.48364Z" fill="#7FE314"/>
<path d="M53.4673 10.9673C52.713 10.9673 52.0971 10.3514 52.0971 9.59714C52.0971 8.84187 52.713 8.22597 53.4673 8.22597C54.2225 8.22597 54.8384 8.84187 54.8384 9.59714C54.8384 10.3514 54.2225 10.9673 53.4673 10.9673ZM53.4673 5.48364C51.1974 5.48364 49.3548 7.32621 49.3548 9.59714C49.3548 11.867 51.1974 13.7096 53.4673 13.7096C55.7382 13.7096 57.5808 11.867 57.5808 9.59714C57.5808 7.32621 55.7382 5.48364 53.4673 5.48364Z" fill="#7FE314"/>
</svg>
