<svg width="76" height="85" viewBox="0 0 76 85" fill="none" xmlns="http://www.w3.org/2000/svg">
<path fill-rule="evenodd" clip-rule="evenodd" d="M1.79393 38.9537C1.91185 38.9537 2.02852 38.9648 2.14519 38.9871C2.2606 39.0107 2.37225 39.0441 2.48139 39.0887C2.59054 39.1334 2.6934 39.1879 2.79126 39.2523C2.89036 39.3167 2.98068 39.3898 3.06348 39.4716C3.14753 39.5546 3.22155 39.6439 3.28678 39.7405C3.35202 39.8372 3.40721 39.9388 3.45238 40.0466C3.49754 40.1544 3.53266 40.2647 3.55524 40.3787C3.57782 40.4927 3.58912 40.6079 3.58912 40.7244C3.58912 40.8408 3.57782 40.9561 3.55524 41.0701C3.53266 41.1841 3.49754 41.2944 3.45238 41.4022C3.40721 41.51 3.35202 41.6116 3.28678 41.7082C3.22155 41.8049 3.14753 41.8941 3.06348 41.9771C2.98068 42.0589 2.89036 42.132 2.79126 42.1977C2.6934 42.2621 2.59054 42.3166 2.48139 42.3612C2.37225 42.4058 2.2606 42.4393 2.14519 42.4616C2.02852 42.4839 1.91185 42.495 1.79393 42.495C1.67726 42.495 1.55934 42.4839 1.44393 42.4616C1.32851 42.4393 1.21686 42.4058 1.10772 42.3612C0.998579 42.3166 0.895711 42.2621 0.79786 42.1977C0.698755 42.132 0.608431 42.0589 0.525634 41.9771C0.441583 41.8941 0.367568 41.8049 0.302334 41.7082C0.2371 41.6116 0.181902 41.51 0.13674 41.4022C0.0915779 41.2944 0.0564525 41.1841 0.0338714 41.0701C0.0112903 40.9561 0 40.8408 0 40.7244C0 40.6079 0.0112903 40.4927 0.0338714 40.3787C0.0564525 40.2647 0.0915779 40.1544 0.13674 40.0466C0.181902 39.9388 0.2371 39.8372 0.302334 39.7405C0.367568 39.6439 0.441583 39.5546 0.525634 39.4716C0.608431 39.3898 0.698755 39.3167 0.79786 39.2523C0.895711 39.1879 0.998579 39.1334 1.10772 39.0887C1.21686 39.0441 1.32851 39.0107 1.44393 38.9871C1.55934 38.9648 1.67726 38.9537 1.79393 38.9537Z" fill="#7FE314"/>
<path d="M39.4891 81.4586H57.4396V76.1454C57.4472 75.7898 57.5425 75.4589 57.7269 75.1529L71.7999 54.3619V28.6456C71.0296 28.9021 70.3597 29.3159 69.7889 29.8859C69.2846 30.384 68.8945 30.9578 68.621 31.6083C68.3475 32.2588 68.2108 32.9366 68.2095 33.6404V46.817C68.2145 47.0872 68.1556 47.3449 68.0364 47.5878C67.9159 47.8319 67.7466 48.0351 67.5271 48.1986L48.7159 66.7592C48.6331 66.8422 48.5415 66.9153 48.4436 66.981C48.3445 67.0466 48.2417 67.1012 48.1313 67.1458C48.0221 67.1916 47.9092 67.2251 47.7938 67.2486C47.6772 67.2709 47.5605 67.2821 47.4413 67.2821C47.3234 67.2821 47.2055 67.2709 47.09 67.2486C46.9734 67.2251 46.8605 67.1916 46.7513 67.1458C46.6422 67.1012 46.5381 67.0466 46.4402 66.981C46.3411 66.9153 46.2508 66.8422 46.1667 66.7592C46.0814 66.6786 46.0049 66.5919 45.9372 66.4965C45.8694 66.4023 45.8117 66.3007 45.7653 66.1941C45.7176 66.0876 45.6825 65.9773 45.6587 65.8633C45.6348 65.7505 45.6235 65.6353 45.6235 65.5188C45.6235 65.4024 45.6348 65.2884 45.6587 65.1744C45.6825 65.0604 45.7176 64.9501 45.7653 64.8435C45.8117 64.737 45.8694 64.6366 45.9372 64.5412C46.0049 64.4458 46.0814 64.359 46.1667 64.2797L54.4953 56.062C54.6672 55.8922 54.8002 55.6977 54.893 55.4771C54.9871 55.2566 55.0335 55.0261 55.0348 54.787C55.0373 54.5515 54.9921 54.326 54.898 54.1104C54.8039 53.8948 54.6697 53.7065 54.4953 53.5466C54.4151 53.4624 54.3272 53.3868 54.2306 53.3199C54.134 53.2529 54.0324 53.1959 53.9245 53.1501C53.8154 53.1042 53.7038 53.0695 53.5896 53.046C53.4742 53.0225 53.3575 53.0101 53.2396 53.0101C53.1217 53.0101 53.005 53.0225 52.8896 53.046C52.7742 53.0695 52.6625 53.1042 52.5546 53.1501C52.4468 53.1959 52.3451 53.2529 52.2485 53.3199C52.1519 53.3868 52.0629 53.4624 51.9826 53.5466L40.5303 64.8101C40.1953 65.1446 39.9369 65.53 39.7563 65.9661C39.5756 66.4011 39.4865 66.8546 39.4891 67.3254V81.4586ZM17.3033 52.4847C17.5642 51.9407 17.9117 51.4562 18.3445 51.0325C18.47 50.9098 18.6004 50.7946 18.7372 50.6855C18.8739 50.5765 19.0157 50.4736 19.1624 50.3782C19.3092 50.2828 19.461 50.1936 19.6166 50.1131C19.7721 50.0313 19.9302 49.9582 20.0933 49.8925C20.2564 49.8268 20.422 49.7686 20.5901 49.719C20.7594 49.6682 20.9288 49.6273 21.1019 49.5939C21.275 49.5604 21.4481 49.5344 21.6238 49.5183C21.7981 49.5009 21.9738 49.4923 22.1494 49.4923C22.3263 49.4923 22.5019 49.5009 22.6763 49.5183C22.8519 49.5344 23.025 49.5604 23.1982 49.5939C23.37 49.6273 23.5406 49.6682 23.71 49.719C23.8781 49.7686 24.0437 49.8268 24.2068 49.8925C24.3686 49.9582 24.5279 50.0313 24.6835 50.1131C24.839 50.1936 24.9908 50.2828 25.1376 50.3782C25.2844 50.4736 25.4261 50.5765 25.5629 50.6855C25.6996 50.7946 25.8301 50.9098 25.9555 51.0325L37.3715 62.2959L37.6951 62.6144L49.4334 51.0325C49.5589 50.9098 49.6906 50.7946 49.8274 50.6855C49.9641 50.5765 50.1059 50.4736 50.2526 50.3782C50.3994 50.2828 50.5499 50.1936 50.7055 50.1131C50.8611 50.0313 51.0204 49.9582 51.1835 49.8925C51.3453 49.8268 51.5109 49.7686 51.6803 49.719C51.8484 49.6682 52.019 49.6273 52.1908 49.5939C52.364 49.5604 52.5383 49.5344 52.7127 49.5183C52.8883 49.5009 53.064 49.4923 53.2396 49.4923C53.4152 49.4923 53.5909 49.5009 53.7665 49.5183C53.9409 49.5344 54.1152 49.5604 54.2871 49.5939C54.4602 49.6273 54.6308 49.6682 54.7989 49.719C54.967 49.7686 55.1326 49.8268 55.2957 49.8925C55.4588 49.9582 55.6181 50.0313 55.7737 50.1131C55.9292 50.1936 56.0798 50.2828 56.2265 50.3782C56.3733 50.4736 56.5151 50.5765 56.6518 50.6855C56.7886 50.7946 56.919 50.9098 57.0445 51.0325C57.4773 51.4562 57.8248 51.9407 58.0857 52.4847L64.6191 46.0736V33.6404C64.6191 33.3505 64.6317 33.0605 64.6593 32.7718C64.6881 32.4819 64.7295 32.1956 64.786 31.9106C64.8424 31.6256 64.9139 31.3444 64.998 31.0656C65.0833 30.788 65.1811 30.5142 65.2928 30.2465C65.4057 29.9776 65.5299 29.7149 65.6691 29.4597C65.8071 29.2032 65.9577 28.9541 66.1208 28.7125C66.2838 28.4709 66.4595 28.2379 66.6464 28.0136C66.8321 27.7881 67.0303 27.5738 67.2373 27.3681C67.4455 27.1636 67.6638 26.9678 67.8909 26.7845C68.1192 26.5998 68.355 26.4276 68.5997 26.2665C68.8443 26.1054 69.0977 25.9567 69.3574 25.8204C69.617 25.6841 69.883 25.5602 70.154 25.4499C70.4262 25.3397 70.7034 25.2418 70.9857 25.1588C71.2667 25.0745 71.5527 25.0051 71.8413 24.9493C72.1298 24.8936 72.4208 24.8527 72.7144 24.8242C73.0067 24.7969 73.3003 24.7845 73.5951 24.7858C73.713 24.7858 73.8296 24.7969 73.9451 24.8192C74.0605 24.8415 74.1734 24.875 74.2813 24.9196C74.3904 24.9642 74.4945 25.0187 74.5924 25.0832C74.6902 25.1488 74.7806 25.2219 74.8646 25.3037C74.9474 25.3867 75.0214 25.476 75.0867 25.5726C75.1531 25.6693 75.2083 25.7709 75.2535 25.8787C75.2987 25.9865 75.3325 26.0968 75.3551 26.2108C75.3777 26.3248 75.3902 26.44 75.3902 26.5565V54.8923C75.3877 55.2504 75.2924 55.58 75.103 55.8848L61.03 76.677V81.4586H62.8252C62.9431 81.4586 63.0598 81.4698 63.1752 81.4921C63.2906 81.5144 63.4023 81.5491 63.5114 81.5937C63.6206 81.6371 63.7234 81.6916 63.8225 81.7573C63.9204 81.8217 64.0107 81.8948 64.0935 81.9766C64.1776 82.0596 64.2516 82.1488 64.3168 82.2455C64.3833 82.3421 64.4385 82.4437 64.4836 82.5515C64.5288 82.6593 64.5627 82.7696 64.5853 82.8836C64.6078 82.9976 64.6191 83.1129 64.6191 83.2293C64.6191 83.3458 64.6078 83.461 64.5853 83.575C64.5627 83.689 64.5288 83.7993 64.4836 83.9071C64.4385 84.0149 64.3833 84.1165 64.3168 84.2132C64.2516 84.3098 64.1776 84.399 64.0935 84.4821C64.0107 84.5639 63.9204 84.6369 63.8225 84.7014C63.7234 84.7671 63.6206 84.8216 63.5114 84.865C63.4023 84.9096 63.2906 84.9442 63.1752 84.9666C63.0598 84.9889 62.9431 85 62.8252 85H12.565C12.4471 85 12.3305 84.9889 12.2138 84.9666C12.0984 84.943 11.9867 84.9096 11.8776 84.865C11.7684 84.8216 11.6656 84.7671 11.5677 84.7014C11.4699 84.6369 11.3783 84.5639 11.2955 84.4821C11.2114 84.399 11.1374 84.3098 11.0722 84.2132C11.007 84.1165 10.9518 84.0149 10.9066 83.9071C10.8614 83.7993 10.8276 83.689 10.8037 83.575C10.7811 83.461 10.7699 83.3458 10.7699 83.2293C10.7699 83.1129 10.7811 82.9976 10.8037 82.8836C10.8276 82.7696 10.8614 82.6593 10.9066 82.5515C10.9518 82.4437 11.007 82.3421 11.0722 82.2455C11.1374 82.1488 11.2114 82.0596 11.2955 81.9766C11.3783 81.8948 11.4699 81.8217 11.5677 81.7573C11.6656 81.6916 11.7684 81.6371 11.8776 81.5937C11.9867 81.5491 12.0984 81.5144 12.2138 81.4921C12.3305 81.4698 12.4471 81.4586 12.565 81.4586H14.359V76.677L0.28728 55.8848C0.0965963 55.58 0.00125442 55.2504 0 54.8923V47.8083C0 47.6918 0.0112903 47.5766 0.0338714 47.4626C0.0564525 47.3486 0.0915779 47.2383 0.13674 47.1305C0.181902 47.024 0.2371 46.9211 0.302334 46.8245C0.367568 46.7278 0.441583 46.6386 0.525634 46.5568C0.608431 46.4738 0.698755 46.4007 0.79786 46.3363C0.895711 46.2718 0.998579 46.2173 1.10772 46.1727C1.21686 46.1281 1.32851 46.0946 1.44393 46.0711C1.55934 46.0488 1.67726 46.0376 1.79393 46.0376C1.91185 46.0376 2.02852 46.0488 2.14519 46.0711C2.2606 46.0946 2.37225 46.1281 2.48139 46.1727C2.59054 46.2173 2.6934 46.2718 2.79126 46.3363C2.89036 46.4007 2.98068 46.4738 3.06348 46.5568C3.14753 46.6386 3.22155 46.7278 3.28678 46.8245C3.35202 46.9211 3.40721 47.024 3.45238 47.1305C3.49754 47.2383 3.53266 47.3486 3.55524 47.4626C3.57782 47.5766 3.58912 47.6918 3.58912 47.8083V54.3619L17.6621 75.1529C17.8465 75.4589 17.9418 75.7898 17.9493 76.1454V81.4586H35.8999V67.2895C35.9024 66.8199 35.8134 66.3664 35.6327 65.9302C35.4533 65.494 35.1949 65.1099 34.8587 64.7754L23.3349 53.5466C23.2546 53.4624 23.1655 53.3868 23.0689 53.3199C22.9723 53.2529 22.8707 53.1959 22.7628 53.1501C22.655 53.1042 22.5433 53.0695 22.4279 53.046C22.3125 53.0225 22.1958 53.0101 22.0779 53.0101C21.96 53.0101 21.8433 53.0225 21.7291 53.046C21.6137 53.0695 21.5021 53.1042 21.3929 53.1501C21.285 53.1959 21.1834 53.2529 21.0868 53.3199C20.9902 53.3868 20.9024 53.4624 20.8221 53.5466C20.6478 53.7065 20.5135 53.8948 20.4194 54.1104C20.3254 54.326 20.2802 54.5515 20.2827 54.787C20.2827 55.2467 20.4383 55.6481 20.7494 55.9914L29.1507 64.2797C29.236 64.359 29.3126 64.4458 29.3803 64.5412C29.4481 64.6366 29.5058 64.737 29.5522 64.8435C29.5999 64.9501 29.635 65.0604 29.6588 65.1744C29.6826 65.2884 29.6939 65.4024 29.6939 65.5188C29.6939 65.6353 29.6826 65.7505 29.6588 65.8633C29.635 65.9773 29.5999 66.0876 29.5522 66.1941C29.5058 66.3007 29.4481 66.4023 29.3803 66.4965C29.3126 66.5919 29.236 66.6786 29.1507 66.7592C29.0127 66.8868 28.8584 66.9896 28.6866 67.0677C28.5135 67.1445 28.3341 67.1941 28.1459 67.2127C27.9577 67.2325 27.7708 67.2214 27.5864 67.1792C27.402 67.1383 27.2301 67.0689 27.0683 66.9711C26.9127 66.9091 26.781 66.8149 26.6731 66.6873L7.79042 48.1627C7.601 47.988 7.45422 47.7835 7.34759 47.5506C7.24221 47.3164 7.18576 47.0723 7.17949 46.817V33.6404C7.17949 32.9366 7.04149 32.2588 6.76801 31.6083C6.49453 30.9578 6.10564 30.384 5.60007 29.8859C5.02928 29.3159 4.35938 28.9021 3.58912 28.6456V33.6404C3.58912 33.7569 3.57782 33.8721 3.55524 33.9861C3.53266 34.1001 3.49754 34.2104 3.45238 34.3182C3.40721 34.426 3.35202 34.5276 3.28678 34.6243C3.22155 34.7209 3.14753 34.8101 3.06348 34.8931C2.98068 34.9749 2.89036 35.048 2.79126 35.1125C2.6934 35.1781 2.59054 35.2327 2.48139 35.276C2.37225 35.3206 2.2606 35.3553 2.14519 35.3776C2.02852 35.3999 1.91185 35.4111 1.79393 35.4111C1.67726 35.4111 1.55934 35.3999 1.44393 35.3776C1.32851 35.3553 1.21686 35.3206 1.10772 35.276C0.998579 35.2327 0.895711 35.1781 0.79786 35.1125C0.698755 35.048 0.608431 34.9749 0.525634 34.8931C0.441583 34.8101 0.367568 34.7209 0.302334 34.6243C0.2371 34.5276 0.181902 34.426 0.13674 34.3182C0.0915779 34.2104 0.0564525 34.1001 0.0338714 33.9861C0.0112903 33.8721 0 33.7569 0 33.6404V26.5565C0 26.44 0.0112903 26.3248 0.0338714 26.2108C0.0564525 26.0968 0.0915779 25.9865 0.13674 25.8787C0.181902 25.7709 0.2371 25.6693 0.302334 25.5726C0.367568 25.476 0.441583 25.3867 0.525634 25.3037C0.608431 25.2219 0.698755 25.1488 0.79786 25.0832C0.895711 25.0187 0.998579 24.9642 1.10772 24.9196C1.21686 24.875 1.32851 24.8415 1.44393 24.8192C1.55934 24.7969 1.67726 24.7858 1.79393 24.7858C2.08874 24.7845 2.38229 24.7969 2.67584 24.8242C2.96814 24.8527 3.25918 24.8936 3.54772 24.9493C3.83625 25.0051 4.12228 25.0745 4.40328 25.1588C4.68555 25.2418 4.96279 25.3397 5.23501 25.4499C5.50724 25.5602 5.77319 25.6841 6.03288 25.8204C6.29256 25.9567 6.54471 26.1054 6.78934 26.2665C7.03396 26.4276 7.26981 26.5998 7.49813 26.7845C7.72519 26.9678 7.94347 27.1636 8.15172 27.3681C8.35997 27.5738 8.55692 27.7881 8.74384 28.0136C8.92951 28.2379 9.10514 28.4709 9.26822 28.7125C9.43131 28.9541 9.58185 29.2032 9.7211 29.4597C9.85909 29.7149 9.98454 29.9776 10.0962 30.2465C10.2078 30.5142 10.3069 30.788 10.391 31.0656C10.4763 31.3444 10.5466 31.6256 10.603 31.9106C10.6595 32.1956 10.7021 32.4819 10.7297 32.7718C10.7573 33.0605 10.7711 33.3505 10.7699 33.6404V46.0736L17.3033 52.4847Z" fill="#7FE314"/>
<path d="M37.6951 46.0377C37.4793 46.0711 37.2636 46.0711 37.049 46.0377L35.3969 45.3648C34.7546 45.1133 34.1223 44.8382 33.5001 44.5396C32.8791 44.241 32.2694 43.92 31.6723 43.5768C31.0751 43.2336 30.4918 42.868 29.9222 42.4814C29.3527 42.0948 28.7982 41.6884 28.26 41.2597C27.7206 40.8322 27.2 40.3849 26.6944 39.919C26.1901 39.4531 25.7046 38.9686 25.2367 38.4667C24.7688 37.9637 24.3209 37.4445 23.8919 36.9092C23.4641 36.3739 23.0564 35.8237 22.67 35.2575C22.2836 34.6924 21.9198 34.1125 21.5773 33.5202C21.2349 32.9279 20.915 32.3233 20.6189 31.7074C20.3228 31.0916 20.0494 30.4646 19.801 29.8277C19.5526 29.192 19.328 28.5477 19.1286 27.8935C18.9278 27.2405 18.7535 26.5812 18.6042 25.9158C18.4549 25.2492 18.3307 24.5789 18.2316 23.9035C18.1325 23.2282 18.0597 22.5504 18.0133 21.8702C17.9656 21.1899 17.9443 20.5084 17.9493 19.8269V8.84596C17.9481 8.67001 17.9732 8.49901 18.0246 8.33049C18.0748 8.16321 18.1501 8.00585 18.2504 7.86087C18.3495 7.7159 18.4687 7.58827 18.6067 7.47799C18.7447 7.36771 18.8977 7.28097 19.0621 7.21654L37.0127 0.132582C37.2309 0.0433668 37.458 0 37.6951 0C37.931 0 38.158 0.0433668 38.3763 0.132582L56.3269 7.21654C56.4925 7.28097 56.6443 7.36771 56.7823 7.47799C56.9215 7.58827 57.0407 7.7159 57.1398 7.86087C57.2389 8.00585 57.3142 8.16321 57.3656 8.33049C57.4171 8.49901 57.4409 8.67001 57.4396 8.84596V19.8269C57.4422 20.5059 57.4183 21.1849 57.3681 21.864C57.3192 22.5418 57.2439 23.2171 57.1436 23.8899C57.0432 24.5627 56.9165 25.2306 56.766 25.8935C56.6142 26.5565 56.4386 27.2132 56.2378 27.8637C56.0359 28.5142 55.8113 29.1561 55.5617 29.7905C55.312 30.4237 55.0385 31.047 54.7412 31.6603C54.4439 32.2749 54.124 32.8759 53.7815 33.4657C53.439 34.0555 53.0752 34.6329 52.6889 35.1955C52.3025 35.758 51.896 36.307 51.467 36.8398C51.0392 37.3726 50.5926 37.8893 50.1259 38.3887C49.658 38.8893 49.1738 39.3713 48.6695 39.8359C48.1664 40.2994 47.6458 40.7442 47.1089 41.1705C46.5719 41.5967 46.0187 42.0019 45.4504 42.386C44.8834 42.7714 44.3013 43.1357 43.7054 43.4777C43.1095 43.8197 42.5023 44.1393 41.8826 44.4367C41.2629 44.7341 40.6331 45.008 39.9921 45.2583L38.3412 45.9311C38.1254 45.9658 37.9096 45.9658 37.6951 45.9311V46.0377ZM21.5397 10.0504V19.8269C21.5372 20.4192 21.5573 21.0102 21.5999 21.6013C21.6426 22.1923 21.7078 22.7809 21.7944 23.367C21.8822 23.9531 21.9913 24.5355 22.123 25.1142C22.2535 25.6916 22.4066 26.264 22.5822 26.8315C22.7566 27.3978 22.9523 27.9579 23.1693 28.5093C23.3863 29.0619 23.6247 29.6059 23.8831 30.1412C24.1415 30.6752 24.4188 31.2006 24.7173 31.7149C25.0159 32.2291 25.3333 32.7309 25.6695 33.2216C26.0057 33.7135 26.3595 34.1906 26.7321 34.6552C27.1046 35.1199 27.4935 35.5709 27.9 36.0071C28.3065 36.4433 28.7292 36.8633 29.1683 37.2685C29.6061 37.6725 30.059 38.0615 30.5269 38.432C30.9948 38.8038 31.4766 39.1569 31.9708 39.4939C32.4651 39.8297 32.9719 40.147 33.4913 40.4456C34.0094 40.743 34.5388 41.023 35.0782 41.282C35.6189 41.5409 36.1671 41.7813 36.7254 41.9994L37.6951 42.3538L38.6285 41.9994C39.1867 41.7813 39.7362 41.5434 40.2769 41.2845C40.8176 41.0255 41.3482 40.7467 41.8676 40.4481C42.3869 40.1507 42.895 39.8335 43.3905 39.4989C43.8861 39.1631 44.3678 38.81 44.837 38.4382C45.3049 38.0677 45.759 37.6799 46.1993 37.2747C46.6384 36.8708 47.0612 36.4495 47.4689 36.0145C47.8766 35.5784 48.2668 35.1273 48.6406 34.6627C49.0132 34.198 49.3682 33.721 49.7057 33.2303C50.0431 32.7384 50.3605 32.2365 50.6591 31.7211C50.9589 31.2068 51.2374 30.6827 51.4958 30.1474C51.7555 29.6121 51.9939 29.0681 52.2122 28.5155C52.4292 27.9628 52.6261 27.4028 52.8018 26.8365C52.9774 26.269 53.1304 25.6965 53.2622 25.1179C53.3939 24.5392 53.5043 23.9568 53.5921 23.3695C53.6799 22.7834 53.7451 22.1948 53.7878 21.6025C53.8305 21.0115 53.8518 20.4192 53.8493 19.8269V10.0504L37.6951 3.67394L21.5397 10.0504Z" fill="#7FE314"/>
<path d="M34.1048 28.3271C33.8664 28.3296 33.6381 28.285 33.4198 28.1933C33.2003 28.1004 33.0096 27.9678 32.8477 27.7956L29.2586 24.2542C29.1758 24.1724 29.1018 24.0844 29.0366 23.9878C28.9726 23.8924 28.9174 23.792 28.8735 23.6855C28.8283 23.5789 28.7945 23.4686 28.7719 23.3559C28.7493 23.2431 28.738 23.1291 28.738 23.0139C28.738 22.8986 28.7493 22.7846 28.7719 22.6719C28.7945 22.5591 28.8283 22.4501 28.8735 22.3435C28.9174 22.2369 28.9726 22.1353 29.0366 22.0399C29.1018 21.9445 29.1758 21.8553 29.2586 21.7748C29.3402 21.693 29.4305 21.6199 29.5271 21.5567C29.6249 21.4922 29.7266 21.439 29.8344 21.3944C29.9423 21.351 30.054 21.3175 30.1681 21.2952C30.2823 21.2717 30.3977 21.2605 30.5144 21.2605C30.631 21.2605 30.7465 21.2717 30.8619 21.2952C30.976 21.3175 31.0864 21.351 31.1943 21.3944C31.3022 21.439 31.4051 21.4922 31.5017 21.5567C31.5983 21.6199 31.6886 21.693 31.7714 21.7748L34.1048 24.0411L43.6176 14.6908C43.7004 14.609 43.7907 14.5359 43.8873 14.4727C43.9839 14.4083 44.0868 14.3538 44.1947 14.3104C44.3026 14.2658 44.4129 14.2336 44.5284 14.21C44.6425 14.1877 44.7579 14.1766 44.8746 14.1766C44.9913 14.1766 45.1067 14.1877 45.2208 14.21C45.3363 14.2336 45.4467 14.2658 45.5545 14.3104C45.6624 14.3538 45.7653 14.4083 45.8619 14.4727C45.9585 14.5359 46.0488 14.609 46.1316 14.6908C46.2132 14.7713 46.2872 14.8606 46.3524 14.956C46.4164 15.0514 46.4716 15.153 46.5167 15.2596C46.5606 15.3661 46.5945 15.4752 46.6171 15.5879C46.6397 15.7007 46.6522 15.8147 46.6522 15.9299C46.6522 16.0451 46.6397 16.1591 46.6171 16.2719C46.5945 16.3847 46.5606 16.4949 46.5167 16.6015C46.4716 16.7068 46.4164 16.8084 46.3524 16.9038C46.2872 16.9993 46.2132 17.0885 46.1316 17.1703L35.3618 27.7956C35.1987 27.9678 35.0092 28.1004 34.7897 28.1933C34.5714 28.285 34.3431 28.3296 34.1048 28.3271Z" fill="#7FE314"/>
</svg>
