<svg width="90" height="85" viewBox="0 0 90 85" fill="none" xmlns="http://www.w3.org/2000/svg">
<path d="M88.6489 16.745L76.7483 1.14322C75.5823 -0.381074 73.2842 -0.381074 72.1202 1.14322L60.2176 16.745C58.7598 18.6567 60.1251 21.407 62.5332 21.407H66.5141V51.2615L70.1303 49.0545C72.788 47.4287 76.0816 47.4287 78.7393 49.0545L82.3555 51.2615V21.407H86.3364C88.7413 21.407 90.1097 18.6567 88.6489 16.745Z" fill="#7FE314"/>
<path d="M46.9384 14.9716C45.7755 13.4462 43.4763 13.4462 42.3103 14.9716L30.4077 30.5733C28.953 32.4841 30.3152 35.2343 32.7233 35.2343H36.7062V57.3864L40.3203 55.1794C42.977 53.5536 46.2737 53.5536 48.9293 55.1794L52.5455 57.3864V35.2343H56.5285C58.9335 35.2343 60.2988 32.4841 58.841 30.5733L46.9384 14.9716Z" fill="#7FE314"/>
<path d="M17.1284 28.802C15.9645 27.2746 13.6664 27.2746 12.5024 28.802L0.599781 44.4006C-0.857996 46.3124 0.507321 49.0627 2.91229 49.0627H6.89627V63.5194L10.5207 61.3042C13.1671 59.6897 16.4638 59.6897 19.1215 61.3042L22.7346 63.5194V49.0627H26.7185C29.1235 49.0627 30.4888 46.3124 29.0311 44.4006L17.1284 28.802Z" fill="#7FE314"/>
<path d="M81.4278 58.067L75.4477 54.4126C74.8283 54.0374 74.0465 54.0374 73.4208 54.4126L67.4387 58.067C66.8675 58.4186 66.5141 59.0429 66.5141 59.7205V83.0472C66.5141 84.1246 67.3914 85 68.4712 85H80.3984C81.4782 85 82.3524 84.1246 82.3524 83.0472V59.7205C82.3524 59.0429 81.999 58.4186 81.4278 58.067Z" fill="#7FE314"/>
<path d="M51.6168 64.2001L45.6378 60.5457C45.0183 60.1623 44.2365 60.1623 43.6109 60.5457L37.637 64.2001C37.0565 64.5496 36.7062 65.1739 36.7062 65.8453V83.0472C36.7062 84.1246 37.5815 85 38.6602 85H50.5885C51.6682 85 52.5425 84.1246 52.5425 83.0472V65.8453C52.5425 65.1739 52.1891 64.5496 51.6168 64.2001Z" fill="#7FE314"/>
<path d="M21.8069 70.3249L15.8278 66.6705C15.2084 66.2923 14.4255 66.2923 13.8009 66.6705L7.82703 70.3249C7.24967 70.6745 6.89627 71.2988 6.89627 71.9753V83.0472C6.89627 84.1246 7.77052 85 8.85024 85H20.7785C21.8572 85 22.7325 84.1246 22.7325 83.0472V71.9753C22.7325 71.2988 22.3812 70.6745 21.8069 70.3249Z" fill="#7FE314"/>
</svg>
