<svg width="90" height="85" viewBox="0 0 90 85" fill="none" xmlns="http://www.w3.org/2000/svg">
<path d="M34.2503 19.6026H41.1607V36.9628C42.4853 37.9315 43.7139 38.9888 44.9425 40.0542C46.0763 38.9888 47.4008 37.9315 48.7254 36.9628V19.6026H55.6358C56.7685 19.6026 57.8063 18.9283 58.3808 17.8618C58.8522 16.8046 58.7563 15.5518 57.9981 14.6809L47.3049 1.08013C46.1722 -0.360042 43.8098 -0.360042 42.669 1.08013L31.8879 14.6809C31.1297 15.6496 31.0338 16.9024 31.5043 17.8618C32.0797 18.9283 33.1166 19.6026 34.2503 19.6026Z" fill="#7FE314"/>
<path d="M21.0988 38.2157H19.3038V31.1795C19.3038 30.0163 18.6415 28.958 17.5956 28.3805C16.5588 27.9008 15.3291 27.9904 14.4761 28.7635L1.13373 39.5663C0.471464 40.1438 0 41.0147 0 41.9823C0 42.9428 0.375556 43.8126 1.13373 44.3902L14.4761 55.2907C15.0424 55.7715 15.7047 55.9661 16.367 55.9661C16.8374 55.9661 17.2211 55.8683 17.6915 55.6737C18.7374 55.194 19.3997 54.1357 19.3997 52.8747V45.8386H21.1947C32.1676 45.8386 41.1607 54.9984 41.1607 66.2902V81.1355C41.1607 83.2592 42.8598 85 44.9425 85C47.0252 85 48.7253 83.2592 48.7253 81.1355V66.2902C48.7253 50.7602 36.333 38.2157 21.0988 38.2157Z" fill="#7FE314"/>
<path d="M88.7523 39.5663L75.41 28.7635C74.4681 27.9904 73.2314 27.9008 72.2895 28.3805C71.2446 28.8602 70.5823 29.9267 70.5823 31.1795V38.2157H68.7863C61.4054 38.2157 54.7817 41.1114 49.8581 45.8386C51.3744 48.059 52.6111 50.3691 53.649 52.8747C57.248 48.5387 62.7299 45.7408 68.7863 45.7408H70.5823V52.7851C70.5823 53.9412 71.2446 54.9984 72.2895 55.5759C72.665 55.7715 73.1355 55.8683 73.6069 55.8683C74.2692 55.8683 74.9315 55.6737 75.5059 55.194L88.7523 44.3902C89.4146 43.8126 89.8851 42.9428 89.8851 41.9823C89.8851 41.1114 89.5105 40.1438 88.7523 39.5663Z" fill="#7FE314"/>
</svg>
