<svg width="85" height="85" viewBox="0 0 85 85" fill="none" xmlns="http://www.w3.org/2000/svg">
<path d="M5.24486 42.5C5.24486 21.9592 21.9592 5.24486 42.5 5.24486C63.0408 5.24486 79.748 21.9592 79.748 42.5C79.748 63.0408 63.0408 79.7551 42.5 79.7551V85C65.9379 85 85 65.9389 85 42.5C85 19.0621 65.9379 0 42.5 0C19.0621 0 0 19.0621 0 42.5H5.24486Z" fill="#7FE314"/>
<path d="M65.2144 30.592L40.8552 54.9512L27.3096 41.4055L61.4412 25.1965C55.728 19.597 49.3599 16.7901 42.3268 16.7901C28.0269 16.7901 16.4427 28.3815 16.4427 42.6732C16.4427 56.9741 28.0269 68.5573 42.3268 68.5573C56.6185 68.5573 68.2099 56.9741 68.2099 42.6732C68.2099 38.3117 67.1236 34.1992 65.2144 30.592Z" fill="#7FE314"/>
</svg>
